<?xml version="1.0" encoding="UTF-8"?>
<svg viewBox="0 0 252.04489 343.9483" xmlns="http://www.w3.org/2000/svg">
 <defs>
  <filter id="b">
   <feGaussianBlur stdDeviation="5.63618"/>
  </filter>
  <filter id="h">
   <feGaussianBlur stdDeviation="4.62998"/>
  </filter>
  <filter id="g">
   <feGaussianBlur stdDeviation="3.68905"/>
  </filter>
  <filter id="e">
   <feGaussianBlur stdDeviation="3.94909"/>
  </filter>
  <filter id="f">
   <feGaussianBlur stdDeviation="4.43247"/>
  </filter>
  <filter id="d">
   <feGaussianBlur stdDeviation="4.80457"/>
  </filter>
  <filter id="c">
   <feGaussianBlur stdDeviation="3.32913"/>
  </filter>
  <linearGradient id="a" x1="66.004" x2="313.32" y1="113.32" y2="285.88" gradientUnits="userSpaceOnUse">
   <stop stop-opacity="0" offset="0"/>
   <stop stop-opacity=".39823" offset="1"/>
  </linearGradient>
 </defs>
 <g transform="matrix(.2841 0 0 .2841 -2.0723 234.22)">
  <path d="m24.027 13.928h356.74a11.689 9.6886 0 0 1 11.689 9.6886v351.99a11.689 9.6886 0 0 1 -11.689 9.6886h-356.74a11.689 9.6886 0 0 1 -11.689 -9.6886v-351.99a11.689 9.6886 0 0 1 11.689 -9.6886" filter="url(#b)"/>
  <path d="m22.027 11.928h356.74a11.689 9.6886 0 0 1 11.689 9.6886v351.99a11.689 9.6886 0 0 1 -11.689 9.6886h-356.74a11.689 9.6886 0 0 1 -11.689 -9.6886v-351.99a11.689 9.6886 0 0 1 11.689 -9.6886" fill="#00f"/>
  <path d="m22.027 11.928h356.74a11.689 9.6886 0 0 1 11.689 9.6886v351.99a11.689 9.6886 0 0 1 -11.689 9.6886h-356.74a11.689 9.6886 0 0 1 -11.689 -9.6886v-351.99a11.689 9.6886 0 0 1 11.689 -9.6886" fill="url(#a)"/>
  <path d="m151.9 365.42c15.898-2.5382 33.132 2.7491 47.3-0.32306 1.6552-11.406-18.51-7.9552-23.162-20.765-6.7128-17.635-0.52706-37.047 0.11635-55.254 1.0721-18.854 1.4771-37.708 1.8514-56.626 5.2082-17.313 13.837-32.926 30.671-41.011 14.795-8.7945 21.289-24.123 26.312-39.765 3.4678-14.28 11.324-24.989 27.712-22.964 18.599-2.0898 36.744-6.5378 55.8-5.8372 13.986-3.755 35.788 5.0168 44.403-7.7396-4.8295 0.36792-4.8249-6.407-9.5681-7.1153-11.497-1.7168-27.627 1.1941-39.407 2.9265-18.087 1.6254-36.732-8.0605-54.274-1.5905-11.571 4.5035-37.014 5.9777-39.872-7.7037 8.6902-9.0266 26.613-11.354 29.714-37.816 2.6953-17.674-8.8868-26.423-26.143-25.4-18.896 1.927-21.168 28.439-16.939 43.05 9.1581 6.6306-9.1166 20.026-11.786 5.6848-3.6094-14.457-8.8271-33.889-24.629-39.346-17.668-3.4876-20.478 20.043-37.781 21.191-13.16 2.5207-20.123 22.455-1.7031 22.366 15.095 3.5515 6.9981-19.055 23.374-13.836 11.565-6.2849 25.445-1.7053 21.471 13.519-3.3344 18.508 17.144 31.69 10.462 51.081-5.3673 17.464-32.333 16.067-39.886 22.875-9.4906 12.2-30.995 17.405-42.847 10.741-7.4372-8.2556 5.7598-36.417 19.939-44.777 4.9029-9.6462 4.6572-39.329-11.899-34.711 1.461 17.739-15.954 28.977-20.064 45.684-5.7658 16.55-19.302 31.099-17.617 49.592 2.0753 16.162 31.006 10.779 43.536 13.773 16.039-2.8906 23.23 8.8112 27.173 24.155 9.0277 14.882 3.0114 34.62 4.96 51.645 0.98346 25.618 7.4361 40.32 2.2702 65.672 0.16175 3.0355-0.23294 15.654 0.51311 18.622z" fill-rule="evenodd" filter="url(#h)"/>
  <path d="m149.9 363.42c15.898-2.5382 33.132 2.7491 47.3-0.32306 1.6552-11.406-18.51-7.9552-23.162-20.765-6.7128-17.635-0.52706-37.047 0.11635-55.254 1.0721-18.854 1.4771-37.708 1.8514-56.626 5.2082-17.313 13.837-32.926 30.671-41.011 14.795-8.7945 21.289-24.123 26.312-39.765 3.4678-14.28 11.324-24.989 27.712-22.964 18.599-2.0898 36.744-6.5378 55.8-5.8372 13.986-3.755 35.788 5.0168 44.403-7.7396-4.8295 0.36792-4.8249-6.407-9.5681-7.1153-11.497-1.7168-27.627 1.1941-39.407 2.9265-18.087 1.6254-36.732-8.0605-54.274-1.5905-11.571 4.5035-37.014 5.9777-39.872-7.7037 8.6902-9.0266 26.613-11.354 29.714-37.816 2.6953-17.674-8.8868-26.423-26.143-25.4-18.896 1.927-21.168 28.439-16.939 43.05 9.1581 6.6306-9.1166 20.026-11.786 5.6848-3.6094-14.457-8.8271-33.889-24.629-39.346-17.668-3.4876-20.478 20.043-37.781 21.191-13.16 2.5207-20.123 22.455-1.7031 22.366 15.095 3.5515 6.9981-19.055 23.374-13.836 11.565-6.2849 25.445-1.7053 21.471 13.519-3.3344 18.508 17.144 31.69 10.462 51.081-5.3673 17.464-32.333 16.067-39.886 22.875-9.4906 12.2-30.995 17.405-42.847 10.741-7.4372-8.2556 5.7598-36.417 19.939-44.777 4.9029-9.6462 4.6572-39.329-11.899-34.711 1.461 17.739-15.954 28.977-20.064 45.684-5.7658 16.55-19.302 31.099-17.617 49.592 2.0753 16.162 31.006 10.779 43.536 13.773 16.039-2.8906 23.23 8.8112 27.173 24.155 9.0277 14.882 3.0114 34.62 4.96 51.645 0.98346 25.618 7.4361 40.32 2.2702 65.672 0.16175 3.0355-0.23294 15.654 0.51311 18.622z" fill="#fff" fill-rule="evenodd"/>
 </g>
 <g transform="matrix(.2865 0 0 .2865 -2.5549 116.26)">
  <path d="m24.027 13.928h356.74a11.689 9.6886 0 0 1 11.689 9.6886v351.99a11.689 9.6886 0 0 1 -11.689 9.6886h-356.74a11.689 9.6886 0 0 1 -11.689 -9.6886v-351.99a11.689 9.6886 0 0 1 11.689 -9.6886" filter="url(#b)"/>
  <path d="m22.027 11.928h356.74a11.689 9.6886 0 0 1 11.689 9.6886v351.99a11.689 9.6886 0 0 1 -11.689 9.6886h-356.74a11.689 9.6886 0 0 1 -11.689 -9.6886v-351.99a11.689 9.6886 0 0 1 11.689 -9.6886" fill="#f00"/>
  <path d="m22.027 11.928h356.74a11.689 9.6886 0 0 1 11.689 9.6886v351.99a11.689 9.6886 0 0 1 -11.689 9.6886h-356.74a11.689 9.6886 0 0 1 -11.689 -9.6886v-351.99a11.689 9.6886 0 0 1 11.689 -9.6886" fill="url(#a)"/>
  <path d="m184.32 308.92c-16.081 2.1706-30.32 10.358-46.366 12.763-15.22 3.9513-38.575 7.5329-44.804-11.015-16.507-12.349 5.2097-26.496 18.801-27.532 11.083-8.4871 29.898-2.7329 38.229-7.9721 5.644-14.869 11.826-26.054 9.7615-40.576 3.5036-15.238-5.1394-29.017-20.181-11.699-8.5994 9.2833-33.137 19.883-21.991-14.025 0.92909-17.292 2.1563-34.214 11.75-48.625-1.9413-6.839 11.9-19.352 30.12-19.277 19.117-0.41462 25.654-23.623 17.33-38.342-6.2459-14.031-12.423-34.461 1.9508-45.992 12.43-5.1988 41.193-9.8718 42.165 9.635 4.1118 17.244 3.0001 38.494-12.755 49.838-14.001 14 6.4256 28.246 20.664 27.715 16.757-1.3683 24.26 17.501 31.776 29.147 6.2022 17.075 15.361 33.539 17.544 51.734-14.145 13.72-28.172-9.4595-43.976-9.0362-6.6659-2.555-5.764-2.4728-5.2424 7.7168 0.71219 13.913 0.22013 20.934 0.52711 22.782 1.9149 16.433 2.9398 29.238 28.209 28.538 28.406 6.4629 40.537 13.582 44.578 22.289 11.567 17.264-4.6895 28.296-21.687 25.301-18.744 0.52741-54.685-1.2547-76.495 1.1288-22.148 2.4203-15.276-7.8318-11.721-9.8088-1.0813-1.1996 19.355-8.5076 30.365-12.183 10.216-3.4103 11.24-14.181 8.998-13.365-9.2066 3.3538-42.729 19.662-47.551 20.862z" fill-rule="evenodd" filter="url(#g)"/>
  <path d="m184.32 308.92c-16.081 2.1706-30.32 10.358-46.366 12.763-15.22 3.9513-38.575 7.5329-44.804-11.015-16.507-12.349 5.2097-26.496 18.801-27.532 11.083-8.4871 29.898-2.7329 38.229-7.9721 5.644-14.869 11.826-26.054 9.7615-40.576 3.5036-15.238-5.1394-29.017-20.181-11.699-8.5994 9.2833-33.137 19.883-21.991-14.025 0.92909-17.292 2.1563-34.214 11.75-48.625-1.9413-6.839 11.9-19.352 30.12-19.277 19.117-0.41462 25.654-23.623 17.33-38.342-6.2459-14.031-12.423-34.461 1.9508-45.992 12.43-5.1988 41.193-9.8718 42.165 9.635 4.1118 17.244 3.0001 38.494-12.755 49.838-14.001 14 6.4256 28.246 20.664 27.715 16.757-1.3683 24.26 17.501 31.776 29.147 6.2022 17.075 15.361 33.539 17.544 51.734-14.145 13.72-28.172-9.4595-43.976-9.0362-6.6659-2.555-5.764-2.4728-5.2424 7.7168 0.71219 13.913 0.22013 20.934 0.52711 22.782 1.9149 16.433 2.9398 29.238 28.209 28.538 28.406 6.4629 40.537 13.582 44.578 22.289 11.567 17.264-4.6895 28.296-21.687 25.301-18.744 0.52741-54.685-1.2547-76.495 1.1288-22.148 2.4203-15.276-7.8318-11.721-9.8088-1.0813-1.1996 19.355-8.5076 30.365-12.183 10.216-3.4103 11.24-14.181 8.998-13.365-9.2066 3.3538-42.729 19.662-47.551 20.862z" fill="#fff" fill-rule="evenodd"/>
 </g>
 <g transform="matrix(.28863 0 0 .28863 -2.9838 -3.4429)">
  <path d="m24.027 13.928h356.74a11.689 9.6886 0 0 1 11.689 9.6886v351.99a11.689 9.6886 0 0 1 -11.689 9.6886h-356.74a11.689 9.6886 0 0 1 -11.689 -9.6886v-351.99a11.689 9.6886 0 0 1 11.689 -9.6886" filter="url(#b)"/>
  <path d="m22.027 11.928h356.74a11.689 9.6886 0 0 1 11.689 9.6886v351.99a11.689 9.6886 0 0 1 -11.689 9.6886h-356.74a11.689 9.6886 0 0 1 -11.689 -9.6886v-351.99a11.689 9.6886 0 0 1 11.689 -9.6886" fill="#ff8000"/>
  <path d="m22.027 11.928h356.74a11.689 9.6886 0 0 1 11.689 9.6886v351.99a11.689 9.6886 0 0 1 -11.689 9.6886h-356.74a11.689 9.6886 0 0 1 -11.689 -9.6886v-351.99a11.689 9.6886 0 0 1 11.689 -9.6886" fill="url(#a)"/>
  <path d="m161.55 85.146c-3.702-3.1446-2.575 15.156 3.9326 20.787 10.028 9.2749 16.732 21.898 20.787 20.225 13.092 11.819 16.186 8.3723 29.213 19.101 12.882 2.3684 26.677 4.2015 34.276 19.79 12.299 7.5724 9.8197 19.512 24.713 24.03 9.9979 2.6987 6.3558 10.06-1.5509 11.031-9.6623 11.874-19.386 34.68-32.719 20.43-14.033-1.3706-30.239-3.5974-41.394 5.3584-11.187 7.2803-20.774 22.862-35.164 18.337-7.501-10.099-18.558-19.16-22.247-31.805-2.3968-9.2441-0.52814-19.637-8.1196-26.145 7.7497-6.6841 24.208-8.9457 28.635-22.744 13.757-26.441 5.9531-31.75-0.36127-34.575-16.332-10.139-25.072-9.3148-27.946-8.9293-27.496 3.6892-15.463 22.291-14.809 36.581 0.7258 15.87-29.614-19.921-27.159-37.99 1.5004-11.045 40.727-14.788 59.643-2.468 6.7644-13.282-0.98722-14.688-8.2681-21.464-10.332 4.6851-1.7199 2.2502-23.596 0-11.388-2.7479-28.172-6.1398-43.784-9.2697-9.4284-2.2886-17.683 7.4712-14.924 20.247-3.295 17.974 9.2391 24.477 15.098 48.767 7.5345 11.263 8.0788 18.774 12.166 31.67 2.7985 14.286-2.4506 26.767-3.3664 36.124-3.9648 12.054-6.7327 25.737-2.0947 37.967 7.4009 12.34 8.9275 23.388 21.175 27.752 13.722 9.086 29.769 13.224 44.265 20.795 12.932 2.0346 25.156 7.5404 38.412 7.531 14.537 3.7974 29.113-2.0628 43.727-2.4829 12.464-4.1605 21.032-12.614 33.211-17.291 13.872-5.8623 21.924-10.822 35.137-17.242 14.671-12.265 26.78-27.178 38.837-41.878 5.2952-12.693 10.613-25.322 15.414-38.16 5.3561-16.348-11.01-24.104-20.914-33.182-8.9532-12.581-25.739-12.928-37.64-21.348-9.2808-7.7727-20.59-12.059-30.83-18.283-10.829-8.2676-24.225-12.569-36.804-17.561-12.252-5.531-22.943-13.563-35.688-17.686-9.1237-3.6154-19.2-8.1912-29.262-6.0213z" fill-rule="evenodd" filter="url(#e)"/>
  <path d="m159.55 83.146c-3.702-3.1446-2.575 15.156 3.9326 20.787 10.028 9.2749 16.732 21.898 20.787 20.225 13.092 11.819 16.186 8.3723 29.213 19.101 12.882 2.3684 26.677 4.2015 34.276 19.79 12.299 7.5724 9.8197 19.512 24.713 24.03 9.9979 2.6987 6.3558 10.06-1.5509 11.031-9.6623 11.874-19.386 34.68-32.719 20.43-14.033-1.3706-30.239-3.5974-41.394 5.3584-11.187 7.2803-20.774 22.862-35.164 18.337-7.501-10.099-18.558-19.16-22.247-31.805-2.3968-9.2441-0.52814-19.637-8.1196-26.145 7.7497-6.6841 24.208-8.9457 28.635-22.744 13.757-26.441 5.9531-31.75-0.36127-34.575-16.332-10.139-25.072-9.3148-27.946-8.9293-27.496 3.6892-15.463 22.291-14.809 36.581 0.7258 15.87-29.614-19.921-27.159-37.99 1.5004-11.045 40.727-14.788 59.643-2.468 6.7644-13.282-0.98722-14.688-8.2681-21.464-10.332 4.6851-1.7199 2.2502-23.596 0-11.388-2.7479-28.172-6.1398-43.784-9.2697-9.4284-2.2886-17.683 7.4712-14.924 20.247-3.295 17.974 9.2391 24.477 15.098 48.767 7.5345 11.263 8.0788 18.774 12.166 31.67 2.7985 14.286-2.4506 26.767-3.3664 36.124-3.9648 12.054-6.7327 25.737-2.0947 37.967 7.4009 12.34 8.9275 23.388 21.175 27.752 13.722 9.086 29.769 13.224 44.265 20.795 12.932 2.0346 25.156 7.5404 38.412 7.531 14.537 3.7974 29.113-2.0628 43.727-2.4829 12.464-4.1605 21.032-12.614 33.211-17.291 13.872-5.8623 21.924-10.822 35.137-17.242 14.671-12.265 26.78-27.178 38.837-41.878 5.2952-12.693 10.613-25.322 15.414-38.16 5.3561-16.348-11.01-24.104-20.914-33.182-8.9532-12.581-25.739-12.928-37.64-21.348-9.2808-7.7727-20.59-12.059-30.83-18.283-10.829-8.2676-24.225-12.569-36.804-17.561-12.252-5.531-22.943-13.563-35.688-17.686-9.1237-3.6154-19.2-8.1912-29.262-6.0213z" fill="#fff" fill-rule="evenodd"/>
 </g>
 <g transform="matrix(.28863 0 0 .28863 138.77 -3.4429)">
  <path d="m24.027 13.928h356.74a11.689 9.6886 0 0 1 11.689 9.6886v351.99a11.689 9.6886 0 0 1 -11.689 9.6886h-356.74a11.689 9.6886 0 0 1 -11.689 -9.6886v-351.99a11.689 9.6886 0 0 1 11.689 -9.6886" filter="url(#b)"/>
  <path d="m22.027 11.928h356.74a11.689 9.6886 0 0 1 11.689 9.6886v351.99a11.689 9.6886 0 0 1 -11.689 9.6886h-356.74a11.689 9.6886 0 0 1 -11.689 -9.6886v-351.99a11.689 9.6886 0 0 1 11.689 -9.6886" fill="#ff8000"/>
  <path d="m22.027 11.928h356.74a11.689 9.6886 0 0 1 11.689 9.6886v351.99a11.689 9.6886 0 0 1 -11.689 9.6886h-356.74a11.689 9.6886 0 0 1 -11.689 -9.6886v-351.99a11.689 9.6886 0 0 1 11.689 -9.6886" fill="url(#a)"/>
  <path d="m51.832 308.38c-7.5823 2.8738-24.37 2.9912-14.464-7.346 19.864 0.65088 29.101-19.887 26.891-36.968 2.8092-17.166-5.5448-38.44 10.201-51.088 19.196-15.952 44.995-6.6663 68.472-23.97 6.7281-0.05257 9.6656-31.995 22.808-42.964 12.501-13.52 24.093-30.35 43.506-33.86 15.269-5.5838 30.408-11.001 46.528-13.836 27.536-9.7549 55.96-17.016 84.382-23.613 9.6498 0.29666 29.873-6.1355 32.817 2.3022-11.628 5.4425-26.378 5.4004-39.228 7.5726-15.308-1.7001-27.845 8.1264-42.418 10.628-13.991 6.1732-31.506 9.2271-40.949 22.165-2.4679 18.015 6.8917 13.751 27.756 4.0939 21.035-3.1902 31.737 12.319 26.691 28.672-7.7752 19.067-31.789 18.207-44.512 6.1801-9.5752-9.0034-17.437 0.52102-10.102 10.013 4.7589 15.171-0.49189 32.642 9.0993 46.66 7.9537 11.688 8.7246 26.366 16.968 37.567 4.3214 6.9625 21.981 25.009 10.992 29.14-14.709-3.6582-13.781-21.722-23.422-31.223-10.016-11.465-13.738-26.497-21.438-39.527-5.9112-12.438-3.1546-33.761-20.595-36.961-18.317-8.1685-22.059 23.837-13.109 31.803 13.065 11.36 14.126 31.822 30.496 39.361 12.039 13.399 27.353 23.043 39.463 36.387 10.348 11.613 32.103 17.752 29.595 36.857-4.645 16.668-26.579 6.4469-18.944-8.3713-1.2125-16.574-26.186-18.704-35.188-31.645-18.954-13.11-42.2-18.398-60.058-33.228-14.386-5.0292-23.081-21.424-39.088-21.532-11.947 4.0678-24.711 9.445-38.291 8.835-12.575 0.34484-30.691 0.61532-26.484 18.288 2.0189 18.132-16.359 28.685-12.857 46.694 0.94062 14.928-15.161 12.885-25.517 12.914z" fill-rule="evenodd" filter="url(#f)"/>
  <path d="m51.832 308.38c-7.5823 2.8738-24.37 2.9912-14.464-7.346 19.864 0.65088 29.101-19.887 26.891-36.968 2.8092-17.166-5.5448-38.44 10.201-51.088 19.196-15.952 44.995-6.6663 68.472-23.97 6.7281-0.05257 9.6656-31.995 22.808-42.964 12.501-13.52 24.093-30.35 43.506-33.86 15.269-5.5838 30.408-11.001 46.528-13.836 27.536-9.7549 55.96-17.016 84.382-23.613 9.6498 0.29666 29.873-6.1355 32.817 2.3022-11.628 5.4425-26.378 5.4004-39.228 7.5726-15.308-1.7001-27.845 8.1264-42.418 10.628-13.991 6.1732-31.506 9.2271-40.949 22.165-2.4679 18.015 6.8917 13.751 27.756 4.0939 21.035-3.1902 31.737 12.319 26.691 28.672-7.7752 19.067-31.789 18.207-44.512 6.1801-9.5752-9.0034-17.437 0.52102-10.102 10.013 4.7589 15.171-0.49189 32.642 9.0993 46.66 7.9537 11.688 8.7246 26.366 16.968 37.567 4.3214 6.9625 21.981 25.009 10.992 29.14-14.709-3.6582-13.781-21.722-23.422-31.223-10.016-11.465-13.738-26.497-21.438-39.527-5.9112-12.438-3.1546-33.761-20.595-36.961-18.317-8.1685-22.059 23.837-13.109 31.803 13.065 11.36 14.126 31.822 30.496 39.361 12.039 13.399 27.353 23.043 39.463 36.387 10.348 11.613 32.103 17.752 29.595 36.857-4.645 16.668-26.579 6.4469-18.944-8.3713-1.2125-16.574-26.186-18.704-35.188-31.645-18.954-13.11-42.2-18.398-60.058-33.228-14.386-5.0292-23.081-21.424-39.088-21.532-11.947 4.0678-24.711 9.445-38.291 8.835-12.575 0.34484-30.691 0.61532-26.484 18.288 2.0189 18.132-16.359 28.685-12.857 46.694 0.94062 14.928-15.161 12.885-25.517 12.914z" fill="#fff" fill-rule="evenodd"/>
 </g>
 <g transform="matrix(.2865 0 0 .2865 139.2 116.26)">
  <path d="m24.027 13.928h356.74a11.689 9.6886 0 0 1 11.689 9.6886v351.99a11.689 9.6886 0 0 1 -11.689 9.6886h-356.74a11.689 9.6886 0 0 1 -11.689 -9.6886v-351.99a11.689 9.6886 0 0 1 11.689 -9.6886" filter="url(#b)"/>
  <path d="m22.027 11.928h356.74a11.689 9.6886 0 0 1 11.689 9.6886v351.99a11.689 9.6886 0 0 1 -11.689 9.6886h-356.74a11.689 9.6886 0 0 1 -11.689 -9.6886v-351.99a11.689 9.6886 0 0 1 11.689 -9.6886" fill="#ff8081"/>
  <path d="m22.027 11.928h356.74a11.689 9.6886 0 0 1 11.689 9.6886v351.99a11.689 9.6886 0 0 1 -11.689 9.6886h-356.74a11.689 9.6886 0 0 1 -11.689 -9.6886v-351.99a11.689 9.6886 0 0 1 11.689 -9.6886" fill="url(#a)"/>
  <path d="m61.747 338.2c5.6775 15.694 24.99-4.6348 37.468 0.50631 12.869-5.4039-1.1299-27.584 13.165-35.949 8.8238-14.063 13.605-30.002 18.919-45.39 4.4376-6.4378 18.062-0.66849 28.169 1.339 15.016 0.51316 28.79-0.77981 43.702-2.2149 18.392-7.2801 33.805-5.006 47.944 5.2529 13.438 3.9223 25.514 11.384 39.017 15.543 13.559 9.31 28.146 16.433 40.839 27.003 8.519 7.7899 34.2 26.072 12.585 33.387-9.9366 12.159 22.699 9.6352 21.636-3.8668 4.4574-14.474-10.684-21.866-15.921-33.157-11.578-9.743-16.787-26.057-32.244-31.112-11.658-9.7232-22.881-19.017-36.165-25.821-12.781-9.731-18.451-26.643-32.849-34.174-13.382-7.468-25.224-22.062-24.679-37.963 4.2493-14.556 5.6569-33.51 22.35-38.79 14.187-6.8055 31.84 1.7794 45.43-7.2535 13.463-4.5273 27.56-3.5084 41.448-4.1393 13.727-2.2068 25.721 5.9758 38.866 7.1804 7.0664-12.967-16.418-20.969-28.162-17.725-14.298-0.41791-28.307-3.0309-42.575-4.5863-19.674-2.2695-39.416 2.0094-59.197 1.042-12.255 3.8891-34.528-5.9334-19.165-18.935 8.88-11.702 1.042-33.277-11.287-37.584-10.422-1.4556-23.774-10.933-34.438 10.737-0.49448 11.897-5.4755 28.701 9.0979 34.319 12.636 5.1969 10.68 15.646-2.9428 15.007-14.098-12.192-27.167 2.8328-42.532 0-18.611 0.53646-37.048-5.6568-55.65-2.0419-17.899 0.41185-36.017-1.0383-53.742 1.5168-5.4338 14.277 22.86 8.8595 31.923 9.1327 17.824-0.14727 35.888-0.81264 53.244 4.0405 15.625 1.4769 32.297-0.81675 46.288 7.887 18.004 1.726-2.7314 18.46 6.7967 28.073 2.1764 13.862 5.1162 27.638 6.1013 41.633 2.0648 11.449 3.785 20.342-14.076 20.646-13.913-2.0729-26.428 3.9569-39.035 8.5878-19.723 6.4255-15.45 23.74-19.015 37.617-4.1444 15.282-5.3263 31.208-9.5798 46.358-3.7084 15.394-19.263 18.205-31.738 23.893z" fill-rule="evenodd" filter="url(#d)"/>
  <path d="m59.747 336.2c5.6775 15.694 24.99-4.6348 37.468 0.50631 12.869-5.4039-1.1299-27.584 13.165-35.949 8.8238-14.063 13.605-30.002 18.919-45.39 4.4376-6.4378 18.062-0.66849 28.169 1.339 15.016 0.51316 28.79-0.77981 43.702-2.2149 18.392-7.2801 33.805-5.006 47.944 5.2529 13.438 3.9223 25.514 11.384 39.017 15.543 13.559 9.31 28.146 16.433 40.839 27.003 8.519 7.7899 34.2 26.072 12.585 33.387-9.9366 12.159 22.699 9.6352 21.636-3.8668 4.4574-14.474-10.684-21.866-15.921-33.157-11.578-9.743-16.787-26.057-32.244-31.112-11.658-9.7232-22.881-19.017-36.165-25.821-12.781-9.731-18.451-26.643-32.849-34.174-13.382-7.468-25.224-22.062-24.679-37.963 4.2493-14.556 5.6569-33.51 22.35-38.79 14.187-6.8055 31.84 1.7794 45.43-7.2535 13.463-4.5273 27.56-3.5084 41.448-4.1393 13.727-2.2068 25.721 5.9758 38.866 7.1804 7.0664-12.967-16.418-20.969-28.162-17.725-14.298-0.41791-28.307-3.0309-42.575-4.5863-19.674-2.2695-39.416 2.0094-59.197 1.042-12.255 3.8891-34.528-5.9334-19.165-18.935 8.88-11.702 1.042-33.277-11.287-37.584-10.422-1.4556-23.774-10.933-34.438 10.737-0.49448 11.897-5.4755 28.701 9.0979 34.319 12.636 5.1969 10.68 15.646-2.9428 15.007-14.098-12.192-27.167 2.8328-42.532 0-18.611 0.53646-37.048-5.6568-55.65-2.0419-17.899 0.41185-36.017-1.0383-53.742 1.5168-5.4338 14.277 22.86 8.8595 31.923 9.1327 17.824-0.14727 35.888-0.81264 53.244 4.0405 15.625 1.4769 32.297-0.81675 46.288 7.887 18.004 1.726-2.7314 18.46 6.7967 28.073 2.1764 13.862 5.1162 27.638 6.1013 41.633 2.0648 11.449 3.785 20.342-14.076 20.646-13.913-2.0729-26.428 3.9569-39.035 8.5878-19.723 6.4255-15.45 23.74-19.015 37.617-4.1444 15.282-5.3263 31.208-9.5798 46.358-3.7084 15.394-19.263 18.205-31.738 23.893z" fill="#fff" fill-rule="evenodd"/>
 </g>
 <g transform="matrix(.28553 0 0 .28553 139.39 233.93)">
  <path d="m24.027 13.928h356.74a11.689 9.6886 0 0 1 11.689 9.6886v351.99a11.689 9.6886 0 0 1 -11.689 9.6886h-356.74a11.689 9.6886 0 0 1 -11.689 -9.6886v-351.99a11.689 9.6886 0 0 1 11.689 -9.6886" filter="url(#b)"/>
  <path d="m22.027 11.928h356.74a11.689 9.6886 0 0 1 11.689 9.6886v351.99a11.689 9.6886 0 0 1 -11.689 9.6886h-356.74a11.689 9.6886 0 0 1 -11.689 -9.6886v-351.99a11.689 9.6886 0 0 1 11.689 -9.6886" fill="#7f8022"/>
  <path d="m22.027 11.928h356.74a11.689 9.6886 0 0 1 11.689 9.6886v351.99a11.689 9.6886 0 0 1 -11.689 9.6886h-356.74a11.689 9.6886 0 0 1 -11.689 -9.6886v-351.99a11.689 9.6886 0 0 1 11.689 -9.6886" fill="url(#a)"/>
  <path d="m186.81 347.82c-4.2028 17.789 16.094 8.4165 23.342 2.4634 3.09-5.5774-13.774-2.9367-11.696-12.59 1.7118-11.743 6.9756-23.738 11.646-34.937 4.277-10.306 11.647-19.501 10.554-31.451-0.87005-14.959 6.8143-18.341 8.9965-32.583 3.8156-8.8794 5.7851-24.394-0.23803-31.288-5.5105-13.593-7.8973-25.558-6.4167-39.327 4.1896-15.431 12.836-33.884 9.0545-49.523-4.3815-11.048-9.0719-21.962-11.944-33.462-6.4188-10.938-7.2193-23.879-9.4999-36.036 0.23865-5.7356-2.8992-20.738-8.1303-19.322-2.6872 11.115-0.99509 22.997 0.58618 34.209 1.698 11.325 4.4529 19.417 7.1714 30.535 5.2899 7.1757 8.9135 25.166 0.37272 31.54-2.3867 2.6696-1.358 17.977-2.8733 6.7148-1.4553-10.033 11.025-19.828 0.75446-29.474-11.396-11.391-21.906 3.2849-19.964 15.177 3.213 3.7192 13.612 18.729 5.8801 18.721-5.1869-9.0743-8.7234-19.128-7.5949-30 3.0759-9.6415 3.938-19.867 4.0862-30.649-1.6552-11.816 4.3311-23.524 6.8949-35.482-2.2372-15.394-4.5772-12.169-11.741 2.8367-1.6279 14.564-6.5716 30.252-9.275 44.705-1.0836 12.792-0.71817 25.867-3.13 38.462-1.5889 15.667 3.8338 28.364 4.5065 44.095 0.53411 12.489 4.8101 24.47-3.6862 40.465-2.49 14.703-17.046 22.808-30.468 25.704-11.5 2.5933-21.362 11.883-24.438 23.235-1.7291 7.7356-5.1491 21.701 7.8776 17.522 13.952 2.1362 26.242-3.9963 38.407-9.7259 9.2984-1.2902 23.703-12.864 29.867-1.3426 3.726 11.567-0.05429 24.562-2.3196 36.25-4.6404 12.103-2.1428 25.316-4.5526 37.826 0.16841 2.3645-0.12678 5.0307-2.0297 6.7306z" fill="#080006" fill-rule="evenodd" filter="url(#c)"/>
  <path d="m184.81 345.82c-4.2028 17.789 16.094 8.4165 23.342 2.4634 3.09-5.5774-13.774-2.9367-11.696-12.59 1.7118-11.743 6.9756-23.738 11.646-34.937 4.277-10.306 11.647-19.501 10.554-31.451-0.87005-14.959 6.8143-18.341 8.9965-32.583 3.8156-8.8794 5.7851-24.394-0.23803-31.288-5.5105-13.593-7.8973-25.558-6.4167-39.327 4.1896-15.431 12.836-33.884 9.0545-49.523-4.3815-11.048-9.0719-21.962-11.944-33.462-6.4188-10.938-7.2193-23.879-9.4999-36.036 0.23865-5.7356-2.8992-20.738-8.1303-19.322-2.6872 11.115-0.99509 22.997 0.58618 34.209 1.698 11.325 4.4529 19.417 7.1714 30.535 5.2899 7.1757 8.9135 25.166 0.37272 31.54-2.3867 2.6696-1.358 17.977-2.8733 6.7148-1.4553-10.033 11.025-19.828 0.75446-29.474-11.396-11.391-21.906 3.2849-19.964 15.177 3.213 3.7192 13.612 18.729 5.8801 18.721-5.1869-9.0743-8.7234-19.128-7.5949-30 3.0759-9.6415 3.938-19.867 4.0862-30.649-1.6552-11.816 4.3311-23.524 6.8949-35.482-2.2372-15.394-4.5772-12.169-11.741 2.8367-1.6279 14.564-6.5716 30.252-9.275 44.705-1.0836 12.792-0.71817 25.867-3.13 38.462-1.5889 15.667 3.8338 28.364 4.5065 44.095 0.53411 12.489 4.8101 24.47-3.6862 40.465-2.49 14.703-17.046 22.808-30.468 25.704-11.5 2.5933-21.362 11.883-24.438 23.235-1.7291 7.7356-5.1491 21.701 7.8776 17.522 13.952 2.1362 26.242-3.9963 38.407-9.7259 9.2984-1.2902 23.703-12.864 29.867-1.3426 3.726 11.567-0.05429 24.562-2.3196 36.25-4.6404 12.103-2.1428 25.316-4.5526 37.826 0.16841 2.3645-0.12678 5.0307-2.0297 6.7306z" fill="#fff" fill-rule="evenodd"/>
 </g>
</svg>
