<?xml version='1.0' encoding='utf-8'?>
<svg xmlns="http://www.w3.org/2000/svg" version="1.1" width="600px" height="976px" viewBox="0 0 600 976"> <g id="layer1"> <g style="fill:rgb(0,0,0); fill-opacity:1.0; stroke-linejoin: miter"> <path d="M567.8185,-454.0207Q567.8483,-454.0207,567.8782,-454.0207L567.8732,-454.0207Q567.8459,-454.0207,567.8185,-454.0207Q567.7911,-454.0207,567.76373,-454.0207L567.7587,-454.0207Q567.7886,-454.0207,567.8185,-454.0207 Z M454.3384,-379.7592Q455.90692,-379.7592,457.50403,-379.21225L457.504,-379.21225Q455.90692,-379.7592,454.3384,-379.7592Q452.7699,-379.7592,451.22998,-379.21225L451.22995,-379.21225Q452.7699,-379.7592,454.3384,-379.7592 Z M655.17474,-349.28207Q655.17474,-349.28207,655.17474,-349.28207L655.17474,-349.28207Q655.17474,-349.28207,655.17474,-349.28207 Z M654.85266,-349.2382Q654.8501,-349.2382,654.84753,-349.2382Q654.845,-349.2382,654.8424,-349.2382 Z M612.02356,-206.73846Q612.0244,-206.73846,612.02527,-206.73846L612.02185,-206.73846Q612.0227,-206.73846,612.02356,-206.73846 Z M413.79572,-139.16344Q413.7947,-139.16344,413.7937,-139.16344Q413.7927,-139.16344,413.7917,-139.16344 Z M-268.68024,186.69267Q-267.2744,186.69267,-265.89975,187.01254L-265.89975,187.01254Q-267.2744,186.69267,-268.68024,186.69267Q-270.08606,186.69267,-271.523,187.01254Q-270.08606,186.69267,-268.68024,186.69267 Z M-32.95413,191.18822Q-28.107986,191.18822,-23.681702,191.37637Q-28.107986,191.18822,-32.95413,191.18822Q-37.80027,191.18822,-43.06627,191.37637L-43.06635,191.37637Q-37.80031,191.18822,-32.95413,191.18822 Z M77.87754,200.42593Q77.87172,200.42593,77.8659,200.42593Q77.86008,200.42593,77.85425,200.42593 Z M-225.3063,224.05127Q-225.31296,224.05127,-225.31961,224.05127Q-225.32626,224.05127,-225.33292,224.05127 Z M697.5438,270.6656Q697.76636,270.6656,698.0034,270.67892Q697.76636,270.6656,697.5438,270.6656Q697.3212,270.6656,697.1132,270.67892L697.1131,270.67892Q697.3212,270.6656,697.5438,270.6656 Z M-130.52441,271.24887Q-129.83142,271.24887,-129.2332,271.25595L-129.23363,271.25595Q-129.83167,271.24887,-130.52441,271.24887Q-131.21716,271.24887,-132.00461,271.25595L-132.00519,271.25595Q-131.21742,271.24887,-130.52441,271.24887 Z M-121.94922,271.25595Q-119.582054,271.25595,-116.26424,271.4714L-116.264275,271.4714Q-119.58206,271.25595,-121.94922,271.25595Q-124.31637,271.25595,-125.73288,271.4714Q-124.31637,271.25595,-121.94922,271.25595 Z M695.9716,276.64926L695.9716,276.64926Q695.9682,276.64926,695.96484,276.64926Q695.9614,276.64926,695.95795,276.64926 Z M1.8513311,279.14474L1.8513311,279.14474Q-6.8065767,279.57068,-14.007561,279.8928L-14.00759,279.8928Q-6.8066025,279.57068,1.8513126,279.14474 Z M-44.642967,280.8921L-44.642967,280.8921Q-44.654217,280.8921,-44.66544,280.8921Q-44.676662,280.8921,-44.687862,280.8921 Z M538.9888,285.79828L538.9888,285.79828Q539.5479,285.7994,540.10474,285.7994Q540.65594,285.7994,541.20483,285.7983L541.2102,285.7983Q540.6587,285.7994,540.10474,285.7994Q539.5453,285.7994,538.98334,285.79828 Z M-315.3545,288.07724Q-315.36566,288.07724,-315.37686,288.07724Q-315.38803,288.07724,-315.3992,288.07724 Z M-327.52722,288.07724Q-327.90323,288.0777,-328.27765,288.0777Q-328.33167,288.0777,-328.38562,288.0777L-328.27765,288.0777Q-327.90714,288.0777,-327.53503,288.07724 Z M456.57874,290.64963Q457.1787,290.64963,457.53397,290.77133L457.53397,290.77133Q457.1787,290.64963,456.57874,290.64963Q455.97876,290.64963,455.1341,290.77133L455.13406,290.77133Q455.97876,290.64963,456.57874,290.64963 Z M630.93036,303.33908L630.93036,303.33908Q630.9299,303.33908,630.9293,303.33908Q630.92883,303.33908,630.9283,303.33908 Z M636.9441,303.58044Q636.92487,303.58044,636.9057,303.58044Q636.88654,303.58044,636.86743,303.58044 Z M566.9203,-460.2644Q532.0813,-460.2644,498.60324,-441.84128Q490.43265,-436.1668,485.387,-429.11768L467.29538,-399.36652Q463.13986,-393.60147,431.80643,-386.79584Q428.5048,-385.50064,424.6395,-381.12686Q410.72018,-361.23367,398.63614,-322.41672Q391.3292,-297.3429,392.8278,-281.45795L411.70303,-210.1684Q415.7007,-188.42145,405.7878,-143.46393Q405.5743,-136.31015,411.0297,-133.7857Q445.67117,-136.0188,456.20792,-175.03357L456.3265,-200.84995Q439.64957,-285.6568,441.5286,-301.98926Q441.03812,-354.64203,451.8779,-372.67578Q452.6909,-373.53775,453.83218,-373.53775Q458.11896,-373.53775,467.03775,-361.37744Q476.05722,-329.534,486.5651,-317.53833Q490.53867,-310.69785,523.0344,-285.44122Q529.8666,-278.17654,530.48987,-272.74048Q532.02673,-263.3877,523.33594,-249.16629Q473.94815,-190.31256,479.41086,-186.80948Q489.90988,-0.3890686,448.66635,51.49521Q445.18088,54.518097,435.4741,57.876373Q395.6536,67.710724,388.76797,71.000885Q376.2974,75.65793,366.30386,82.39792Q356.73196,84.22543,320.17636,139.26755Q310.88156,149.17068,299.2006,153.75192Q290.14273,157.60886,275.06168,160.66348Q219.87735,168.01675,129.60422,187.68802Q96.53422,193.86331,72.126205,193.86331Q72.10234,193.86331,72.07849,193.86331Q71.46491,194.10858,69.18283,194.10858Q55.62203,194.10858,-16.855011,185.44778Q-24.527924,184.96727,-32.8541,184.96727Q-47.161224,184.96727,-63.397217,186.38608Q-116.930084,190.17844,-223.86232,217.73221Q-231.91246,217.66855,-235.68991,213.29929L-257.14673,184.32492Q-261.9625,180.55066,-268.37854,180.55066Q-271.19815,180.55066,-274.3268,181.27957Q-280.10358,182.90573,-286.51343,188.63132Q-319.4287,225.34494,-331.11197,230.20926Q-343.25516,238.99338,-397.96365,258.00436Q-403.90796,260.52487,-408.70114,264.14005Q-421.52338,276.35257,-402.94086,285.38577Q-381.9886,294.3129,-326.4107,294.3129Q-322.89243,294.3129,-319.2354,294.27713Q-318.1289,294.31332,-316.946,294.31332Q-296.7042,294.31332,-254.08617,283.7136Q-152.50514,277.51837,-130.04597,277.51837Q-125.91526,277.51837,-124.461,277.72794L-102.52063,279.07657Q-59.695385,286.97598,-50.00251,286.97598Q-48.981815,286.97598,-48.32852,286.8884L32.734863,283.66568Q53.311005,293.7145,121.72751,296.0565L307.61172,295.15506Q343.5554,294.18484,353.17905,291.11343Q375.36743,277.5211,411.70694,264.0442L411.71106,264.0442Q385.13007,290.6732,390.0793,291.73447Q395.3846,310.0309,410.27353,312.8411L417.0804,311.77286Q449.1491,297.17764,456.49344,297.17764Q456.82962,297.17764,457.11398,297.20822L510.18997,291.37473Q525.38574,292.06982,539.18414,292.06982Q567.93335,292.06982,590.61633,289.05234Q591.52435,289.01688,592.3963,289.01688Q599.53766,289.01688,604.2589,291.39493Q619.41077,309.4437,630.8912,309.4437Q631.3991,309.4437,631.8999,309.40836Q634.31067,309.7254,637.90466,309.7254Q648.80884,309.7254,670.6045,306.80698Q710.9336,308.43082,745.48804,313.571L780.5165,308.2548Q790.2816,289.1754,785.8785,289.16693L785.8706,289.16693Q785.66376,289.16733,785.4258,289.20956L741.534,279.8936L741.5414,279.8936Q750.7688,280.54605,758.9781,280.54605Q800.4039,280.54605,815.9043,263.93137Q847.55884,219.89798,828.3551,189.11478Q813.05066,171.97128,761.4424,157.11441Q729.98047,148.15872,685.53235,147.69992L633.67053,136.69711L637.6167,115.63559L660.4241,64.52786Q689.14795,-26.210785,696.5155,-32.863556L700.1365,-55.434753Q699.80225,-70.73624,685.942,-96.87659Q624.14795,-208.89395,618.16626,-208.89395Q617.9882,-208.89395,617.8596,-208.79471Q611.72107,-219.58543,611.2511,-227.92134Q607.3629,-232.80724,626.86096,-284.5438Q675.7794,-286.90582,676.93567,-300.05206Q681.51917,-314.10446,672.73303,-332.96967Q675.9276,-340.20758,674.6349,-341.8918Q675.8849,-345.1545,660.2595,-351.8731Q677.07886,-365.0177,674.6537,-370.50507Q674.3799,-373.48932,669.5497,-377.33112Q645.3833,-390.8644,646.00085,-392.63318Q626.1311,-441.02374,597.88574,-456.44116L596.7926,-456.93378Q581.7334,-460.2644,566.9203,-460.2644 Z"/> </g> </g> </svg>