<?xml version="1.0" encoding="UTF-8"?>
<svg enable-background="new 0 0 2665.87 1664.739" version="1.1" viewBox="0 0 2665.87 1664.739" xmlns="http://www.w3.org/2000/svg">
 <path d="m272.43 1449.9c18.145-28.163 60.181-49.714 65.964-52.059 16.999-6.895 32.712-3.682 46.874 6.541 9.282 6.7 20.015 10.043 29.781 15.494 4.006 2.236 13.176-0.544 19.339 7.686 2.339 3.124 5.184 3.321 8.264 2.129 14.481-5.602 29.769-8.496 44.329-14.138 39.473-15.295 33.568-3.614 109.26-27.151 232.72-72.367 130.49-65.695 376.28-57.758 156.52 5.056 241.28-37.762 364.33-59.383 107.13-18.825 179.94-23.381 193.64-51.576 12.276-25.253 32.535-43.031 54.746-58.993 63.295-45.485 70.293-30.672 83.249-50.11 7.111-10.667 18.279-12.284 27.982-4.367 3.636 2.966 6.129 7.976 12.108 6.816 1.704-0.331 3.068 10.405 15.969 0.545 6.369-4.867 22.152 1.336 36.537-5.34 44.48-20.643 48.453 23.739 156.38-80.132 1.463-1.408 1.13-17.871 5.559-23.128 39.06-46.36 56.654-193.48 55.707-198.3-1.192-6.068 5.725-6.587-4.855-34.555-24.82-65.615 6.626-147.12 37.908-210.06 24.968-50.235 50.258-38.036 44.228-64.628-2.029-8.948 0.055-20.443-9.47-35.262-9.05-14.079-24.588 3.924-71.41-6.24-30.481-6.616-54.397-25.512-63.439-35.357-25.422-27.682-28.555-54.337-29.035-55.337-9.884-20.564-1.712-42.306-3.835-67.32-0.849-10.005-3.957-9.396-11.128-18.683-8.292-10.738-13.912 0.827-18.39-0.143-6.432-1.394-8.97 2.969-11.32 7.494-7.273 14.01-11.99 28.64-11.54 44.72 0.828 29.544-2.629 19.637 4.623 79.084 2.086 17.1 6.628 48.365 13.071 63.693 8.12 19.321-0.809 15.768 13.975 50 8.11 18.776 0.462 8.38 18.939 46.439 13.38 27.561 20.641 49.649 36.308 68.964 7.5 9.246 0.896 10.619 7.832 17.314 1.347 1.3 2.863 3.224 1.567 4.927-3.342 4.392-0.862 8.338 0.473 12.327 4.695 14.036 14.619 51.414 20.413 61.022 3.469 5.754 2.355 5.826-2.795 10.753-3.305 3.162-3.598 1.618-5.094-0.531-9.787-14.061-7.262-19.747-12.272-21.531-4.536 0.945-0.304 17.274-5.512 32.184-2.348 6.719 7.457 26.397 10.523 31.173-4.246 5.682-18.345-10.97-22.791-19.274-22.28-41.615 1.697-8.082-31.675-41.491-5.273 7.708 9.565 38.113 3.984 71.667-2.9 17.439-6.94 35.571-17.794 50.61-4.704 6.519-4.271 15.581-11.241 21.146-3-8.018 2.502-15.839 0.305-25.272-5.022 7.15-8.705 13.49-11.784 22.335-1.785-23.615 10.627-29.353 5.099-37.277-5.899-8.456-0.92-19.686-5.13-23.242-2.759 0.391-2.405 3.741-4.034 5.227-2.027 1.849-4.781-0.349-7.132 0.978-0.17 5.457 2.429 11.575-0.438 15.745-2.997 4.361-5.387 18.649-4.923 23.962 0.903 10.34-1.446 20.507-2.609 30.596-0.582 5.05-1.1 13.77-10.186 14.817-3.086-4.297 1.434-10.654-3.164-15.476-3.262 5.399-7.062 10.078-12.768 13.962-2.606-5.489-6.916-10.121-5.326-17.26 0.928-4.169 1.288-8.708-2.13-12.386-2.663-2.866-0.091-6.746-1.729-9.844-2.997-1.671-3.873 2.692-7.037 2.168-3.723-5.264 5.578-17.609-0.61-21.49-2.889-1.812-4.047 2.193-6.047 2.247-13.226-13.958 6.033-18.373 1.685-50.921-1.135-8.496-7.163-8-9.11-31.794-0.217-2.649 1.505-6.389-4.396-5.272-2.047 0.388-2.779-4.521-2.137-6.832 1.994-7.175 0.772-14.159-0.067-21.247-0.355-3 0.805-6.275-2.563-8.415-1.062-0.675-1.217-2.054-0.719-3.362 2.957-7.758-21.675-94.876-17.422-127.95 8.346-64.905 3.448-52.192 9.365-128.4 3.986-51.339-1.956-49.682 2.73-67.724 7.058-27.173 5.163-57.857 10.731-85.738-2.227 0.596-4.453 1.193-6.68 1.789 0.629-0.169 10.894-13.539 12.419-15.024 9.91-9.654 20.577-18.528 30.845-27.82 6.036-5.463 29.961-11.031 32.649-15.394 1.994-3.236-1.377-5-2.241-7.466-2.234-6.375 7.477-10.614-8.392-19.3-3.413-1.868-6.531-3.656-7.401-8.191 5.683 0.9 11.322 1.174 16.862 0.636 1.304-4.572-0.705-8.037-4.185-12.225 9.731 1.552 3.389 6.924 15.932 22.828 3.055 3.874 1.586 9.094 3.923 13.661 14.733-5.513 20.196-18.662 23.233-31.225 6.644-27.481 23.422-49.287 37.38-72.649 6.521-10.914 16.323-19.318 26.752-27.066 16.106-11.966 24.981-30.052 42.048-39.944 27.529-15.957 63.093-23.642 94.761-18.195 8.641 1.486 11.511-18.384 36.14-13.123 6.652 1.421 13.142 2.091 18.49 6.671-0.847 1.266-1.879 1.806-2.554 1.312-6.732-4.93-12.109 1.164-18.087 2.161-3.965 0.661-0.875 5.152-1.263 6.178-2.867 7.595-2.774 7.415 2.258 11.466 12.687 10.212 34.831 4.424 65.919 34.893 24.687 24.195 27.547 20.336 28.748 32.521 1.277 12.963 11.29 20.231 19.297 28.743 1.53 1.626 3.973 1.559 6.157 1.84 42.961 5.523 44.905 2.077 55.542 9.705 27.589 19.785-24.782 35.905 17.956 45.854 22.084 5.142 1.34 22.763 16.982 23.412 3.235 0.134 14.145 7.477 9.404 15.947-3.673 6.562-2.776 13.155 3.573 17.395 18.095 12.084 16.585 38.92-2.47 53.493-21.093 16.131-29.729 18.852-48.576 39.256-16.002 17.323 0.596 27.425-4.451 60.356-0.702 4.583-0.451 9.343-0.343 14.015 2.335 100.78-57.327 114.64 48.489 309.13 15.106 27.766 16.74 55.623 26.669 84.632 10.522 30.753-3.596 67.69-13.855 96.656-7.08 19.991-5.334 26.443 0.451 47.119 10.635 38.007 15.808 79.408 24.284 118.75 15.619 72.493 25.59 83.657 6.105 215.37-10.282 69.501-18.104 127.88-13.911 225.2 0.157 3.652 2.156 4.973 5.388 4.93 9.67-0.127 19.135 2.711 28.859 1.885 15.131-1.286 15.716 7.946 36.991 11.424 2.565 0.419 87.188 13.828 97.873 12.911 7.713-0.661 12.437 4.744 12.546 8.521 0.519 17.955-33.799 5.94-42.779 13.359 104.37 16.336 108.47 4.723 114.51 15.505 3.586 6.411 13.174 1.058 14.339 11.246 0.443 3.875-6.388 10.231-11.332 10.985-1.838 0.28-3.734 0.233-5.603 0.237-16.01 0.037-6.717 3.981-19.862 3.557-17.107-0.551-34.266 1.302-51.341-1.496-4.841-0.793-9.974-0.764-14.504 2.189-6.246 4.072-80.904 0.166-92.082-1.899-6.045-1.117-12.443-0.615-18.667-0.422-28.052 0.869-55.978-3.03-84.048-2.077-7.065 0.24-14.098-2.037-21.329-1.922-17.528 0.278-9.031-38.432-34.215-35.473-8.689 1.021-17.206-2.551-26-1.95-5.372 0.367-7.505-8.052-7.378-9.434 1.541-16.737-14.258-32.57-13.659-44.876 2.033-41.855-28.502-117.4-15.44-274.74 0.083-1 4.888-50.359 4.176-58.552-4.253-48.936 0.843-51.515-5.489-53.477-3.735-1.157-8.031 4.739-9.743 7.503-17.285 27.889-38.373 52.987-57.88 79.251-45.556 61.337-8.573 18.958-77.653 101.63-10.443 12.497-23.82 21.516-38.452 29.086-3.673 1.901-77.08 42.036-77.08 42.036-3.616 1.985-6.722 4.329-7.08 9.12-0.387 5.171-3.764 7.832-8.779 7.828-12.46-9e-3 0.978 19.516-21.77 20.671-8.342 0.423-16.64-2.494-23.918 6.76-3.22 4.095-7.288 5.721-12.229 2.32-3.587-2.47-6.608-0.337-9.335 1.772-28.325 21.899-88.434 49.755-128.49 40.067-28.722-6.946-45.714 12.465-116.11 26.238-13.603 2.662-56.162 14.312-145.58 20.754-226.97 16.35-170.82-9.537-348.31-6.011-24.172 0.48-82.653-5.96-83.654-5.997-3.236-0.12-11.467-4.834-15.957-4.989-9.064-0.312-17.884-2.901-26.668-3.494-126.29-8.528-30.536-3.299-219.94 24.061-73.876 10.672-183.54 10.558-260.07 28.273-15.95 3.692-113.65 19.971-114.66 20.178-80.799 16.659 63.222 4.481-311.56 8.652-36.405 0.405-33.565-21.795-25.301-32.165 20.617-25.87 138.35-55.703 169.17-72.55 21.265-11.62 33.349-26.773 46.253-46.802z"/>
</svg>
