<?xml version='1.0' encoding='utf-8'?>
<svg xmlns="http://www.w3.org/2000/svg" width="102.5361mm" height="47.288891mm" viewBox="0 0 102.5361 47.288891" version="1.1" id="svg4428"> <defs id="defs4422"/> <metadata id="metadata4425"> </metadata> <g id="layer1" transform="translate(-42.470066,-51.105554)"> <path id="path4411" d="m 50.276957,54.34122 c 0.724219,0.28466 1.436311,0.62995 2.220609,0.61421 1.873893,0.0613 3.717005,-0.0928 5.527902,-0.47247 1.041571,-0.33607 2.144233,-0.39964 2.834823,-0.28348 2.07473,-0.81255 4.26254,-1.43124 6.04762,-2.74033 1.73164,-0.50866 3.91853,-0.20463 5.5279,1.55915 0.37204,0.48642 0.81534,0.6165 1.27567,0.66146 1.97057,0.0344 3.59692,0.63363 5.19717,1.27567 2.58295,2.56687 6.52967,2.67346 9.44941,4.29948 0.34258,0.34648 0.43544,0.40898 0.95255,0.75546 0.2493,0.0394 0.66324,0.0111 1.20411,0.33979 0.45925,0.27632 0.67228,0.76096 1.10338,1.03084 1.63242,1.03624 3.65527,1.55191 5.5279,2.26785 5.444909,2.4926 10.367699,5.50731 13.512649,10.29986 0.86554,1.88381 4.51967,3.63739 5.95313,6.18936 4.93109,2.77929 8.92814,5.61669 12.99293,8.78794 1.80524,0.90046 4.0117,1.00722 5.76414,1.7009 2.60246,1.30191 5.06466,2.69399 7.04792,4.39397 1.28669,1.33631 2.47917,0.58316 2.45684,1.65365 -0.033,0.38243 -0.38353,0.58338 -0.95305,0.51971 -0.59429,0.11794 -0.67496,-0.027 -0.99219,-0.14174 -0.90053,0.0307 -1.73959,-0.0922 -2.55134,-0.28348 -1.93535,-0.0776 -3.84331,-0.21921 -5.90588,0 -1.01814,0.0525 -4.35143,0.38805 -4.48846,-0.42522 -0.007,-1.3175 -0.84081,-2.44059 -2.36235,-3.40179 -3.68546,-1.10271 -8.90926,-2.56901 -11.05581,-3.68527 -2.84105,-1.49197 -4.92866,-3.99944 -8.36272,-6.3311 -1.92981,-1.35338 -6.65633,-3.03782 -9.757259,-5.29362 -1.65596,-1.20464 -3.43188,-1.50552 -4.18061,-1.65169 -5.87244,0.0731 -9.96356,-1.37676 -11.1503,-5.64602 l -1.7009,-2.24423 c -1.25518,-1.81857 -5.01858,-2.30466 -10.29985,-1.98438 -2.44212,-0.69124 -5.38492,-1.10627 -7.55952,-0.47247 0.15903,2.82791 0.3996,5.6232 -0.0472,8.69345 0.72842,2.59203 0.16526,5.04055 -0.18899,7.51228 -0.25966,2.95597 -0.66809,6.0012 -0.33073,8.59896 l 0.37798,2.4096 c 0.9819,0.55588 1.41373,1.23825 2.92899,1.39203 0.22516,0.10729 0.38991,0.4956 2e-5,0.5763 -0.88515,0.0647 -1.73437,0.11055 -2.63929,-0.55124 -0.45165,-0.1579 -1.01697,-0.17371 -1.72055,-0.0167 0.0745,0.38343 0.25305,0.75646 0.0334,1.16931 l 0.66818,0.85192 c 0.37886,0.41944 0.95827,0.61326 1.58691,0.75169 1.3571,-0.0278 1.51245,0.84824 1.01896,0.80181 -0.90647,0.0976 -1.86643,-0.0197 -2.63928,-0.23386 -0.9395,0.22168 -1.96739,0.17823 -3.04019,0 -1.375327,0.0281 -2.750652,0.26545 -4.125976,0.0167 -0.684313,0.0752 -1.346564,0.26073 -2.071339,0.13364 l -0.53454,0.48442 c -0.529777,0.0778 -0.732557,0.0599 -0.851921,-0.31738 -0.693009,0.0254 -0.873375,0.081 -2.23838,0.0668 -0.09575,-0.47911 0.328955,-0.56699 0.952145,-0.63476 1.085783,-0.37481 1.302438,-0.89105 3.257349,-1.10249 l 2.288495,-0.11693 c 0.07349,-0.56517 0.538345,-0.80421 0.851921,-1.16931 -0.542532,0.0233 -1.027931,-0.003 -1.269529,-0.26726 -0.729424,0.24128 -1.442143,0.33757 -2.171567,0.36749 -0.341768,-0.12006 -0.221271,-0.40494 -0.133634,-0.56794 0.272673,0.005 0.50621,-0.0283 0.734992,-0.0668 0.778306,-0.35163 1.129015,-0.34692 1.670433,-0.50113 0.718556,0.0731 1.369487,-0.0341 1.954409,-0.31739 0.269638,-0.5401 0.532999,-1.08021 0.584652,-1.62032 0.132759,-2.11115 -0.0327,-3.87438 -0.434314,-5.36209 l -0.167041,1.00226 c 0.117442,-0.51775 -0.119749,-0.60917 -0.217157,-0.86863 -0.200417,0.66818 -0.05365,1.33635 0.23386,2.00452 -0.4039,-0.74379 -0.716328,-1.51253 -0.634765,-2.38872 l -1.186008,4.17609 c 0.367622,-1.94323 0.825057,-3.85953 0.7684,-5.93004 -0.133095,1.34395 -0.291782,2.67937 -0.818512,3.89211 0.319693,-1.59591 0.274392,-3.28118 0.250563,-4.96119 -0.174111,1.02453 -0.188238,2.04906 -0.601356,3.0736 l 0.08352,-3.19053 c 0.06885,2.40989 -0.05461,4.73385 -0.384198,6.96571 0.03679,-2.27416 -0.216478,-4.53546 -0.417608,-6.76526 -0.113872,1.40316 -0.333478,2.80633 -0.200454,4.20949 -0.451717,-1.16164 -0.250706,-2.62533 -0.150339,-4.04245 -0.204886,0.95449 -0.08512,1.94144 -0.684879,2.85645 l 0.08352,-2.00452 c -0.104889,1.09573 -0.267329,2.20224 -0.601358,3.34086 0.27093,-0.75441 0.13897,-1.53981 -0.167042,-2.3386 -0.201898,1.03979 -0.753352,1.73002 -1.202714,2.52235 0.380942,-1.17267 0.832982,-2.30091 0.751681,-3.50791 -0.515698,0.51052 -1.098244,0.55311 -1.653731,0.7851 0.713501,-0.4995 1.420113,-1.01376 2.021226,-1.75395 0.688455,-0.66368 0.481705,-1.75414 0.634765,-2.70611 -2.125878,-2.805 -3.108573,-6.28877 -1.220305,-11.47717 -0.487405,-0.33072 -0.591992,-0.66145 -0.578776,-0.99218 -1.366103,0.55949 -2.950015,1.04893 -4.807384,0.33073 -2.79218,-1.32235 -5.240004,-3.23028 -4.384993,-6.06912 -0.233284,-1.37884 0.04925,-2.93645 1.186008,-4.6271 0.147936,-1.04336 0.03452,-2.11576 0.05011,-3.17383 0.558384,-0.19318 0.927904,-0.043 1.319644,0.0668 0.250013,-0.14937 0.282562,-0.35673 0.300678,-0.56794 0.125428,-0.17425 0.276821,-0.10401 0.417608,-0.13364 -0.03483,-0.13812 -0.08515,-0.27797 0.01669,-0.4009 0.253494,0.0484 0.442401,-0.0808 0.634764,-0.20046 0.54147,-0.49485 0.947646,-1.40021 1.346481,-1.39792 0.47766,-0.0133 1.673684,0.88454 2.231322,1.99927 z" style="fill:#000000;stroke:#000000;stroke-width:0.26458332px;stroke-linecap:butt;stroke-linejoin:miter;stroke-opacity:1"/> </g> </svg>