<?xml version='1.0' encoding='utf-8'?>
<svg xmlns="http://www.w3.org/2000/svg" width="179.23683mm" height="88.119141mm" viewBox="0 0 179.23683 88.119141" version="1.1" id="svg845"> <defs id="defs839"/> <metadata id="metadata842"> </metadata> <g id="layer1" transform="translate(-16.214916,-21.996983)"> <path style="fill:#000000;stroke:none;stroke-width:0.26499999;stroke-linecap:round;stroke-linejoin:round;stroke-miterlimit:4;stroke-dasharray:none;stroke-opacity:1" d="m 61.886832,21.997911 c -1.317146,0.0149 -2.339099,0.18949 -2.816884,0.37466 -1.911133,0.74067 -1.606102,1.55908 -1.606102,1.55908 -4.782405,2.42772 -3.915228,6.5605 -5.008481,7.46517 -1.07841,1.08895 -2.356831,2.027431 -3.685045,2.929021 0.03255,1.06948 1.582973,1.27532 1.774052,2.12545 -0.09583,0.4426 -0.32826,0.71389 -0.600998,0.93535 0.02151,0.38484 0.043,0.76985 0.434083,1.00252 -0.367495,0.10022 -0.578905,0.31164 -0.634587,0.63459 -0.133636,1.16931 -0.01773,2.4217 -0.401008,3.50779 0.996461,2.37058 4.120298,0.40107 6.1805,0.60152 2.132597,0.22892 1.386798,4.505807 2.672705,6.715347 -0.35088,0.48945 -0.691079,1.04126 -1.102257,1.16892 0.555426,0.0787 0.92738,-0.48334 1.369425,-0.8015 -0.637918,0.98698 -1.41211,1.47306 -2.238105,1.77043 0.832847,-0.38811 1.807014,-0.2104 2.472198,-1.26917 -0.364334,0.58953 -0.671201,1.32844 -1.336353,1.13585 0.702898,0.27645 1.025179,-0.49384 1.503268,-0.83561 -0.730515,1.35196 -2.377416,1.78727 -3.674711,2.57245 1.292384,-0.72281 2.891436,-0.89314 3.875217,-2.17144 -0.12364,0.53944 -0.34109,0.95846 -0.902271,0.93534 0.776126,0.25272 0.774581,-0.27246 1.102775,-0.46767 -0.606298,0.56954 -0.997222,1.41623 -2.004528,1.4702 0.925163,0.0431 1.58487,-0.62092 2.338358,-1.0356 -0.445614,0.40814 -0.683638,1.05822 -1.469678,1.06918 0.658336,0.15256 1.203481,-0.37425 1.804024,-0.56843 -0.935016,0.79551 -1.798738,1.65569 -3.34088,1.90479 1.516443,-0.20315 2.689876,-0.92078 3.975468,-1.4702 -0.496959,0.35357 -0.835997,1.02266 -1.503268,1.0356 0.322951,0.201 0.64598,-0.0505 0.968936,-0.13384 l -0.635106,1.83761 c -1.699485,4.49809 -3.91927,8.93133 -6.32778,13.34079 -1.019866,2.51717 0.03401,3.58226 0.708483,4.91339 -0.723956,1.18117 -1.465511,2.36229 -2.92902,3.54346 -2.9059,2.67411 -4.933526,7.24843 -6.897769,11.20448 -1.95971,3.94694 -3.825768,7.44517 -4.110859,8.02535 -0.337609,0.62355 -1.316858,3.003511 -3.543454,3.543451 -4.248316,0.23106 -6.875478,1.65904 -13.229166,1.98437 -0.250368,-0.0141 -0.490667,0.002 -0.770496,-0.10025 -0.09338,0.0298 -0.210802,0.0235 -0.183967,0.23357 -0.367827,-0.0159 -0.709944,-0.0957 -1.135849,0.0336 -0.335655,0.33964 -0.257296,0.96289 0.183968,1.01907 0.506158,0.20584 1.016158,0.37208 1.553395,0.26715 0.690446,0.0559 1.380744,0.18377 2.07119,0.0336 0.874194,0.19928 1.748385,0.14406 2.622579,0.13332 1.108071,-0.0222 2.208916,-0.0618 3.224093,-0.30075 0.02752,0.44214 0.133631,0.83071 0.751892,0.86868 l 1.982826,-0.0491 c 0.551458,-0.0665 0.675071,-0.32337 0.973582,-0.50228 0.816866,-0.23995 1.263451,0.0292 1.854152,0.10025 l -0.205155,0.36586 -1.228868,0.47234 c -2.02519,0.0129 -3.754743,-0.0332 -6.354649,0.0946 -0.54334,0.12451 -1.086535,0.27424 -1.629875,0.70847 -3.013488,0.81706 -5.84703,0.78518 -8.976712,1.39372 -0.653195,-0.0909 -1.158195,0.06 -1.559597,0.37828 -0.09927,0.25567 0.110209,0.44262 0.283705,0.63767 -0.01574,0.45672 0.415732,0.46622 0.685228,0.6377 0.09326,0.12253 0.05637,0.29377 0.377756,0.33073 l 2.268077,-0.0233 c -0.07145,0.41106 0.181812,0.66255 0.661459,0.80307 1.462616,-0.028 2.89697,0.1539 4.417303,-0.30697 0.905568,0.37584 1.811062,0.11649 2.716627,0.0946 2.630085,0.4187 5.260391,0.14766 7.890477,0.1416 0.92716,0.18175 1.804923,0.0911 2.669603,-0.0708 0.39792,-0.0352 0.392311,-0.47427 0.566891,-0.73276 1.102423,-0.74809 2.144022,-1.6981 2.69286,-3.07063 2.322779,-2.27144 4.574505,-4.48952 7.236766,-7.015591 4.451858,-3.67458 3.329533,-4.64392 8.452197,-10.3234 1.299757,-1.41717 2.35967,-2.88227 2.772957,-4.47673 1.353193,2.76408 3.483915,3.86125 5.421374,5.37332 5.95454,2.21606 11.648916,10.08697 17.197916,10.583331 6.377551,1.39513 12.35428,3.16054 17.576191,5.62241 1.70254,1.01787 3.53899,2.08534 5.38624,2.07893 l 18.56785,0.0946 c 2.24477,-0.0514 4.50285,-0.0116 6.66212,-0.66145 2.23024,0.19801 4.45477,0.40936 6.94532,0 0.55562,-0.11253 0.66298,-0.43892 0.85007,-0.80304 3.8307,-0.35343 6.12107,-1.09225 11.57552,-1.03973 6.00037,0.0543 12.00112,-0.23718 18.00149,0.37827 2.73118,0.54052 4.68732,1.60727 8.12612,1.88979 2.88152,0.13901 5.75786,0.25122 8.55193,-0.047 2.82951,-1.19578 4.5774,-0.87765 6.56704,-0.89762 1.04995,0.66931 2.17861,0.88669 3.76049,0.75811 0.36166,-0.53359 0.52195,-0.99193 -0.0279,-1.51414 0.25091,-0.58218 -0.0158,-0.90553 -0.18862,-1.2759 0.36294,-0.34639 0.14901,-0.74509 0.047,-1.13376 -0.22337,-0.37825 -0.32696,-0.7847 -1.2759,-0.99219 -2.30342,-0.29131 -4.55512,-0.19849 -6.94531,-1.13379 -2.91138,-0.74457 -4.4171,-3.464881 -7.32306,-5.055501 -1.15978,-0.53609 -2.01795,-0.38716 -3.11816,-0.14211 -0.84545,-0.73843 -1.9869,-1.09623 -3.0241,-0.85008 -1.7866,0.45159 -2.40326,2.91424 -5.24413,2.31511 -5.59124,-2.41841 -10.83346,-3.87644 -15.92254,-4.91392 -4.34673,-0.75712 -8.59896,0.81888 -12.89844,1.22835 -2.88331,-0.10751 -5.76468,-0.67385 -8.64598,-1.32291 -7.20235,-3.30086 -11.57359,-3.38393 -17.0093,-4.67724 -2.48627,-0.91168 -4.44134,-2.04473 -5.85856,-3.40186 -6.73984,-6.08466 -14.487677,-2.29099 -20.930498,-2.88199 -1.52182,-0.47656 -2.783589,-0.43396 -5.054989,-2.40968 -0.175538,-2.37527 -1.459667,-4.33503 -2.268077,-6.47298 l -1.417484,-7.37062 -0.661458,-7.98453 c 0.306284,-0.45061 0.279191,-0.81804 0.236159,-1.18132 0.489254,0.40405 0.551204,0.87939 0.803568,1.32291 -0.180594,-1.23325 -0.463751,-2.4457 -1.086754,-3.59047 0.204356,0.32343 0.462674,0.56609 0.756025,0.75602 2.2e-4,-0.23239 -0.272203,-0.39768 0.04703,-0.709 0.363252,1.33845 1.626076,2.46372 2.551266,3.68556 -0.437221,-1.03261 -0.922906,-1.75732 -1.275376,-3.11867 0.229261,0.55535 0.958635,0.673 1.511535,0.94516 -1.533009,-1.16442 -2.504033,-2.49554 -2.834452,-4.01629 -0.140581,-3.63144 8.43852,-5.908009 3.59048,-16.867189 1.015979,0.85237 1.391328,1.8651 1.937348,2.83497 -0.29569,-1.06258 -0.280445,-2.15985 -1.086755,-3.16569 0.708279,-0.10131 1.139995,0.48805 1.606103,0.99218 -0.54289,-1.46451 -1.521957,-2.67616 -3.259748,-3.44888 0.629039,-0.27509 1.34489,0.14605 2.031399,0.33073 -1.548498,-0.870649 -2.990501,-1.781319 -6.803202,-1.795239 -0.193609,-0.5127 -0.578504,-0.60481 -1.086755,-0.4253 -2.545432,-6.86853 -9.154224,-8.26231 -13.105659,-8.21758 z m 13.714407,11.680431 c 3.54578,4.14801 -2.220968,9.92956 -6.782014,10.55697 l -0.01601,-0.79064 c 6.610011,-1.76888 5.915956,-6.10209 5.763987,-9.685721 0.106127,0.219101 0.7135,0.294611 1.034045,-0.0806 z" id="path834"/> </g> </svg>