<?xml version='1.0' encoding='utf-8'?>
<svg xmlns="http://www.w3.org/2000/svg" version="1.1" width="600px" height="976px" viewBox="0 0 600 976"> <g id="layer1"> <g> <g style="fill:rgb(0,0,0); fill-opacity:1.0; stroke-linejoin: miter"> <path d="M304.32605,360.56476C302.20718,360.77075,301.25073,361.18274,299.485,362.62476C297.92523,363.9049,297.79282,364.09625,296.4538,366.75958C295.23248,369.1875,295.1442,369.26105,292.96643,369.34937C291.4067,369.4082,291.20068,369.45233,290.6857,369.80548C290.36197,370.02625,290.00882,370.20276,289.8764,370.20276C289.75867,370.20276,289.56738,370.29102,289.4791,370.4088C289.3908,370.5265,289.02295,370.68835,288.6845,370.7766C288.33136,370.85022,287.88995,371.0562,287.68393,371.21808C286.50677,372.17456,284.75574,373.852,284.75574,374.0138C284.75574,374.0874,284.60858,374.2787,284.432,374.42584C284.24072,374.573,284.0053,374.8379,283.917,374.985C282.5191,377.2069,282.03354,378.48706,281.8128,380.4441C281.72455,381.1651,281.56268,382.12158,281.44495,382.563C281.0918,383.88733,280.59152,386.3888,280.22366,388.66956C280.00293,389.96442,279.4732,392.7013,279.29663,393.37817C279.20837,393.7019,279.0465,394.43762,278.94348,395.02618C278.82578,395.61475,278.6345,396.46826,278.51678,396.9391C278.39905,397.40997,278.22247,398.32227,278.1342,398.96973C278.0459,399.61713,277.86932,400.47058,277.76633,400.88257C277.64862,401.2799,277.51617,402.00085,277.45734,402.47174C277.39847,403.1192,277.29547,403.36932,277.06003,403.51648C276.6333,403.79608,273.42554,404.0462,270.49734,404.0462C269.1142,404.0462,267.7016,404.13452,266.95114,404.2669C266.25955,404.38464,265.39142,404.48767,265.00882,404.48767C264.62625,404.48767,264.14066,404.56122,263.90524,404.64954C263.6845,404.7378,262.90466,404.92908,262.1689,405.07623C261.4479,405.2234,260.55032,405.4441,260.18246,405.57654C259.81458,405.6942,259.226,405.90027,258.85815,406.01794C257.81342,406.35638,256.76868,406.72424,256.12125,407.01855C255.79752,407.1657,255.40024,407.28345,255.23837,407.28345C255.0765,407.28345,254.67923,407.41583,254.37021,407.5777C254.0465,407.75427,253.48734,407.96027,253.11948,408.04858C252.75162,408.13684,252.2219,408.32813,251.94232,408.46057C251.66273,408.60773,251.10358,408.7696,250.7063,408.82843C250.30899,408.87256,249.83813,409.0197,249.67627,409.12274C249.13184,409.4906,245.73279,409.65247,238.7875,409.66718C231.8864,409.6819,227.72218,409.4906,226.83931,409.12274C226.58917,409.0197,225.69159,408.88733,224.85284,408.84314C224.01413,408.7843,223.14597,408.7107,222.92525,408.66656C222.26309,408.53418,216.74515,408.90198,216.11241,409.10803C215.7887,409.2257,214.89111,409.38757,214.12595,409.4906C213.3608,409.57886,212.53677,409.74072,212.28664,409.85846C212.05121,409.96143,211.25662,410.16748,210.52089,410.28516C209.79988,410.4176,208.93172,410.6236,208.608,410.74133C208.28427,410.859,207.75455,410.96204,207.43083,410.96204C207.10712,410.96204,206.5774,411.07977,206.25368,411.1975C205.92996,411.3299,205.03236,411.52118,204.26721,411.63892C203.50206,411.7566,202.6339,411.94794,202.35432,412.0656C202.07474,412.18335,201.36844,412.3452,200.79459,412.43347C200.22072,412.50708,199.32312,412.68365,198.80812,412.81604C198.2931,412.9485,197.04237,413.11035,196.04178,413.18396C195.0412,413.2428,194.01117,413.37524,193.76103,413.4635C193.51088,413.55182,192.319,413.6842,191.0977,413.77252C188.15479,413.9491,186.35962,414.14038,185.65332,414.33167C185.3296,414.40527,184.432,414.52295,183.66685,414.56714C182.9017,414.62598,181.37138,414.78784,180.28252,414.93494C178.29605,415.21454,176.6333,415.30286,169.87933,415.44995C167.9223,415.49414,165.93584,415.5971,165.46497,415.67072C164.36139,415.862,162.68393,415.862,162.02177,415.67072C161.7422,415.5971,160.4179,415.46472,159.07886,415.3911C157.72513,415.31757,156.31253,415.141,155.85638,415.00854C155.41495,414.8908,154.17892,414.74365,153.11948,414.6848L151.20659,414.59656L150.66216,415.0821C150.05885,415.5971,150.0,415.93555,150.35315,416.4947C150.67686,416.96558,151.19188,417.23047,152.10417,417.36285C152.51617,417.43646,152.98705,417.56885,153.14891,417.68658C153.32549,417.7896,154.28192,417.9809,155.28252,418.08386C157.00412,418.27515,157.87227,418.4959,158.78458,418.96674C158.99057,419.08447,159.78516,419.21692,160.5356,419.27576C161.28604,419.3346,162.11006,419.43762,162.37492,419.51117C162.62506,419.58478,163.05179,419.64362,163.31665,419.64362C163.5668,419.64362,163.81694,419.7025,163.87581,419.77606C163.91995,419.8496,164.17009,419.96735,164.43495,420.02618C164.6851,420.0703,165.14125,420.27637,165.42084,420.46765C165.70041,420.65894,166.00941,420.8208,166.0977,420.8208C166.17126,420.8208,166.392,420.9679,166.55385,421.14453C166.71571,421.33582,167.05414,421.60065,167.319,421.7331C167.56915,421.86554,167.77516,422.08624,167.77516,422.20398C167.77516,422.4688,166.37727,423.26343,165.67097,423.3958C165.3767,423.4547,165.03825,423.63123,164.89111,423.77844C164.75868,423.92554,164.55267,424.05798,164.46439,424.05798C164.36139,424.05798,164.03766,424.24927,163.72865,424.4994C163.41965,424.73486,163.09593,424.94086,162.99294,424.94086C162.80164,424.94086,162.19835,425.55884,161.85991,426.11804C161.68333,426.39758,161.66862,426.57416,161.80106,426.85376C161.97763,427.28046,162.16891,427.4129,163.03708,427.76605C163.59622,428.00146,163.69923,428.00146,163.99352,427.81018C164.17009,427.6925,164.6851,427.53064,165.12654,427.4276C165.56798,427.33936,166.08298,427.1333,166.27428,426.9862C166.46556,426.83905,166.804,426.6772,167.03943,426.63306C167.28958,426.57416,167.48087,426.4712,167.48087,426.39758C167.48087,426.30933,167.7163,426.14746,168.01059,426.02972C168.30489,425.89728,168.71689,425.67657,168.9376,425.52942C169.34961,425.23517,170.80635,424.94086,173.51382,424.5877C175.02942,424.3817,176.6333,423.91083,177.3396,423.46942C177.45732,423.3811,177.72218,423.23395,177.92819,423.1457C178.13419,423.04266,178.48734,422.80725,178.70805,422.63068C178.9435,422.4394,179.28192,422.29224,179.4585,422.29224C179.64978,422.29224,180.03236,422.13037,180.32666,421.9391C180.62094,421.7331,181.10652,421.5124,181.41553,421.42407C182.51912,421.1151,189.36139,421.58594,190.1854,422.02734C190.33255,422.10095,192.02472,422.26282,193.9376,422.36584C195.8505,422.48352,197.89581,422.6601,198.45497,422.76312C199.98528,423.04266,227.29547,423.04266,227.78104,422.76312C228.10477,422.58655,229.41437,422.4394,233.1077,422.17456C234.77045,422.05682,237.31607,422.17456,241.27428,422.52765C246.13007,422.96912,247.95468,423.04266,253.26663,423.04266C258.4756,423.05737,259.638,422.98383,262.7575,422.52765C264.71454,422.2481,267.73102,422.08624,268.8346,422.2187C269.4232,422.27753,269.86462,422.42468,270.11478,422.63068C270.9829,423.3664,271.6598,424.0727,271.6598,424.26398C271.6598,424.367,271.7628,424.54358,271.88052,424.64655C271.99823,424.74957,272.1895,425.14685,272.30725,425.52942C272.42496,425.912,272.58682,426.35345,272.6751,426.5006C273.05768,427.1775,273.83755,429.50238,273.92584,430.2381C274.05826,431.34167,274.44086,432.84253,274.74985,433.54883C275.0883,434.2846,275.29428,435.87378,275.412,438.62537C275.47086,439.80255,275.55914,441.18567,275.63272,441.71545C275.7063,442.24512,275.8387,443.7019,275.927,444.95264C276.0153,446.20337,276.2213,448.0868,276.38318,449.1316C276.70688,451.30933,276.75104,454.2522,276.48615,456.09155C276.3243,457.19513,276.33902,457.43054,276.648,458.81372C276.8246,459.65247,276.97174,460.46173,276.97174,460.6236C276.97174,461.3152,276.5156,463.62537,276.23602,464.4052C276.05945,464.87607,275.927,465.36166,275.927,465.50882C275.927,465.65594,275.7946,465.97968,275.64743,466.24454C275.48557,466.49466,275.26486,467.03912,275.14716,467.43643C275.02942,467.8337,274.85284,468.28986,274.77927,468.43698C274.69098,468.59885,274.42615,469.17273,274.17596,469.7466C273.92584,470.30576,273.61682,470.93848,273.4991,471.14447C272.9841,472.0568,272.41025,473.32224,272.32196,473.7195C272.2631,473.95496,272.08652,474.58768,271.93936,475.1027C271.79224,475.6177,271.6598,476.3093,271.6598,476.6477C271.6598,477.3393,271.40964,478.33987,270.92407,479.53177C270.7475,479.97318,270.51205,480.7825,270.42377,481.32693C270.20306,482.51883,269.89404,483.0044,269.30548,483.1368C268.93762,483.22513,268.79047,483.4017,268.36374,484.2993C268.08417,484.88785,267.76044,485.447,267.62802,485.55002C267.51028,485.653,267.27487,486.1533,267.0983,486.6683C266.701,487.88962,266.25955,488.50763,265.5827,488.8755C265.15598,489.11093,265.03827,489.2581,265.03827,489.59653C265.03827,489.81723,264.8764,490.1998,264.67038,490.44995C264.40552,490.77365,264.30252,491.05325,264.30252,491.5241C264.30252,492.20096,264.1701,492.39227,263.1695,493.17215C262.81635,493.43698,262.68393,493.6577,262.68393,493.9667C262.68393,494.57004,262.1689,495.32047,260.97705,496.4682C260.41788,497.01263,259.56445,497.88077,259.06415,498.4105C258.57855,498.94022,257.93112,499.48468,257.63684,499.6318C257.04825,499.9114,256.3567,500.89728,256.3567,501.45642C256.3567,501.83902,256.12125,502.29514,255.70923,502.7366C255.12065,503.3693,254.91464,503.6342,254.82635,503.91376C254.78223,504.06088,254.59094,504.3552,254.41437,504.5759C254.22307,504.79663,253.91406,505.20865,253.70807,505.5029C253.50204,505.7972,252.89876,506.6065,252.35432,507.3128C251.80988,508.0191,251.23602,508.85782,251.07416,509.18155C250.9123,509.50528,250.7063,509.87314,250.63272,509.99088C250.55914,510.10855,250.39728,510.40286,250.27957,510.653C250.04413,511.168,249.86755,511.52115,249.54385,512.1245C249.4114,512.35986,249.17598,512.84546,249.01413,513.1839C248.85226,513.53705,248.66098,513.81665,248.5874,513.81665C248.52853,513.81665,248.32254,514.0962,248.14597,514.44934C247.80753,515.0968,247.68982,515.3028,247.13066,516.18567C246.93936,516.4652,246.79224,516.78894,246.79224,516.9067C246.79224,517.00964,246.65979,517.2451,246.51265,517.407C246.3508,517.58356,245.95349,518.2457,245.61507,518.8932C245.27663,519.5406,244.84991,520.3058,244.67334,520.5853C244.51147,520.87964,244.2319,521.32104,244.07004,521.6006C243.90817,521.8655,243.46674,522.51294,243.08417,523.02795C242.70158,523.54297,242.30429,524.1168,242.216,524.2934C242.113,524.4847,241.99529,524.66125,241.95114,524.7054C241.89229,524.7495,241.73042,524.9702,241.56857,525.2057C241.40671,525.44116,241.12714,525.8384,240.93584,526.08856C240.75926,526.33875,240.47969,526.73596,240.31784,526.98615C240.15598,527.22156,239.93524,527.56006,239.80283,527.72186C239.44968,528.178,238.81696,529.04614,238.40494,529.6495C238.19894,529.9437,237.88992,530.34106,237.71335,530.54706C237.52206,530.7384,237.37492,530.9297,237.37492,530.97375C237.37492,531.1062,236.16833,532.7984,236.06534,532.7984C236.00647,532.7984,235.88876,533.0191,235.78575,533.2987C235.68274,533.56354,235.47675,533.902,235.31488,534.04913C235.15302,534.1963,235.0206,534.4023,235.0206,534.50525C235.0206,534.623,234.88817,534.78485,234.7263,534.8878C234.56445,534.99084,234.432,535.1527,234.432,535.25574C234.432,535.344,234.27016,535.6089,234.07886,535.8443C233.87286,536.0797,233.66685,536.44763,233.62271,536.66833C233.56386,536.88904,233.44614,537.1245,233.34314,537.18335C233.13715,537.3158,232.22482,538.6548,232.22482,538.81665C232.22482,539.05206,231.00352,540.7737,230.40024,541.37695C229.78223,542.00964,228.45792,542.9514,228.20776,542.9514C228.13419,542.9514,227.91348,543.0986,227.73691,543.27515C227.54561,543.46643,227.31018,543.68713,227.19246,543.7754C227.08946,543.8638,226.70688,544.2904,226.33902,544.71716C225.97116,545.1439,225.35315,545.86487,224.94113,546.32104C223.82283,547.58655,223.39612,548.1456,223.39612,548.32227C223.39612,548.5282,222.5868,549.17566,221.48322,549.86725C220.43849,550.51465,219.71747,551.08856,219.71747,551.2504C219.71747,551.324,219.57033,551.53,219.39375,551.7213C219.20247,551.8978,218.89346,552.26575,218.70218,552.51587C218.49617,552.78076,218.1283,553.0897,217.86343,553.19275C217.59857,553.3104,217.34843,553.45764,217.28958,553.5459C217.24542,553.6195,216.93643,553.7519,216.6127,553.8402C216.05356,553.9873,215.1854,554.4876,214.71454,554.9143C214.59682,555.0321,214.33195,555.2086,214.12595,555.31165C213.7728,555.5029,212.34549,556.68005,211.68333,557.3275C211.49205,557.5188,211.28604,557.66595,211.21246,557.66595C211.1389,557.66595,211.0359,557.7984,210.99176,557.9602C210.94762,558.1221,210.8299,558.2545,210.71217,558.2545C210.60918,558.2545,210.28546,558.5488,210.00589,558.902C209.7263,559.26984,209.34372,559.623,209.16714,559.7113C208.97586,559.79956,208.82872,559.9614,208.82872,560.0939C208.82872,560.21155,208.75514,560.3146,208.68158,560.3146C208.505,560.3146,207.35727,561.47705,207.35727,561.65356C207.35727,561.71246,207.22484,561.8154,207.04826,561.8596C206.8864,561.91846,206.68039,562.1245,206.5921,562.3158C206.50381,562.5071,206.34196,562.66895,206.22424,562.66895C206.12125,562.66895,206.03296,562.7278,206.03296,562.80133C206.03296,562.9926,204.91464,564.1404,204.72336,564.1404C204.63507,564.1404,204.5615,564.2139,204.5615,564.2875C204.5615,564.3758,204.0612,564.94965,203.44319,565.5824C202.8252,566.20044,202.1189,566.9508,201.88345,567.2304C200.69157,568.5989,197.76338,571.6006,196.98352,572.24805C196.49794,572.6454,195.96822,573.1015,195.80635,573.24866C195.6445,573.39575,195.36491,573.5724,195.18834,573.6165C195.02649,573.6754,194.83519,573.8078,194.79105,573.92554C194.7469,574.0432,194.6439,574.14624,194.55562,574.14624C194.39375,574.14624,192.58386,575.6471,192.01001,576.22095C191.86285,576.3828,191.70099,576.5006,191.62743,576.5006C191.56857,576.5006,191.31842,576.6624,191.08298,576.8684C190.84755,577.07446,190.55325,577.3246,190.43555,577.4276C187.78693,579.6642,185.62389,581.8567,185.50618,582.38635C185.46204,582.60706,185.27074,582.91614,185.09416,583.09265C184.9176,583.2545,184.60858,583.62244,184.40259,583.9167C184.19658,584.211,183.85815,584.69653,183.63742,584.99084C183.402,585.28516,183.22542,585.6089,183.22542,585.7119C183.22542,585.8149,183.09299,585.9767,182.93112,586.06506C182.76927,586.1533,182.63684,586.3152,182.63684,586.4182C182.63684,586.786,181.73926,587.9485,181.31253,588.12506C181.06238,588.228,180.8711,588.3605,180.8711,588.4193C180.8711,588.4782,180.59152,588.6695,180.23837,588.84607C179.89993,589.02264,179.32607,589.3611,178.9582,589.5965C178.59035,589.8467,178.13419,590.1262,177.92819,590.2145C177.48676,590.43524,176.89816,590.8473,176.23602,591.3917C175.97116,591.6271,175.66216,591.8037,175.54443,591.8037C175.412,591.8037,175.05885,591.995,174.74985,592.2451C174.07298,592.76013,174.19069,592.64246,173.04297,594.01086C172.54266,594.61414,171.99823,595.2616,171.82166,595.4382C171.21835,596.10034,171.07121,596.32104,170.87993,596.76245C170.77692,597.01263,170.57092,597.33636,170.40906,597.4835C170.26192,597.61597,170.12949,597.80725,170.12949,597.8955C170.12949,597.98376,169.86462,598.42523,169.5409,598.8667C168.55502,600.2351,168.37845,600.6913,168.5256,601.36816C168.67274,601.98615,168.56975,602.69244,168.34903,602.69244C168.27545,602.69244,168.11359,602.9132,167.99588,603.1633C167.76044,603.6636,167.216,604.5023,166.84814,604.9291C166.73042,605.0615,166.58328,605.31165,166.52441,605.4735C166.46556,605.65,166.25955,605.97375,166.05356,606.19446C165.86227,606.4005,165.4944,606.90076,165.24426,607.2834C164.99411,607.68066,164.72925,607.9897,164.6704,607.9897C164.55267,607.9897,164.22896,608.5194,163.55208,609.829C163.3755,610.1821,163.15479,610.50586,163.08122,610.5647C162.99294,610.6089,162.91936,611.0797,162.91936,611.5947C162.91936,612.3158,163.00764,612.69836,163.28722,613.2428C163.84637,614.2875,164.44968,614.71423,165.65627,614.9055C166.21542,614.9938,166.96585,615.1262,167.33372,615.2145C168.2166,615.42053,175.52972,615.67065,176.73631,615.553C177.61919,615.46466,177.72218,615.40576,178.48734,614.67004C179.16422,613.9932,179.29665,613.77246,179.3555,613.228C179.4732,612.2569,179.28192,611.00616,178.9582,610.6383C178.60506,610.24097,178.17833,608.79895,178.29605,608.43115C178.39905,608.1074,178.7522,608.0338,179.98822,608.078C180.51794,608.09265,181.22424,608.1074,181.54796,608.1221C182.15126,608.13684,182.47498,608.31335,183.75514,609.3728C184.02,609.57886,184.29959,609.75543,184.40259,609.75543C184.50558,609.75543,184.82932,609.87317,185.1236,610.03503C185.4179,610.1821,185.88875,610.4176,186.16833,610.55005C187.12477,611.00616,187.56621,611.271,187.61035,611.40344C187.72807,611.66833,188.61095,612.41876,188.91995,612.4923C189.11124,612.5365,189.71454,612.4335,190.28839,612.2716C190.86227,612.09503,191.907,611.88904,192.6133,611.8154C193.3196,611.7566,194.26132,611.62415,194.70276,611.5359C195.1442,611.44763,196.17421,611.3152,196.98352,611.21216C197.79282,611.1239,198.92584,610.8884,199.51442,610.69714C200.08829,610.50586,200.69157,610.344,200.83871,610.344C200.98587,610.344,201.66273,609.84375,202.35432,609.2404C203.0459,608.6371,203.69334,608.15155,203.79634,608.13684C203.88463,608.13684,203.97292,608.0338,203.97292,607.91614C203.97292,607.7984,204.12006,607.6218,204.31136,607.53357C204.48793,607.43054,204.7675,607.2245,204.94408,607.048C205.10594,606.87134,205.45909,606.5771,205.73866,606.3711C206.00352,606.16504,206.32724,605.9002,206.45969,605.7825C206.5921,605.65,206.93054,605.3705,207.21011,605.1645C207.4897,604.9585,207.98999,604.53174,208.3137,604.2374C210.97704,601.79486,215.47969,597.49817,216.42142,596.5123C218.26074,594.5553,218.68747,594.0697,218.68747,593.90784C218.68747,593.8196,218.81989,593.68713,218.98175,593.643C219.14362,593.5989,219.27603,593.48114,219.27603,593.4076C219.27603,593.334,219.40848,593.1427,219.57033,592.98083C219.71747,592.83374,220.30606,592.1863,220.8505,591.5535C221.39493,590.9208,222.11594,590.1115,222.46909,589.74365C222.82224,589.3758,223.14597,588.96375,223.19011,588.83136C223.23425,588.6989,223.39612,588.53705,223.55797,588.4929C223.70511,588.4341,223.83755,588.30164,223.83755,588.1986C223.83755,588.08093,223.96997,587.91907,224.11713,587.83075C224.27899,587.7572,224.44084,587.55115,224.4997,587.40405C224.54385,587.2422,224.72043,587.0656,224.88228,587.0215C225.02942,586.96265,225.16187,586.84485,225.16187,586.7566C225.16187,586.65356,225.66214,586.0503,226.26544,585.40283C226.86874,584.75543,227.35432,584.1815,227.36903,584.108C227.36903,584.01965,228.23718,583.06323,229.26721,582.0038C229.44379,581.8273,229.57622,581.636,229.57622,581.5771C229.57622,581.50354,229.87051,581.1504,230.23837,580.7825C230.59152,580.4147,231.29782,579.60535,231.81284,579.0021C232.31311,578.39874,232.85756,577.75134,233.03413,577.5747C233.19598,577.3982,233.46085,577.0891,233.62271,576.8684C233.78458,576.6477,234.22601,576.14746,234.60858,575.7501C234.99117,575.35284,235.34431,574.9408,235.41788,574.8231C235.53561,574.63184,236.58034,573.42523,237.30135,572.66003C237.50735,572.4541,237.66922,572.2334,237.66922,572.1745C237.66922,572.1156,237.9635,571.7772,238.33136,571.4093C238.69922,571.05615,238.99353,570.7178,238.99353,570.64417C238.99353,570.5853,239.1701,570.3646,239.40552,570.15857C239.78812,569.7908,240.0824,569.4376,241.06827,568.1869C241.53914,567.58356,241.65686,567.4512,242.28958,566.7449C242.49557,566.5241,242.67215,566.2887,242.67215,566.2151C242.67215,566.15625,242.8193,565.96497,243.01059,565.8031C243.18716,565.64124,243.56973,565.1998,243.84932,564.8319C244.12889,564.44934,244.6439,563.83136,244.98233,563.4487C245.33548,563.0515,245.61507,562.6836,245.61507,562.61005C245.61507,562.5365,245.77692,562.301,245.9682,562.09503C246.5715,561.47705,247.82224,559.8878,247.82224,559.77014C247.82224,559.7113,247.9841,559.50525,248.17538,559.2993C248.36668,559.07855,248.89641,558.4164,249.33784,557.8131C250.44144,556.3417,250.48557,556.28284,251.4273,555.12036C251.86874,554.56116,252.2366,554.0609,252.2366,554.0021C252.2366,553.92847,252.44261,553.67834,252.67804,553.42816C252.92819,553.1633,253.11948,552.89844,253.11948,552.8102C253.11948,552.7366,253.22247,552.663,253.3402,552.663C253.45792,552.663,253.56091,552.5747,253.56091,552.4717C253.56091,552.3688,253.70807,552.1333,253.89935,551.92725C254.07593,551.7213,254.51736,551.1621,254.88522,550.6913C255.45909,549.92615,256.0771,549.1904,256.7981,548.4105C259.5203,545.4529,261.21246,543.7019,264.55267,540.44995C268.21658,536.87427,269.27603,535.8884,269.4379,535.8884C269.52618,535.8884,269.59976,535.8296,269.59976,535.77075C269.59976,535.653,270.33548,535.03503,271.5715,534.07855C271.80695,533.902,272.20422,533.57825,272.4691,533.34283C272.73395,533.1221,272.9988,532.94556,273.05768,532.94556C273.11652,532.94556,273.24896,532.85724,273.33725,532.7395C273.42554,532.6218,274.1907,531.95966,275.04413,531.26807C276.9129,529.75244,277.3249,529.41406,277.66333,529.10504C277.79578,528.97266,278.3402,528.5165,278.86993,528.0897C279.39966,527.663,279.92938,527.19214,280.0618,527.04504C280.40024,526.6771,281.63623,525.7354,281.7981,525.7354C281.8717,525.7354,282.03354,525.57355,282.16595,525.36755C282.2984,525.1615,282.47498,524.9997,282.56326,524.9997C282.63684,524.9997,283.13715,524.66125,283.65216,524.2639C284.16718,523.8519,284.69687,523.5282,284.79987,523.5282C284.9176,523.5282,285.09418,523.43994,285.18243,523.32227C285.27075,523.20447,285.56503,523.02795,285.8299,522.9249C286.09476,522.8219,286.40375,522.66003,286.5362,522.54236C286.65393,522.43933,287.12476,522.2334,287.56622,522.07153C288.00763,521.90967,288.62567,521.6889,288.94937,521.5565C289.2731,521.4387,289.68512,521.33575,289.8617,521.32104C290.03827,521.32104,290.53854,521.17395,290.96527,521.0121C291.61273,520.7472,292.14243,520.6736,294.17303,520.61475C296.3655,520.5559,296.73337,520.5853,297.7781,520.87964C298.5874,521.10034,299.66156,521.2328,301.23602,521.32104C304.3555,521.4829,306.43024,521.9832,308.96115,523.1604C309.37317,523.3517,309.85873,523.5576,310.05002,523.6018C310.25604,523.66064,310.71216,523.8667,311.0653,524.058C311.4332,524.24927,311.85992,524.41113,312.0365,524.41113C312.21307,524.41113,312.5515,524.5436,312.78693,524.7054C313.03708,524.86725,313.36078,524.9997,313.52264,524.9997C313.6845,524.9997,314.02295,525.1321,314.2731,525.2793C314.52325,525.4264,315.0824,525.63245,315.52383,525.7207C315.95056,525.8237,316.45087,525.9856,316.61273,526.08856C316.77457,526.1915,317.24542,526.3534,317.64273,526.4564C318.05475,526.55945,318.51086,526.7213,318.67273,526.8243C318.8346,526.92725,319.26132,527.0891,319.6292,527.1774C319.99707,527.26575,320.5562,527.4717,320.87994,527.6483C321.18893,527.8102,321.61566,527.9426,321.80695,527.9426C321.98352,527.9426,322.45438,528.1045,322.83698,528.3104C323.21954,528.5165,323.63153,528.67834,323.74927,528.67834C323.86697,528.67834,324.3084,528.8402,324.7057,529.04614C325.1177,529.2374,325.52972,529.41406,325.63272,529.41406C325.73572,529.41406,326.08887,529.5465,326.44202,529.7084C326.78046,529.87024,327.41318,530.0615,327.8399,530.1498C328.28134,530.2234,328.81107,530.38525,329.01706,530.51764C329.2378,530.6354,329.9441,530.8413,330.59152,530.9591C331.22424,531.0915,331.82755,531.25336,331.91583,531.31226C331.98938,531.3858,332.40143,531.4888,332.7987,531.5476C333.2107,531.6065,333.7993,531.73895,334.12302,531.8567C334.44672,531.97437,335.28546,532.16565,335.99176,532.2834C336.68335,532.38635,337.4779,532.57764,337.7575,532.7101C338.02237,532.8278,338.52264,533.0044,338.84637,533.078C339.1848,533.16626,339.53796,533.34283,339.64096,533.4606C339.74396,533.57825,339.90582,533.6813,340.00882,533.6813C340.11182,533.6813,341.17126,534.1669,342.37787,534.77014C343.58447,535.3734,344.79105,535.9326,345.07062,536.0209C345.35022,536.10913,345.6592,536.3152,345.77692,536.47705C345.89465,536.6389,346.08594,536.77136,346.18893,536.77136C346.30664,536.77136,346.48322,536.90375,346.58624,537.0656C346.6892,537.2274,346.82166,537.35986,346.89523,537.35986C347.04236,537.35986,348.27838,538.2722,348.6904,538.6842C348.86697,538.84607,349.073,538.9785,349.16125,538.9785C349.26428,538.9785,349.4114,539.11096,349.4997,539.2728C349.58798,539.4347,349.73514,539.5671,349.82343,539.5671C350.0,539.5671,350.515,540.0232,351.98645,541.48C353.1342,542.6277,353.57562,542.9514,354.98822,543.6724C356.20953,544.2904,356.29782,544.49646,355.82697,545.5559C355.53265,546.20337,355.40024,546.76245,355.1501,548.2781C355.0471,548.8667,355.25308,549.5436,355.70923,550.14685C355.95938,550.4706,355.97412,550.7501,355.8858,553.60474C355.84167,555.48816,355.72394,556.97437,355.60623,557.3717C355.47382,557.8131,355.3855,559.4317,355.32666,562.301C355.26782,564.6406,355.1795,566.86255,355.10596,567.2304C355.03235,567.59827,354.89993,568.28986,354.81165,568.7754C354.70865,569.3198,354.64978,571.95374,354.64978,575.5441L354.64978,581.42993L354.29663,582.0921C354.10535,582.45996,353.89935,582.9897,353.84048,583.2693C353.78162,583.5488,353.6492,583.9756,353.5462,584.2257C353.44318,584.4611,353.28134,585.8443,353.19305,587.2716C353.09003,588.6989,352.9282,590.18506,352.8105,590.5676C352.69275,590.95026,352.56033,591.6271,352.51617,592.08325C352.38376,593.23096,352.00116,595.806,351.9276,595.90906C351.8982,595.9679,351.80988,596.7919,351.70688,597.76306C351.6186,598.73425,351.45673,599.8231,351.33902,600.191C351.2213,600.55884,351.05945,601.4123,350.97116,602.0891C350.88287,602.78076,350.67688,603.5753,350.54443,603.85486C350.29428,604.3258,350.0883,605.8561,350.04413,607.2539C350.02942,608.1074,350.39728,610.1086,350.618,610.35876C350.73572,610.47644,350.824,610.6677,350.824,610.756C350.824,610.8443,351.01532,611.1239,351.26544,611.374C351.67746,611.786,351.80988,611.8302,353.28134,611.9773C355.0471,612.1686,360.7416,612.0803,365.3178,611.786C366.86285,611.69775,368.31958,611.62415,368.55502,611.62415C369.8205,611.6389,373.95526,611.9773,374.58798,612.12445C376.44202,612.5217,377.3249,612.5806,383.26956,612.713C390.568,612.8749,390.3178,612.8749,390.9947,612.69836C391.68628,612.4923,392.31903,611.65356,392.31903,610.91785C392.31903,610.1674,392.2013,609.932,391.7157,609.6671C391.33313,609.4758,391.24484,609.4758,390.96527,609.6671C390.20013,610.1674,389.6115,610.02026,388.0518,608.9167C387.5368,608.5488,385.8446,608.0044,384.72632,607.85724C383.6227,607.69543,383.40198,607.5482,383.31372,606.98914C383.25485,606.6212,383.299,606.5771,383.63745,606.6212C383.84344,606.65063,384.226,606.53296,384.50558,606.3711L384.99115,606.0621L384.9029,603.38403C384.84402,601.9126,384.74103,600.2351,384.66745,599.67596C384.46143,598.1456,384.24072,593.4517,384.07886,587.3452C384.0053,584.35815,383.90228,581.87134,383.87286,581.8125C383.7257,581.5771,383.4903,574.9408,383.41672,568.5547C383.2843,558.1515,382.84283,540.0674,382.62213,536.40344C382.54855,535.2704,382.41614,534.10803,382.32782,533.82837C382.22485,533.5194,382.16595,532.3275,382.1807,530.8119C382.2101,528.1339,382.01883,526.6036,381.5774,526.1033C381.43024,525.9414,381.2831,525.6765,381.22424,525.51465C381.1801,525.35284,380.85638,524.9114,380.51794,524.5582C379.78223,523.7784,377.64862,521.8655,377.39847,521.76245C377.20718,521.6742,376.1919,520.92377,375.824,520.5853C375.6916,520.46765,375.39728,520.2469,375.16187,520.1145C374.61743,519.7908,374.33783,519.61414,373.3667,518.9667C371.9394,518.0397,371.4685,517.71594,370.9535,517.34814C370.6592,517.1421,369.96762,516.67126,369.40848,516.2887C368.8493,515.9208,368.30487,515.5088,368.20187,515.37634C368.09888,515.2439,367.9223,515.141,367.8193,515.141C367.73102,515.141,367.52502,515.00854,367.37787,514.8467C367.2307,514.6848,367.05414,514.55237,366.96588,514.55237C366.89227,514.55237,366.598,514.3463,366.31842,514.11096C366.05356,513.8608,365.72986,513.6695,365.62683,513.6695C365.52383,513.6695,365.3178,513.53705,365.1707,513.37524C365.02356,513.2134,364.847,513.08093,364.77338,513.08093C364.69983,513.08093,364.30252,512.84546,363.8758,512.5659C363.4638,512.2716,363.00763,511.97733,362.88995,511.88904C362.4632,511.60947,361.49207,511.02087,361.0506,510.80014C360.8152,510.66772,360.31488,510.37344,359.94702,510.138C359.57916,509.88785,359.04944,509.59357,358.76987,509.47586C358.4903,509.3434,358.15186,509.18155,358.03412,509.108C357.68097,508.90198,354.3702,507.26865,353.2519,506.75366C351.54504,505.9738,350.36786,505.38522,350.30902,505.2675C350.26486,505.20865,350.05884,505.12033,349.83813,505.0615C349.36725,504.94376,347.2631,503.95792,347.1454,503.81076C347.10123,503.7519,346.71866,503.59003,346.30664,503.4576C345.87994,503.31046,345.5268,503.1486,345.5268,503.07504C345.5268,503.01614,345.2766,502.91318,344.98236,502.86902C344.67334,502.81015,344.0995,502.60416,343.68744,502.42758C342.67215,501.9567,340.9947,501.3093,340.7887,501.3093C340.7004,501.3093,340.34726,501.19156,340.02356,501.0297C339.68512,500.88254,338.78754,500.51468,338.02237,500.2057C337.2572,499.8967,336.46262,499.57297,336.25662,499.46994C336.0506,499.36697,335.59448,499.2051,335.2266,499.10208C334.85873,498.9991,334.46143,498.83725,334.34375,498.73422C334.226,498.63123,333.78458,498.4694,333.35785,498.36636C332.93115,498.27808,332.5191,498.1015,332.41614,497.9838C332.32782,497.86606,332.10712,497.7778,331.93054,497.7778C331.76868,497.7778,331.32724,497.63065,330.95938,497.46878C330.59152,497.2922,329.8705,497.04208,329.3408,496.89493C327.9429,496.49762,326.94232,496.04147,326.66272,495.6736C326.44202,495.394,326.30957,495.3646,325.39728,495.394C324.05826,495.46762,323.42554,495.20273,323.01355,494.40817C322.85168,494.06973,322.6457,493.80487,322.57208,493.80487C322.35138,493.80487,322.11597,492.71597,322.21893,492.17154C322.2778,491.89197,322.42496,491.47995,322.54266,491.22983C322.8664,490.58237,322.79282,490.1115,322.24838,489.22864C321.80695,488.49292,321.76282,488.34576,321.73337,486.96262C321.61566,482.9014,321.61566,482.66595,321.80695,482.4305C322.1454,482.03323,322.10123,480.9738,321.71866,480.5029C321.4391,480.13504,321.39493,479.89963,321.39493,478.84018C321.39493,477.86902,321.32135,477.457,321.07123,476.91257C320.61505,475.94144,320.58563,473.6901,321.01236,473.2192C321.51263,472.66006,321.38022,471.96848,320.62976,471.29163L319.99707,470.70303L319.92346,469.42288C319.8352,467.90726,319.96762,467.18625,320.40906,466.8478C320.71808,466.6124,320.7328,466.46524,320.80634,463.0221C320.8652,460.0056,320.92407,459.38757,321.13007,459.0786C321.58624,458.38696,321.9688,457.19513,322.1454,455.8855C322.23364,455.1792,322.3661,454.4729,322.45438,454.3258C322.52795,454.19336,322.70453,453.5901,322.8664,453.00146C323.01355,452.4276,323.23425,451.73602,323.3667,451.5006C323.4991,451.25043,323.6021,450.95618,323.6021,450.82373C323.6021,450.69128,323.73456,450.42645,323.8817,450.22046C324.04355,450.02917,324.23483,449.573,324.33783,449.21985C324.42615,448.852,324.60272,448.3958,324.73514,448.21924C325.13245,447.58655,325.36786,444.67303,325.19128,442.45117C325.0147,440.05267,325.07355,439.1698,325.47086,438.7284C326.05945,438.08093,326.4126,436.99207,326.57446,435.24103C326.66272,434.25513,326.8246,433.44586,326.9276,433.31342C327.04532,433.19568,327.1336,433.01917,327.1336,432.93085C327.1336,432.8573,327.26605,432.66602,327.44263,432.50415C327.6192,432.357,327.8546,432.03326,327.97235,431.78308C328.3402,431.09155,330.48853,429.09033,331.0771,428.89905C331.73926,428.67834,334.85873,428.8108,336.7716,429.13452C338.9052,429.50238,346.54208,429.69366,351.26544,429.5171C353.48734,429.42877,355.60623,429.28162,355.97412,429.17865C356.43024,429.0609,358.608,429.00208,363.1842,429.00208C368.89346,428.98737,369.8352,429.01678,370.5415,429.2375C370.9829,429.36993,371.90994,429.5171,372.60153,429.56122C373.2931,429.60535,374.382,429.7525,375.02942,429.88495C376.2213,430.12036,377.14832,430.10565,379.9588,429.79663C380.6504,429.72308,385.6092,429.63477,390.9947,429.59064C398.7934,429.5318,401.04474,429.45825,402.06003,429.28162C402.75162,429.16394,404.31134,429.00208,405.51794,428.91382C406.70984,428.8255,407.96057,428.69305,408.2843,428.6195C409.6527,428.29578,410.77106,428.14862,413.08124,428.03088C414.42023,427.95734,415.71515,427.86902,415.95056,427.8249C417.4367,427.58948,417.89288,427.58948,418.51086,427.78076C418.87872,427.8985,419.5703,428.04565,420.0412,428.1045C421.0418,428.22217,422.3955,428.85492,423.3814,429.67896C423.76398,429.9879,424.13184,430.2381,424.22015,430.2381C424.3084,430.2381,424.55853,430.39996,424.794,430.59125C425.02942,430.79724,425.4267,431.00323,425.66217,431.06213C425.89758,431.12097,426.30957,431.29755,426.57446,431.4447C427.17773,431.78308,429.7234,431.81256,431.1654,431.48883C432.372,431.224,433.15186,431.224,434.59387,431.47412C435.6239,431.6507,435.8152,431.6507,436.58032,431.41528C437.0365,431.26813,437.80164,431.10626,438.27252,431.06213C439.3614,430.91498,440.2884,430.34106,440.2884,429.8114C440.27368,429.1051,439.6704,428.63422,438.2578,428.22217C437.08063,427.8838,436.90405,427.86902,436.02118,428.03088C435.49146,428.1192,434.77045,428.17804,434.4026,428.14862C433.74042,428.1045,433.74042,428.1045,433.7846,427.6042C433.84344,426.88318,434.0053,426.75073,435.03534,426.6477C435.53558,426.58887,436.0506,426.45642,436.16833,426.35345C436.5656,426.015,437.36023,425.82373,438.40497,425.82373C439.03766,425.82373,439.53796,425.75012,439.74396,425.61774C439.92053,425.5,440.70044,425.33813,441.4803,425.24988C442.26013,425.16156,443.29016,424.985,443.76105,424.8673C444.24664,424.74957,445.23248,424.5583,445.9535,424.44055C449.17596,423.92554,450.0,423.52826,450.0,422.49823C450.0,422.20398,449.92645,421.98322,449.82343,421.98322C449.7204,421.9685,449.36725,421.9538,449.04358,421.9391C448.49908,421.92438,448.45496,421.89496,448.41083,421.4535C448.3814,421.10034,448.44025,420.95325,448.66095,420.8208C448.867,420.71777,448.96997,420.51178,448.96997,420.23218C448.96997,419.8202,448.92584,419.79077,448.42554,419.79077C448.11652,419.79077,447.41022,419.90845,446.83636,420.0703C446.27722,420.21747,445.5415,420.4088,445.21777,420.49707C444.89404,420.57062,444.30548,420.7766,443.8935,420.93848C443.49615,421.10034,442.76044,421.3064,442.27484,421.40936C441.7893,421.49768,440.96527,421.6742,440.43555,421.79193C439.90582,421.90967,439.1848,421.99792,438.84637,421.99792C438.49323,421.99792,437.83105,422.10095,437.38965,422.2334C436.63922,422.4541,436.50677,422.4541,435.8152,422.2334C434.97644,421.98322,431.40082,421.7478,426.23602,421.63007C424.45557,421.58594,422.76337,421.5124,422.48383,421.4829C422.20422,421.43878,421.21838,421.35052,420.30603,421.2622C419.02588,421.15924,418.55505,421.0562,418.2166,420.8208C417.67218,420.42346,416.68628,420.39404,415.96527,420.7472C415.3767,421.0268,414.7881,421.0121,412.11005,420.67365C411.46265,420.58533,410.1383,420.46765,409.16718,420.39404C408.19598,420.3205,407.15125,420.14392,406.857,420.02618C406.53326,419.87903,405.8858,419.79077,405.28253,419.79077C404.72336,419.79077,403.44318,419.6289,402.44263,419.43762C401.44202,419.24634,400.27957,419.04034,399.83813,418.98145C399.3967,418.93732,398.8228,418.80487,398.54327,418.6872C398.27838,418.56946,397.51324,418.4076,396.85107,418.30457C396.1742,418.2163,395.32077,418.0103,394.9382,417.86316C394.5556,417.716,394.02588,417.58362,393.74634,417.58362C393.48145,417.58362,392.84872,417.45117,392.34845,417.2893C391.86285,417.12744,390.95056,416.92145,390.3178,416.83313C389.68512,416.74487,388.93466,416.583,388.6551,416.47998C388.00763,416.22986,386.5656,415.96497,385.8593,415.96497C385.56503,415.96497,385.1383,415.862,384.88818,415.72955C384.432,415.47937,381.22424,415.19983,378.6345,415.1704C377.00116,415.1557,373.55798,415.47937,373.1754,415.67072C373.01355,415.75897,372.01294,415.92084,370.93878,416.03857C369.86462,416.15625,368.68744,416.3181,368.3343,416.40643C367.319,416.64185,363.8905,416.74487,362.08063,416.5683C361.19775,416.4947,358.84344,416.3181,356.85696,416.18567C354.7528,416.05328,352.9576,415.862,352.53088,415.72955C352.1336,415.61182,351.47144,415.46472,351.05945,415.43524C350.64743,415.3911,349.9853,415.22925,349.57327,415.06738C349.17596,414.9203,348.51382,414.729,348.1018,414.6407C347.70453,414.55237,347.21893,414.3905,347.04236,414.27283C346.8805,414.1551,346.40967,413.99323,346.01236,413.89026C345.62976,413.80194,345.17365,413.64008,345.01178,413.5371C344.8499,413.4488,344.45264,413.3164,344.1289,413.2575C343.56976,413.15454,342.99588,412.99268,342.36316,412.72778C342.2013,412.65424,341.56857,412.5218,340.96527,412.41876C340.36197,412.3305,339.69983,412.16864,339.49384,412.0656C339.2878,411.96265,338.40494,411.80078,337.50735,411.69775C336.62448,411.5948,335.71216,411.43292,335.47675,411.3299C335.25604,411.21216,334.6969,411.09448,334.226,411.03564C333.76987,410.99146,332.72513,410.81488,331.91583,410.66772C329.6792,410.24103,326.6333,410.06445,324.11713,410.1969C322.91052,410.27045,321.76282,410.4029,321.58624,410.4912C321.18893,410.7119,320.48264,410.72662,320.2766,410.52063C320.18835,410.4323,319.7469,410.29993,319.27606,410.22632C318.8199,410.1527,318.27545,409.96143,318.05475,409.7849C317.78986,409.57886,317.46616,409.4906,316.96585,409.4906C316.20068,409.4906,315.96527,409.40228,314.847,408.7696C314.44968,408.53418,313.84637,408.21045,313.52264,408.04858C313.19894,407.88672,312.71338,407.54828,312.4632,407.31287L311.97763,406.8567L311.97763,403.86963L311.97763,400.86786L312.43378,400.24988C312.68393,399.91144,312.9782,399.63184,313.08124,399.63184C313.19894,399.63184,313.31665,399.51416,313.36078,399.367C313.40494,399.21985,313.81696,398.91083,314.2731,398.69012C315.39142,398.11627,316.33313,398.20453,318.0253,399.01385C320.5268,400.22046,321.05652,400.38232,322.73395,400.47058C324.63214,400.5736,325.27957,400.47058,325.6916,399.985C325.86816,399.7937,326.08887,399.63184,326.1919,399.63184C326.28015,399.63184,326.44202,399.32288,326.54504,398.95496C326.69217,398.4253,326.70688,398.0868,326.55975,397.26282C326.33902,396.0562,326.4273,395.5559,326.8982,395.3499C327.36902,395.1292,327.6045,394.57007,327.48676,393.95203C327.42792,393.59888,327.47205,393.33405,327.64862,393.05444C327.86932,392.7307,327.91345,392.37756,327.88403,391.22986C327.8546,389.55237,327.9282,389.41998,329.0318,389.27283C329.8705,389.1551,330.7534,388.66956,330.8711,388.2281C331.04767,387.6101,330.94467,386.99207,330.62097,386.58008C330.4444,386.3593,330.20892,386.00623,330.10596,385.80017C330.00293,385.59418,329.72336,385.13806,329.4879,384.77014C329.2525,384.40228,328.91406,383.84314,328.7375,383.5194C328.57562,383.19568,328.31076,382.69543,328.14893,382.41583C327.78104,381.75366,327.79578,380.9297,328.17834,379.67896C328.47263,378.70776,328.48734,378.63422,328.2519,377.11865C328.1342,376.26514,327.98706,374.88196,327.9429,374.02856C327.89874,373.1457,327.76633,372.29224,327.64862,372.0421C327.53088,371.79193,327.3396,371.36523,327.20718,371.08563C327.08948,370.80603,326.79517,370.23218,326.55975,369.8349C325.2354,367.61304,325.1177,367.17157,325.2354,365.00854C325.26486,364.31696,324.92642,363.91968,323.85226,363.38995C322.7781,362.86023,322.02765,362.69836,321.18893,362.8308C320.4532,362.9485,319.67334,362.78662,318.76105,362.30103C318.5403,362.19806,318.30487,362.10974,318.20187,362.10974C318.09888,362.10974,317.67215,361.94788,317.24542,361.7566C316.81873,361.5653,316.20068,361.35938,315.87698,361.30048C315.55328,361.24158,315.14124,361.1092,314.96466,360.99146C314.53796,360.72662,309.94702,360.32935,307.71042,360.37347C306.7834,360.38818,305.25308,360.47644,304.32605,360.56476 Z M291.4803,377.58948C291.43616,377.70715,291.392,377.6631,291.392,377.50122C291.37726,377.33936,291.42142,377.25104,291.46558,377.30994C291.5097,377.354,291.5244,377.48645,291.4803,377.58948 Z M324.55856,380.29694C324.85284,380.5177,324.85284,380.5177,324.57327,380.7384C324.2054,381.00323,324.11713,381.00323,323.89642,380.72363C323.74927,380.54712,323.74927,380.4588,323.89642,380.28223C324.11713,380.01733,324.19067,380.01733,324.55856,380.29694 Z"/> </g> </g> </g> </svg>