<?xml version="1.0" encoding="UTF-8"?>
<svg viewBox="0 0 3180.8 1912" xmlns="http://www.w3.org/2000/svg">
 <defs>
  <clipPath id="d">
   <path d="m22.736 2616.6h494.34v297.16h-494.34v-297.16z" fill="#fff"/>
  </clipPath>
  <clipPath id="e">
   <rect transform="matrix(.81814 .57503 -.5933 .80498 -1484.8 1961.8)" x="30.295" y="44.674" width="670.25" height="717.58" fill="#fff"/>
  </clipPath>
  <linearGradient id="f" x1=".46662" x2=".46811" y1=".012949" y2="1.0817">
   <stop stop-color="#fc0" offset="0"/>
   <stop stop-color="#f60" offset="1"/>
  </linearGradient>
 </defs>
 <g transform="matrix(6.4343 0 0 6.4343 -316.32 -3458.8)" clip-path="url(#d)" fill="none" stroke-width=".5">
  <path d="m50.087 540.32h98.571v98.571h-98.571v-98.571z" stroke="#b0b0b0" stroke-linecap="square"/>
  <path d="m49.563 542.92l0.0017-3.0804h3.284" stroke="#000"/>
  <path d="m148.66 540.32h98.571v98.571h-98.571v-98.571z" stroke="#b0b0b0" stroke-linecap="square"/>
  <path d="m146.74 539.81h3.8441-3.8441zm1.9442 0.1875v2.2803-2.2803z" stroke="#000"/>
  <path d="m247.14 540.32h98.571v98.571h-98.571v-98.571z" stroke="#b0b0b0" stroke-linecap="square"/>
  <path d="m245.23 539.81h3.8441-3.8441zm1.9442 0.1875v2.2803-2.2803z" stroke="#000"/>
  <path d="m345.72 540.32h98.571v98.571h-98.571v-98.571z" stroke="#b0b0b0" stroke-linecap="square"/>
  <path d="m343.81 539.81h3.8441-3.8441zm1.9442 0.1875v2.2803-2.2803z" stroke="#000"/>
  <path d="m444.29 540.32h98.572v98.571h-98.572v-98.571z" stroke="#b0b0b0" stroke-linecap="square"/>
  <g stroke="#000">
   <path d="m442.38 539.81h3.8442-3.8442zm1.9442 0.1875v2.2803-2.2803z"/>
   <path d="m543.35 542.92l-2e-3 -3.0804h-3.284"/>
   <path d="m49.583 640.84v-3.8441 3.8441zm0.1875-1.9442h2.2803-2.2803z"/>
   <path d="m543.36 640.84v-3.8441 3.8441zm-0.1875-1.9442h-2.2803 2.2803z"/>
   <path d="m443.55 638.9h3.125m-2.3708 1.9451v-3.8441 3.8441zm-0.1875-1.9442h-2.2803 2.2803z"/>
   <path d="m344.96 638.9h3.125m-2.3708 1.9451v-3.8441 3.8441zm-0.1875-1.9442h-2.2803 2.2803z"/>
   <path d="m246.43 638.9h3.125m-2.3708 1.9451v-3.8441 3.8441zm-0.1875-1.9442h-2.2803 2.2803z"/>
   <path d="m147.91 638.9h3.125m-2.3708 1.9451v-3.8441 3.8441zm-0.1875-1.9442h-2.2803 2.2803z"/>
  </g>
  <g transform="matrix(1 0 0 -1 0 513.47)">
   <g stroke="#b0b0b0" stroke-linecap="square">
    <path d="m50.087-224.16h98.571v98.571h-98.571v-98.571z"/>
    <path d="m148.66-224.16h98.571v98.571h-98.571v-98.571z"/>
    <path d="m247.14-224.16h98.571v98.571h-98.571v-98.571z"/>
    <path d="m345.72-224.16h98.571v98.571h-98.571v-98.571z"/>
    <path d="m444.29-224.16h98.572v98.571h-98.572v-98.571z"/>
   </g>
   <g stroke="#000">
    <path d="m49.583-123.64v-3.8441 3.8441zm0.1875-1.9442h2.2803-2.2803z"/>
    <path d="m543.36-123.64v-3.8441 3.8441zm-0.1875-1.9442h-2.2803 2.2803z"/>
    <path d="m443.55-125.58h3.125m-2.3708 1.9451v-3.8441 3.8441zm-0.1875-1.9442h-2.2803 2.2803z"/>
    <path d="m344.96-125.58h3.125m-2.3708 1.9451v-3.8441 3.8441zm-0.1875-1.9442h-2.2803 2.2803z"/>
    <path d="m246.43-125.58h3.125m-2.3708 1.9451v-3.8441 3.8441zm-0.1875-1.9442h-2.2803 2.2803z"/>
    <path d="m147.91-125.58h3.125m-2.3708 1.9451v-3.8441 3.8441zm-0.1875-1.9442h-2.2803 2.2803z"/>
   </g>
  </g>
  <g transform="matrix(1 0 0 -1 0 612.04)">
   <g stroke="#b0b0b0" stroke-linecap="square">
    <path d="m50.087-224.16h98.571v98.571h-98.571v-98.571z"/>
    <path d="m148.66-224.16h98.571v98.571h-98.571v-98.571z"/>
    <path d="m247.14-224.16h98.571v98.571h-98.571v-98.571z"/>
    <path d="m345.72-224.16h98.571v98.571h-98.571v-98.571z"/>
    <path d="m444.29-224.16h98.572v98.571h-98.572v-98.571z"/>
   </g>
   <g stroke="#000">
    <path d="m49.583-123.64v-3.8441 3.8441zm0.1875-1.9442h2.2803-2.2803z"/>
    <path d="m543.36-123.64v-3.8441 3.8441zm-0.1875-1.9442h-2.2803 2.2803z"/>
    <path d="m443.55-125.58h3.125m-2.3708 1.9451v-3.8441 3.8441zm-0.1875-1.9442h-2.2803 2.2803z"/>
    <path d="m344.96-125.58h3.125m-2.3708 1.9451v-3.8441 3.8441zm-0.1875-1.9442h-2.2803 2.2803z"/>
    <path d="m246.43-125.58h3.125m-2.3708 1.9451v-3.8441 3.8441zm-0.1875-1.9442h-2.2803 2.2803z"/>
    <path d="m147.91-125.58h3.125m-2.3708 1.9451v-3.8441 3.8441zm-0.1875-1.9442h-2.2803 2.2803z"/>
   </g>
  </g>
  <g transform="matrix(1 0 0 -1 0 710.63)">
   <g stroke="#b0b0b0" stroke-linecap="square">
    <path d="m50.087-224.16h98.571v98.571h-98.571v-98.571z"/>
    <path d="m148.66-224.16h98.571v98.571h-98.571v-98.571z"/>
    <path d="m247.14-224.16h98.571v98.571h-98.571v-98.571z"/>
    <path d="m345.72-224.16h98.571v98.571h-98.571v-98.571z"/>
    <path d="m444.29-224.16h98.572v98.571h-98.572v-98.571z"/>
   </g>
   <g stroke="#000">
    <path d="m49.583-123.64v-3.8441 3.8441zm0.1875-1.9442h2.2803-2.2803z"/>
    <path d="m543.36-123.64v-3.8441 3.8441zm-0.1875-1.9442h-2.2803 2.2803z"/>
    <path d="m443.55-125.58h3.125m-2.3708 1.9451v-3.8441 3.8441zm-0.1875-1.9442h-2.2803 2.2803z"/>
    <path d="m344.96-125.58h3.125m-2.3708 1.9451v-3.8441 3.8441zm-0.1875-1.9442h-2.2803 2.2803z"/>
    <path d="m246.43-125.58h3.125m-2.3708 1.9451v-3.8441 3.8441zm-0.1875-1.9442h-2.2803 2.2803z"/>
    <path d="m147.91-125.58h3.125m-2.3708 1.9451v-3.8441 3.8441zm-0.1875-1.9442h-2.2803 2.2803z"/>
   </g>
  </g>
  <g transform="matrix(1 0 0 -1 0 809.21)" stroke="#000">
   <path d="m49.563-123.03l0.0017-3.0803h3.284"/>
   <path d="m146.74-126.14h3.8441-3.8441zm1.9442 0.1875v2.2803-2.2803z"/>
   <path d="m245.23-126.14h3.8441-3.8441zm1.9442 0.1875v2.2803-2.2803z"/>
   <path d="m343.81-126.14h3.8441-3.8441zm1.9442 0.1875v2.2803-2.2803z"/>
   <path d="m442.38-126.14h3.8442-3.8442zm1.9442 0.1875v2.2803-2.2803z"/>
   <path d="m543.35-123.03l-2e-3 -3.0803h-3.284"/>
  </g>
 </g>
 <g fill="#fff" font-family="EurostileT">
  <text x="-1107.442286" y="3168.665645" font-family="eurofurence" font-size="59.158px" font-weight="bold" xml:space="preserve"/>
  <text x="-971.605526" y="2773.168765" font-size="35.711px" xml:space="preserve"/>
  <text x="-995.795716" y="3257.410405" font-family="eurofurence" font-size="11.59px" font-weight="bold" xml:space="preserve"/>
  <text x="-969.182126" y="3179.923275" font-size="6.9966px" xml:space="preserve"/>
 </g>
 <path d="m-158.51 256.55l602.13-402.09 123.82 159.62-602.13 402.09-123.82-159.62z" clip-path="url(#e)" fill="url(#f)"/>
 <g transform="matrix(3.8391 -2.5245 2.5245 3.8391 -112.48 -2645.6)" fill="#fff">
  <path d="m-302.09 550.86l-3.0082 6.2739h-1.1925l3.5909-7.5341-5.1899-10.854h1.3822l4.4175 9.5396 4.4175-9.5396h1.3686l-5.7861 12.128v-0.013428"/>
  <path d="m-287.02 537.54c2.0597 0 3.8122 0.7273 5.2576 2.1816 1.4544 1.4545 2.1816 3.2116 2.1816 5.2712 0 2.0507-0.72723 3.8032-2.1816 5.2576-1.4454 1.4545-3.1979 2.1816-5.2576 2.1816-2.0507 0-3.8032-0.72717-5.2576-2.1816s-2.1817-3.2069-2.1817-5.2576c0-2.0597 0.72723-3.8168 2.1817-5.2712 1.4544-1.4544 3.2069-2.1816 5.2576-2.1816m0 1.3009c-1.6983 0-3.1482 0.60071-4.3497 1.8022-1.2015 1.2014-1.8022 2.6514-1.8022 4.3497 0 1.6984 0.60074 3.1482 1.8022 4.3497 1.2015 1.1924 2.6514 1.7887 4.3497 1.7887s3.1482-0.59631 4.3498-1.7887c1.2014-1.2015 1.8022-2.6514 1.8022-4.3497-3.1e-5 -1.6984-0.60077-3.1483-1.8022-4.3497-1.2015-1.2015-2.6514-1.8022-4.3498-1.8022"/>
  <path d="m-263.17 543.72c-0.23489-1.1653-0.79498-2.1907-1.6803-3.0759-1.2015-1.2015-2.6514-1.8022-4.3497-1.8022-1.6984 0-3.1482 0.60071-4.3497 1.8022-1.2015 1.2014-1.8022 2.6514-1.8022 4.3497 0 1.6984 0.60074 3.1482 1.8022 4.3497 1.2015 1.2014 2.6514 1.8022 4.3497 1.8022s3.1482-0.60083 4.3497-1.8022c0.87625-0.87634 1.4363-1.8926 1.6803-3.049v-2.5746m-0.0271 5.6913c-0.22586 0.28906-0.46976 0.56909-0.73172 0.84009-1.4544 1.4545-3.2115 2.1816-5.2712 2.1816-2.0507 0-3.8032-0.72717-5.2576-2.1816s-2.1816-3.2069-2.1816-5.2576c0-2.0597 0.7272-3.8123 2.1816-5.2577 1.4544-1.4544 3.207-2.1816 5.2576-2.1816 2.0597 0 3.8167 0.72278 5.2712 2.1681 0.28003 0.28906 0.53748 0.5918 0.77237 0.90796v-1.8836h1.2195v10.339c0 1.9965-0.70914 3.7037-2.1274 5.1221-1.4544 1.4545-3.207 2.1816-5.2576 2.1816-2.0597 0-3.8168-0.72717-5.2712-2.1816-0.29813-0.2981-0.56464-0.60974-0.7995-0.93494l1.2873-0.4608c0.13553 0.1626 0.28006 0.3208 0.43362 0.47436 1.2015 1.2014 2.6514 1.8021 4.3498 1.8021 1.6893 0 3.1347-0.60071 4.3362-1.8021 1.093-1.0931 1.6893-2.385 1.7887-3.8755"/>
  <path d="m-243.67 552.05h-1.2196v-2.7101c-0.23488 0.31616-0.49236 0.61877-0.77238 0.90784-1.4544 1.4545-3.2115 2.1816-5.2712 2.1816-2.0507 0-3.8032-0.72717-5.2576-2.1816s-2.1816-3.2069-2.1816-5.2576c0-2.0597 0.7272-3.8168 2.1816-5.2712s3.207-2.1816 5.2576-2.1816c2.0597 0 3.8167 0.7273 5.2712 2.1816 0.28003 0.28906 0.53751 0.5918 0.77238 0.90796v-1.8836h1.2196v13.307m-1.2196-5.8539v-2.412c-0.22586-1.1924-0.79047-2.2404-1.6938-3.1437-1.2015-1.2015-2.6514-1.8022-4.3497-1.8022-1.6984 0-3.1483 0.60071-4.3498 1.8022-1.2015 1.2014-1.8022 2.6514-1.8022 4.3497 0 1.6984 0.60077 3.1482 1.8022 4.3497 1.2015 1.1924 2.6514 1.7887 4.3498 1.7887 1.6983 0 3.1482-0.60083 4.3497-1.8022 0.90335-0.90344 1.468-1.9468 1.6938-3.1302"/>
 </g>
 <g stroke="#000" stroke-width=".358">
  <path d="m493.09 284.47c-33.178-0.057373-51.057 6.733-72.659 29.138-27.677 28.68-39.969 33.808-42.003 59.423-2.0629 25.614-13.323 65.582-13.323 65.582l-2.0627 20.486 7.1627 6.1601s0 12.291 1.0315 19.454c1.0314 7.1915 8.1941 33.808 12.292 35.872 4.0969 2.0341 13.323-3.0659 15.386 7.1628 2.0341 10.257 6.1314 20.514 7.1627 28.708 1.0314 8.1946 3.0656 9.1973 3.0656 19.454s11.289 17.42 4.0972 44.066c-7.1627 26.646-32.777 57.36-40.971 65.583-8.1942 8.1943-14.354 10.228-19.482 13.294-5.1001 3.0942-23.552 9.2257-21.517 9.2257 0 0-19.454 4.0973-40.971 5.1287-21.517 1.0315-25.614-9.2256-46.1 10.257-20.514 19.454-22.549 21.517-30.743 40.971-8.1942 19.482-36.903 80.94-47.132 119.88-10.257 38.937-20.485 51.228-27.677 67.646-7.1628 16.388-20.486 50.197-21.517 58.391-1.003 8.1942-18.423 79.937-4.0974 103.49 14.354 23.58 3.066 32.777 52.26 16.388 49.194-16.388 130.13-47.131 134.23-49.165 4.0972-2.0631 5.1287 24.582 5.1287 31.745 0 7.1915 2.0341 19.483 2.0341 19.483s-5.1282 6.1311-2.0341 14.326c3.0659 8.2228 0 18.451 0 18.451s1.0027 4.0973-1.0315 13.323c-2.0626 9.2257-6.16 17.42-12.291 42.003-6.1602 24.611-16.389 18.451-16.389 32.806 0 14.326-6.16 38.937-5.1285 49.166 1.0314 10.257-7.1915 20.486-9.2257 28.708-2.0629 8.1943-3.0656 18.423-3.0656 18.423s-13.323 2.0627-19.483 3.0941c-6.1315 1.003-18.451-2.0627-29.711-1.0314-11.26 1.0314-14.354-5.1283-20.486-3.0656-6.16 2.0342-12.291 0-13.323 6.1315-1.0314 6.16 13.323 5.1283 7.1628 9.2257-6.1312 4.0972-7.1628 3.0654-18.423 3.0654-11.289 0-128.1 18.452-147.55 54.323-19.483 35.843-24.583 61.457-17.42 76.843 7.1628 15.357 19.454 34.84 26.645 38.937 7.1628 4.0968 17.42 12.291 32.777 18.422 15.386 6.16 16.388 11.289 33.808 10.257 17.42-1.0312 13.323-3.0654 26.646-1.0312 13.323 2.063 61.485 6.16 86.068 2.063 24.583-4.0972 54.294-10.257 67.617-14.354 13.322-4.0972 99.391-28.68 122.97-31.746 23.552-3.0941 37.906-11.288 37.906-11.288s21.517-1.0314 39.969 5.1282c18.423 6.1602 59.422 11.26 70.683 13.323 11.288 2.0343 171.1 33.808 198.78 39.969 27.677 6.1315 60.454 8.1941 80.94 7.1626 20.486-1.0311 110.65 19.454 122.97 6.1315 12.291-13.294 19.454-14.326 36.874-20.486 17.42-6.1315 20.486 5.1284 30.743-14.325 10.258-19.483 24.583-38.937 22.549-52.26-2.063-13.323 10.228-35.871-20.514-59.422-30.714-23.58-91.168-56.357-110.65-59.451-19.454-3.0658-26.646-5.1-26.646-10.229 0-5.1287 8.194-9.2255 4.0973-13.323-4.0973-4.0969 0-9.2256-6.1315-10.257-6.1599-1.0315-20.486-1.0315-33.809-4.0974-13.323-3.0654-20.514-4.0968-27.677-8.1942-7.1628-4.0968-15.357-9.2256-35.871-4.0968-20.486 5.1283-59.423 26.645-65.554 19.482-6.1603-7.1915-7.1915-19.482-14.354-32.805-7.1628-13.323-14.354-34.84-14.354-43.034 0-8.1942-8.1942-35.872-6.1312-45.068 2.0341-9.2257-9.2257-21.517-20.486-34.84-11.288-13.323-20.514-22.549-15.386-25.614 5.1287-3.0947 7.1628-7.1916 5.1287-20.514-2.0632-13.294 1.0315-17.42 1.0315-32.777s2.0339-29.711 3.0653-36.874c1.0315-7.1915 3.0662-14.354 3.0662-14.354s44.065 37.906 142.42 55.325c0 0 25.614 7.1627 37.906 12.292 12.292 5.1283 17.42 15.386 24.611 11.288 7.163-4.0968 20.486-31.774 23.552-36.903 3.0653-5.1284-6.1314-58.391-9.226-68.648-3.0654-10.228-29.711-66.586-55.325-120.91-25.614-54.294-54.294-128.07-64.551-141.39-10.228-13.322-17.42-40.971-45.068-50.197-27.677-9.226-51.228-8.1945-63.549-7.1914-12.291 1.0314-23.551 5.1283-27.648-6.1314-4.0974-11.289-19.483-21.517-28.709-24.583-9.1973-3.0941-44.037-29.74-44.037-39.968 0-10.257-5.1287-41-2.0627-45.097 3.0654-4.0972 17.42-28.68 19.482-48.134 2.0341-19.482 19.454-16.417 19.454-16.417s8.1942-12.291 10.257-18.422c2.0342-6.1601 7.1626-31.774 9.2256-35.871 2.0347-4.0972 5.1-13.323-3.0942-20.486-8.1942-7.1915 12.291-39.968 8.1942-57.388-4.0969-17.42-26.617-109.62-81.971-113.72-12.091-0.91705-22.548-1.4612-31.831-1.4899zm205 603.94c0 3.0941 5.1283 21.517 14.354 38.937 9.2258 17.42 25.614 48.162 27.649 58.42 2.063 10.228 20.514 21.517 14.354 21.517-6.1315 0-29.711-3.0658-50.197-10.257-20.485-7.1628-36.903-9.2256-36.903-9.2256s1.0315-17.42 3.0947-27.648c2.0341-10.257 0-26.645 0-34.84 0-8.1946 4.097-7.163 12.291-10.257 8.1945-3.0656 15.357-26.645 15.357-26.645zm-432.38 24.611s14.326 8.1942 18.423 14.326c4.0973 6.16 1.0314 25.614 1.0314 33.837 0 8.1941 6.1602 26.617 3.0659 30.714-3.0659 4.0969-8.1942 9.2257-19.454 11.289-11.26 2.0341-44.066 6.1315-44.066 6.1315l41-96.297z" fill="#f0f"/>
  <path d="m1556.8 299.88c-33.178-0.057434-51.057 6.7329-72.659 29.138-27.677 28.68-39.969 33.808-42.003 59.423-2.063 25.614-13.323 65.582-13.323 65.582l-2.0627 20.486 7.1626 6.16s0 12.292 1.0315 19.454c1.0315 7.1915 8.1941 33.808 12.292 35.871 4.0969 2.0341 13.323-3.0659 15.386 7.1628 2.0342 10.257 6.1314 20.514 7.1626 28.708 1.0315 8.1946 3.0657 9.1973 3.0657 19.454s11.289 17.42 4.0974 44.066c-7.1631 26.646-32.777 57.36-40.971 65.583-8.1943 8.1942-14.354 10.228-19.483 13.294-5.1001 3.0942-23.552 9.2257-21.517 9.2257 0 0-19.454 4.0973-40.971 5.1285-21.517 1.0316-25.614-9.2255-46.1 10.257-20.514 19.454-22.549 21.517-30.743 40.971-8.1943 19.482-36.903 80.94-47.132 119.88-10.257 38.937-20.485 51.228-27.677 67.645-7.1626 16.388-20.486 50.197-21.517 58.391-1.0029 8.1942-18.423 79.937-4.0974 103.49 14.354 23.58 3.0662 32.777 52.26 16.388 49.194-16.388 130.13-47.131 134.23-49.165 4.0972-2.0632 5.1287 24.582 5.1287 31.745 0 7.1915 2.0342 19.483 2.0342 19.483s-5.1282 6.131-2.0342 14.326c3.0659 8.2229 0 18.451 0 18.451s1.0027 4.0974-1.0315 13.323c-2.0625 9.2257-6.1599 17.42-12.291 42.003-6.1604 24.612-16.389 18.451-16.389 32.806 0 14.326-6.1602 38.937-5.1287 49.166 1.0315 10.257-7.1914 20.486-9.2256 28.708-2.0627 8.1942-3.0654 18.423-3.0654 18.423s-13.323 2.0627-19.483 3.0941c-6.1314 1.003-18.451-2.0629-29.711-1.0314-11.26 1.0314-14.354-5.1284-20.486-3.0656-6.1602 2.0341-12.291 0-13.323 6.1314-1.0312 6.16 13.323 5.1284 7.1628 9.2258-6.1311 4.0972-7.1628 3.0653-18.423 3.0653-11.289 0-128.1 18.452-147.55 54.323-19.483 35.843-24.583 61.457-17.42 76.843 7.1628 15.357 19.454 34.84 26.646 38.937 7.1626 4.0968 17.42 12.291 32.777 18.422 15.386 6.16 16.388 11.289 33.808 10.257 17.42-1.0312 13.323-3.0654 26.646-1.0312 13.323 2.0631 61.485 6.16 86.068 2.0631 24.583-4.0973 54.294-10.257 67.617-14.354 13.322-4.0973 99.391-28.68 122.97-31.746 23.552-3.0941 37.906-11.288 37.906-11.288s21.517-1.0315 39.969 5.1282c18.423 6.1602 59.423 11.26 70.683 13.323 11.289 2.0343 171.1 33.809 198.78 39.969 27.677 6.1315 60.454 8.1941 80.94 7.1626 20.486-1.0311 110.65 19.454 122.97 6.1314 12.292-13.294 19.455-14.325 36.874-20.486 17.42-6.1315 20.486 5.1283 30.742-14.326 10.258-19.483 24.583-38.937 22.549-52.26-2.063-13.323 10.228-35.871-20.514-59.422-30.714-23.58-91.168-56.357-110.65-59.451-19.455-3.0658-26.646-5.1001-26.646-10.229 0-5.1287 8.1941-9.2255 4.0974-13.323-4.0974-4.0969 0-9.2256-6.1316-10.257-6.1597-1.0315-20.485-1.0315-33.809-4.0974-13.323-3.0656-20.514-4.0968-27.677-8.1942-7.1628-4.0968-15.357-9.2256-35.871-4.0968-20.486 5.1283-59.423 26.645-65.554 19.482-6.1602-7.1915-7.1914-19.482-14.354-32.806-7.1631-13.323-14.354-34.84-14.354-43.034 0-8.1942-8.1943-35.872-6.1316-45.068 2.0342-9.2256-9.2253-21.517-20.486-34.84-11.289-13.323-20.515-22.548-15.386-25.614 5.1287-3.0947 7.1628-7.1916 5.1287-20.514-2.063-13.294 1.0315-17.42 1.0315-32.777s2.0339-29.711 3.0654-36.874c1.0315-7.1915 3.0662-14.354 3.0662-14.354s44.065 37.906 142.42 55.326c0 0 25.614 7.1627 37.906 12.291 12.292 5.1284 17.42 15.386 24.611 11.288 7.1628-4.0968 20.486-31.774 23.552-36.903 3.0654-5.1284-6.1314-58.392-9.2258-68.648-3.0654-10.228-29.711-66.586-55.325-120.91-25.614-54.294-54.294-128.07-64.552-141.39-10.228-13.322-17.42-40.971-45.068-50.197-27.677-9.226-51.228-8.1946-63.548-7.1914-12.291 1.0312-23.552 5.1282-27.648-6.1314-4.0974-11.289-19.483-21.517-28.709-24.583-9.1973-3.0942-44.037-29.74-44.037-39.968 0-10.257-5.1289-41-2.063-45.097 3.0657-4.0972 17.42-28.68 19.483-48.134 2.0342-19.483 19.455-16.417 19.455-16.417s8.1938-12.291 10.257-18.422c2.0342-6.1601 7.1626-31.774 9.2256-35.871 2.0347-4.0973 5.0998-13.323-3.094-20.486-8.1946-7.1915 12.291-39.968 8.1938-57.388-4.0967-17.42-26.617-109.62-81.971-113.72-12.091-0.91699-22.548-1.4612-31.831-1.4899zm205 603.94c0 3.0941 5.1282 21.517 14.354 38.937s25.614 48.162 27.648 58.42c2.063 10.228 20.514 21.517 14.354 21.517-6.1314 0-29.711-3.0659-50.197-10.257-20.485-7.1628-36.903-9.2256-36.903-9.2256s1.0315-17.42 3.0947-27.649c2.0339-10.257 0-26.645 0-34.84 0-8.1946 4.0969-7.1628 12.291-10.257 8.1946-3.0656 15.357-26.645 15.357-26.645zm-432.38 24.611s14.326 8.1942 18.423 14.326c4.0972 6.1599 1.0312 25.614 1.0312 33.837 0 8.1942 6.1604 26.617 3.0659 30.714-3.0659 4.0969-8.1941 9.2257-19.454 11.289-11.26 2.0339-44.065 6.1314-44.065 6.1314l41-96.297z" fill="#7f007f"/>
  <path d="m2611.2 299.88c-33.178-0.057373-51.057 6.733-72.659 29.138-27.677 28.68-39.969 33.808-42.003 59.423-2.063 25.614-13.323 65.582-13.323 65.582l-2.0627 20.486 7.1626 6.1601s0 12.292 1.0315 19.454c1.0315 7.1915 8.1941 33.808 12.292 35.872 4.0969 2.0341 13.323-3.0659 15.386 7.1628 2.0342 10.257 6.1314 20.514 7.1626 28.708 1.0315 8.1946 3.0657 9.1973 3.0657 19.454s11.289 17.42 4.0974 44.066c-7.1631 26.646-32.777 57.36-40.971 65.583-8.1943 8.1942-14.354 10.228-19.483 13.294-5.1001 3.0942-23.552 9.2257-21.517 9.2257 0 0-19.454 4.0973-40.971 5.1287-21.517 1.0315-25.614-9.2256-46.1 10.257-20.514 19.454-22.549 21.517-30.743 40.971-8.1943 19.482-36.903 80.94-47.132 119.88-10.257 38.937-20.485 51.228-27.677 67.645-7.1626 16.388-20.486 50.197-21.517 58.391-1.0029 8.1942-18.423 79.937-4.0974 103.49 14.354 23.58 3.0662 32.777 52.26 16.388 49.194-16.388 130.13-47.131 134.23-49.165 4.0972-2.0631 5.1287 24.583 5.1287 31.745 0 7.1915 2.0342 19.483 2.0342 19.483s-5.1282 6.1311-2.0342 14.326c3.0659 8.2228 0 18.451 0 18.451s1.0027 4.0973-1.0315 13.323c-2.0625 9.2257-6.1599 17.42-12.291 42.003-6.1604 24.611-16.389 18.451-16.389 32.806 0 14.326-6.1602 38.937-5.1287 49.166 1.0315 10.257-7.1914 20.486-9.2256 28.708-2.0627 8.1943-3.0654 18.423-3.0654 18.423s-13.323 2.0627-19.483 3.0941c-6.1314 1.003-18.451-2.0627-29.711-1.0314-11.26 1.0314-14.354-5.1283-20.486-3.0656-6.1602 2.0342-12.291 0-13.323 6.1315-1.0312 6.16 13.323 5.1283 7.1628 9.2257-6.1311 4.0972-7.1628 3.0654-18.423 3.0654-11.289 0-128.1 18.452-147.55 54.323-19.483 35.843-24.583 61.457-17.42 76.843 7.1628 15.357 19.454 34.84 26.646 38.937 7.1626 4.0968 17.42 12.291 32.777 18.422 15.386 6.16 16.388 11.289 33.808 10.257 17.42-1.0312 13.323-3.0654 26.646-1.0312 13.323 2.063 61.485 6.16 86.068 2.063 24.583-4.0972 54.294-10.257 67.617-14.354 13.322-4.0972 99.391-28.68 122.97-31.746 23.552-3.0941 37.906-11.288 37.906-11.288s21.517-1.0314 39.969 5.1282c18.423 6.1602 59.423 11.26 70.683 13.323 11.289 2.0343 171.1 33.808 198.78 39.969 27.677 6.1316 60.454 8.1942 80.94 7.1627 20.486-1.0311 110.65 19.454 122.97 6.1314 12.292-13.294 19.455-14.326 36.874-20.486 17.42-6.1315 20.486 5.1284 30.743-14.325 10.257-19.483 24.583-38.937 22.548-52.26-2.063-13.323 10.229-35.871-20.514-59.422-30.714-23.58-91.169-56.357-110.65-59.451-19.455-3.0658-26.646-5.1-26.646-10.229 0-5.1287 8.1941-9.2255 4.0974-13.323-4.0974-4.0969 0-9.2256-6.1316-10.257-6.1597-1.0315-20.485-1.0315-33.809-4.0974-13.323-3.0654-20.514-4.0968-27.677-8.1942-7.1628-4.0968-15.357-9.2256-35.871-4.0968-20.486 5.1283-59.423 26.645-65.554 19.482-6.1602-7.1915-7.1914-19.482-14.354-32.805-7.1631-13.323-14.354-34.84-14.354-43.034 0-8.1942-8.1943-35.872-6.1316-45.068 2.0342-9.2257-9.2253-21.517-20.486-34.84-11.289-13.323-20.515-22.549-15.386-25.614 5.1287-3.0947 7.1628-7.1916 5.1287-20.514-2.063-13.294 1.0315-17.42 1.0315-32.777s2.0339-29.711 3.0654-36.874c1.0315-7.1915 3.0662-14.354 3.0662-14.354s44.065 37.906 142.42 55.325c0 0 25.614 7.1627 37.906 12.292 12.292 5.1283 17.42 15.386 24.611 11.288 7.1628-4.0968 20.486-31.774 23.552-36.903 3.0654-5.1284-6.1314-58.391-9.2258-68.648-3.0654-10.228-29.711-66.586-55.325-120.91-25.614-54.294-54.294-128.07-64.552-141.39-10.228-13.322-17.42-40.971-45.068-50.197-27.677-9.226-51.228-8.1945-63.548-7.1914-12.291 1.0314-23.552 5.1283-27.648-6.1314-4.0974-11.289-19.483-21.517-28.709-24.583-9.1973-3.0941-44.037-29.74-44.037-39.968 0-10.257-5.1289-41-2.063-45.097 3.0657-4.0972 17.42-28.68 19.483-48.134 2.0342-19.482 19.455-16.417 19.455-16.417s8.1938-12.291 10.257-18.422c2.0342-6.1601 7.1626-31.774 9.2256-35.871 2.0347-4.0973 5.0998-13.323-3.094-20.486-8.1946-7.1915 12.291-39.968 8.1938-57.389-4.0967-17.42-26.617-109.62-81.971-113.72-12.091-0.91705-22.548-1.4612-31.831-1.4899zm205 603.94c0 3.0941 5.1282 21.517 14.354 38.937s25.614 48.162 27.648 58.42c2.063 10.228 20.514 21.517 14.354 21.517-6.1314 0-29.711-3.0658-50.197-10.257-20.485-7.1628-36.903-9.2256-36.903-9.2256s1.0315-17.42 3.0947-27.648c2.0339-10.257 0-26.645 0-34.84 0-8.1946 4.0969-7.163 12.291-10.257 8.1946-3.0656 15.357-26.645 15.357-26.645zm-432.38 24.611s14.326 8.1942 18.423 14.326c4.0972 6.16 1.0312 25.614 1.0312 33.837 0 8.1941 6.1604 26.617 3.0659 30.714-3.0659 4.0969-8.1941 9.2257-19.454 11.289-11.26 2.0341-44.065 6.1315-44.065 6.1315l41-96.297z" fill="#ff007f"/>
 </g>
</svg>
