<?xml version='1.0' encoding='utf-8'?>
<svg xmlns="http://www.w3.org/2000/svg" version="1.1" width="600px" height="976px" viewBox="0 0 600 976"> <g id="layer1"> <g style="fill:rgb(0,0,0); fill-opacity:1.0; stroke-linejoin: miter"> <path d="M173.20526,630.3897C173.5773,630.3895,174.63,633.658,175.53635,637.5962C176.44319,641.6093,177.34914,645.3995,177.57439,645.99365C177.87401,646.5877,177.95186,647.5543,177.87904,648.00085C177.8066,648.5211,178.03072,648.96606,178.40178,648.9659L178.40376,648.9659C178.84984,648.96564,179.37569,650.52515,179.67964,652.38275C179.90944,654.24133,180.65929,655.94946,181.25511,656.17053C181.8509,656.39154,182.29927,656.9849,182.3014,657.57996C182.30559,658.76996,182.0814,658.47327,192.90555,669.5173C197.3097,673.9644,202.15947,678.2611,203.72429,679.0738C205.2889,679.81195,207.00356,680.9216,207.5258,681.36597C208.04826,681.8848,209.31505,682.5497,210.3572,682.7691C211.32484,682.9889,212.14456,683.43225,212.14566,683.7298C212.14667,684.0272,213.41348,684.6922,214.97723,685.2073C216.46695,685.79694,217.8825,686.46136,218.10645,686.6838C218.7038,687.425,226.59499,691.18756,227.64156,691.187L227.6458,691.187C228.09108,691.18677,228.53639,691.48236,228.53795,691.9276C228.53926,692.2983,229.20558,692.6665,230.01997,692.666L230.04146,692.666C230.85356,692.6656,231.51648,692.8855,231.51758,693.1814C231.51886,693.55334,229.95747,693.70764,228.0237,693.7145C227.79662,693.7069,227.50874,693.7033,227.16753,693.7035C224.4907,693.70496,218.53311,693.9391,212.92693,694.2888C202.30664,694.88904,196.38196,695.2222,193.02383,695.22406C188.83403,695.2264,188.63942,694.71277,188.30501,693.5579C188.0038,692.51764,187.25343,690.6608,186.57982,689.47327C185.90593,688.2112,185.37996,686.7254,185.37761,686.056C185.3755,685.461,185.00041,684.5698,184.47798,684.05096C183.95549,683.5322,183.87978,683.1606,184.17729,683.15955C184.54918,683.1582,183.95018,682.0446,182.97856,680.70935C182.00708,679.44836,180.73453,677.14716,180.13449,675.736C179.60883,674.32477,178.8595,672.7655,178.63507,672.39435C178.33594,671.9491,177.50961,669.6464,176.75714,667.1945C176.079,664.7424,175.25241,662.36523,174.87918,661.9947C174.58008,661.5495,173.67987,659.39557,172.92822,657.167C171.42514,652.784,171.01096,640.8849,172.10184,633.8894C172.39246,631.95465,172.90753,630.39087,173.20505,630.3898 Z M72.85007,619.1718C72.97461,619.17175,73.47418,621.93384,74.04132,625.5351C74.65007,629.4007,75.55737,633.56256,76.00789,634.751C76.533005,636.0136,76.98453,637.49963,77.061035,638.09436C77.13777,638.7635,77.59172,640.9189,77.97099,643.0001C78.87884,647.3109,77.570114,655.7947,75.13339,660.7866C74.3954,662.4256,73.73395,664.6593,73.73792,665.77515C73.74505,667.78326,71.9742,671.806,70.27014,673.67145C69.825714,674.1937,69.23573,675.609,68.94269,676.8744C68.649414,678.0656,68.20682,679.10846,67.83496,679.10974C67.46306,679.111,66.79788,680.3034,66.35694,681.79254C65.84153,683.28204,65.0308,685.3675,64.43946,686.4109C63.848366,687.5286,63.406364,688.7203,63.407692,689.0921C63.409264,689.5384,62.376377,691.9222,61.120945,694.45557L58.83165,699.0751L48.271103,699.4101C46.301907,699.4813,44.579052,699.51465,43.114906,699.51544C39.491917,699.5174,37.453224,699.32007,37.187218,699.0032C36.9774,698.72546,36.800667,698.59424,36.641724,698.5943C36.461052,698.5944,36.303368,698.7642,36.146225,699.08124C35.999302,699.6024,35.25716,700.05133,34.58774,700.0537C33.174294,699.9843,35.768795,697.5207,40.369625,694.5292C44.450924,691.8371,53.714302,682.2838,53.708992,680.7962C53.70742,680.3499,54.003334,679.9026,54.300346,679.75287C55.934277,679.0776,63.263054,669.30804,64.07221,666.7763C64.58707,665.13794,65.32475,663.42474,65.69508,662.9771C66.13951,662.45483,66.723694,659.4033,67.08395,656.12946C67.44451,652.9299,68.24999,649.35675,68.84078,648.1647C69.43159,646.97253,69.942726,644.2931,69.935036,642.1361C69.927666,640.05347,70.21833,638.11865,70.58938,637.8941C71.10871,637.5204,71.83271,631.9395,72.5445,622.93713C72.61309,621.30054,72.75578,619.58936,72.82883,619.21716C72.8338,619.18665,72.84093,619.1718,72.85007,619.1718 Z M111.52479,421.05792C110.60613,421.0584,109.98223,421.19342,109.68803,421.46277C109.31742,421.83612,106.645386,423.40753,103.74997,424.90533C100.63191,426.55273,97.14562,429.24274,94.99688,431.55594C91.44048,435.4363,87.08072,443.48477,87.08969,446.01358C87.092606,446.83176,86.79826,447.72525,86.502075,448.09824C84.650314,450.26187,84.14839,455.54446,84.56914,469.30292C84.996765,484.9953,85.449066,486.7044,89.319885,487.58325C90.4366,487.8767,91.55434,488.46777,91.853455,488.91296C92.45167,489.8034,92.054214,503.56485,91.32312,507.13766C90.94089,508.9152,90.92705,509.44876,91.53143,509.44846C91.73691,509.44833,92.013855,509.3865,92.372086,509.2908C92.74722,509.1644,93.12262,509.10373,93.44833,509.10355C93.89659,509.1033,94.25076,509.21762,94.38075,509.43246C95.27832,510.84244,92.31961,515.4645,89.055695,517.93054C87.05279,519.4251,85.12429,520.9197,84.6052,521.3677C84.08587,521.74146,83.41781,522.1157,83.045906,522.11694C82.674,522.1184,81.93186,522.5672,81.487686,523.1638C80.96912,523.7608,79.48424,524.50977,78.22089,524.81177C76.95726,525.03937,75.54643,525.7138,75.10205,526.236C74.73175,526.68353,72.50332,527.5096,70.1251,528.0388C65.36864,529.097,58.611366,532.2448,56.833427,534.2593C56.16668,535.0055,55.276237,535.60376,54.904346,535.60504C54.086216,535.6079,49.34189,540.08746,46.602062,543.5187C44.157906,546.42816,40.62582,557.151,40.272663,562.4332C40.274776,563.02826,39.835087,564.8893,39.320553,566.60175C37.777363,571.888,38.347137,606.69525,40.07342,611.07745C40.44901,612.11743,40.526844,613.0841,40.155727,613.3085C39.858986,613.5328,39.567863,615.3188,39.500343,617.2529C39.099197,629.973,37.656536,642.6226,36.47073,643.81683C36.026024,644.2648,35.731407,645.0839,35.73352,645.67896C35.735916,646.3484,34.773216,647.5418,33.585846,648.2898C32.398724,649.1122,30.842592,650.7541,30.177408,651.9465C29.437843,653.1392,27.439444,655.89825,25.662296,658.136C23.88514,660.3736,22.404959,662.46124,22.406569,662.90753C22.410528,664.02313,17.965012,668.87354,16.923737,668.8772C16.403067,668.8791,15.51534,670.2211,15.000478,671.85925C14.411564,673.572,13.673297,675.1367,13.153742,675.43604C12.70852,675.7351,11.745857,676.9285,11.006537,678.1957C10.192633,679.38855,8.786053,681.25305,7.8972197,682.2975C6.934015,683.3421,4.1182227,686.3273,1.672991,688.9393C-0.77196604,691.62555,-2.7709162,694.23596,-2.7688105,694.831C-2.7668803,695.3745,-3.4209492,695.6238,-4.50624,695.6243C-6.98572,695.62573,-11.716019,694.32874,-16.017248,692.27466C-18.723124,691.0011,-21.182615,690.03326,-21.778818,690.0336C-21.839243,690.0336,-21.880526,690.04364,-21.900988,690.0643C-21.98297,690.1744,-22.136133,690.22394,-22.334246,690.22406C-22.672733,690.22424,-23.142422,690.0801,-23.612423,689.8471C-23.913261,689.6921,-24.206064,689.6165,-24.488012,689.61664C-25.951988,689.61743,-27.123503,691.66,-27.609823,695.2166C-28.191095,699.0864,-28.85894,699.53503,-33.61911,699.55194C-35.40414,699.5583,-37.113224,700.0107,-37.48355,700.4582C-38.148735,701.6506,-37.72536,716.1529,-36.979725,716.67096C-36.68146,716.89294,-36.23279,717.5607,-36.007538,718.155C-35.78228,718.74927,-32.727543,720.2259,-29.153217,721.4033C-25.653227,722.5811,-22.525133,723.7601,-22.300703,724.13116C-22.077497,724.5001,-20.972084,724.7924,-19.862738,724.7918L-19.84387,724.7918C-19.83264,724.79175,-19.82144,724.7917,-19.81027,724.7917C-16.49237,724.78986,-15.827904,726.2766,-17.520739,729.69257C-19.367483,733.2692,-20.459929,739.8184,-19.48696,741.52563C-19.112667,742.1938,-19.033817,743.4579,-19.254055,744.27673C-19.474012,745.1701,-19.02245,746.6561,-18.27473,747.7692C-17.527254,748.8078,-16.478333,750.96106,-15.877769,752.5209C-15.352042,754.0061,-14.678396,755.26776,-14.380758,755.26764L-14.3802395,755.26764C-14.081853,755.26746,-11.844133,757.19293,-9.381865,759.5638L-5.5466394,763.24493L-5.545846,763.24493Q-2.7038693,764.82794,0.43963692,766.62756Q2.0035813,767.2917,10.357804,773.3827L10.358758,773.3827Q11.83578,773.7518,14.083953,774.3579L14.083961,774.3579C26.42206,773.86456,35.832104,773.1917,36.631016,772.7887C37.37176,772.44366,39.514725,772.2688,42.152393,772.26733C42.951977,772.2669,43.79698,772.2824,44.6622,772.3139C46.014194,772.3937,47.291416,772.43097,48.364693,772.43036C50.126137,772.4294,51.338238,772.32635,51.43002,772.1411C51.57774,771.84314,55.666874,771.3823,60.42599,771.06793C65.55701,770.7522,69.57154,770.2173,70.23882,769.6199C71.12899,768.94727,90.31783,768.73047,159.04298,768.561C159.34248,768.5608,159.64162,768.5607,159.94044,768.5606C171.12425,768.55444,181.82294,768.52997,191.65099,768.4923L191.65376,768.4923Q194.24733,767.8273,196.96033,767.1386L196.96317,767.1386Q204.14185,764.2117,212.19814,760.9714Q230.20033,756.368,244.40504,752.9387L244.40831,752.9387C243.47993,752.5696,243.55019,752.1221,244.81587,751.67035C245.55864,751.3702,247.04344,750.62103,248.00795,749.94824C248.9728,749.34973,250.23506,748.7502,250.75551,748.67395C251.9448,748.44666,256.2473,745.2332,256.24466,744.48944C256.24365,744.1919,258.4659,741.6552,261.28223,738.8188C266.98825,732.8482,268.8395,730.5358,268.83472,729.1971C268.8329,728.6764,269.2032,728.2288,269.57507,728.22754C270.02127,728.2259,270.31485,727.10913,270.3845,725.7701C270.4544,724.50543,270.6707,722.57086,270.96448,721.52844C271.62595,719.2947,270.71442,713.9427,269.14163,710.89874C268.54208,709.6364,268.166,708.4477,268.3887,708.29816C268.61096,708.07416,270.39444,707.62164,272.32718,707.3173C274.26,707.0129,277.52942,706.1087,279.6835,705.2829C281.43903,704.58606,283.08936,704.1015,283.69583,704.10114C283.8078,704.1011,283.8842,704.1176,283.9191,704.15216C283.94873,704.1964,284.0223,704.217,284.13208,704.2169C284.5757,704.2167,285.61166,703.87933,286.74274,703.3984C288.07938,702.79865,289.7134,702.1234,290.4564,701.89764C291.12494,701.67206,292.38168,699.51074,293.26578,697.12744C295.108,692.2863,294.94037,686.9317,292.84662,683.8152L291.65027,682.03436L289.42468,683.6786C288.2379,684.5754,287.05338,686.14154,286.75952,687.1839C286.65433,687.6112,286.5423,687.84863,286.39514,687.8487C286.02966,687.8489,285.44754,686.3849,284.21487,682.7302C283.0127,679.31305,282.03357,675.895,282.03125,675.22565C282.0272,674.0737,280.79745,673.4115,279.26224,673.41235C278.3192,673.4129,277.2609,673.6636,276.30057,674.2047C275.18723,674.87805,273.33096,675.7773,272.21716,676.3018C271.02893,676.8268,270.13876,677.49927,270.13977,677.7968C270.14087,678.09436,269.02625,678.3958,267.61307,678.4008C266.27432,678.4056,263.22794,679.3089,260.92603,680.3584L256.76743,682.2326L253.63434,679.6405C251.91888,678.15936,250.2787,676.97534,250.05486,676.97546L250.05415,676.97546C249.75636,676.97565,249.08455,676.1601,248.56056,675.1213C248.03645,674.15625,246.99153,673.11865,246.32124,672.89795C244.68315,672.3831,232.06952,660.08105,227.66228,654.74146C225.86925,652.5165,221.83754,648.2168,218.70288,645.17834C212.20898,638.7305,207.50215,632.797,207.49525,630.86316C207.49266,630.11945,206.81233,627.0722,205.9839,624.17444C205.15526,621.2023,204.47368,617.78314,204.4692,616.51874C204.46495,615.3287,203.93477,612.65283,203.33266,610.6467C202.43013,607.8236,202.18874,602.6923,202.13643,587.96564C202.09917,577.4783,201.76659,567.5872,201.38893,565.9522C201.01118,564.3172,200.33095,561.2701,199.95198,559.2632C199.49828,557.18225,198.29326,552.94696,197.24086,549.82684C196.18846,546.70667,195.28539,543.7347,195.28331,543.13965C195.28145,542.619,193.93578,540.69,192.21849,538.8367C190.57558,536.98303,188.33452,534.23895,187.28761,532.68066C185.7264,530.4671,184.90677,529.943,182.99557,529.94403C182.98505,529.94403,182.97452,529.94403,182.96396,529.94403C182.95789,529.94403,182.95178,529.9441,182.94568,529.9441C181.61163,529.9448,180.134,529.5055,179.68796,528.9888C178.34311,527.2828,172.7563,524.92255,168.4395,524.11975C161.36919,522.88043,157.86969,521.8515,155.70752,520.37164C154.59003,519.5583,153.32462,518.89386,152.8772,518.8941L152.8742,518.8941C151.60403,518.8948,143.11682,514.54004,143.11441,513.871C143.11337,513.5735,142.73254,511.04605,142.35062,508.22104C141.74213,504.42978,141.80939,502.42136,142.47241,500.63388C143.28265,498.39975,143.13205,497.87973,141.712,495.95074C140.51617,494.31873,140.06409,492.68396,140.05435,489.932C140.04141,486.28748,140.11551,486.2129,142.27246,486.2052C144.8013,486.1963,147.9895,483.35858,148.57504,480.67883C149.5973,475.32,149.58226,471.08038,148.45154,466.84482C147.77312,464.31842,147.39091,461.41898,147.61064,460.45126C147.97514,458.3674,144.80113,444.2468,142.54842,438.23007C141.64738,435.77945,131.9479,425.99994,130.38245,426.0008L130.37805,426.0008C129.8588,426.0011,129.41312,425.6316,129.41177,425.2605C129.41049,424.89545,128.663,424.6325,127.6177,424.63312C127.38517,424.63324,127.1379,424.64648,126.88084,424.67438C126.72619,424.68317,126.56974,424.68732,126.41297,424.68744C125.13735,424.6881,123.83963,424.41327,123.308334,424.01776C122.71146,423.4992,120.77501,422.76227,118.98837,422.32233C115.7049,421.4782,113.152275,421.057,111.52479,421.05792 Z"/> </g> <g style="fill:rgb(0,0,0); fill-opacity:1.0; stroke-linejoin: miter"> <path d="M371.90295,157.75282L377.20227,162.9407C380.11325,165.831,383.84637,169.83417,385.48987,171.83649C387.1333,173.83896,389.07556,176.21231,389.7476,176.95361C390.49426,177.76901,391.24255,179.03094,391.54272,179.77353C391.76825,180.51617,392.21625,181.10913,392.51376,181.10898L392.51465,181.10898C392.81235,181.1088,393.5606,182.44475,394.08682,184.0786C394.61304,185.71239,395.36124,187.04796,395.73325,187.04774L395.73416,187.04774C396.03152,187.04756,396.3319,187.93886,396.41025,189.05357C396.41446,190.24364,397.2411,192.62083,398.2145,194.47685C399.26245,196.33269,400.23672,198.4117,400.53662,199.08003C400.76224,199.82253,401.2102,200.4156,401.50772,200.41545L401.5094,200.41545C402.77646,200.41475,409.1937,207.08342,411.43753,210.7933L413.90652,214.8753L413.95297,227.96573C413.98312,236.44481,413.70328,241.42912,413.185,242.10027C412.7409,242.69695,412.1509,244.11232,411.85785,245.37773C411.56458,246.56874,410.67807,248.28256,409.86307,249.17807C408.01053,251.11847,406.69678,258.1892,407.30692,262.42664C407.76266,265.10266,408.28677,266.06778,410.22452,267.17645C411.56628,267.9898,413.57755,268.87534,414.84277,269.09387C416.03387,269.38712,417.45026,270.27472,418.04816,271.0908C418.57098,271.83206,419.39063,272.49814,419.763,272.49792L419.76492,272.49792C420.21216,272.49768,421.4786,273.3853,422.5976,274.5704C424.53827,276.49738,425.28915,278.503,428.15485,289.5751C428.68207,291.43265,429.43292,293.43826,429.807,294.032C430.55475,295.14493,433.04272,304.58218,435.08582,314.39288C435.6908,317.21716,436.51794,319.74304,436.81628,319.96506C437.1889,320.187,438.09412,323.7539,438.85242,327.84216C439.53638,331.93045,440.44177,335.57162,440.6665,336.0172C440.96536,336.3879,441.64108,338.17078,442.24222,339.87927C442.76895,341.66183,443.51736,343.07202,443.88937,343.0718L443.89053,343.0718C444.18777,343.07166,444.48697,343.66522,444.48935,344.33395C444.496,346.19348,446.74786,351.98697,448.39267,354.3614C449.1401,355.39987,449.73965,356.6623,449.74118,357.10852C449.74307,357.6334,448.07858,357.92313,446.4605,357.924C445.0976,357.92477,443.76764,357.7206,443.49402,357.27948C443.2696,356.9083,439.92084,356.39963,436.2008,356.11536C432.40656,355.83127,428.9834,355.3228,428.53595,355.0268C428.16315,354.7306,423.84674,354.07657,419.01035,353.57306C414.24838,353.0694,410.0808,352.4147,409.85645,352.04367C409.63303,351.67435,408.67358,351.38138,407.71152,351.38193C407.7067,351.38193,407.7019,351.38193,407.69708,351.38193C407.69254,351.38193,407.68796,351.38202,407.68338,351.38202C406.72104,351.3825,405.7607,351.08948,405.46335,350.72034C405.23886,350.3493,402.93112,349.7624,400.25262,349.54886C397.574,349.2609,395.41528,348.7477,395.41394,348.37592C395.4129,348.0784,394.51898,347.7096,393.40286,347.56494C391.84036,347.42163,391.0191,346.53204,389.52094,343.56235C386.52448,337.54828,380.7002,331.17242,376.00568,328.73444C373.77023,327.5523,371.83218,326.36917,371.68207,325.9978C371.5333,325.70285,370.65076,325.48383,369.69125,325.48434C369.68488,325.48434,369.67847,325.48434,369.67203,325.48434L369.66046,325.48438C368.69684,325.4849,367.66162,325.11813,367.4381,324.7484C367.2157,324.3078,365.31982,324.01855,363.2629,324.01968C363.24057,324.01968,363.2182,324.01968,363.19586,324.0198C363.18518,324.01987,363.17444,324.01987,363.16373,324.01987C359.82178,324.02173,355.5998,322.4797,354.33383,320.92722C353.51147,319.7401,345.0185,315.82816,342.48822,315.46524C340.5534,315.17453,339.36047,314.36066,338.0151,312.50607C337.04288,311.02197,335.6247,309.61377,334.87933,309.17017C334.13416,308.801,333.5349,307.61295,333.53122,306.57172C333.52676,305.30722,332.92917,304.56573,331.66293,304.0495C330.17322,303.45978,329.79922,302.86606,329.79187,300.78342C329.78708,299.44467,329.2609,297.88464,328.6641,297.36594C328.0672,296.84753,327.5429,295.8081,327.54025,295.0644C327.5376,294.32053,326.78983,293.20746,325.89487,292.54114C324.1802,291.43158,324.17917,291.13406,324.1256,276.03555C324.08444,264.43265,324.29416,260.63864,325.03708,260.41293C325.4825,260.18802,325.92566,259.29413,325.92224,258.32715C325.91876,257.3602,326.2126,256.31787,326.6581,256.09314C327.02914,255.86871,327.31818,253.48749,327.23438,250.81036C327.07242,247.09201,327.29074,245.75218,328.18173,245.30284C328.84982,244.92851,329.8106,243.2145,330.3249,241.42772C330.83923,239.6408,331.57693,237.92732,331.94724,237.47972C332.24347,237.10683,332.53506,235.46959,332.5293,233.83315C332.5158,230.04,333.91498,226.09288,335.54944,225.56633C336.44098,225.26567,336.88217,223.85083,337.2396,219.75885C337.52676,216.85703,338.03763,214.10327,338.40817,213.73001C339.37167,212.75974,339.33206,201.60304,338.36307,201.01152C336.94675,200.12395,337.60443,196.84901,340.11957,192.97227C341.45074,190.81075,343.00162,187.68138,343.51675,186.11754C344.69327,182.32014,345.35977,181.49962,347.73773,180.89612C349.5212,180.44333,351.52383,178.87444,357.08344,173.57364C358.26947,172.45377,359.38205,171.5575,359.6795,171.5564C359.97702,171.5553,361.31134,170.28601,362.79333,168.71887C364.20117,167.22644,366.4249,165.06146,367.68564,164.01566C368.94662,163.04425,370.35318,161.1799,370.94397,159.98763L371.90295,157.75282 Z M359.8031,95.01079C359.7644,95.01082,359.7316,95.01401,359.70523,95.02069C356.2858,95.55347,352.86835,96.68142,352.87048,97.2763C352.87183,97.64823,352.4266,97.947395,351.8315,97.949425C351.23648,97.95164,349.6036,98.924324,348.26932,100.19344C346.71588,101.63448,345.81555,102.30421,344.92023,102.304695C344.192,102.30511,343.46698,101.86269,342.39642,101.03239C340.44162,99.54859,333.53677,98.2591,329.3189,98.26142C328.0655,98.26211,327.04932,98.376884,326.47092,98.63453C325.3571,99.15919,324.61673,100.128746,324.61993,101.02129C324.62277,101.839424,324.32767,102.509834,323.9558,102.511116C323.58395,102.51241,322.7673,102.96171,322.24854,103.48417C321.72983,104.00662,319.42728,104.9073,317.19778,105.43584C313.77908,106.191864,312.74008,106.86485,310.8156,109.47505L308.59534,112.60683L301.23148,112.484146C300.29492,112.460724,299.4523,112.44899,298.69745,112.4494C295.25552,112.451294,293.63968,112.705795,293.27563,113.256195C292.46234,114.5229,292.54688,117.495636,293.4383,117.49515L293.44257,117.49515C293.88718,117.4949,294.18433,117.79112,294.1859,118.23631C294.18985,119.35196,291.07785,122.71009,289.96222,122.71398C289.44153,122.71583,288.99707,123.23809,288.9992,123.83312C289.0016,124.50243,288.48337,125.173744,287.88913,125.399025C287.2951,125.69857,286.03677,127.413704,285.0765,129.27655C282.64026,134.41727,282.04868,135.38644,281.45364,135.38846C280.2636,135.39273,280.94412,138.51419,282.81378,141.40848C284.98215,144.821,289.38486,149.48909,290.42804,149.48851L290.42978,149.48851C290.87662,149.48827,292.0702,150.67365,293.116,152.08237C294.23666,153.49152,294.91028,154.6792,294.61276,154.6803C294.38965,154.68106,294.53998,155.12668,294.98837,155.72025C295.5111,156.31345,295.89917,160.84915,296.0727,167.84004C296.26132,179.07057,296.18854,179.51701,293.23395,185.32912C292.6426,186.37242,292.2011,187.71281,292.2027,188.15916C292.20618,189.12593,284.8763,198.59811,284.1326,198.60071C283.90942,198.60147,282.64844,199.57303,281.46255,200.7673C280.20215,201.88742,278.05048,203.38254,276.63998,204.13141C275.22922,204.80566,272.5582,206.67477,270.70456,208.31757C268.85095,209.96045,267.07062,211.30579,266.69876,211.30707C266.40125,211.30817,264.8438,212.57803,263.3618,214.1452C261.87973,215.7124,259.58008,217.43134,258.39166,217.88162C256.08945,218.85687,251.42285,224.30302,251.42896,226.01369C251.43082,226.53432,250.76666,228.0243,249.95334,229.36598C248.77036,231.37843,248.47888,233.0902,248.50085,239.26353C248.59802,245.65973,248.82666,247.22083,250.3999,250.41357C251.44836,252.41809,252.27417,254.57202,252.27573,255.01837C252.27756,255.53845,252.57602,255.98318,252.87323,255.983L252.87442,255.983C253.24634,255.98279,253.92343,258.2113,254.4538,260.96085C255.05878,263.78516,255.88678,266.53415,256.33517,267.12753C256.85788,267.72073,257.83804,271.43628,258.59558,275.30112C259.27866,279.16653,260.26297,284.072,260.7166,286.15298C261.62454,290.46378,261.34174,294.62994,258.7447,317.32443C258.02255,323.42606,257.21872,327.44543,256.47775,328.26614C255.88516,328.93762,255.51752,330.12912,255.66885,330.8723C255.95682,332.28592,258.43738,332.95996,263.92947,332.95694C265.65683,332.956,267.68204,332.888,270.03064,332.75507L278.28497,332.27957L281.20605,337.9964C282.77878,341.1142,284.3493,343.63715,284.64728,343.637L284.64777,343.637C284.9454,343.63684,285.61877,344.82413,286.0699,346.23523C286.52094,347.64636,287.1944,348.83365,287.41766,348.83353L287.41962,348.83353C288.46054,348.83295,289.65857,351.57825,289.06735,352.54657C288.79495,352.97794,288.5629,353.18283,288.28464,353.18298C288.03406,353.1831,287.74603,353.01727,287.3572,352.70145C286.66785,352.1311,272.4519,351.84412,258.49908,351.85178C245.27498,351.85904,232.28728,352.131,231.27582,352.6775C230.53333,353.052,227.04028,353.80823,223.47198,354.34152C219.82938,354.87506,216.931,355.5548,216.93231,355.9266C216.93332,356.22412,216.33936,356.52383,215.66997,356.52606C213.51302,356.5338,208.9069,358.03778,207.869,359.00842C207.35023,359.53088,206.01436,360.35382,204.90025,360.8039C201.63295,362.303,200.30629,365.72916,200.2567,372.72095C200.27568,378.0761,200.12987,378.89478,199.0142,378.89868C198.2704,378.90134,197.6765,379.201,197.67755,379.49857C197.67886,379.87042,196.26834,380.61917,194.55948,381.14587C191.2908,382.27322,186.54388,386.00894,186.54941,387.5709C186.55127,388.09158,186.10681,388.61377,185.51257,388.839C184.9184,389.0643,184.1807,390.77756,183.96413,392.6378C183.67323,394.49838,183.15813,396.06216,182.78624,396.06345C182.41435,396.06467,182.11873,396.58646,182.1208,397.1815C182.12294,397.7758,182.42165,398.2949,182.79298,398.2947L182.79454,398.2947C183.16643,398.29453,183.69234,399.85422,183.99632,401.71185C184.22607,403.5705,184.97595,405.2785,185.57175,405.49957C186.16754,405.72058,186.61597,406.3141,186.61752,406.7603C186.62253,408.1728,191.09546,412.39264,192.58542,412.39185L192.5925,412.39185C193.33624,412.39142,194.45029,412.9071,195.0462,413.49884C195.64337,414.09167,197.80347,414.97662,199.73883,415.41602C201.74896,415.92963,203.5361,416.51825,203.76031,416.81494C204.20865,417.4084,218.79189,418.84424,230.39725,419.47247C234.93501,419.6795,238.7299,420.11237,238.73094,420.4098C238.73204,420.70734,264.2459,421.28613,295.4863,421.69598C316.01376,421.98154,331.3598,422.1284,346.15717,422.12027C365.13977,422.10983,383.21954,421.84427,410.1766,421.2889C442.08276,420.655,468.33566,419.89236,468.55765,419.5941C468.77975,419.2958,472.64584,418.8358,477.10773,418.59677C489.60052,417.8088,503.5038,416.27188,503.50174,415.67685C503.5007,415.3793,504.83792,414.92825,506.47318,414.62497C508.1085,414.32162,509.96542,413.64566,510.48428,413.12314C511.00278,412.5262,512.48804,411.85168,513.60266,411.55017C516.7982,410.79504,522.0576,404.7516,522.04755,401.9253C522.0457,401.4046,522.41547,400.8083,522.8612,400.65796C523.3813,400.5074,523.74634,398.57214,523.7371,395.969C523.72784,393.36572,523.34906,391.43335,522.82794,391.2864C522.3811,391.13925,522.00714,390.5455,522.0053,390.02487C521.994,386.8266,516.6936,381.34143,512.5243,380.1661C510.73734,379.65186,509.32175,378.98752,509.3204,378.61557C509.31937,378.31805,507.4575,377.65524,505.2244,377.14255L501.13052,376.26453L501.1165,372.32248C501.1019,368.23163,499.6592,359.9066,498.83862,359.2399C498.6147,359.01773,497.9395,357.38385,497.4123,355.52615C496.88525,353.74307,495.7614,351.44122,495.01398,350.40256C494.26678,349.43835,493.59283,348.17627,493.591,347.65564C493.58917,347.135,493.14032,346.39264,492.6186,346.0971C492.02246,345.8018,490.97626,344.3923,490.22766,343.05597C489.4054,341.7951,488.50928,340.68298,488.21143,340.68317L488.21082,340.68317C487.9876,340.6833,487.31415,339.49585,486.78864,338.0849C486.26318,336.67413,485.58997,335.48685,485.29224,335.487L485.29163,335.487C484.9939,335.48715,484.2456,334.1513,483.57062,332.51797C482.89557,330.8844,482.07288,329.54892,481.7752,329.54907L481.77454,329.54907C481.40253,329.5493,480.5782,327.69327,479.82672,325.46524C479.14966,323.23712,478.25073,321.3813,477.80438,321.38153L477.8023,321.38153C477.4312,321.3817,477.13293,320.9369,477.1311,320.41696C477.12897,319.82193,476.45587,318.78308,475.63495,318.0423C474.81415,317.3014,473.1695,314.92712,471.89734,312.77466C470.69965,310.62204,469.27933,308.6188,468.68295,308.2489C468.1613,307.95322,467.11392,306.24615,466.36386,304.46396C465.5399,302.75674,464.6428,301.34723,464.2706,301.34744L464.26926,301.34744C463.97202,301.34763,463.67355,300.90253,463.67142,300.3081C463.66934,299.71307,463.07095,298.74847,462.32535,298.23047C461.50534,297.71265,460.53262,296.07986,460.007,294.66855C459.55563,293.25687,458.50644,291.02924,457.684,289.8421C456.86142,288.5807,455.06528,285.46313,453.79135,282.79007C452.5175,280.117,451.24484,277.81567,450.9465,277.59372C450.72256,277.3712,449.89938,275.96097,449.22476,274.47592C448.47574,272.9909,447.65225,271.50626,447.27988,271.3589C446.9072,271.1369,446.22928,268.75934,445.69888,266.0091C445.1688,263.33344,444.34213,260.95624,443.74637,260.73532C443.2252,260.5885,442.55032,259.0288,442.32108,257.31885C442.01743,255.60925,441.33932,253.15726,440.81448,251.96902C440.28934,250.70639,439.38498,247.36256,438.92868,244.53773C438.39767,241.63881,437.5695,238.81541,437.04678,238.2224C436.52402,237.6292,435.62216,235.02919,435.16666,232.42744C434.63718,229.90111,433.88614,227.82135,433.58847,227.82153L433.58755,227.82153C433.21603,227.82172,432.9161,227.0051,432.91245,225.96457C432.90872,224.92319,433.27762,224.10373,433.64957,224.10248C434.69083,224.09879,434.5972,218.6694,433.47757,217.5578C432.95505,217.039,432.64114,212.42868,432.53458,203.35478C432.41586,190.85971,432.33804,189.89307,430.7687,187.81598C429.87167,186.55478,428.97287,184.77283,428.74655,183.88116C428.52,182.91513,428.21646,181.2055,427.91495,180.09079C427.61215,178.60431,426.7164,177.71484,424.92868,176.97757C423.51337,176.38754,422.32047,175.57361,422.3189,175.12726C422.3175,174.75531,421.646,174.16284,420.82712,173.94254C418.51874,173.20694,409.41202,164.01627,407.31595,160.23047C403.72308,153.84663,403.2744,153.17885,402.37982,152.58708C401.85812,152.2914,401.40863,151.40034,401.40573,150.58218C401.40308,149.83847,400.5794,148.27942,399.60828,147.09286C398.63742,145.98053,397.66443,144.27335,397.36353,143.30762C397.06302,142.41672,396.5404,141.6752,396.16858,141.67542L396.1674,141.67542C395.86966,141.67557,395.04703,140.34007,394.37204,138.70665C393.69705,137.07344,392.87454,135.7379,392.50247,135.73808L392.50113,135.73808C392.1291,135.7383,391.53262,135.07146,391.30667,134.2549C391.08063,133.43752,390.4073,132.32408,389.95944,131.87953C389.43692,131.36076,388.3899,129.7282,387.56644,128.2434C384.42282,122.67632,379.56363,115.776276,378.52103,115.408035C377.92517,115.186966,377.4765,114.51915,377.47437,113.92413C377.47235,113.32924,375.678,110.73227,373.586,108.062126C371.41956,105.39219,369.10352,102.49973,368.50534,101.6092C366.41168,98.49273,364.32202,96.491905,362.23654,95.68114C361.21854,95.34584,360.20056,95.010574,359.8031,95.01079 Z"/> </g> <g style="fill:rgb(0,0,0); fill-opacity:1.0; stroke-linejoin: miter"> <path d="M652.75726,410.14795C653.4938,410.14752,653.8454,410.35938,654.101,410.7539C654.3242,411.1231,655.65125,411.48822,656.98285,411.4875C656.99,411.4875,656.9972,411.4875,657.00433,411.48743C657.0173,411.48743,657.0302,411.48743,657.0431,411.48743C660.43317,411.48553,661.39355,412.8228,660.3677,416.01263C659.3377,419.28894,657.11304,421.1563,654.43536,421.16577C652.94775,421.17108,651.83453,421.84442,650.64996,423.41055C649.7618,424.60385,648.6498,425.64902,648.129,425.6509C647.6084,425.65274,646.1982,426.4758,645.0118,427.5214C643.75116,428.56717,642.41534,429.3901,642.0434,429.39145C640.70465,429.3962,638.27203,435.57822,636.6623,443.0217C635.4919,448.6043,630.6047,454.7207,627.4064,454.73212C627.40356,454.73212,627.4008,454.73212,627.3979,454.73212C625.3818,454.73322,619.5138,452.6018,618.8419,451.63855C618.49634,451.1242,617.0483,450.8344,614.9398,450.83557C614.31104,450.83588,613.62354,450.86212,612.88916,450.9159C611.55054,450.99493,610.6606,451.74194,609.9227,453.38098C609.1847,455.01984,607.8498,456.14032,605.1763,457.26544C603.1712,458.1651,601.24084,459.13885,601.0187,459.4372C600.7969,459.80988,597.8268,461.23364,594.4104,462.659C590.99414,464.08426,587.87634,465.806,587.50653,466.4023C587.2112,466.99838,586.4693,467.52176,585.94855,467.52365C585.4279,467.52542,584.09155,468.1995,583.0531,469.02145C582.01483,469.84323,580.67847,470.51743,580.08344,470.51956C579.4884,470.52164,578.2268,471.34427,577.26337,472.3146C576.2254,473.2852,573.9256,474.92972,572.144,475.90298C567.17,478.59824,565.46326,479.71994,563.6096,481.36295C562.6456,482.18448,559.9733,483.68152,557.5225,484.73157C555.146,485.7069,553.06714,486.7556,552.84503,487.05396C552.54913,487.50122,538.57776,490.82336,529.2868,492.64148C527.9491,492.9438,526.83527,493.46838,526.83655,493.84027C526.8379,494.21216,526.39264,494.51123,525.8721,494.51312C525.27704,494.5152,523.19745,495.34082,521.1929,496.38922C519.18835,497.4375,517.1832,498.26294,516.73694,498.26447C516.365,498.26575,515.3258,498.8645,514.50995,499.5368C513.7689,500.2832,511.9147,501.77728,510.50528,502.8237C509.09604,503.94437,505.9822,506.78183,503.61063,509.17032C475.9681,537.53217,470.3348,543.0562,469.0704,543.06067C468.17795,543.0638,467.74094,545.66864,467.24673,553.10815C466.96713,558.1669,462.9231,571.3464,461.73297,571.35046C461.4355,571.3516,460.25208,573.21533,459.07013,575.5251C457.74084,578.20734,455.9635,580.3708,454.10834,581.5675C452.55005,582.6143,451.2896,583.7345,451.2904,583.9576C451.2928,584.62695,446.7615,586.2795,445.12527,586.2853C443.19138,586.29205,438.22067,589.8799,437.33566,591.96564C436.81845,592.9344,435.63266,594.12866,434.59262,594.5043C433.62704,594.87946,431.7739,596.6712,430.59006,598.38617C429.33185,600.1756,427.77704,602.1894,427.11005,602.8611C425.62805,604.4284,424.76193,611.8693,425.5261,617.59375C425.75708,619.8243,425.9961,624.2861,426.0818,627.48413C426.1715,631.7978,426.47455,633.3586,427.29376,633.65326C427.88953,633.87427,428.56506,635.5826,428.8695,637.5154C429.0995,639.4484,429.6269,641.3805,430.00037,641.8253C430.29932,642.1962,431.12878,645.3914,431.73627,648.88513C433.0246,655.9407,433.55182,657.72675,434.51715,657.72626C434.518,657.72626,434.5188,657.72626,434.5196,657.72626C434.51996,657.72626,434.5204,657.72626,434.52075,657.72626C434.89215,657.726,435.19086,658.24524,435.193,658.8396C435.19507,659.43463,434.825,659.95654,434.4532,659.9578C434.0069,659.9594,434.53064,660.8501,435.5015,661.9623C437.816,664.40857,439.69388,669.60846,439.7076,673.4762C439.71707,676.13574,439.78708,676.29425,442.34268,676.29285C442.43155,676.29285,442.52347,676.2926,442.61844,676.29224C445.74216,676.2811,450.12595,675.0011,450.12253,674.03424C450.1212,673.66235,451.23483,673.06335,452.57233,672.68665C458.76624,670.8311,464.75446,669.9178,469.97418,669.9149C476.40042,669.9114,481.66183,671.28796,484.7086,673.98596C489.2603,678.135,491.05176,679.9137,491.0531,680.2856C491.05396,680.5087,492.0266,682.1416,493.14838,683.8483C494.6435,685.99994,495.32007,688.0059,495.40228,690.237C495.48334,692.09607,495.7149,694.47534,495.94202,695.5903C496.24323,696.6304,496.0984,697.7467,495.72736,697.97107C495.28204,698.27026,495.28662,699.53467,495.66534,701.46704C496.11792,703.25055,496.12402,704.96124,495.68018,705.6322C494.94116,706.9737,495.9225,711.06104,497.11523,711.80054C498.08423,712.3921,499.37268,719.15607,499.3886,723.6188C499.4021,727.412,498.15613,732.62286,497.26355,732.6261C496.96606,732.62714,496.2998,733.52203,495.85724,734.5649C494.74982,736.87463,491.122,741.5735,490.30377,741.57635C490.00635,741.57745,488.59708,742.69806,487.18893,744.1163C484.9059,746.4832,479.26657,749.5335,477.6171,749.5344C477.44614,749.53455,477.31808,749.50183,477.241,749.4323C477.017,749.20996,477.23703,748.31665,477.75504,747.57104C478.88834,745.7073,478.86404,744.91223,477.56412,744.91296C477.2524,744.9131,476.86734,744.9591,476.40732,745.047C475.83298,745.18695,475.4006,745.26245,475.07712,745.26263C474.35416,745.26306,474.1753,744.88715,474.17218,744.0136C474.169,743.12103,474.9841,742.22565,476.24667,741.7004C480.92538,739.6758,486.33035,732.73926,488.2407,726.11285C488.75516,724.4003,489.49408,722.9845,489.8659,722.9832C490.16345,722.9821,490.45795,722.1629,490.45422,721.1215C490.45,719.9413,490.12695,719.35834,489.5888,719.35864C488.93994,719.359,487.9786,720.2072,486.88675,721.878C485.038,724.85974,479.02786,728.97186,476.57333,728.9805C475.60648,728.98395,474.86374,729.2842,474.86526,729.7304C474.8666,730.1023,474.19855,730.47656,473.38043,730.4794C472.48785,730.4826,471.52362,731.2298,471.00684,732.34735C470.56433,733.3902,469.89783,734.21075,469.60034,734.21173C469.30292,734.2128,468.41455,735.40607,467.75012,736.8216C466.59967,739.3098,465.281,740.5695,463.7636,740.5704C463.2365,740.5707,462.68542,740.4191,462.1092,740.1144C461.14026,739.59705,460.17108,738.93115,459.9466,738.56006C459.64484,738.0944,457.19238,737.87537,454.3035,737.87695C450.74704,737.8789,446.52914,738.2151,444.8486,738.8366C443.81516,739.23285,443.08902,739.42255,442.44052,739.4229C441.7374,739.4233,441.12534,739.2012,440.3113,738.77844C438.74652,737.96576,438.44666,737.2975,438.4361,734.3224C438.42523,731.27295,437.58618,725.3999,436.5276,720.4948C436.3004,719.3799,435.40558,718.7136,433.6938,718.4222C432.27985,718.20404,430.41644,717.09503,429.5202,716.0569C428.71057,715.1482,427.98523,714.7019,427.44537,714.7022C426.84003,714.7025,426.4679,715.26434,426.4718,716.36523C426.47418,717.0346,425.59222,720.0129,424.56094,722.84296C423.0876,726.8647,422.6509,729.5438,422.59363,734.3786C422.61075,739.21313,423.283,760.9294,423.59238,764.27527C423.62686,764.672,424.08698,764.8466,424.58713,764.8464C425.2119,764.846,425.89914,764.57275,425.89758,764.1183C425.896,763.6721,426.9362,763.37085,428.12625,763.36664C428.1342,763.36664,428.14206,763.36664,428.15,763.3666C429.40277,763.3659,430.35864,763.65906,430.36017,764.1025C430.36145,764.4714,431.89972,764.83484,433.88452,764.83374C433.9007,764.83374,433.9168,764.83374,433.93298,764.83356C435.86694,764.9011,439.8109,765.40784,442.63934,765.9928C445.7656,766.6511,453.6517,767.2182,462.35474,767.41034C475.8925,767.6598,489.13754,769.2493,489.1423,770.5881C489.14328,770.88556,491.60016,771.54614,494.57684,771.982C497.4795,772.4924,501.7968,773.444,504.0302,774.03107C506.67197,774.7202,508.52066,775.1603,510.23703,775.33307L510.23105,775.33307L510.21957,775.7273Q514.60315,776.47107,515.26044,776.5336Q516.6475,777.22473,519.1003,777.46295Q520.8225,777.6795,522.5706,777.82184L522.5645,777.82184C523.28687,778.0689,524.22705,778.3337,525.24426,778.5672C528.4451,779.2996,529.33954,779.8171,529.3435,780.93274C529.3462,781.6759,529.71985,782.3435,530.0915,782.3433C530.09174,782.3433,530.0921,782.3433,530.0924,782.3433C530.0927,782.3433,530.093,782.3433,530.0933,782.3433C530.539,782.3431,530.8395,783.3083,530.84375,784.49756C530.8508,786.5058,530.55414,786.73,527.655,787.1866C526.6713,787.3541,522.5894,787.44226,516.9679,787.4453C512.394,787.4478,506.8008,787.3941,501.02783,787.2811C489.1486,787.0732,483.83835,786.9339,478.35574,786.93695C470.79297,786.9411,462.90247,787.21594,436.99017,787.9545C421.22974,788.3507,407.32724,788.61053,401.34415,788.61383C399.47833,788.61487,398.3826,788.59094,398.24103,788.5384C397.71957,788.3171,396.4472,786.0903,395.4716,783.6393C395.18625,782.88153,394.937,782.2457,394.70905,781.7133L394.70422,781.7133Q394.6734,781.56366,394.64215,781.41254Q393.31882,778.63226,392.25616,776.52167L392.25143,776.52167C392.47287,776.32574,392.40836,775.9275,392.24353,775.24585C389.5256,763.8755,388.74387,732.2674,390.9304,719.6152C391.66037,715.745,392.54126,712.4692,392.98706,712.31885C393.35837,712.16876,393.72736,711.34924,393.7242,710.4568C393.7211,709.5642,394.15936,707.33136,394.74777,705.46985C396.95245,697.9497,397.02792,698.24695,393.30396,696.84705C391.4421,696.18414,389.95175,695.37134,389.95062,695.0738C389.94962,694.7763,388.68225,693.9626,387.19266,693.3729C383.76642,692.04614,378.69214,687.3783,376.9698,684.1118C374.9476,680.1769,372.80615,663.5979,373.06906,653.8535C373.66824,634.06665,373.34644,627.225,371.7811,626.2637C370.88675,625.7461,370.85666,617.2671,371.74777,616.8921C372.0448,616.7423,372.8551,614.50806,373.4405,611.8283C374.83255,605.873,377.84702,595.97,378.4402,595.44727C378.88504,595.0738,380.65613,591.1254,380.65427,590.6048C380.65353,590.38293,380.13864,590.2366,379.5481,590.2369C379.54453,590.2369,379.54092,590.2369,379.53735,590.2369C378.94232,590.2391,378.4227,590.5383,378.4241,590.9102C378.42776,591.9515,360.96295,595.95557,350.18323,597.407C347.95303,597.7124,345.8726,598.3148,345.57666,598.76215C345.1659,599.402,336.84882,599.7286,328.53073,599.73315C320.37253,599.7377,312.21332,599.4323,311.51138,598.8087C310.91452,598.29016,309.34897,597.25446,308.08182,596.51514C306.81485,595.7759,305.17163,593.84796,304.4223,592.28864C303.6727,590.6549,302.70047,589.17084,302.32758,588.8746C301.88046,588.653,301.42343,585.60504,301.18817,582.18445C300.9476,577.2764,301.0905,575.63947,301.98016,574.8181C302.57278,574.1467,303.75623,572.283,304.6427,570.56915C305.972,567.88684,311.08447,562.3647,316.71945,557.3613C317.68356,556.5398,320.12842,553.8535,322.12793,551.3919C324.2018,548.93005,329.68472,542.9603,334.35324,538.10913C339.0222,533.3324,343.0233,529.0042,343.0963,528.632C343.24344,528.18524,343.76312,527.88586,344.2094,527.8843C345.39938,527.88007,351.2543,521.9833,353.62195,518.4791C354.658,516.988,356.28696,514.8996,357.3243,513.7803C358.36188,512.7352,360.286,509.97647,361.69125,507.74008C363.02206,505.504,364.65073,503.34134,365.1703,503.04196C365.76425,502.74234,366.20764,501.92258,366.2058,501.4019C366.20367,500.80682,366.72247,500.28436,367.3175,500.28223C367.3192,500.28223,367.32092,500.28223,367.32263,500.28223C367.91553,500.28186,368.43417,500.57703,368.43582,501.0221C368.43713,501.3934,368.80917,501.76346,369.18054,501.76328C369.1811,501.76328,369.18164,501.76328,369.1822,501.76328C369.62848,501.76175,369.92407,501.23987,369.92194,500.64484C369.91983,500.04987,370.51202,499.2296,371.25443,498.8551C371.92252,498.4809,373.62448,496.02032,375.02838,493.412C376.4326,490.87817,377.98578,488.4182,378.5054,488.1189C379.0993,487.81927,379.5435,487.2226,379.54193,486.7763C379.53683,485.36316,384.3514,479.6933,386.94867,477.9735C388.3586,477.07584,393.03015,473.04288,397.2552,468.93698C403.3335,463.11386,405.63306,461.39505,408.15982,460.79105C409.94333,460.33847,411.42844,459.66367,411.4272,459.29178C411.42587,458.92,412.3155,458.0986,413.35413,457.35123C414.233,456.76077,414.73245,456.46152,415.17444,456.46127C415.628,456.46103,416.021,456.77567,416.70135,457.41367C419.38742,459.78427,417.48138,467.6008,413.91705,469.24985C412.95145,469.6251,412.0634,470.89273,411.77066,472.23264C411.03903,475.65665,409.56018,478.1163,407.5559,479.23904C403.62125,481.3357,402.3809,488.10852,404.1996,497.5481C405.18518,502.82553,404.5385,509.2244,402.83493,511.23868C401.79822,512.5067,400.2373,512.80975,393.24734,513.2809C386.62915,513.6763,384.84525,514.05444,384.84818,514.8726C384.8505,515.542,384.03745,516.958,383.0007,518.22614C381.96362,519.41986,381.15076,520.9103,381.1526,521.43097C381.15442,521.9516,380.11816,523.36847,378.8579,524.56305C377.59744,525.68317,375.96933,527.9946,375.15726,529.7082C374.3452,531.4219,373.0137,533.5092,372.27295,534.33C371.45786,535.2255,370.7917,536.1203,370.79245,536.3435C370.79327,536.5666,370.05447,537.98236,369.09317,539.5477C368.20596,541.0386,367.02353,543.1997,366.5069,544.3172L365.69583,546.32825L369.18573,544.67957C371.1164,543.78015,372.82364,542.8071,373.04593,542.58325C373.63843,541.83734,380.46948,538.5405,384.5547,536.96405C386.63464,536.21295,388.4169,535.3885,388.63892,535.09015C389.08313,534.4935,404.24265,530.64636,406.25085,530.6392C408.03595,530.63293,412.41812,528.90674,412.4158,528.23737C412.4147,527.9398,413.00873,527.6402,413.7525,527.6375C414.49625,527.6348,416.4245,526.0661,418.0542,524.20087C422.94214,518.3076,425.97937,514.80096,429.2396,511.29367C431.01797,509.4279,432.42477,507.6379,432.42343,507.26596C432.4224,506.96848,432.86795,506.74368,433.38852,506.74185C433.9092,506.73996,435.4669,505.5444,436.8751,504.12625C438.2832,502.70804,439.6178,501.51328,439.91528,501.51224C440.1385,501.51138,441.69617,500.3158,443.2531,498.8971C444.80994,497.4784,446.44208,496.28253,446.8139,496.28113C447.26025,496.27954,448.52112,495.30817,449.6325,494.11426C450.74402,492.92023,453.1927,491.2752,455.04895,490.3761C456.90527,489.47687,458.9833,488.20514,459.72446,487.45868C460.46585,486.78668,463.73196,484.91565,466.92435,483.268C470.19138,481.69446,473.01212,480.1225,473.23428,479.8242C473.45633,479.52585,476.5002,477.9531,480.13965,476.45255C483.70416,474.87796,486.5993,473.3057,486.59833,473.0082C486.59723,472.71066,489.41803,471.13882,492.8333,469.41605C496.32294,467.6929,499.2176,465.9719,499.3648,465.52512C499.80652,464.25912,507.75943,462.6689,516.6831,462.19095C525.01154,461.64078,535.6415,459.8923,536.38184,458.9227C536.6038,458.6245,538.90515,457.3518,541.5788,456.22668C544.25214,455.0271,548.41064,453.15295,550.86096,451.9541C553.31134,450.82977,558.80817,448.802,563.11743,447.448C567.4266,446.09387,571.06647,444.74225,571.2887,444.5183C571.51086,444.21997,574.185,443.2436,577.2313,442.34012C585.627,439.78146,589.1179,438.4304,589.1159,437.83536C589.11346,437.166,596.68774,433.71756,599.5861,433.0378C600.62646,432.7366,602.4077,431.689,603.51965,430.6437C604.63165,429.59854,605.8932,428.7759,606.26514,428.77457C606.7113,428.77298,608.49274,427.72543,610.2736,426.52902C612.05414,425.25833,613.83575,424.28506,614.2077,424.28366C614.6539,424.28207,615.0987,423.83432,615.3198,423.2384C615.8358,421.97217,624.8944,417.5517,626.9768,417.54425C627.7951,417.54138,628.4635,417.24146,628.4624,416.94397C628.4611,416.57208,630.68945,415.74603,633.51324,414.9922C636.2627,414.31305,641.31555,412.9563,644.80786,411.977C649.32434,410.7154,651.5543,410.14862,652.75726,410.14795 Z"/> </g> </g> </svg>