<?xml version="1.0" encoding="UTF-8"?>
<svg viewBox="0 0 1052.4 744.09" xmlns="http://www.w3.org/2000/svg">
 <g fill="#5fbf00">
  <rect x="-97.865" y="209.55" width="15.038" height="9.4108"/>
  <rect x="-56.373" y="198.72" width="4.6" height="4.6"/>
  <g fill-rule="evenodd">
   <path d="m106.39 689.27l7.8281 6.2226c50.606-64.232 115.44-117.19 188.01-155.3 72.574-38.112 153.1-61.502 235.01-66.732 28.245-1.8075 56.714-1.6013 85.218-2.9768 28.302-1.3546 56.818-4.3599 84.151-12.465 27.441-8.1285 53.731-21.7 74.046-42.01 20.326-20.319 34.146-47.832 35.062-76.595 0.77997-24.989-8.6989-50.417-26.745-67.672v-6.1e-5c-9.0302-8.6249-20.072-15.148-32.034-18.69-11.963-3.542-24.819-4.0644-36.97-1.3055-12.152 2.7602-23.548 8.8238-32.47 17.494h-6.1e-5c-8.922 8.672-15.308 19.94-17.961 32.072v6.1e-5c-2.6514 12.132-1.5196 25.078 3.3721 36.463 4.8928 11.385 13.556 21.13 24.359 27.134 8.7018 4.8353 18.729 7.2329 28.654 6.8636 9.9249-0.36938 19.723-3.5046 28.002-8.948-8.325 5.3736-18.129 8.4138-28.011 8.6983-9.8813 0.28467-19.821-2.1869-28.401-7.0497-10.652-6.0362-19.13-15.755-23.858-27.015-4.7294-11.261-5.7252-24.02-3.0242-35.903 2.7003-11.885 9.0676-22.88 17.86-31.286h6.1e-5c8.793-8.4072 19.99-14.233 31.856-16.825 11.867-2.5935 24.398-1.9694 36.001 1.5706 11.605 3.5394 22.29 9.9835 30.986 18.427 17.385 16.861 26.344 41.7 25.403 65.867-1.0668 27.857-14.811 54.476-34.687 74.077-19.901 19.624-45.725 32.618-72.68 40.4-26.871 7.7492-55.02 10.448-83.138 11.581-28.324 1.1293-56.804 0.68463-85.34 2.265h-6.1e-5c-82.815 4.5981-164.47 27.533-238.31 65.534-73.85 37.994-140.1 91.161-192.18 156.11h-3.1e-5z"/>
   <path d="m683.74 462.66c9.5826-2.8675 19.363-4.0075 28.798-3.5981 6.8511-0.98865 13.819-1.1596 20.7-0.47424 16.109 1.5999 31.775 7.8958 44.519 17.899 12.747 9.9997 22.597 23.726 27.99 39.017v6.1e-5c5.3973 15.289 6.3475 32.169 2.694 47.979-3.5042 15.178-11.25 29.4-22.139 40.549-10.886 11.151-24.936 19.245-40.062 23.024-15.124 3.782-31.35 3.2521-46.188-1.5577-14.838-4.8061-28.31-13.902-38.281-25.906-11.266-13.588-18.092-31.2-17.22-48.72 0.42389-8.7665 2.7183-17.464 6.8617-25.17 1.8725-3.4838 4.1251-6.7698 6.7044-9.7683 3.0502-3.6959 6.5968-6.9896 10.554-9.7165 7.2203-4.9778 15.833-8.0778 24.67-8.6034 8.8347-0.52734 17.909 1.5333 25.615 6.0905 7.7051 4.5551 14.022 11.625 17.503 20.004 3.4808 8.3775 4.0734 18.039 1.3628 26.844-1.8481 5.9965-5.195 11.554-9.6869 16.028 4.5924-4.3679 8.0923-9.8708 10.102-15.89 2.9454-8.8411 2.6-18.686-0.77374-27.374-3.3761-8.6845-9.6946-16.143-17.6-21.072v-6.1e-5c-7.9053-4.9252-17.307-7.3226-26.611-6.988-9.3019 0.33655-18.449 3.3586-26.23 8.455-7.7788 5.0965-14.176 12.21-18.602 20.379-4.4242 8.1675-6.892 17.345-7.3708 26.61-0.9408 18.528 6.0818 37.002 17.859 51.266 10.386 12.597 24.404 22.148 39.936 27.249 15.532 5.0974 32.491 5.7234 48.386 1.8168 15.894-3.9094 30.64-12.322 42.135-24.002 11.493-11.682 19.678-26.562 23.434-42.534v-6.1e-5c3.9095-16.639 2.9858-34.374-2.6459-50.539-5.6352-16.164-15.943-30.655-29.387-41.292-13.447-10.634-29.942-17.344-47.02-19.111-17.078-1.7633-34.623 1.4274-50.006 9.1083z"/>
   <path d="m190.45 605.92l4.9996 6.0899c34.007-28.159 59.441-66.389 72.27-108.52 12.822-42.135 12.971-87.948 0.48154-130.07-5.8866-19.911-14.71-39.229-27.714-55.617-13.01-16.402-30.463-29.653-50.561-35.914-20.122-6.2632-42.862-4.9164-61.303 5.4258-9.2142 5.185-17.215 12.553-22.936 21.46-5.7216 8.9109-9.0863 19.34-9.4025 29.934-0.36063 12.319 3.4962 24.702 10.885 34.541 7.3954 9.8365 18.265 16.978 30.237 19.725h3.1e-5c11.976 2.741 24.901 1.006 35.644-4.9009h3.1e-5c10.741-5.9139 19.119-15.953 22.882-27.593 4.0559-12.583 2.5729-26.789-3.9564-38.231 6.401 11.514 7.6936 25.679 3.5361 38.094-3.8532 11.486-12.256 21.296-22.869 26.983h-3.1e-5c-10.614 5.6852-23.311 7.2241-34.95 4.4206-11.639-2.8046-22.138-9.8967-29.185-19.495-7.0473-9.5991-10.628-21.634-10.146-33.473 0.41362-10.188 3.7814-20.192 9.3654-28.681 5.5843-8.4909 13.364-15.476 22.251-20.35 17.758-9.7497 39.681-10.719 58.9-4.5295 19.243 6.1943 35.904 19.222 48.315 35.182 12.417 15.973 20.744 34.869 26.306 54.394 3.1e-5 0 3.1e-5 0 3.1e-5 6.1e-5 11.742 41.319 11.042 86.045-1.8842 126.81-12.92 40.768-38.056 77.549-71.165 104.32z"/>
   <path d="m273.89 405.62c1.2712 3.7703 2.4953 7.5761 3.6709 11.416 6.6731-43.118 7.1962-87.154 1.5614-130.37-1.5612-11.979-3.5585-23.789-4.6969-35.592-1.1191-11.706-1.4195-23.463 0.42123-34.868 2.6924-16.805 10.046-32.931 21.227-45.767 0 0 3.1e-5 0 3.1e-5 -3.1e-5 11.174-12.835 26.213-22.4 42.673-26.756 16.453-4.3603 34.366-3.4998 50.219 2.7347 15.85 6.226 29.655 17.863 38.196 32.617 10.83 18.666 12.934 42.355 5.6005 62.738-7.3178 20.391-24.013 37.37-44.326 45.126l-3.1e-5 6.1e-5c-12.915 4.924-27.358 6.2582-40.679 2.734-13.304-3.5154-25.476-12.03-32.437-23.873-3.4896-5.9233-5.6948-12.626-6.2628-19.473v-6.1e-5c-0.56879-6.8455 0.49979-13.849 3.2133-20.157 2.7118-6.307 7.0772-11.93 12.6-16.008 5.5203-4.0784 12.213-6.616 19.062-7.0832 8.0882-0.54672 16.508 1.8864 22.573 7.2228 3.0393 2.6665 5.4904 6.0231 7.0117 9.7629 1.5214 3.7382 2.1172 7.8701 1.6165 11.87-0.38532 3.0929-1.42 6.1109-3.0168 8.7935 1.6468-2.6606 2.7372-5.6707 3.179-8.7726 0.57605-4.0309 0.047516-8.2183-1.4272-12.033-1.4812-3.8324-3.9146-7.2944-6.9672-10.07-6.1275-5.5758-14.699-8.2383-23.037-7.8171h-3.1e-5c-7.0725 0.35706-14.029 2.8405-19.839 6.9742h-3.1e-5c-5.8075 4.1325-10.462 9.8848-13.418 16.438-2.9459 6.5319-4.2125 13.83-3.7386 21.053 0.47168 7.1793 2.6424 14.263 6.2305 20.596 7.0868 12.481 19.595 21.78 33.805 25.759 13.822 3.8646 29.024 2.8869 42.93-2.2116 10.456-3.8261 20.195-9.9955 28.407-18.031 8.2119-8.0358 14.901-17.941 19.081-29.141 3.8944-10.472 5.5264-21.948 4.7014-33.489-0.8251-11.541-4.1075-23.152-10.071-33.661-4.4094-7.7436-10.202-14.809-17.104-20.832-6.9028-6.0227-14.917-11.003-23.707-14.513-8.2704-3.2967-17.168-5.2862-26.301-5.8558-9.1336-0.56958-18.504 0.28085-27.642 2.6728-8.5948 2.2541-16.941 5.8447-24.698 10.653-7.7575 4.8085-14.927 10.835-21.108 17.926-5.8189 6.6798-10.747 14.264-14.593 22.502-3.8459 8.2376-6.6096 17.129-8.0748 26.367-1.8766 11.928-1.6274 24.207-0.39627 36.438 1.1837 11.86 3.2233 23.728 4.8483 35.778 2.4834 18.422 3.9273 37.548 4.1219 57.287 0.19461 19.739-0.85977 40.094-3.4094 60.917z"/>
   <path d="m334.05 520.91c9.105-4.4598 18.569-7.6799 28.086-9.7084 12.985-5.3551 26.9-8.4822 40.924-9.0927 23.583-1.0316 47.493 5.0522 67.728 17.244 20.238 12.187 36.81 30.488 46.94 51.85 10.134 21.36 13.83 45.788 10.459 69.208-1.952 13.473-6.2081 26.692-13.548 38.001-7.3321 11.294-17.822 20.721-30.248 25.59-12.393 4.8625-26.843 5.0794-38.803-0.51758h-3.1e-5c-5.9935-2.7893-11.363-6.9666-15.392-12.172h-3.1e-5c-4.0288-5.2015-6.7442-11.454-7.6265-17.946-1.4038-10.154 1.8444-20.945 8.4667-28.823 1.8002-2.1478 3.8513-4.0847 6.0909-5.784 5.9012-4.6682 13.222-7.6888 20.8-8.4805 7.2548-0.74262 14.856 0.49567 21.1 4.2833h3.1e-5c6.2264 3.7726 11.08 10.218 12.17 17.505 0.95172 6.2934-0.9931 13.123-5.4301 17.85-2.2203 2.3669-5.027 4.2106-8.1262 5.278-3.0991 1.0673-6.4873 1.3533-9.749 0.77136-6.1375-1.0972-11.681-5.413-14.257-11.236-2.5677-5.8268-2.0748-12.954 1.3862-18.456-3.5796 5.4244-4.2705 12.6-1.7792 18.62 2.5055 6.0147 8.082 10.606 14.484 11.908 3.3948 0.68414 6.95 0.47156 10.246-0.58026 3.295-1.0526 6.3081-2.9272 8.7292-5.3924 4.8383-4.944 7.1131-12.141 6.24-18.989-1.0313-7.9042-6.0141-14.969-12.692-19.206-6.6665-4.2244-14.763-5.7919-22.553-5.1514-11.181 0.90106-21.966 6.2913-29.248 14.878-7.2773 8.5961-10.836 20.266-9.3565 31.476v6.1e-5c0.95291 7.1422 3.878 13.971 8.2651 19.671 4.3868 5.6977 10.185 10.254 16.682 13.302 13.003 6.0768 28.442 5.9571 41.754 0.75629 13.296-5.1992 24.446-15.086 32.195-26.983 7.7444-11.888 12.26-25.635 14.308-39.577 3.5775-24.231-0.13702-49.491-10.564-71.695l-6.1e-5 -6.1e-5c-10.43-22.203-27.514-41.225-48.51-53.984-20.998-12.755-45.784-19.17-70.371-18.194-24.586 0.98144-48.821 9.3494-68.799 23.777z"/>
  </g>
  <g transform="matrix(.81177 0 0 .74658 34.802 174.9)">
   <path d="m602.63 220.32c3.2742-1.509 6.5194-3.266 9.7028-5.2643 7.6769-12.56 12.371-26.795 13.624-41.248 1.541-17.81-2.152-35.849-10.326-51.359-3.4067-6.4643-7.5728-12.495-12.369-17.929 4.3052 5.8392 7.8832 12.157 10.65 18.762 3.1272 7.4625 5.1966 15.304 6.2063 23.222 1.8196 8.762 2.3416 17.826 1.4692 26.78-1.6449 16.932-8.2808 33.507-18.958 47.036z" fill-rule="evenodd"/>
   <path d="m629.92 182.36s17.409-18.471 25.052-39.277c6.3693 19.532-11.252 36.092-25.052 39.277z"/>
   <path d="m627.94 181.39s13.592-13.28 26.078-39.465c-19.992 1.5383-28.603 25.542-26.078 39.465z"/>
   <g transform="matrix(.88561 -.22799 .23014 .89398 -71.655 154.77)">
    <path d="m742.48 162.1s17.409-18.471 25.052-39.277c6.3693 19.532-11.252 36.092-25.052 39.277z"/>
    <path d="m740.51 161.13s13.592-13.28 26.078-39.465c-19.992 1.5383-28.603 25.542-26.078 39.465z"/>
   </g>
   <g transform="matrix(.33772 -.59529 .55574 .3721 61.132 669.57)">
    <path d="m1132.6 289.79s17.409-18.471 25.052-39.277c6.3693 19.532-11.252 36.092-25.052 39.277z"/>
    <path d="m1130.6 288.82s13.592-13.28 26.078-39.465c-19.992 1.5383-28.603 25.542-26.078 39.465z"/>
   </g>
   <g transform="matrix(-.80526 .44452 .44388 .80981 859.1 -210.15)">
    <path d="m414.15 203.83s17.409-18.471 25.052-39.277c6.3693 19.532-11.252 36.092-25.052 39.277z"/>
    <path d="m412.17 202.86s13.592-13.28 26.078-39.465c-19.992 1.5383-28.603 25.542-26.078 39.465z"/>
   </g>
   <g transform="matrix(-1.2447 0 0 1 1397.1 12.526)">
    <path d="m629.92 182.36s17.409-18.471 25.052-39.277c6.3693 19.532-11.252 36.092-25.052 39.277z"/>
    <path d="m627.94 181.39s13.592-13.28 26.078-39.465c-19.992 1.5383-28.603 25.542-26.078 39.465z"/>
   </g>
  </g>
  <g transform="matrix(.81177 0 0 .74658 46.521 269.37)">
   <path d="m500.62 150.77c0 1.4343-0.85547 2.597-1.9108 2.597s-1.9108-1.1627-1.9108-2.597 0.85547-2.597 1.9108-2.597 1.9108 1.1627 1.9108 2.597z"/>
   <path d="m497.11 157.45c0.3894 1.5947-0.12601 3.0904-1.1512 3.3407-1.0252 0.25032-2.1719-0.83952-2.5613-2.4342-0.38937-1.5947 0.12604-3.0904 1.1512-3.3407 1.0252-0.25032 2.1719 0.83952 2.5612 2.4342z"/>
   <path d="m504.73 158.49c-0.50214 1.5629-1.7237 2.5682-2.7284 2.2454s-1.4121-1.8514-0.90997-3.4143c0.50211-1.5629 1.7236-2.5682 2.7284-2.2454 1.0047 0.3228 1.4121 1.8514 0.91 3.4143z"/>
  </g>
  <g transform="matrix(.81177 0 0 .74658 46.521 269.37)">
   <path d="m510.82 280.74c6.03 0.90643 12.166 1.536 18.38 1.886 28.233-6.194 55.048-18.162 78.595-34.55 28.459-19.801 52.278-46.152 68.257-76.578v-6.1e-5c3.3843-6.4435 6.4387-13.053 9.1484-19.793-3.0353 6.602-6.4009 13.04-10.078 19.282-10.426 17.703-23.521 33.679-38.518 47.494-9.5604 9.5898-20.037 18.302-31.224 25.984-28.03 19.238-60.653 32.103-94.562 36.274z" fill-rule="evenodd"/>
   <g transform="matrix(.59224 .56209 -.57977 .58508 654.79 -119.36)">
    <path d="m273.88 231.58s17.409-18.471 25.052-39.277c6.3693 19.532-11.252 36.092-25.052 39.277z"/>
    <path d="m271.91 230.61s13.592-13.28 26.078-39.465c-19.992 1.5383-28.603 25.542-26.078 39.465z"/>
   </g>
   <g transform="matrix(.68404 -.022396 -.027574 .66824 272.58 181.49)">
    <path d="m604.97-23.474s17.409-18.471 25.052-39.277c6.3693 19.532-11.252 36.092-25.052 39.277z"/>
    <path d="m603-24.444s13.592-13.28 26.078-39.465c-19.992 1.5383-28.603 25.542-26.078 39.465z"/>
   </g>
   <g transform="matrix(-.76304 -.10925 -.10338 .77258 1213.1 187.61)">
    <path d="m700.97 70.86s17.409-18.471 25.052-39.277c6.3693 19.532-11.252 36.092-25.052 39.277z"/>
    <path d="m698.99 69.889s13.592-13.28 26.078-39.465c-19.992 1.5383-28.603 25.542-26.078 39.465z"/>
   </g>
  </g>
  <g transform="matrix(.73784 -.31128 -.26148 -.52425 73.194 1388.7)">
   <path d="m682.98 1179.4c6.03 0.90637 12.166 1.5359 18.38 1.886 28.233-6.1941 55.048-18.162 78.595-34.55 28.459-19.8 52.278-46.152 68.257-76.578 3.3843-6.4436 6.4387-13.053 9.1484-19.793-3.0353 6.602-6.4009 13.04-10.078 19.282-10.426 17.703-23.521 33.679-38.518 47.494-9.5604 9.5898-20.037 18.302-31.224 25.984-28.03 19.238-60.653 32.103-94.562 36.274z" fill-rule="evenodd"/>
   <g transform="matrix(.59224 .56209 -.57977 .58508 654.79 -119.36)">
    <path d="m1198.6 879.23s17.409-18.471 25.052-39.277c6.3693 19.532-11.252 36.092-25.052 39.277z"/>
    <path d="m1196.6 878.26s13.592-13.28 26.078-39.465c-19.992 1.5383-28.603 25.542-26.078 39.465z"/>
   </g>
   <g transform="matrix(.68404 -.022396 -.027574 .66824 272.58 181.49)">
    <path d="m911.28 1331.7s17.409-18.471 25.052-39.277c6.3692 19.532-11.252 36.092-25.052 39.277z"/>
    <path d="m909.3 1330.7s13.592-13.28 26.078-39.465c-19.992 1.5383-28.603 25.542-26.078 39.465z"/>
   </g>
   <g transform="matrix(-.76304 -.10925 -.10338 .77258 1213.1 187.61)">
    <path d="m324.94 1180.9s17.409-18.471 25.052-39.277c6.3693 19.532-11.252 36.092-25.052 39.277z"/>
    <path d="m322.96 1180s13.592-13.28 26.078-39.465c-19.992 1.5384-28.603 25.542-26.078 39.465z"/>
   </g>
  </g>
  <g transform="matrix(.75849 -.26601 .28924 .69758 -297.44 500.18)">
   <path d="m657.94 307.84c6.03 0.90643 12.166 1.536 18.38 1.886 28.233-6.194 55.048-18.162 78.595-34.55 28.459-19.801 52.278-46.152 68.257-76.578v-6.1e-5c3.3843-6.4435 6.4387-13.053 9.1484-19.793-3.0353 6.602-6.4009 13.04-10.078 19.282-10.426 17.703-23.521 33.679-38.518 47.494-9.5604 9.5898-20.037 18.302-31.224 25.984-28.03 19.238-60.653 32.103-94.562 36.274z" fill-rule="evenodd"/>
   <g transform="matrix(.59224 .56209 -.57977 .58508 654.79 -119.36)">
    <path d="m425.26 132.46s17.409-18.471 25.052-39.277c6.3692 19.532-11.252 36.092-25.052 39.277z"/>
    <path d="m423.29 131.49s13.592-13.28 26.078-39.465c-19.992 1.5383-28.603 25.542-26.078 39.465z"/>
   </g>
   <g transform="matrix(.68404 -.022396 -.027574 .66824 272.58 181.49)">
    <path d="m821.98 24.352s17.409-18.471 25.052-39.277c6.3693 19.532-11.252 36.092-25.052 39.277z"/>
    <path d="m820 23.381s13.592-13.28 26.078-39.465c-19.992 1.5383-28.603 25.542-26.078 39.465z"/>
   </g>
   <g transform="matrix(-.76304 -.10925 -.10338 .77258 1213.1 187.61)">
    <path d="m507.12 78.524s17.409-18.471 25.052-39.277c6.3693 19.532-11.252 36.092-25.052 39.277z"/>
    <path d="m505.14 77.554s13.592-13.28 26.078-39.465c-19.992 1.5383-28.603 25.542-26.078 39.465z"/>
   </g>
  </g>
  <g transform="matrix(.054505 -.74489 .80994 .050128 -314.62 952.3)">
   <path d="m922.79 665.92c6.03 0.90643 12.166 1.536 18.38 1.886 28.233-6.194 55.048-18.162 78.595-34.55 28.459-19.801 52.278-46.152 68.258-76.578v-6.1e-5c3.3843-6.4435 6.4386-13.053 9.1484-19.793-3.0354 6.602-6.401 13.04-10.078 19.282-10.426 17.703-23.521 33.679-38.518 47.494-9.5603 9.5898-20.037 18.302-31.224 25.984-28.03 19.238-60.653 32.103-94.562 36.274z" fill-rule="evenodd"/>
   <g transform="matrix(.59224 .56209 -.57977 .58508 654.79 -119.36)">
    <path d="m964.49 226.45s17.409-18.471 25.052-39.277c6.3693 19.532-11.252 36.092-25.052 39.277z"/>
    <path d="m962.51 225.48s13.592-13.28 26.078-39.465c-19.992 1.5383-28.603 25.542-26.078 39.465z"/>
   </g>
   <g transform="matrix(.68404 -.022396 -.027574 .66824 272.58 181.49)">
    <path d="m1231.3 573.93s17.409-18.471 25.052-39.277c6.3693 19.532-11.252 36.092-25.052 39.277z"/>
    <path d="m1229.3 572.96s13.592-13.28 26.079-39.465c-19.992 1.5383-28.603 25.542-26.079 39.465z"/>
   </g>
   <g transform="matrix(-.76304 -.10925 -.10338 .77258 1213.1 187.61)">
    <path d="m104.92 485.14s17.409-18.471 25.052-39.277c6.3693 19.532-11.252 36.092-25.052 39.277z"/>
    <path d="m102.94 484.17s13.592-13.28 26.078-39.465c-19.992 1.5383-28.603 25.542-26.078 39.465z"/>
   </g>
  </g>
  <g transform="matrix(.81072 -.038008 .041327 .74561 -113.08 209.5)">
   <path d="m521.64 151.31c0 1.4343-0.85547 2.597-1.9108 2.597s-1.9108-1.1627-1.9108-2.597 0.85547-2.597 1.9108-2.597 1.9108 1.1627 1.9108 2.597z"/>
   <path d="m518.13 157.99c0.3894 1.5947-0.12604 3.0904-1.1512 3.3407-1.0252 0.25032-2.1719-0.83954-2.5613-2.4342s0.12598-3.0904 1.1512-3.3407c1.0252-0.25032 2.1719 0.83954 2.5613 2.4342z"/>
   <path d="m525.75 159.02c-0.50214 1.5629-1.7236 2.5682-2.7284 2.2454-1.0047-0.3228-1.4121-1.8514-0.90997-3.4143 0.50214-1.5629 1.7236-2.5682 2.7283-2.2454 1.0048 0.3228 1.4122 1.8514 0.91003 3.4143z"/>
  </g>
  <g transform="matrix(.53428 .56208 -.61116 .49137 239.73 1.3173)">
   <path d="m189.75 291.92c0 1.4343-0.85547 2.597-1.9108 2.597s-1.9108-1.1627-1.9108-2.597 0.85547-2.597 1.9108-2.597 1.9108 1.1627 1.9108 2.597z"/>
   <path d="m186.25 298.6c0.38939 1.5947-0.12601 3.0904-1.1512 3.3407s-2.1719-0.83954-2.5613-2.4342c-0.38937-1.5947 0.12602-3.0904 1.1512-3.3407s2.1719 0.83954 2.5613 2.4342z"/>
   <path d="m193.87 299.63c-0.50214 1.5629-1.7236 2.5682-2.7284 2.2454-1.0047-0.32282-1.4121-1.8514-0.91-3.4143 0.50214-1.5629 1.7236-2.5682 2.7284-2.2454 1.0047 0.32278 1.4121 1.8514 0.91 3.4143z"/>
  </g>
  <g transform="matrix(.65186 -.44494 .48379 .59951 -425.85 686.04)">
   <path d="m746.7 232.11c0 1.4343-0.85547 2.597-1.9108 2.597s-1.9108-1.1627-1.9108-2.597 0.85547-2.597 1.9108-2.597 1.9108 1.1627 1.9108 2.597z"/>
   <path d="m743.19 238.79c0.38934 1.5947-0.12604 3.0904-1.1512 3.3407-1.0252 0.25034-2.1719-0.83952-2.5613-2.4342s0.12598-3.0904 1.1512-3.3407c1.0252-0.25032 2.1719 0.83954 2.5613 2.4342z"/>
   <path d="m750.81 239.83c-0.50214 1.5629-1.7236 2.5682-2.7283 2.2454-1.0048-0.3228-1.4122-1.8514-0.91003-3.4143 0.50214-1.5629 1.7237-2.5682 2.7284-2.2454s1.4121 1.8514 0.90997 3.4143z"/>
  </g>
  <g transform="matrix(.75983 .26276 -.2857 .69881 422.26 24.514)">
   <path d="m355.3 177.19c0 1.4343-0.85547 2.597-1.9108 2.597s-1.9107-1.1627-1.9107-2.597 0.85544-2.597 1.9107-2.597 1.9108 1.1627 1.9108 2.597z"/>
   <path d="m351.79 183.87c0.3894 1.5947-0.12601 3.0904-1.1512 3.3407-1.0252 0.25032-2.1719-0.83954-2.5613-2.4342-0.38937-1.5947 0.12601-3.0904 1.1512-3.3407 1.0252-0.25032 2.1719 0.83954 2.5613 2.4342z"/>
   <path d="m359.41 184.91c-0.50214 1.5629-1.7237 2.5682-2.7284 2.2454s-1.4121-1.8514-0.90997-3.4143c0.50214-1.5629 1.7236-2.5682 2.7284-2.2454 1.0047 0.32282 1.4121 1.8514 0.91 3.4143z"/>
  </g>
  <g transform="matrix(.81113 -.029496 .032072 .746 328.69 301.3)">
   <path d="m516.93 151.1a1.9108 2.597 0 1 1 -3.8215 0 1.9108 2.597 0 1 1 3.8215 0z"/>
   <path d="m513.43 157.77a1.8562 2.8875 0 1 1 -3.7125 0.90649 1.8562 2.8875 0 1 1 3.7125 -0.90649z"/>
   <path d="m521.05 158.81a1.8192 2.8298 0 1 1 -3.6384 -1.169 1.8192 2.8298 0 1 1 3.6384 1.169z"/>
  </g>
  <g transform="matrix(.76304 -.25478 .27702 .70176 347.24 448.66)">
   <path d="m641.53 175.56c0 1.4343-0.85547 2.597-1.9108 2.597s-1.9108-1.1627-1.9108-2.597 0.85547-2.597 1.9108-2.597 1.9108 1.1627 1.9108 2.597z"/>
   <path d="m638.02 182.24c0.38934 1.5947-0.12604 3.0904-1.1512 3.3407-1.0252 0.25034-2.1719-0.83952-2.5613-2.4342s0.12598-3.0904 1.1512-3.3407c1.0252-0.25032 2.1719 0.83954 2.5613 2.4342z"/>
   <path d="m645.64 183.27c-0.50214 1.5629-1.7237 2.5682-2.7284 2.2454s-1.4121-1.8514-0.90997-3.4143c0.50208-1.5629 1.7236-2.5682 2.7283-2.2454s1.4121 1.8514 0.91003 3.4143z"/>
  </g>
  <g transform="matrix(.81172 .0083863 -.0091186 .74653 195.97 417.58)">
   <path d="m495.98 150.8c0 1.4343-0.85544 2.597-1.9107 2.597s-1.9108-1.1627-1.9108-2.597 0.85547-2.597 1.9108-2.597 1.9107 1.1627 1.9107 2.597z"/>
   <path d="m492.48 157.48c0.38937 1.5947-0.12601 3.0904-1.1512 3.3407-1.0252 0.25032-2.1719-0.83954-2.5612-2.4342-0.3894-1.5947 0.12601-3.0904 1.1512-3.3407 1.0252-0.25032 2.1719 0.83952 2.5613 2.4342z"/>
   <path d="m500.09 158.51c-0.50214 1.5629-1.7236 2.5682-2.7284 2.2454-1.0047-0.3228-1.4121-1.8514-0.91-3.4143 0.50214-1.5629 1.7237-2.5682 2.7284-2.2454s1.4121 1.8514 0.91 3.4143z"/>
  </g>
  <g transform="matrix(-.79913 -.13124 .1427 -.73495 1142.7 1431.7)">
   <path d="m573.21 970.16c0 1.4343-0.85547 2.597-1.9108 2.597s-1.9108-1.1627-1.9108-2.597 0.85547-2.597 1.9108-2.597 1.9108 1.1627 1.9108 2.597z"/>
   <path d="m569.7 976.84c0.3894 1.5947-0.12604 3.0904-1.1512 3.3407s-2.1719-0.83954-2.5613-2.4342 0.12598-3.0904 1.1512-3.3407 2.1719 0.83954 2.5613 2.4342z"/>
   <path d="m577.32 977.87c-0.50214 1.5629-1.7237 2.5682-2.7284 2.2454-1.0047-0.32282-1.4121-1.8514-0.90997-3.4143 0.50214-1.5629 1.7236-2.5682 2.7283-2.2454 1.0048 0.32282 1.4121 1.8514 0.91003 3.4143z"/>
  </g>
  <g transform="matrix(-.80796 .072239 -.078547 -.74308 801.58 1332.4)">
   <path d="m460.67 974.65c0 1.4343-0.85547 2.597-1.9108 2.597s-1.9108-1.1627-1.9108-2.597 0.85547-2.597 1.9108-2.597 1.9108 1.1627 1.9108 2.597z"/>
   <path d="m457.16 981.33c0.3894 1.5947-0.12601 3.0903-1.1512 3.3407-1.0252 0.2503-2.1719-0.83954-2.5613-2.4343-0.38937-1.5947 0.12601-3.0903 1.1512-3.3407 1.0252-0.2503 2.1719 0.83954 2.5612 2.4343z"/>
   <path d="m464.78 982.37c-0.50211 1.5629-1.7236 2.5682-2.7284 2.2454-1.0047-0.32282-1.4121-1.8514-0.91-3.4143 0.50217-1.5629 1.7237-2.5682 2.7284-2.2454 1.0047 0.32275 1.4121 1.8514 0.90997 3.4143z"/>
  </g>
  <g transform="matrix(.80904 -.06115 .066489 .74407 -256.2 587.09)">
   <path d="m534.44 152.16c0 1.4343-0.85547 2.597-1.9108 2.597s-1.9108-1.1627-1.9108-2.597 0.85547-2.597 1.9108-2.597 1.9108 1.1627 1.9108 2.597z"/>
   <path d="m530.93 158.84c0.3894 1.5947-0.12598 3.0904-1.1512 3.3407-1.0252 0.25032-2.1719-0.83952-2.5613-2.4342-0.38934-1.5947 0.12604-3.0904 1.1512-3.3407 1.0252-0.25032 2.1719 0.83952 2.5612 2.4342z"/>
   <path d="m538.55 159.88c-0.50214 1.5629-1.7236 2.5682-2.7283 2.2454-1.0048-0.3228-1.4122-1.8514-0.91003-3.4143 0.50214-1.5629 1.7237-2.5682 2.7284-2.2454s1.4121 1.8514 0.90997 3.4143z"/>
  </g>
  <g transform="matrix(-.74203 .30274 .32918 .68244 573.24 395.98)">
   <path d="m435.19 255.8c3.2742-1.509 6.5194-3.266 9.7028-5.2643 7.6769-12.56 12.371-26.795 13.624-41.248 1.541-17.81-2.152-35.849-10.326-51.359-3.4067-6.4643-7.5728-12.495-12.369-17.929 4.3052 5.8392 7.8832 12.157 10.65 18.762 3.1272 7.4625 5.1967 15.304 6.2063 23.222 1.8196 8.762 2.3416 17.826 1.4692 26.78-1.6449 16.932-8.2808 33.507-18.958 47.036z" fill-rule="evenodd"/>
   <path d="m462.48 217.83s17.409-18.471 25.052-39.277c6.3693 19.532-11.252 36.092-25.052 39.277z"/>
   <path d="m460.5 216.86s13.592-13.28 26.078-39.465c-19.992 1.5383-28.603 25.542-26.078 39.465z"/>
   <g transform="matrix(.88561 -.22799 .23014 .89398 -71.655 154.77)">
    <path d="m555.5 154.09s17.409-18.471 25.052-39.277c6.3693 19.532-11.252 36.092-25.052 39.277z"/>
    <path d="m553.52 153.12s13.592-13.28 26.078-39.465c-19.992 1.5383-28.603 25.542-26.078 39.465z"/>
   </g>
   <g transform="matrix(.33772 -.59529 .55574 .3721 61.132 669.57)">
    <path d="m952.93 97.687s17.409-18.471 25.052-39.277c6.3693 19.532-11.252 36.092-25.052 39.277z"/>
    <path d="m950.95 96.716s13.592-13.28 26.078-39.465c-19.992 1.5383-28.603 25.542-26.078 39.465z"/>
   </g>
   <g transform="matrix(-.80526 .44452 .44388 .80981 859.1 -210.15)">
    <path d="m592.31 149.83s17.409-18.471 25.052-39.277c6.3693 19.532-11.252 36.092-25.052 39.277z"/>
    <path d="m590.33 148.86s13.592-13.28 26.078-39.465c-19.992 1.5383-28.603 25.542-26.078 39.465z"/>
   </g>
   <g transform="matrix(-1.2447 0 0 1 1397.1 12.526)">
    <path d="m764.43 217.83s17.409-18.471 25.052-39.277c6.3693 19.532-11.252 36.092-25.052 39.277z"/>
    <path d="m762.46 216.86s13.592-13.28 26.078-39.465c-19.992 1.5383-28.603 25.542-26.078 39.465z"/>
   </g>
  </g>
  <g transform="matrix(.42287 .53968 -.60039 .3801 719.92 432.88)">
   <path d="m220.82 364.32c3.2742-1.509 6.5194-3.266 9.7028-5.2643 7.6769-12.56 12.371-26.795 13.624-41.248 1.541-17.81-2.152-35.849-10.326-51.359-3.4067-6.4643-7.5728-12.495-12.369-17.929 4.3052 5.8392 7.8832 12.157 10.65 18.762 3.1272 7.4625 5.1966 15.304 6.2063 23.222 1.8196 8.762 2.3416 17.826 1.4692 26.78-1.6449 16.932-8.2808 33.507-18.958 47.036z" fill-rule="evenodd"/>
   <path d="m248.11 326.35s17.409-18.471 25.052-39.277c6.3693 19.532-11.252 36.092-25.052 39.277z"/>
   <path d="m246.13 325.38s13.592-13.28 26.078-39.465c-19.992 1.5383-28.603 25.542-26.078 39.465z"/>
   <g transform="matrix(.88561 -.22799 .23014 .89398 -71.655 154.77)">
    <path d="m298.9 210.04s17.409-18.471 25.052-39.277c6.3693 19.532-11.252 36.092-25.052 39.277z"/>
    <path d="m296.92 209.07s13.592-13.28 26.078-39.465c-19.992 1.5383-28.603 25.542-26.078 39.465z"/>
   </g>
   <g transform="matrix(.33772 -.59529 .55574 .3721 61.132 669.57)">
    <path d="m646.07-101.58s17.409-18.471 25.052-39.277c6.3693 19.532-11.252 36.092-25.052 39.277z"/>
    <path d="m644.09-102.55s13.592-13.28 26.078-39.465c-19.992 1.5383-28.603 25.542-26.078 39.465z"/>
   </g>
   <g transform="matrix(-.80526 .44452 .44388 .80981 859.1 -210.15)">
    <path d="m853.39 140.52s17.409-18.471 25.052-39.277c6.3693 19.532-11.252 36.092-25.052 39.277z"/>
    <path d="m851.41 139.55s13.592-13.28 26.078-39.465c-19.992 1.5383-28.603 25.542-26.078 39.465z"/>
   </g>
   <g transform="matrix(-1.2447 0 0 1 1397.1 12.526)">
    <path d="m936.66 326.35s17.409-18.471 25.052-39.277c6.3693 19.532-11.252 36.092-25.052 39.277z"/>
    <path d="m934.68 325.38s13.592-13.28 26.078-39.465c-19.992 1.5383-28.603 25.542-26.078 39.465z"/>
   </g>
  </g>
  <g transform="matrix(.79988 .13844 -.12732 .73564 443.1 100.58)">
   <path d="m520.94 256.75c4.3027-1.3807 8.5938-3.0998 12.826-5.1488 13.88-14.725 23.482-33.253 27.355-52.838 4.716-23.879 0.87451-49.112-10.407-70.182-3.4406-6.4262-7.547-12.473-12.222-18.014 4.2942 5.8458 7.9551 12.118 10.913 18.672 5.2543 11.638 8.2092 24.194 8.8648 36.767 1.1854 10.57 0.74554 21.348-1.4124 31.801-4.7006 22.819-17.593 44.098-35.917 58.942z" fill-rule="evenodd"/>
   <path d="m565.15 188.41s17.409-18.471 25.052-39.277c6.3693 19.532-11.252 36.092-25.052 39.277z"/>
   <path d="m563.18 187.44s13.592-13.28 26.078-39.465c-19.992 1.5383-28.603 25.542-26.078 39.465z"/>
   <g transform="matrix(.88561 -.22799 .23014 .89398 -71.655 154.77)">
    <path d="m672.25 150.95s17.409-18.471 25.052-39.277c6.3693 19.532-11.252 36.092-25.052 39.277z"/>
    <path d="m670.28 149.98s13.592-13.28 26.078-39.465c-19.992 1.5383-28.603 25.542-26.078 39.465z"/>
   </g>
   <g transform="matrix(.33772 -.59529 .55574 .3721 61.132 669.57)">
    <path d="m1072.4 209.81s17.409-18.471 25.052-39.277c6.3693 19.532-11.252 36.092-25.052 39.277z"/>
    <path d="m1070.5 208.84s13.592-13.28 26.078-39.465c-19.992 1.5383-28.603 25.542-26.078 39.465z"/>
   </g>
   <g transform="matrix(-.80526 .44452 .44388 .80981 859.1 -210.15)">
    <path d="m479.05 175.67s17.409-18.471 25.052-39.277c6.3693 19.532-11.252 36.092-25.052 39.277z"/>
    <path d="m477.07 174.7s13.592-13.28 26.078-39.465c-19.992 1.5383-28.603 25.542-26.078 39.465z"/>
   </g>
   <g transform="matrix(-1.2447 0 0 1 1397.1 12.526)">
    <path d="m681.95 188.41s17.409-18.471 25.052-39.277c6.3693 19.532-11.252 36.092-25.052 39.277z"/>
    <path d="m679.97 187.44s13.592-13.28 26.078-39.465c-19.992 1.5383-28.603 25.542-26.078 39.465z"/>
   </g>
  </g>
  <path d="m-53.447 209.16h2.3234v2.1203h-2.3234v-2.1203z"/>
  <rect transform="rotate(-18.544)" x="-114.72" y="182.56" width="2.3412" height="2.1752"/>
  <path d="m-75.719 213.51a0.65403 0.8371 0 1 1 -1.3081 -0.77728 0.65403 0.8371 0 1 1 1.3081 0.77728z"/>
  <path d="m-75.362 214.74a0.70607 0.89947 0 1 1 -1.4122 0.73265 0.70607 0.89947 0 1 1 1.4122 -0.73265z"/>
  <path d="m-73.721 212.93a0.73006 1.0731 0 1 1 -1.4601 1.1063 0.73006 1.0731 0 1 1 1.4601 -1.1063z"/>
  <path d="m-76.25 217.65a2.1e-4 3e-4 0 1 1 -4.2e-4 -1.4164 2.1e-4 3e-4 0 1 1 4.2e-4 1.4164z"/>
  <path d="m-73.639 216.78a0.49773 0.72632 0 1 1 -0.99547 -1.4337 0.49773 0.72632 0 1 1 0.99547 1.4337z"/>
  <path d="m-72.054 213.53a0.53342 0.82253 0 1 1 -1.0668 -0.90758 0.53342 0.82253 0 1 1 1.0668 0.90758z"/>
  <path d="m-71.86 216.9a0.586 0.91389 0 1 1 -1.172 -0.58372 0.586 0.91389 0 1 1 1.172 0.58372z"/>
  <path d="m-72.49 214.18a0.0341 0.05024 0 1 1 -0.068199 1.1817 0.0341 0.05024 0 1 1 0.068199 -1.1817z"/>
  <rect x="-50.393" y="204.51" width="4" height="4"/>
  <path d="m-54.19 200.26a0.59495 0.87449 0 1 1 -1.1899 0.90152 0.59495 0.87449 0 1 1 1.1899 -0.90152z"/>
  <rect x="-50.633" y="199.03" width="4.532" height="4.5086"/>
  <path d="m-62.343 201.94c-0.43626 1.22e-4 -0.78998-0.23454-0.79008-0.52418-9.9e-5 -0.28964 0.35345-0.52452 0.78971-0.52464 0.43625-1.22e-4 0.78997 0.23456 0.79007 0.5242 1.11e-4 0.28964-0.35345 0.52451-0.7897 0.52463z"/>
  <path d="m-59.307 200.59c-0.45448 0.31616-0.89841 0.29677-0.99157-0.043243-0.093163-0.34006 0.19975-0.87196 0.65423-1.1881 0.45447-0.31616 0.8984-0.29681 0.99156 0.043228 0.093147 0.34001-0.19974 0.87198-0.65422 1.1881z"/>
  <path d="m-60.82 200.76c0.32662 0.02919 0.57908 0.33113 0.56388 0.67444-0.015198 0.34331-0.29228 0.59792-0.61891 0.56873s-0.57908-0.33113-0.56388-0.67444c0.01519-0.34331 0.29228-0.59792 0.61891-0.56873z"/>
  <path d="m-59.391 201.89c-0.43626 1.22e-4 -0.78998-0.23454-0.79009-0.52418-9.2e-5 -0.28964 0.35346-0.52452 0.78972-0.52464 0.43625-1.22e-4 0.78997 0.23456 0.79007 0.5242 1.11e-4 0.28964-0.35345 0.52451-0.7897 0.52463z"/>
  <path d="m-60.343 199.9c1.22e-4 0.43625-0.23456 0.78998-0.52419 0.79007-0.28964 1.07e-4 -0.52452-0.35346-0.52464-0.7897-1.22e-4 -0.43625 0.23456-0.78998 0.52419-0.79007 0.28964-1.07e-4 0.52451 0.35344 0.52464 0.7897z"/>
  <path d="m-60.32 202.83c1.22e-4 0.43626-0.23456 0.78998-0.52419 0.79008-0.28964 1.07e-4 -0.52452-0.35346-0.52464-0.7897-1.22e-4 -0.43626 0.23456-0.78998 0.52419-0.79008 0.28964-1.07e-4 0.52451 0.35346 0.52464 0.7897z"/>
  <path d="m-62.084 203.39c-0.45448 0.31616-0.89841 0.29677-0.99156-0.043243-0.09317-0.34006 0.19974-0.87196 0.65422-1.1881 0.45448-0.31616 0.8984-0.29681 0.99156 0.043228 0.093151 0.34001-0.19973 0.87198-0.65422 1.1881z"/>
  <path d="m-61.637 199.83c0.31616 0.45447 0.29681 0.89841-0.04324 0.99156-0.34004 0.093155-0.87196-0.19974-1.1881-0.65422-0.31615-0.45448-0.2968-0.89841 0.04324-0.99156 0.34005-0.09317 0.87197 0.19974 1.1881 0.65422z"/>
  <path d="m-58.884 202.56c0.31616 0.45447 0.29681 0.89841-0.04324 0.99156-0.34004 0.093155-0.87196-0.19974-1.1881-0.65422-0.31616-0.45448-0.29681-0.89841 0.043232-0.99156 0.34005-0.09317 0.87197 0.19974 1.1881 0.65422z"/>
  <rect x="-84.138" y="202.13" width="5.7344" height="5.7373"/>
  <g transform="matrix(2.3324 0 0 2.5357 61.176 -790.39)">
   <path d="m-52.794 393.51c-0.13078 0.18231-0.36232 0.2615-0.5172 0.17685-0.15488-0.084656-0.17441-0.30106-0.043629-0.4834 0.13077-0.18231 0.36233-0.2615 0.5172-0.17685 0.15489 0.084656 0.17441 0.30106 0.043629 0.4834z"/>
   <path d="m-52.641 394c0.12385 0.19592 0.088718 0.4194-0.07848 0.49921-0.1672 0.079773-0.40313-0.014343-0.52697-0.21027-0.12385-0.19592-0.088711-0.4194 0.078487-0.49921 0.16719-0.079773 0.40312 0.014343 0.52696 0.21027z"/>
   <path d="m-51.937 393.28c0.16208 0.23373 0.15332 0.52084-0.019562 0.64133-0.17288 0.12048-0.44439 0.028687-0.60647-0.20505-0.16207-0.23373-0.15331-0.52087 0.019569-0.64136 0.17288-0.12048 0.44439-0.028656 0.60646 0.20508z"/>
   <path d="m-53.021 395.14c-0.2125 6.1e-5 -0.38481-0.12494-0.38485-0.27918-5e-5 -0.15427 0.17216-0.27936 0.38467-0.27942 0.2125-6.1e-5 0.38481 0.12491 0.38486 0.27918 5e-5 0.15424-0.17218 0.27936-0.38468 0.27942z"/>
   <path d="m-51.902 394.8c-0.21158 0.1582-0.47862 0.15988-0.59649 0.003723-0.11786-0.15613-0.041901-0.41095 0.16968-0.56915 0.21157-0.15817 0.47862-0.15985 0.59648-0.003723 0.11787 0.15616 0.041901 0.41095-0.16967 0.56915z"/>
   <path d="m-51.222 393.52c-0.12675 0.17914-0.33189 0.24426-0.4582 0.14542-0.12632-0.098846-0.12596-0.32419 7.9e-4 -0.50336 0.12674-0.17914 0.33188-0.24426 0.45819-0.14542 0.12631 0.098846 0.12597 0.32419-7.82e-4 0.50336z"/>
   <path d="m-51.139 394.85c-0.080608 0.19907-0.25843 0.3089-0.3972 0.2453-0.13876-0.063568-0.18591-0.27646-0.10531-0.47552 0.080608-0.19904 0.25843-0.30887 0.3972-0.2453 0.13877 0.063568 0.18591 0.27646 0.10531 0.47552z"/>
   <path d="m-51.409 393.78c0.17355 0.010925 0.30768 0.12412 0.29961 0.25284-0.008068 0.12869-0.1553 0.22415-0.32885 0.2132-0.17354-0.010925-0.30768-0.12415-0.29961-0.25284 0.008083-0.12869 0.1553-0.22415 0.32885-0.2132z"/>
  </g>
 </g>
</svg>
