<?xml version="1.0" encoding="UTF-8"?>
<svg viewBox="0 0 640 480" xmlns="http://www.w3.org/2000/svg">
 <g fill="#8eba3f" fill-rule="evenodd">
  <path transform="rotate(-50.607 353.16 231.33)" d="m540.25 191.22c-9.116 10.091-20.556 13.215-31.388 19.626-9.126 5.4014-18.24 11.802-27.694 17.173-9.271 5.2685-18.545 10.318-27.693 16.354-16.092 10.626-31.256 18.539-51.08 25.353-17.915 6.1562-43.173 11.697-65.85 13.086-9.329 0.57001-17.439-2.4609-25.848-3.2741-11.105-1.0723-21.896 1.936-33.232 0-9.232-1.5772-19.202-5.9263-28.924-8.9944-9.093-2.8688-18.27-6.9282-26.464-11.447-8.121-4.4832-15.64-11.219-23.386-16.356-15.324-10.16-29.381-18.451-32.618-43.342 8.024-1.7128 15.616-2.728 20.924 2.4542 2.656 2.5937 5.007 8.8416 7.386 13.086 7.019 12.506 17.562 22.434 25.232 33.527 4.069 0.85838 4.839 6.1057 9.846 5.7243-1.692-4.0367-5.543-4.7583-8-7.3614-2.024-2.1419-3.488-5.9076-5.538-8.1785-2.105-2.332-4.836-3.5-6.77-5.7256-8.509-9.7651-15.038-22.111-21.54-34.343 6.359 0.24583 12.861 2.029 19.078 2.4529 2.839 0.19398 6-0.96867 8.616 0 2.742 1.0165 4.352 5.0346 6.154 7.3613 2.267 2.9193 4.259 4.9244 6.154 7.356 2.268 11.605 9.78 19.296 16.002 27.808 3.297 4.5112 9.09 13.383 14.154 15.536 6.078 2.5778 13.486 5.1995 19.694 8.1746 5.571 2.6708 9.225 4.9735 13.54 9.8156-8.575-15.628-31.509-15.899-42.464-29.439-2.431-3.007-4.36-7.4304-6.771-10.63-2.322-3.0894-5.422-5.7562-7.384-8.997-2.399-3.9624-3.595-9.1964-6.154-13.9-2.213-4.0687-6.237-7.287-8-12.266 12.472-0.64442 20.406 1.0843 32.618 1.6357 11.569 15.33 21.471 34.788 35.078 49.064 4.362 4.5736 9.656 9.9577 14.77 12.266 3.792 1.7101 8.27 1.4802 12.308 3.2687 1.626 0.72287 3.256 2.5379 4.924 3.2741 5.799 2.5566 10.45 4.474 15.386 8.9944-5.374-11.223-20.154-12.319-30.772-17.992-12.962-6.9242-20.445-18.741-30.154-29.44-5.318-10.924-12.408-19.489-17.848-30.253 14.481-1.5214 27.685-1.366 40.002-0.81854 6.501 7.5554 13.898 14.317 19.078 23.716 11.464 20.804 27.883 35.422 46.771 48.246-0.070007-3.0177-3.546-6.5389-5.539-8.1746-5.997-4.943-12.037-7.4863-17.232-12.267-14.546-13.402-25.436-34.722-38.77-51.517 10.348 0.99258 22.45-0.58069 32.617 0.81851 13.038 1.7938 19.325 18.722 29.541 25.348 7.661 17.352 17.224 32.176 32 40.069-2.957-5.0626-7.484-8.0417-12.308-10.63-1.533-4.652-5.211-8.4177-8-12.266-2.699-3.7245-6.146-7.0212-6.771-11.449 8.013 5.9821 18.62 11.159 28.926 16.356 6.348 3.1996 11.737 5.816 16 12.266 0.65399-3.8402-4.635-9.4435-7.384-11.449-7.435-5.4107-18.244-6.9787-26.464-12.266-1.889-1.2145-4.025-3.3604-6.154-4.9058-10.299-7.4716-20.886-20.152-28.31-30.255 8.407-0.20596 16.462-1.1122 25.232-1.6357 5.626-0.33617 12.493-1.6968 16.002-0.81853 6.081 1.5268 8.947 9.0356 14.77 9.8129 12.996 16.257 29.897 27.329 51.08 32.713-3.841-6.5189-10.811-6.9149-16.002-8.997-16.85-6.7634-29.428-21.785-43.694-32.709 1.554-2.1991 3.038-2.1459 4.924-2.4542 8.251-1.35 20.507 0.006638 28.924-0.8172 2.013-0.19664 3.917-1.079 5.538-0.81718 3.961 0.63649 7.026 4.9443 11.078 8.1759 10.316 8.2397 24.531 13.017 35.08 20.447-3.278-8.0975-12.345-10.111-19.694-13.904-7.138-3.682-14.487-7.3334-19.078-13.902 7.654-4.4952 15.176-2.2377 23.387-2.4529 3.023-0.081055 6.069-1.6875 8.615-0.81851 3 1.0231 4.275 5.3642 7.385 8.1785 6.505 5.8864 15.35 7.6975 22.155 11.449-4.328-6.6717-13.231-7.7108-19.078-12.266-2.391-1.863-5.875-4.6374-5.538-8.1786 21.637 0.029236 38.298 1.9506 60.311-1.6357-2.431-3.682-5.354-0.90488-8-0.81718-12.961 0.42387-25.423 0.39729-40.002-1.6357 5.161-5.4094 14.429-5.3589 19.693-10.631 9.884 5.1197 22.752 6.285 32.617 11.441z"/>
  <path transform="rotate(-47.44 359.62 121.35)" d="m425.87 129.31c-16.745 9.6496-32.256 14.841-54.771 11.733 7.5091-9.0504 18.11-13.889 28.926-18.438-15.771-2.4403-24.569 16.234-39.388 19.276-7.756 1.5933-15.858 0.43034-25.848 1.6764 1.59-4.2474 4.588-6.621 7.386-9.2192 2.913-2.7059 5.856-3.7381 9.229-5.8666 5.082-3.2029 9.5601-9.6468 14.772-12.571 2.498-1.4013 6.022-0.25602 8-3.3527-8.037-2.9905-13.712 6.3922-19.694 10.896-3.7511 2.8216-7.984 3.9178-11.693 6.704-5.741 4.3155-9.499 12.381-16 14.247-10.118 2.906-20.423-1.2215-33.232 1.6763-0.974-2.9768 1.973-4.2324 3.076-5.8666 7.435-11 14.737-19.559 26.464-26.818 3.372-2.0876 5.895-4.2447 9.846-6.7054 2.694-1.6764 6.58-2.8747 10.462-5.0277 1.454-0.80619 4.518-2.1203 4.925-5.0291 6.949 4.2202 14.758 6.8375 22.77 10.894 2.251 1.1398 4.484 3.3513 6.77 4.1902 4.188 1.5361 8.796 1.3318 12.924 2.5139 12.109 3.4712 23.775 8.7249 35.076 15.087z"/>
  <path transform="rotate(-49.363 251.48 217.57)" d="m380.7 209.27c0.11398 0.73674-0.23801 0.81847-0.61401 0.86636-13.211 7.0352-28.621 14.793-39.388 26.01-7.222 7.5241-11.761 19.281-20.924 25.142-16.164-0.77622-28.249 0.88327-43.694-0.86636 5.344-22.133 23.042-28.975 37.54-40.748 2.056-1.6694 3.497-4.222 5.538-6.0688 2.788-2.5188 6.599-5.3321 9.849-7.803 5.768-4.3868 11.707-6.3168 17.231-10.404-10.664-0.57617-19.481 8.8948-27.694 16.472-13.332 12.298-28.541 19.766-40.001 34.679-1.82 5.2419-3.945 10.05-6.77 13.872-12.406-1.4285-30.888-0.69452-46.157-0.8678 3.925-9.54 10.851-14.927 17.232-20.807 15.673-14.437 29.934-30.502 49.234-41.614 6.915-3.9811 13.476-8.0608 22.155-11.27-10.121-0.90582-19.278 6.5028-27.694 11.27-16.969 9.6104-29.806 26.104-44.312 39.88-7.218 6.8577-15.062 12.817-20.308 22.541-12.374 0.36487-24.931-0.59451-35.694 0 13.985-12.086 23.673-33.35 36.31-48.55 5.048-6.0745 10.979-11.487 16.616-16.472 5.725-5.063 12.346-8.2158 18.464-13.872-34.306 13.228-47.914 55.612-75.697 78.027-7.41 0.61279-12.919-1.451-19.694-1.7341 0.15599-4.2938 3.211-5.7702 4.924-8.6694 1.616-2.7344 2.647-6.5915 4.308-9.5372 0.49899-0.88188 1.326-0.54802 1.846-1.7342 2.064-4.6925 5.144-10.016 8-14.738 8.748-14.452 17.829-27.754 30.772-36.412-3.625 0.45639-7.531 3.4584-10.462 6.0688-17.578 15.657-28.215 45.039-43.696 64.157-6.869-1.0185-14.254-1.3045-20.924-2.6019 5.462-16.291 14.145-28.044 24.616-37.28-2.599-2.0722-4.412 2.6316-6.152 4.3347-6.107 5.9745-11.944 13.985-17.231 21.675-0.875 3.9698-1.945 7.6664-4.308 9.5372-3.099 1.1031-8.639-0.076065-11.694-1.7342 4.448-13.386 13.86-19.78 20.924-29.478 4.86-2.0878 9.192-6.6267 13.54-10.404 4.482-3.8938 8.638-6.9056 13.538-10.404 11.415-8.144 22.49-19.701 35.695-23.408 17.872-5.0165 37.687-0.6297 56.004-1.7342 9.187-0.55507 24.438-1.8638 37.54 1.7342 4.039 1.1087 8.873 4.0783 14.153 5.201 12.824 2.7288 24.002 5.0898 35.078 10.404 11.257 5.3997 21.503 11.098 32.001 17.339z"/>
  <path transform="rotate(-50.464 262.6 271.66)" d="m410.91 273.28c0.10101 2.0744-0.13699 3.1725-0.616 3.5664-25.884 5.2266-51.95 5.8786-78.157 8.9149-14.43 1.666-28.741-3.5665-43.08-3.5665-26.248 0-53.343 3.4072-81.235 0-28.367-3.4622-54.637-10.981-83.696-5.3484-3.112 0.60266-7.478 4.569-9.848-3.5664 0.038002-12.374 4.718-11.294 7.386-16.048 11.206 8.6135 23.042-0.23465 34.464 1.7818 4.114 0.72723 8.1 4.598 12.308 5.3513 14.053 2.5061 27.481 9.0191 41.233 10.697 19.32 2.3613 38.585 1.6283 59.08 0 21.509-1.7094 44.139 5.0093 67.08 5.3512 24.369 0.36212 48.912-2.5061 73.235-7.133h1.846z"/>
 </g>
</svg>
