<?xml version='1.0' encoding='utf-8'?>
<svg xmlns="http://www.w3.org/2000/svg" version="1.1" id="Layer_1" x="0px" y="0px" viewBox="0 0 4000 3104.126" enable-background="new 0 0 4000 3104.126"> <g> <path d="M1998.69,517.355c-73.214,67.241-160.303,199.795-248.854,339.227c-49.462-62.706-105.45-118.088-168.959-165.03 C1659.961,456.903,1807.892,226.945,2000,0l-2.62,0c192.108,226.945,340.039,456.903,419.123,691.552 c-63.509,46.941-119.497,102.323-168.959,165.03C2158.994,717.15,2071.904,584.596,1998.69,517.355z"/> <path d="M1751.146,863.13"/> <path d="M2000,1967.256c-208.252,0-401.255-153.336-371.971-416.503c33.076-297.248,158.715-563.824,371.971-797.642 c213.256,233.818,338.895,500.394,371.971,797.642C2401.255,1813.92,2170.268,1967.256,2000,1967.256z"/> <path d="M1999.788,2113.949c212.789,7.445,328.916,131.668,287.935,404.715c-28.507,189.932-139.583,384.913-287.935,585.462 c-148.352-200.549-259.428-395.53-287.935-585.462C1670.872,2245.617,1786.999,2121.395,1999.788,2113.949z"/> <path d="M2297.315,969.221c86.091-124.18,185.532-210.227,294.695-268.5c131.653,367.275,106.91,653.973-75.966,859.201 C2451.744,1335.373,2381.499,1129.914,2297.315,969.221z"/> <path d="M2141.454,2047.151c204.089-29.371,328.239-167.791,381.139-403.405c146.446-31.769,258.189-111.079,344.466-225.278 C2925.999,1959.398,2420.432,2259.332,2141.454,2047.151z"/> <path d="M2721.676,1393.582l214.8-149.312c26.867,116.736,31.064,244.976,19.646,381.14 c316.711-294.337,474.335-679.699,430.911-1180.092c-236.994,116.912-453.813,281.131-650.95,488.54 C2766.747,1079.46,2757.987,1233.554,2721.676,1393.582z"/> <path d="M2404.715,2189.915c317.794-95.417,558.003-298.04,721.676-606.418c188.23-99.878,362.664-121.59,521.283-53.7 C3332.008,2109.258,2874.918,2347.086,2404.715,2189.915z"/> <path d="M2872.299,2265.881c183.85,22.049,331.774-67.257,457.105-226.588c287.759,40.356,533.585,109.092,670.596,251.473 C3500.982,2467.584,3083.096,2543.273,2872.299,2265.881z"/> <path d="M2379.83,2216.11c-59.576,24.237-74.325,90.444-41.912,144.073c26.886,62.468,103.4,237.885,297.995,346.6 c132.865,74.228,298.028,108.669,491.789,107.886c-48.424-164.412-141.454-352.325-272.43-444.008 C2743.078,2292.126,2540.93,2387.688,2379.83,2216.11z"/> <path d="M1620.17,2216.11c59.576,24.237,74.325,90.444,41.912,144.073c-26.886,62.468-103.4,237.885-297.995,346.6 c-132.865,74.228-298.028,108.669-491.789,107.886c48.424-164.412,141.454-352.325,272.43-444.008 C1256.922,2292.126,1459.07,2387.688,1620.17,2216.11z"/> <path d="M1702.685,969.221c-86.091-124.18-185.532-210.227-294.696-268.5c-131.653,367.275-106.91,653.973,75.966,859.201 C1548.256,1335.373,1618.501,1129.914,1702.685,969.221z"/> <path d="M1858.546,2047.151c-204.089-29.371-328.239-167.791-381.139-403.405c-146.446-31.769-258.19-111.079-344.466-225.278 C1074.001,1959.398,1579.568,2259.332,1858.546,2047.151z"/> <path d="M1278.324,1393.582l-214.8-149.312c-26.866,116.736-31.064,244.976-19.646,381.14 C727.166,1331.072,569.542,945.711,612.967,445.318c236.994,116.912,453.813,281.131,650.95,488.54 C1233.253,1079.46,1242.013,1233.554,1278.324,1393.582z"/> <path d="M1595.285,2189.915c-317.794-95.417-558.003-298.04-721.676-606.418c-188.229-99.878-362.664-121.59-521.283-53.7 C667.992,2109.258,1125.082,2347.086,1595.285,2189.915z"/> <path d="M1127.701,2265.881c-183.85,22.049-331.774-67.257-457.105-226.588C382.837,2079.649,137.011,2148.385,0,2290.766 C499.018,2467.584,916.903,2543.273,1127.701,2265.881z"/> </g> </svg>