<?xml version="1.0" encoding="UTF-8"?>
<svg viewBox="0 0 800 800" xmlns="http://www.w3.org/2000/svg">
 <g fill-rule="evenodd" stroke-width=".5">
  <path d="m0 400v-400h800v800h-800v-400zm503.5-181.5v1.5l-0.3 0.2q-0.2 0.3-3.2 1.8t-17 10.5-26.8 20.3q-12.7 11.2-25 27-12.2 15.7-20.4 31.4l-8.3 15.8-0.5 1-0.5 1-0.5 1-0.5 1-0.5 1-0.5 1-0.3-0.2-0.2-0.3-0.2-0.3-0.3-0.2-0.3-0.2-0.2-0.3-0.2-0.3-0.3-0.2-0.5-1.5-0.5-1.5-0.5-1q-0.5-1-1.5-3.5t-9.5-17.5-19.5-29-21-23-28-21l-18-12 1-3q1-3 11.5-18t25.2-30.8q14.8-15.7 29.8-28.2t25-19.5 12.5-6.5 19.5 13.5 28 22.7q11 9.8 25.2 27.3 14.3 17.5 20.8 28t6.5 12zm-235.5 138l0.5 1.5 0.5 1.5 0.5 1.5v3l-0.3-0.2-0.2-0.3-1-0.5-1-0.5-1-0.5-1-0.5-0.2-0.3-0.3-0.2-0.3-0.2-0.2-0.3-16.5-9q-16.5-9-34-14.5t-24.5-6.5-31.8-0.7q-24.7 0.2-28.7-15.3t-5-24.5-0.5-31 4.5-42.5 4.7-21.7q0.8-1.3 21.3 1.2t46.5 9 48 14.8q22 8.2 16.8 28.2-5.3 20-6.3 36.5t1.5 35 5 27 3 10zm268 3.5l-1 0.5-0.2 0.3-0.3 0.2-0.3 0.2-0.2 0.3-1 0.5-1 0.5-0.2 0.3-0.3 0.2-0.3 0.2-0.2 0.3-1 0.3-1 0.2 0.2-1.5 0.3-1.5 0.5-1.5 0.5-1.5 4.5-16q4.5-16 5.5-25t0.5-26-4.5-34.5-5.5-22.5 17.8-12.8q19.2-7.7 46.2-14.7t48.5-9.5 24.7 9.2q3.3 11.8 5.3 26.8t1.5 37-4 39-4.8 19.8q-1.2 2.7-21.7 1.7t-36.5 1.5-31.8 8.2q-15.7 5.8-27.4 12.6-11.8 6.7-12.8 7.2zm-119 119l-0.5 1-0.3 0.2-0.2 0.3-0.2 0.3-0.3 0.2-0.5 1-0.5 1-0.5 1-0.5 1-0.3 0.2-0.2 0.3h-3l-0.2-0.3-0.3-0.2v-2l0.5-2.5 0.5-2.5 2-19.5q2-19.5 1.5-41t-3.5-40 4.5-34.5 16.8-30.2q9.2-14.3 13.2-20 4-5.8 7.8-9.3 3.7-3.5 11-10 7.2-6.5 7.2-7.5t17-12.8q17-11.7 19.5-13.2t4.3-1.2q1.7 0.2 6.2 14.2t6 24.5 1 28-3.5 31-10.5 30.5-27 34.5-36 36.5-23.5 29.5-7.5 11.5zm-30-4l0.5 4 0.3 3 0.2 3-1.5-0.2-1.5-0.3-0.2-0.3-0.3-0.2-0.5-1-0.5-1-0.3-0.2-0.2-0.3-0.2-0.3-0.3-0.2-0.5-1-0.5-1-9.3-13.2q-9.2-13.3-23.2-29.3t-30.5-31.5-19.7-18.8q-3.3-3.2-9.3-17.2t-9.5-28.5-3.5-35.5 4-38.5 6.3-22.3q2.2-4.7 9.4-1 7.3 3.8 22 15.6 14.8 11.7 26 24 11.3 12.2 21.8 28.7t17.5 33 4 34-3 46.5 1 37.5 1.5 12.5zm-23 6l0.5 1 0.5 1 0.5 1 0.3 2 0.2 2-17-0.2q-17-0.3-25-1.3t-25.5-5.5-33.5-11.5-32.5-17.5-30.3-22.2q-13.7-11.8-27.7-28.3t-23.5-32.5l-9.5-16-0.5-1-0.5-1-0.3-2q-0.2-2 25.3-1.8 25.5 0.3 42.5 4.8t35 13.5 35.8 22.3q17.7 13.2 34.2 28.7t28.5 31 17 24 5.5 9.5zm84.5 7.5h-15.5l-0.2-0.3-0.3-0.2-0.3-0.2-0.2-0.3 0.2-0.3 0.3-0.2 0.5-1.5 0.5-1.5 0.5-1 0.5-1 8-13.5q8-13.5 12.3-19.5 4.2-6 8-9.5 3.7-3.5 20.4-20.3 16.8-16.7 35.3-30.2t32.5-21 31.5-13 30-7 29-0.8q16.5 0.8 13.7 7.8-2.7 7-12 21.2-9.2 14.3-20.7 27.3t-25.5 25.5-31 23.5-36 19-37.5 12-23.5 4.5-20.5 0.5zm-99 17l21.5 1 0.2 0.3 0.3 0.2v9q0 9-2 15.5t-6.7 13.3q-4.8 6.7-13 13-8.3 6.2-24 12.4-15.8 6.3-32.8 9.8t-43.5 3.5-43.5-4-32-10.5-29.5-15.5-33.5-25.3q-19-16.2-28.8-27.2-9.7-11-27.2-33t-27-37.5-10-19 1-5.5 11.2-10.8q9.8-8.7 26.8-18.2t36-16.5 24-7.5 5.8 1.2q0.7 1.8 8.2 16.8t18.2 30.5q10.8 15.5 11.8 15.5t1.2 1q0.3 1 10.6 10.8 10.2 9.7 23.7 20.2t30.5 20 37 17.5 42 13 43.5 6zm77 11.5v-9l0.3-0.2 0.2-0.3 24.5-1.5q24.5-1.5 48-7.5t46-16 40-21.5 31.7-24.2q14.3-12.8 25.3-26.3t20-29.5 11.7-22.2q2.8-6.3 16.8-2.3t31.2 11.7q17.3 7.8 30.8 16.8t20.5 16.5 6.5 11-10.5 19.5-25.3 35.2q-15.2 19.3-25.7 31.6-10.5 12.2-12.7 13.7-2.3 1.5-2.6 2.5-0.2 1-17.2 15.2-17 14.3-33 24.3t-32 16.5-28.5 9.5-21 4-28 0.5-37-4-33-9.5-24.5-12.5-14.2-14.8q-5.3-8.2-6.8-13.2t-1.5-14z" fill="#fff" stroke="#fff"/>
  <path d="m426.5 517v-9l0.3-0.2 0.2-0.3 24.5-1.5q24.5-1.5 48-7.5t46-16 40-21.5 31.7-24.2q14.3-12.8 25.3-26.3t20-29.5 11.7-22.2q2.8-6.3 16.8-2.3t31.2 11.7q17.3 7.8 30.8 16.8t20.5 16.5 6.5 11-10.5 19.5-25.3 35.2q-15.2 19.3-25.7 31.6-10.5 12.2-12.7 13.7-2.3 1.5-2.6 2.5-0.2 1-17.2 15.2-17 14.3-33 24.3t-32 16.5-28.5 9.5-21 4-28 0.5-37-4-33-9.5-24.5-12.5-14.2-14.8q-5.3-8.2-6.8-13.2t-1.5-14z" fill="#b4d881" stroke="#b4d881"/>
  <path d="m349.5 505.5l21.5 1 0.2 0.3 0.3 0.2v9q0 9-2 15.5t-6.7 13.3q-4.8 6.7-13 13-8.3 6.2-24 12.4-15.8 6.3-32.8 9.8t-43.5 3.5-43.5-4-32-10.5-29.5-15.5-33.5-25.3q-19-16.2-28.8-27.2-9.7-11-27.2-33t-27-37.5-10-19 1-5.5 11.2-10.8q9.8-8.7 26.8-18.2t36-16.5 24-7.5 5.8 1.2q0.7 1.8 8.2 16.8t18.2 30.5q10.8 15.5 11.8 15.5t1.2 1q0.3 1 10.6 10.8 10.2 9.7 23.7 20.2t30.5 20 37 17.5 42 13 43.5 6z" fill="#b3d880" stroke="#b3d880"/>
  <path d="m536 360l-1 0.5-0.2 0.3-0.3 0.2-0.3 0.2-0.2 0.3-1 0.5-1 0.5-0.2 0.3-0.3 0.2-0.3 0.2-0.2 0.3-1 0.3-1 0.2 0.2-1.5 0.3-1.5 0.5-1.5 0.5-1.5 4.5-16q4.5-16 5.5-25t0.5-26-4.5-34.5-5.5-22.5 17.8-12.8q19.2-7.7 46.2-14.7t48.5-9.5 24.7 9.2q3.3 11.8 5.3 26.8t1.5 37-4 39-4.8 19.8q-1.2 2.7-21.7 1.7t-36.5 1.5-31.8 8.2q-15.7 5.8-27.4 12.6-11.8 6.7-12.8 7.2z" fill="#b3d881" stroke="#b3d881"/>
  <path d="m268 356.5l0.5 1.5 0.5 1.5 0.5 1.5v3l-0.3-0.2-0.2-0.3-1-0.5-1-0.5-1-0.5-1-0.5-0.2-0.3-0.3-0.2-0.3-0.2-0.2-0.3-16.5-9q-16.5-9-34-14.5t-24.5-6.5-31.8-0.7q-24.7 0.2-28.7-15.3t-5-24.5-0.5-31 4.5-42.5 4.7-21.7q0.8-1.3 21.3 1.2t46.5 9 48 14.8q22 8.2 16.8 28.2-5.3 20-6.3 36.5t1.5 35 5 27 3 10z" fill="#b3d880" stroke="#b3d880"/>
  <g fill="#b4d881" stroke="#b4d881">
   <path d="m503.5 218.5v1.5l-0.3 0.2q-0.2 0.3-3.2 1.8t-17 10.5-26.8 20.3q-12.7 11.2-25 27-12.2 15.7-20.4 31.4l-8.3 15.8-0.5 1-0.5 1-0.5 1-0.5 1-0.5 1-0.5 1-0.3-0.2-0.2-0.3-0.2-0.3-0.3-0.2-0.3-0.2-0.2-0.3-0.2-0.3-0.3-0.2-0.5-1.5-0.5-1.5-0.5-1q-0.5-1-1.5-3.5t-9.5-17.5-19.5-29-21-23-28-21l-18-12 1-3q1-3 11.5-18t25.2-30.8q14.8-15.7 29.8-28.2t25-19.5 12.5-6.5 19.5 13.5 28 22.7q11 9.8 25.2 27.3 14.3 17.5 20.8 28t6.5 12z"/>
   <path d="m448.5 488.5h-15.5l-0.2-0.3-0.3-0.2-0.3-0.2-0.2-0.3 0.2-0.3 0.3-0.2 0.5-1.5 0.5-1.5 0.5-1 0.5-1 8-13.5q8-13.5 12.3-19.5 4.2-6 8-9.5 3.7-3.5 20.4-20.3 16.8-16.7 35.3-30.2t32.5-21 31.5-13 30-7 29-0.8q16.5 0.8 13.7 7.8-2.7 7-12 21.2-9.2 14.3-20.7 27.3t-25.5 25.5-31 23.5-36 19-37.5 12-23.5 4.5-20.5 0.5z"/>
   <path d="m364 481l0.5 1 0.5 1 0.5 1 0.3 2 0.2 2-17-0.2q-17-0.3-25-1.3t-25.5-5.5-33.5-11.5-32.5-17.5-30.3-22.2q-13.7-11.8-27.7-28.3t-23.5-32.5l-9.5-16-0.5-1-0.5-1-0.3-2q-0.2-2 25.3-1.8 25.5 0.3 42.5 4.8t35 13.5 35.8 22.3q17.7 13.2 34.2 28.7t28.5 31 17 24 5.5 9.5z"/>
   <path d="m387 475l0.5 4 0.3 3 0.2 3-1.5-0.2-1.5-0.3-0.2-0.3-0.3-0.2-0.5-1-0.5-1-0.3-0.2-0.2-0.3-0.2-0.3-0.3-0.2-0.5-1-0.5-1-9.3-13.2q-9.2-13.3-23.2-29.3t-30.5-31.5-19.7-18.8q-3.3-3.2-9.3-17.2t-9.5-28.5-3.5-35.5 4-38.5 6.3-22.3q2.2-4.7 9.4-1 7.3 3.8 22 15.6 14.8 11.7 26 24 11.3 12.2 21.8 28.7t17.5 33 4 34-3 46.5 1 37.5 1.5 12.5z"/>
   <path d="m417 479l-0.5 1-0.3 0.2-0.2 0.3-0.2 0.3-0.3 0.2-0.5 1-0.5 1-0.5 1-0.5 1-0.3 0.2-0.2 0.3h-3l-0.2-0.3-0.3-0.2v-2l0.5-2.5 0.5-2.5 2-19.5q2-19.5 1.5-41t-3.5-40 4.5-34.5 16.8-30.2q9.2-14.3 13.2-20 4-5.8 7.8-9.3 3.7-3.5 11-10 7.2-6.5 7.2-7.5t17-12.8q17-11.7 19.5-13.2t4.3-1.2q1.7 0.2 6.2 14.2t6 24.5 1 28-3.5 31-10.5 30.5-27 34.5-36 36.5-23.5 29.5-7.5 11.5z"/>
  </g>
 </g>
</svg>
