<?xml version="1.0" encoding="UTF-8"?>
<!DOCTYPE svg  PUBLIC '-//W3C//DTD SVG 1.1//EN'  'http://www.w3.org/Graphics/SVG/1.1/DTD/svg11.dtd'>
<svg enable-background="new 0 0 56 32.9" version="1.1" viewBox="0 0 56 32.9" xml:space="preserve" xmlns="http://www.w3.org/2000/svg" xmlns:xlink="http://www.w3.org/1999/xlink">
<symbol id="bh" viewBox="0 -13.5 52.95 13.5">
			<radialGradient id="ak" cx="26.475" cy="-6.75" r="25.848" gradientTransform="matrix(1 0 0 -.2672 0 -8.5537)" gradientUnits="userSpaceOnUse">
			<stop stop-color="#231F20" offset="0"/>
			<stop stop-color="#231F20" stop-opacity="0" offset="1"/>
		</radialGradient>
		<path d="m52.95-6.75c0-1.867-2.583-3.467-7.75-4.8-5.167-1.3-11.4-1.95-18.7-1.95-7.333 0-13.583 0.65-18.75 1.95-5.167 1.333-7.75 2.933-7.75 4.8s2.583 3.45 7.75 4.75c5.2 1.333 11.45 2 18.75 2s13.533-0.667 18.7-2c5.167-1.3 7.75-2.883 7.75-4.75z" clip-rule="evenodd" fill="url(#ak)" fill-rule="evenodd"/>
</symbol>
<symbol id="br">
</symbol>
				<use transform="matrix(1 0 0 -1 1.7002 19.4)" y="-13.5" width="52.95" height="13.5" enable-background="new" opacity=".75" xlink:href="#bh"/>
				<radialGradient id="av" cx="29.325" cy="27.2" r="19.13" gradientTransform="matrix(1 0 0 -.546 0 42.051)" gradientUnits="userSpaceOnUse">
				<stop stop-opacity=".3686" offset="0"/>
				<stop stop-opacity="0" offset="1"/>
			</radialGradient>
			<path d="m29.3 23.25c3.867 0 7.15 0.384 9.851 1.15 2.733 0.767 4.1 1.699 4.1 2.8 0 1.066-1.366 2-4.1 2.8-2.733 0.767-6.017 1.15-9.851 1.15-3.8 0-7.066-0.384-9.8-1.15-2.733-0.8-4.1-1.733-4.1-2.8 0-1.101 1.367-2.033 4.1-2.8 2.7-0.766 5.967-1.15 9.8-1.15z" clip-rule="evenodd" fill="url(#av)" fill-rule="evenodd"/>
				<path d="m20.15 24.6c2.333-0.767 4.117-1.616 5.35-2.55v-0.5c0.733 0.033 1.867 0.017 3.4-0.05v-0.05h1.1v0.05c1.533 0.066 2.667 0.083 3.4 0.05v0.5c1.233 0.934 3.033 1.783 5.399 2.55 2.7 0.867 4.434 1.517 5.2 1.95-0.866 0.533-1.917 0.867-3.15 1-1.267 0.134-2.383 0-3.35-0.399 0.1 0.199 0.167 0.583 0.2 1.149 0.033 0.601 0.083 1 0.149 1.2-1.633 0.333-3.583 0.05-5.85-0.85 0.2 1.166 0.017 1.983-0.55 2.449-0.467 0.434-1.134 0.534-2 0.301-0.867 0.233-1.534 0.133-2-0.301-0.567-0.466-0.75-1.283-0.55-2.449-2.233 0.899-4.183 1.183-5.85 0.85 0.1-0.2 0.167-0.6 0.2-1.2 0.033-0.566 0.083-0.95 0.15-1.149-0.966 0.399-2.083 0.533-3.35 0.399-1.2-0.133-2.25-0.467-3.15-1 0.769-0.434 2.519-1.083 5.252-1.95z" clip-rule="evenodd" fill="#4C3F37" fill-rule="evenodd"/>
				<path d="m2.5 12.65l50.5-2c-0.4 2.1-1.767 4.184-4.1 6.25-4.667 4.167-11.801 6.25-21.4 6.25-8.333 0-15-1.75-20-5.25-1.566-1.1-2.867-2.3-3.9-3.6l-1.1-1.65z" clip-rule="evenodd" fill="#4C3F37" fill-rule="evenodd"/>
				<path d="m31.25 21.9c1.833-0.334 3.25-1.167 4.25-2.5-2 0-6.333-0.084-13-0.25-5.667-0.167-11.583-1.367-17.75-3.601-0.7-0.7-1.283-1.383-1.75-2.05l-0.5-0.85 42.35-1.7 8.05 0.151c-0.867 2.6-2.65 4.883-5.351 6.85-4.666 3.467-11.35 5.2-20.05 5.2-1.434 0-3.283-0.101-5.55-0.301 4.901-0.399 8.001-0.715 9.301-0.949z" clip-rule="evenodd" fill="#3A302B" fill-rule="evenodd"/>
				<path d="m27.5 23.15l4.25-0.7c3.066-0.5 5.116-0.934 6.15-1.3 1.666-0.601 3.283-1.65 4.85-3.15-1.2 0.167-2.934 0.283-5.2 0.35-4.5 0.2-9.35 0.167-14.55-0.1-4.533-0.2-8.833-0.816-12.9-1.85-2.434-0.6-4.567-1.283-6.4-2.05l-1.2-1.7 36.4-1.45 13.6 0.85c-1.2 2.667-3.267 4.917-6.2 6.75-4.633 2.9-10.9 4.35-18.8 4.35z" clip-rule="evenodd" fill="#302824" fill-rule="evenodd"/>
				<path d="m8.2 2.8c5.467-1.767 12.067-2.65 19.8-2.65s14.333 0.883 19.8 2.65c5.467 1.733 8.2 3.85 8.2 6.35 0 2.467-2.733 4.583-8.2 6.35s-12.067 2.65-19.8 2.65-14.333-0.883-19.8-2.65-8.2-3.883-8.2-6.35c0-2.5 2.733-4.617 8.2-6.35z" clip-rule="evenodd" fill="#5E4F44" fill-rule="evenodd"/>
				<path d="m28.5 2.75c6.5 0 12.05 0.633 16.65 1.9 4.567 1.267 6.85 2.8 6.85 4.6s-2.283 3.333-6.85 4.6c-4.601 1.267-10.15 1.9-16.65 1.9-6.467 0-12-0.633-16.6-1.9s-6.9-2.8-6.9-4.6 2.3-3.333 6.9-4.6 10.133-1.9 16.6-1.9z" clip-rule="evenodd" fill="#302824" fill-rule="evenodd"/>
				<path d="m28.25 4.75c6.134 0 11.384 0.533 15.75 1.6 4.333 1.066 6.5 2.35 6.5 3.85s-2.167 2.783-6.5 3.85c-4.366 1.067-9.616 1.6-15.75 1.6-6.133 0-11.383-0.533-15.75-1.6-4.333-1.067-6.5-2.35-6.5-3.85s2.167-2.784 6.5-3.85c4.367-1.067 9.617-1.6 15.75-1.6z" clip-rule="evenodd" fill="#3D322E" fill-rule="evenodd"/>
					<radialGradient id="ba" cx="27.575" cy="11.3" r="22.025" gradientTransform="matrix(1 0 0 -.1875 0 13.418)" gradientUnits="userSpaceOnUse">
					<stop stop-color="#A1DAFF" stop-opacity=".4863" offset="0"/>
					<stop stop-color="#96CDF1" stop-opacity=".498" offset=".1569"/>
					<stop stop-color="#78ABCB" stop-opacity=".5255" offset=".451"/>
					<stop stop-color="#537F9C" stop-opacity=".5569" offset=".7686"/>
					<stop stop-color="#406278" stop-opacity=".5882" offset="1"/>
				</radialGradient>
				<path d="m27.6 7.2c5.867 0 10.85 0.4 14.95 1.2 4.134 0.8 6.2 1.767 6.2 2.9 0 1.134-2.066 2.117-6.2 2.95-4.133 0.8-9.116 1.2-14.95 1.2-5.867 0-10.867-0.4-15-1.2-4.133-0.833-6.2-1.816-6.2-2.95 0-1.133 2.067-2.1 6.2-2.9s9.133-1.2 15-1.2z" clip-rule="evenodd" fill="url(#ba)" fill-rule="evenodd"/>
				<g clip-rule="evenodd" fill-rule="evenodd">
					<path d="m18.65 11.8c1.5 0 2.784 0.15 3.85 0.45 1.033 0.333 1.55 0.733 1.55 1.2 0 0.433-0.517 0.816-1.55 1.15-1.066 0.3-2.35 0.45-3.85 0.45-0.867 0-1.65-0.05-2.35-0.15l1.05-1.15-3.2 0.6c-0.633-0.267-0.95-0.567-0.95-0.9 0-0.467 0.533-0.867 1.6-1.2 1.067-0.3 2.35-0.45 3.85-0.45z" fill="#A6CE76"/>
						<radialGradient id="bb" cx="18.65" cy="13.45" r="5.425" gradientTransform="matrix(1 0 0 -.3203 0 17.758)" gradientUnits="userSpaceOnUse">
						<stop stop-color="#B2D486" stop-opacity="0" offset="0"/>
						<stop stop-color="#A3C57C" stop-opacity=".2235" offset=".298"/>
						<stop stop-color="#7C9E63" stop-opacity=".8078" offset=".8745"/>
						<stop stop-color="#72945D" stop-opacity=".949" offset="1"/>
					</radialGradient>
					<path d="m18.65 11.8c1.5 0 2.784 0.15 3.85 0.45 1.033 0.333 1.55 0.733 1.55 1.2 0 0.433-0.517 0.816-1.55 1.15-1.066 0.3-2.35 0.45-3.85 0.45-0.867 0-1.65-0.05-2.35-0.15l1.05-1.15-3.2 0.6c-0.633-0.267-0.95-0.567-0.95-0.9 0-0.467 0.533-0.867 1.6-1.2 1.067-0.3 2.35-0.45 3.85-0.45z" fill="url(#bb)"/>
					<path d="m17.3 12.95c0.833-0.133 1.434-0.133 1.8 0-0.667 0.167-1.6 0.316-2.8 0.45-1.293 0.154-2.218 0.279-2.775 0.375l-0.075-0.025c0.167-0.133 0.483-0.217 0.95-0.25 0.233-0.033 0.583-0.083 1.05-0.15 0.333-0.033 0.95-0.166 1.85-0.4z" fill="#6C8C57"/>
					<path d="m23.5 13.65h-0.1l0.25 0.1c-0.233 0.167-0.867 0.167-1.9 0-0.833-0.167-1.483-0.333-1.95-0.5 0.134-0.3 0.717-0.35 1.75-0.15 0.867 0.167 1.516 0.35 1.95 0.55z" fill="#6C8C57"/>
					<path d="m18.8 13.6c0.035-1e-3 0.084-0.035 0.15-0.1 0.033 0.267-0.067 0.55-0.3 0.85s-0.483 0.5-0.75 0.6c0.233-0.633 0.567-1.083 1-1.35h-0.1z" fill="#6C8C57"/>
					<path d="m20.05 12.35l0.7-0.2c0.178-0.051 0.395-0.051 0.65 0-0.066 0.167-0.267 0.284-0.6 0.35-0.333 0.033-0.583-0.017-0.75-0.15z" fill="#6C8C57"/>
					<path d="m17.8 12.05c0.41 0.017 0.727 0.066 0.95 0.15-0.4 0.133-0.934 0.2-1.6 0.2-0.733-0.033-1.25-0.15-1.55-0.35 0.933-0.233 1.667-0.233 2.2 0l-1.45-0.1c0.233 0.066 0.633 0.1 1.2 0.1h0.25z" fill="#6C8C57"/>
				</g>
				<g clip-rule="evenodd" fill-rule="evenodd">
					<path d="m35.35 13.9c-2.733 0-5.05-0.233-6.949-0.7-1.934-0.5-2.9-1.083-2.9-1.75s0.967-1.25 2.9-1.75c1.899-0.467 4.215-0.7 6.949-0.7s5.067 0.233 7 0.7c1.934 0.5 2.9 1.083 2.9 1.75l-0.1 0.35-8.65-0.25 4.45 1.9c-1.867 0.3-3.733 0.45-5.6 0.45z" fill="#A6CE76"/>
						<radialGradient id="bc" cx="35.35" cy="11.5" r="9.25" gradientTransform="matrix(1 0 0 -.277 0 14.686)" gradientUnits="userSpaceOnUse">
						<stop stop-color="#B2D486" stop-opacity="0" offset="0"/>
						<stop stop-color="#A3C57C" stop-opacity=".2235" offset=".298"/>
						<stop stop-color="#7C9E63" stop-opacity=".8078" offset=".8745"/>
						<stop stop-color="#72945D" stop-opacity=".949" offset="1"/>
					</radialGradient>
					<path d="m35.35 13.9c-2.699 0-5.017-0.233-6.949-0.7-1.934-0.467-2.9-1.034-2.9-1.7s0.967-1.25 2.9-1.75c1.899-0.467 4.216-0.7 6.949-0.7s5.067 0.233 7 0.7c1.934 0.5 2.9 1.083 2.9 1.75l-0.1 0.3-8.65-0.2 4.45 1.9c-1.667 0.267-3.533 0.4-5.6 0.4z" fill="url(#bc)"/>
					<path d="m35.55 11.3l-0.1 0.2h0.3c-0.1 0.567-0.816 1.184-2.15 1.85 0.167-0.167 0.45-0.583 0.851-1.25 0.399-0.567 0.766-0.833 1.099-0.8z" fill="#6C8C57"/>
					<path d="m33.7 10.9c0.196-0.035 0.446-0.068 0.75-0.1-0.767 0.434-1.884 0.784-3.351 1.05-1.333 0.233-2.5 0.333-3.5 0.3 0.2-0.367 0.784-0.633 1.75-0.8 0.5-0.067 1.167-0.133 2-0.2 1.335-0.167 2.118-0.25 2.351-0.25z" fill="#6C8C57"/>
					<path d="m40.55 9.75l0.55 0.1h0.4c-0.934 0.3-1.934 0.533-3 0.7-1.366 0.2-2.384 0.184-3.05-0.05 0.767-0.5 2.467-0.75 5.1-0.75z" fill="#6C8C57"/>
					<path d="m34.825 10.225c0.257 0.028 0.465 0.086 0.625 0.175-0.434 0.167-1.417 0.167-2.95 0-1.833-0.066-3.033-0.183-3.6-0.35 1.352-0.396 3.328-0.337 5.925 0.175z" fill="#6C8C57"/>
				</g>
				<g clip-rule="evenodd" fill-rule="evenodd">
					<path d="m23.75 10.2c0 0.466-0.65 0.85-1.95 1.15-1.3 0.333-2.866 0.5-4.7 0.5s-3.4-0.167-4.7-0.5c-1.3-0.3-1.95-0.684-1.95-1.15 0-0.434 0.65-0.817 1.95-1.15 1.3-0.3 2.867-0.45 4.7-0.45 1.867 0 3.433 0.15 4.7 0.45 1.3 0.333 1.95 0.717 1.95 1.15z" fill="#A6CE76"/>
						<radialGradient id="bd" cx="17.1" cy="10.2" r="6.4875" gradientTransform="matrix(1 0 0 -.3025 0 13.286)" gradientUnits="userSpaceOnUse">
						<stop stop-color="#B2D486" stop-opacity="0" offset="0"/>
						<stop stop-color="#A3C57C" stop-opacity=".2235" offset=".298"/>
						<stop stop-color="#7C9E63" stop-opacity=".8078" offset=".8745"/>
						<stop stop-color="#72945D" stop-opacity=".949" offset="1"/>
					</radialGradient>
					<path d="m23.75 10.2c0 0.466-0.65 0.85-1.95 1.15-1.3 0.333-2.866 0.5-4.7 0.5s-3.4-0.167-4.7-0.5c-1.3-0.3-1.95-0.684-1.95-1.15 0-0.434 0.65-0.817 1.95-1.15 1.3-0.3 2.867-0.45 4.7-0.45 1.867 0 3.433 0.15 4.7 0.45 1.3 0.333 1.95 0.717 1.95 1.15z" fill="url(#bd)"/>
					<path d="m15.125 10c0.403-0.037 0.695-0.037 0.875 0 0.539 0.012 0.873 0.029 1 0.05-1.833 0.5-3.483 0.684-4.95 0.55 0.434-0.2 1.184-0.367 2.25-0.5 0.266-0.039 0.508-0.072 0.725-0.1h0.1z" fill="#6C8C57"/>
					<path d="m22.2 10.55l-0.9 0.05c-1.9 0-3.133-0.05-3.7-0.15 0.633-0.2 2.167-0.167 4.6 0.1z" fill="#6C8C57"/>
					<path d="m20.25 8.95l0.1 0.1c0.033 0.034 0.066 0.05 0.1 0.05 0.033 0 0.033 0.033 0 0.1-1.4 0.367-2.384 0.417-2.95 0.15 1.5-0.233 2.417-0.367 2.75-0.4z" fill="#6C8C57"/>
					<path d="m15.6 11c0.02 0.172-0.213 0.289-0.7 0.35-0.466 0.066-0.85 0.066-1.15 0 0.367-0.1 0.8-0.2 1.3-0.3 0.23-0.029 0.414-0.046 0.55-0.05z" fill="#6C8C57"/>
					<path d="m16.2 9.25l0.55 0.15c-1.566 0.1-2.65-0.017-3.25-0.35 0.214-0.03 1.114 0.036 2.7 0.2z" fill="#6C8C57"/>
				</g>
					<g clip-rule="evenodd" fill-rule="evenodd">
						<path d="m29.8 9.35c0.6-0.267 1.1-0.35 1.5-0.25 0.267 0.066 0.8 0.217 1.601 0.45 0.666 0.134 1.199 0.667 1.6 1.6 0.167 0.434 0.283 0.867 0.35 1.3-2.066 0.4-3.583 0.333-4.55-0.2-0.666-0.4-1.033-0.95-1.1-1.65-0.034-0.666 0.165-1.083 0.599-1.25z" fill="#F9F8EA"/>
							<linearGradient id="be" x1="29.761" x2="43.444" y1="-14.424" y2="-14.424" gradientTransform="matrix(.7144 .6998 -.6998 .7144 -.00018078 7.7248e-5)" gradientUnits="userSpaceOnUse">
							<stop stop-color="#A6A081" offset=".0078"/>
							<stop stop-color="#B5B096" stop-opacity=".8353" offset=".1412"/>
							<stop stop-color="#DDDACE" stop-opacity=".3843" offset=".5412"/>
							<stop stop-color="#F6F5F2" stop-opacity=".1059" offset=".8392"/>
							<stop stop-color="#fff" stop-opacity="0" offset="1"/>
						</linearGradient>
						<path d="m29.8 9.35c0.6-0.267 1.1-0.35 1.5-0.25 0.267 0.066 0.8 0.217 1.601 0.45 0.666 0.134 1.199 0.667 1.6 1.6 0.167 0.434 0.283 0.867 0.35 1.3-2.066 0.4-3.583 0.333-4.55-0.2-0.666-0.4-1.033-0.95-1.1-1.65-0.034-0.666 0.165-1.083 0.599-1.25z" fill="url(#be)"/>
						<path d="m26.1 9.55c0.433 0.167 0.617 0.583 0.55 1.25-0.066 0.733-0.433 1.284-1.1 1.65-0.6 0.333-1.533 0.483-2.8 0.45l-1.75-0.2c0.066-0.434 0.2-0.867 0.4-1.3 0.367-0.933 0.883-1.466 1.55-1.6 0.533-0.1 1.066-0.25 1.6-0.45 0.433-0.1 0.95-0.033 1.55 0.2z" fill="#F9F8EA"/>
							<linearGradient id="bf" x1="-13.901" x2="5.8045" y1="-23.264" y2="-23.264" gradientTransform="matrix(-.8056 .5925 -.5925 -.8056 .0006755 .00023711)" gradientUnits="userSpaceOnUse">
							<stop stop-color="#A6A081" offset=".0078"/>
							<stop stop-color="#B5B096" stop-opacity=".8353" offset=".1412"/>
							<stop stop-color="#DDDACE" stop-opacity=".3843" offset=".5412"/>
							<stop stop-color="#F6F5F2" stop-opacity=".1059" offset=".8392"/>
							<stop stop-color="#fff" stop-opacity="0" offset="1"/>
						</linearGradient>
						<path d="m26.1 9.55c0.433 0.167 0.617 0.583 0.55 1.25-0.066 0.733-0.433 1.284-1.1 1.65-0.6 0.333-1.533 0.483-2.8 0.45l-1.75-0.2c0.066-0.434 0.2-0.867 0.4-1.3 0.367-0.933 0.883-1.466 1.55-1.6 0.533-0.1 1.066-0.25 1.6-0.45 0.433-0.1 0.95-0.033 1.55 0.2z" fill="url(#bf)"/>
						<path d="m22.05 8.15c0.4 0.233 0.5 0.667 0.3 1.3-0.233 0.7-0.717 1.183-1.45 1.45-0.667 0.233-1.617 0.2-2.85-0.1l-1.7-0.5 0.7-1.2c0.567-0.833 1.2-1.267 1.9-1.3 0.533 0 1.1-0.05 1.7-0.15 0.4-0.033 0.867 0.133 1.4 0.5z" fill="#F9F8EA"/>
							<linearGradient id="bg" x1="-20.059" x2=".5188" y1="-11.322" y2="-11.322" gradientTransform="matrix(-.995 .0996 -.0996 -.995 .00078485 .00028285)" gradientUnits="userSpaceOnUse">
							<stop stop-color="#A6A081" offset=".0078"/>
							<stop stop-color="#B5B096" stop-opacity=".8353" offset=".1412"/>
							<stop stop-color="#DDDACE" stop-opacity=".3843" offset=".5412"/>
							<stop stop-color="#F6F5F2" stop-opacity=".1059" offset=".8392"/>
							<stop stop-color="#fff" stop-opacity="0" offset="1"/>
						</linearGradient>
						<path d="m22.05 8.15c0.4 0.233 0.5 0.667 0.3 1.3-0.233 0.7-0.717 1.183-1.45 1.45-0.667 0.233-1.617 0.2-2.85-0.1l-1.7-0.5 0.7-1.2c0.567-0.833 1.2-1.267 1.9-1.3 0.533 0 1.1-0.05 1.7-0.15 0.4-0.033 0.867 0.133 1.4 0.5z" fill="url(#bg)"/>
						<path d="m33.2 7.2c0.533-0.333 1-0.5 1.399-0.5 0.301 0.033 0.867 0.1 1.7 0.2 1.066 0.034 1.917 0.867 2.55 2.5-1.933 0.733-3.433 0.917-4.5 0.55-0.733-0.267-1.216-0.733-1.449-1.4-0.2-0.633-0.1-1.083 0.3-1.35z" fill="#F9F8EA"/>
							<linearGradient id="bi" x1="33.228" x2="54.208" y1="-11.256" y2="-11.256" gradientTransform="matrix(.8544 .5196 -.5196 .8544 -1.8597e-5 -.00046188)" gradientUnits="userSpaceOnUse">
							<stop stop-color="#A6A081" offset=".0078"/>
							<stop stop-color="#B5B096" stop-opacity=".8353" offset=".1412"/>
							<stop stop-color="#DDDACE" stop-opacity=".3843" offset=".5412"/>
							<stop stop-color="#F6F5F2" stop-opacity=".1059" offset=".8392"/>
							<stop stop-color="#fff" stop-opacity="0" offset="1"/>
						</linearGradient>
						<path d="m33.2 7.2c0.533-0.333 1-0.5 1.399-0.5 0.301 0.033 0.867 0.1 1.7 0.2 1.066 0.034 1.917 0.867 2.55 2.5-1.933 0.733-3.433 0.917-4.5 0.55-0.733-0.267-1.216-0.733-1.449-1.4-0.2-0.633-0.1-1.083 0.3-1.35z" fill="url(#bi)"/>
					</g>
						<path d="m26.55 7.05h-0.7c0.767 0.333 1.15 0.717 1.15 1.15-0.033 0.433-0.417 0.767-1.15 1-0.5 0.167-1.1 0.167-1.8 0-0.233-0.067-0.8-0.267-1.7-0.6-1.034-0.333-2.2-0.883-3.5-1.65-1.2-0.7-1.8-1.133-1.8-1.3 0-0.433 1.25-0.5 3.75-0.2 2.6 0.3 4.516 0.833 5.75 1.6z" clip-rule="evenodd" fill="#F9F8EA" fill-rule="evenodd"/>
							<linearGradient id="bj" x1="-26.996" x2="-17.651" y1=".5186" y2=".5186" gradientTransform="matrix(-.9471 -.321 .321 -.9471 -.00036937 .00083947)" gradientUnits="userSpaceOnUse">
							<stop stop-color="#C4BD99" offset="0"/>
							<stop stop-color="#E3E0CE" stop-opacity=".4745" offset=".4549"/>
							<stop stop-color="#F7F6F2" stop-opacity=".1294" offset=".8078"/>
							<stop stop-color="#fff" stop-opacity="0" offset="1"/>
						</linearGradient>
						<path d="m26.55 7.05h-0.7c0.767 0.333 1.15 0.717 1.15 1.15-0.033 0.433-0.417 0.767-1.15 1-0.5 0.167-1.1 0.167-1.8 0-0.233-0.067-0.8-0.267-1.7-0.6-1.034-0.333-2.2-0.883-3.5-1.65-1.2-0.7-1.8-1.133-1.8-1.3 0-0.433 1.25-0.5 3.75-0.2 2.6 0.3 4.516 0.833 5.75 1.6z" clip-rule="evenodd" fill="url(#bj)" fill-rule="evenodd"/>
						<path d="m27.3 7.25c1.134-0.7 2.8-1.15 5-1.35 0.8-0.1 2.65-0.167 5.55-0.2-0.8 0.267-1.866 0.783-3.199 1.55-1.4 0.8-2.45 1.333-3.15 1.6s-1.268 0.45-1.701 0.55c-0.733 0.2-1.35 0.217-1.85 0.05-0.7-0.233-1.067-0.567-1.1-1 0-0.467 0.367-0.867 1.1-1.2h-0.65z" clip-rule="evenodd" fill="#F9F8EA" fill-rule="evenodd"/>
						<linearGradient id="bk" x1="26.85" x2="37.85" y1="7.6318" y2="7.6318" gradientUnits="userSpaceOnUse">
							<stop stop-color="#C4BD99" offset="0"/>
							<stop stop-color="#E3E0CE" stop-opacity=".4745" offset=".4549"/>
							<stop stop-color="#F7F6F2" stop-opacity=".1294" offset=".8078"/>
							<stop stop-color="#fff" stop-opacity="0" offset="1"/>
						</linearGradient>
						<path d="m27.3 7.25c1.134-0.7 2.8-1.15 5-1.35 0.8-0.1 2.65-0.167 5.55-0.2-0.8 0.267-1.866 0.783-3.199 1.55-1.4 0.8-2.45 1.333-3.15 1.6s-1.268 0.45-1.701 0.55c-0.733 0.2-1.35 0.217-1.85 0.05-0.7-0.233-1.067-0.567-1.1-1 0-0.467 0.367-0.867 1.1-1.2h-0.65z" clip-rule="evenodd" fill="url(#bk)" fill-rule="evenodd"/>
						<path d="m28.65 7.7l-0.45 0.2c0.2 1.333-1.067 2.3-3.8 2.9-3.1 0.434-4.983 0.7-5.65 0.8 1.233-1.567 2.667-2.733 4.3-3.5 1.933-0.867 3.8-1 5.6-0.4z" clip-rule="evenodd" fill="#F9F8EA" fill-rule="evenodd"/>
							<linearGradient id="bl" x1="-20.186" x2="-.6491" y1="-18.81" y2="-18.81" gradientTransform="matrix(-.9047 .4261 -.4261 -.9047 .00092006 .00026733)" gradientUnits="userSpaceOnUse">
							<stop stop-color="#C4BD99" offset="0"/>
							<stop stop-color="#E3E0CE" stop-opacity=".4745" offset=".4549"/>
							<stop stop-color="#F7F6F2" stop-opacity=".1294" offset=".8078"/>
							<stop stop-color="#fff" stop-opacity="0" offset="1"/>
						</linearGradient>
						<path d="m28.65 7.7l-0.45 0.2c0.2 1.333-1.067 2.3-3.8 2.9-3.1 0.434-4.983 0.7-5.65 0.8 1.233-1.567 2.667-2.733 4.3-3.5 1.933-0.867 3.8-1 5.6-0.4z" clip-rule="evenodd" fill="url(#bl)" fill-rule="evenodd"/>
						<path d="m26.15 8.5l0.5 0.05c0.6-1.2 2.216-1.383 4.85-0.55 1.434 0.467 3.184 1.184 5.25 2.15-1.9 0.7-3.767 0.967-5.6 0.8-2.133-0.233-3.8-1.05-5-2.45z" clip-rule="evenodd" fill="#F9F8EA" fill-rule="evenodd"/>
							<linearGradient id="bm" x1="30.343" x2="47.443" y1="-.9395" y2="-.9395" gradientTransform="matrix(.9474 .3202 -.3202 .9474 .00012001 -.00011534)" gradientUnits="userSpaceOnUse">
							<stop stop-color="#C4BD99" offset="0"/>
							<stop stop-color="#E3E0CE" stop-opacity=".4745" offset=".4549"/>
							<stop stop-color="#F7F6F2" stop-opacity=".1294" offset=".8078"/>
							<stop stop-color="#fff" stop-opacity="0" offset="1"/>
						</linearGradient>
						<path d="m26.15 8.5l0.5 0.05c0.6-1.2 2.216-1.383 4.85-0.55 1.434 0.467 3.184 1.184 5.25 2.15-1.9 0.7-3.767 0.967-5.6 0.8-2.133-0.233-3.8-1.05-5-2.45z" clip-rule="evenodd" fill="url(#bm)" fill-rule="evenodd"/>
						<path d="m26.8 12.75c-1.4-0.4-1.9-1.217-1.5-2.45 0.4-1.267 1.284-1.7 2.65-1.3 1.233 0.367 1.833 1.1 1.8 2.2-0.033 1.033-0.5 1.767-1.4 2.2l-1.55-0.65z" clip-rule="evenodd" fill="#F9F8EA" fill-rule="evenodd"/>
							<linearGradient id="bn" x1="8.8599" x2="17.585" y1="-27.457" y2="-27.457" gradientTransform="matrix(.00011461 1 -1 -.001 .00015718 -.00019665)" gradientUnits="userSpaceOnUse">
							<stop stop-color="#C4BD99" offset="0"/>
							<stop stop-color="#E3E0CE" stop-opacity=".4745" offset=".4549"/>
							<stop stop-color="#F7F6F2" stop-opacity=".1294" offset=".8078"/>
							<stop stop-color="#fff" stop-opacity="0" offset="1"/>
						</linearGradient>
						<path d="m26.8 12.75c-1.4-0.4-1.9-1.217-1.5-2.45 0.4-1.267 1.284-1.7 2.65-1.3 1.233 0.367 1.833 1.1 1.8 2.2-0.033 1.033-0.5 1.767-1.4 2.2l-1.55-0.65z" clip-rule="evenodd" fill="url(#bn)" fill-rule="evenodd"/>
						<path d="m27.95 7.9h-0.45c0.434 1.667-3.434 2.083-11.6 1.25 1.3-0.867 3.317-1.55 6.05-2.05 3.167-0.533 5.167-0.267 6 0.8z" clip-rule="evenodd" fill="#F9F8EA" fill-rule="evenodd"/>
							<linearGradient id="bo" x1="-27.075" x2="-7.1252" y1="-8.2002" y2="-8.2002" gradientTransform="scale(-1)" gradientUnits="userSpaceOnUse">
							<stop stop-color="#C4BD99" offset="0"/>
							<stop stop-color="#E3E0CE" stop-opacity=".4745" offset=".4549"/>
							<stop stop-color="#F7F6F2" stop-opacity=".1294" offset=".8078"/>
							<stop stop-color="#fff" stop-opacity="0" offset="1"/>
						</linearGradient>
						<path d="m27.95 7.9h-0.45c0.434 1.667-3.434 2.083-11.6 1.25 1.3-0.867 3.317-1.55 6.05-2.05 3.167-0.533 5.167-0.267 6 0.8z" clip-rule="evenodd" fill="url(#bo)" fill-rule="evenodd"/>
						<path d="m34.05 9.1c-2.434 0.233-4.3 0.117-5.6-0.35-0.167-1.3 1.35-1.917 4.55-1.85 2.934 0.034 4.884 0.367 5.85 1l0.45-0.2c-1.1 0.7-2.85 1.167-5.25 1.4z" clip-rule="evenodd" fill="#F9F8EA" fill-rule="evenodd"/>
						<linearGradient id="bp" x1="28.425" x2="54.575" y1="8.0557" y2="8.0557" gradientUnits="userSpaceOnUse">
							<stop stop-color="#C4BD99" offset="0"/>
							<stop stop-color="#E3E0CE" stop-opacity=".4745" offset=".4549"/>
							<stop stop-color="#F7F6F2" stop-opacity=".1294" offset=".8078"/>
							<stop stop-color="#fff" stop-opacity="0" offset="1"/>
						</linearGradient>
						<path d="m34.05 9.1c-2.434 0.233-4.3 0.117-5.6-0.35-0.167-1.3 1.35-1.917 4.55-1.85 2.934 0.034 4.884 0.367 5.85 1l0.45-0.2c-1.1 0.7-2.85 1.167-5.25 1.4z" clip-rule="evenodd" fill="url(#bp)" fill-rule="evenodd"/>
						<path d="m28.3 7.5c-0.7-0.222-2.017-0.589-3.95-1.1-2.067-0.566-3.017-1.517-2.85-2.85 1.733 0.067 3.367 0.467 4.9 1.2 1.625 0.799 2.259 1.716 1.9 2.75 0.355 0.1 0.556 0.167 0.601 0.2l-0.95 0.45c0.16-0.226 0.278-0.442 0.349-0.65z" clip-rule="evenodd" fill="#F9F8EA" fill-rule="evenodd"/>
							<linearGradient id="bq" x1="-26.602" x2="-19.026" y1="10.128" y2="10.128" gradientTransform="matrix(-.8117 -.584 .584 -.8117 .00015408 .00064898)" gradientUnits="userSpaceOnUse">
							<stop stop-color="#C4BD99" offset="0"/>
							<stop stop-color="#E3E0CE" stop-opacity=".4745" offset=".4549"/>
							<stop stop-color="#F7F6F2" stop-opacity=".1294" offset=".8078"/>
							<stop stop-color="#fff" stop-opacity="0" offset="1"/>
						</linearGradient>
						<path d="m28.3 7.5c-0.7-0.222-2.017-0.589-3.95-1.1-2.067-0.566-3.017-1.517-2.85-2.85 1.733 0.067 3.367 0.467 4.9 1.2 1.625 0.799 2.259 1.716 1.9 2.75 0.355 0.1 0.556 0.167 0.601 0.2l-0.95 0.45c0.16-0.226 0.278-0.442 0.349-0.65z" clip-rule="evenodd" fill="url(#bq)" fill-rule="evenodd"/>
						<path d="m35.35 3.65c-6.133 5-9.066 6.4-8.8 4.2 0.2-1.667 1.767-2.917 4.7-3.75 3.233-0.933 4.6-1.083 4.1-0.45z" clip-rule="evenodd" fill="#F9F8EA" fill-rule="evenodd"/>
							<linearGradient id="aj" x1="18.58" x2="27.871" y1="21.498" y2="21.498" gradientTransform="matrix(.8341 -.5516 .5516 .8341 .00016397 -2.1636e-5)" gradientUnits="userSpaceOnUse">
							<stop stop-color="#C4BD99" offset="0"/>
							<stop stop-color="#E3E0CE" stop-opacity=".4745" offset=".4549"/>
							<stop stop-color="#F7F6F2" stop-opacity=".1294" offset=".8078"/>
							<stop stop-color="#fff" stop-opacity="0" offset="1"/>
						</linearGradient>
						<path d="m35.35 3.65c-6.133 5-9.066 6.4-8.8 4.2 0.2-1.667 1.767-2.917 4.7-3.75 3.233-0.933 4.6-1.083 4.1-0.45z" clip-rule="evenodd" fill="url(#aj)" fill-rule="evenodd"/>
								<path d="m27.85 2.85l0.7-0.2c0.134 0.534 0.45 1.583 0.95 3.15 0.066 1.3-0.816 1.85-2.65 1.65-1.133-0.1-1.467-0.867-1-2.3 0.466-1.433 1.133-2.2 2-2.3z" clip-rule="evenodd" fill="#F9F8EA" fill-rule="evenodd"/>
								<linearGradient id="al" x1="-8.2402" x2="-1.7152" y1="27.566" y2="27.566" gradientTransform="matrix(.00015326 -1 1 -.001 .00020717 -.0001976)" gradientUnits="userSpaceOnUse">
								<stop stop-color="#C4BD99" offset="0"/>
								<stop stop-color="#E3E0CE" stop-opacity=".4745" offset=".4549"/>
								<stop stop-color="#F7F6F2" stop-opacity=".1294" offset=".8078"/>
								<stop stop-color="#fff" stop-opacity="0" offset="1"/>
							</linearGradient>
							<path d="m27.85 2.85l0.7-0.2c0.134 0.534 0.45 1.6 0.95 3.2 0.167 1.367-0.533 2.05-2.1 2.05-1.466 0-2.033-0.8-1.7-2.4s1.05-2.483 2.15-2.65z" clip-rule="evenodd" fill="url(#al)" fill-rule="evenodd"/>
						<path d="m29.25 8.1c0 0.267-0.167 0.483-0.5 0.65-0.366 0.167-0.8 0.25-1.3 0.25s-0.917-0.083-1.25-0.25c-0.367-0.167-0.55-0.383-0.55-0.65 0-0.233 0.184-0.45 0.55-0.65 0.333-0.167 0.75-0.25 1.25-0.25s0.934 0.083 1.3 0.25c0.333 0.2 0.5 0.417 0.5 0.65z" clip-rule="evenodd" fill="#F9F8EA" fill-rule="evenodd"/>
						<linearGradient id="am" x1="25.112" x2="46.187" y1="8.1001" y2="8.1001" gradientUnits="userSpaceOnUse">
							<stop stop-color="#C4BD99" offset="0"/>
							<stop stop-color="#E3E0CE" stop-opacity=".4745" offset=".4549"/>
							<stop stop-color="#F7F6F2" stop-opacity=".1294" offset=".8078"/>
							<stop stop-color="#fff" stop-opacity="0" offset="1"/>
						</linearGradient>
						<path d="m29.25 8.1c0 0.267-0.167 0.483-0.5 0.65-0.366 0.167-0.8 0.25-1.3 0.25s-0.917-0.083-1.25-0.25c-0.367-0.167-0.55-0.383-0.55-0.65 0-0.233 0.184-0.45 0.55-0.65 0.333-0.167 0.75-0.25 1.25-0.25s0.934 0.083 1.3 0.25c0.333 0.2 0.5 0.417 0.5 0.65z" clip-rule="evenodd" fill="url(#am)" fill-rule="evenodd"/>
						<path d="m26.75 6.3l-0.55 0.05c0.6 0.233 0.9 0.533 0.9 0.9 0 0.333-0.284 0.583-0.85 0.75-0.4 0.167-0.883 0.184-1.45 0.05-0.133-0.033-0.583-0.183-1.35-0.45-0.833-0.267-1.767-0.667-2.8-1.2-0.966-0.533-1.466-0.867-1.5-1 0-0.3 1-0.367 3-0.2 2.067 0.167 3.6 0.533 4.6 1.1z" clip-rule="evenodd" fill="#F9F8EA" fill-rule="evenodd"/>
							<linearGradient id="an" x1="-27.124" x2="-19.691" y1=".8384" y2=".8384" gradientTransform="matrix(-.9552 -.296 .296 -.9552 -.00023493 -.00096375)" gradientUnits="userSpaceOnUse">
							<stop stop-color="#C4BD99" offset="0"/>
							<stop stop-color="#E3E0CE" stop-opacity=".4745" offset=".4549"/>
							<stop stop-color="#F7F6F2" stop-opacity=".1294" offset=".8078"/>
							<stop stop-color="#fff" stop-opacity="0" offset="1"/>
						</linearGradient>
						<path d="m26.75 6.3l-0.55 0.05c0.6 0.233 0.9 0.533 0.9 0.9 0 0.333-0.284 0.583-0.85 0.75-0.4 0.167-0.883 0.184-1.45 0.05-0.133-0.033-0.583-0.183-1.35-0.45-0.833-0.267-1.767-0.667-2.8-1.2-0.966-0.533-1.466-0.867-1.5-1 0-0.3 1-0.367 3-0.2 2.067 0.167 3.6 0.533 4.6 1.1z" clip-rule="evenodd" fill="url(#an)" fill-rule="evenodd"/>
						<path d="m27.35 6.5c0.9-0.566 2.216-0.95 3.95-1.15 0.6-0.067 2.084-0.15 4.45-0.25-0.667 0.2-1.517 0.617-2.55 1.25-1.101 0.667-1.934 1.1-2.5 1.3-0.8 0.3-1.233 0.45-1.3 0.45-0.567 0.167-1.051 0.183-1.45 0.05-0.6-0.167-0.9-0.417-0.9-0.75-0.033-0.333 0.25-0.65 0.85-0.95l-0.55 0.05z" clip-rule="evenodd" fill="#F9F8EA" fill-rule="evenodd"/>
							<linearGradient id="ao" x1="26.863" x2="35.615" y1="7.4028" y2="7.4028" gradientTransform="matrix(.9997 -.0229 .0229 .9997 .00026383 .00015291)" gradientUnits="userSpaceOnUse">
							<stop stop-color="#C4BD99" offset="0"/>
							<stop stop-color="#E3E0CE" stop-opacity=".4745" offset=".4549"/>
							<stop stop-color="#F7F6F2" stop-opacity=".1294" offset=".8078"/>
							<stop stop-color="#fff" stop-opacity="0" offset="1"/>
						</linearGradient>
						<path d="m27.35 6.5c0.9-0.566 2.216-0.95 3.95-1.15 0.6-0.067 2.084-0.15 4.45-0.25-0.667 0.2-1.517 0.617-2.55 1.25-1.101 0.667-1.934 1.1-2.5 1.3-0.8 0.3-1.233 0.45-1.3 0.45-0.567 0.167-1.051 0.183-1.45 0.05-0.6-0.167-0.9-0.417-0.9-0.75-0.033-0.333 0.25-0.65 0.85-0.95l-0.55 0.05z" clip-rule="evenodd" fill="url(#ao)" fill-rule="evenodd"/>
						<path d="m28.45 6.8l-0.4 0.15c0.2 1.033-0.783 1.816-2.95 2.35-2.434 0.367-3.917 0.583-4.45 0.65 0.934-1.2 2.05-2.1 3.35-2.7 1.5-0.733 2.983-0.883 4.45-0.45z" clip-rule="evenodd" fill="#F9F8EA" fill-rule="evenodd"/>
							<linearGradient id="ap" x1="-21.938" x2="-13.743" y1="-18.525" y2="-18.525" gradientTransform="matrix(-.8938 .4484 -.4484 -.8938 -.00065494 -.00017977)" gradientUnits="userSpaceOnUse">
							<stop stop-color="#C4BD99" offset="0"/>
							<stop stop-color="#E3E0CE" stop-opacity=".4745" offset=".4549"/>
							<stop stop-color="#F7F6F2" stop-opacity=".1294" offset=".8078"/>
							<stop stop-color="#fff" stop-opacity="0" offset="1"/>
						</linearGradient>
						<path d="m28.45 6.8l-0.4 0.15c0.2 1.033-0.783 1.816-2.95 2.35-2.434 0.367-3.917 0.583-4.45 0.65 0.934-1.2 2.05-2.1 3.35-2.7 1.5-0.733 2.983-0.883 4.45-0.45z" clip-rule="evenodd" fill="url(#ap)" fill-rule="evenodd"/>
						<path d="m26.45 7.45l0.45 0.05c0.434-0.967 1.7-1.15 3.8-0.55 1.133 0.333 2.533 0.867 4.2 1.6-1.467 0.6-2.934 0.833-4.4 0.7-1.7-0.133-3.05-0.733-4.05-1.8z" clip-rule="evenodd" fill="#F9F8EA" fill-rule="evenodd"/>
							<linearGradient id="aq" x1="28.394" x2="35.645" y1="-1.2417" y2="-1.2417" gradientTransform="matrix(.955 .2965 -.2965 .955 -2.4199e-5 -.00013489)" gradientUnits="userSpaceOnUse">
							<stop stop-color="#C4BD99" offset="0"/>
							<stop stop-color="#E3E0CE" stop-opacity=".4745" offset=".4549"/>
							<stop stop-color="#F7F6F2" stop-opacity=".1294" offset=".8078"/>
							<stop stop-color="#fff" stop-opacity="0" offset="1"/>
						</linearGradient>
						<path d="m26.45 7.45l0.45 0.05c0.434-0.967 1.7-1.15 3.8-0.55 1.133 0.333 2.533 0.867 4.2 1.6-1.467 0.6-2.934 0.833-4.4 0.7-1.7-0.133-3.05-0.733-4.05-1.8z" clip-rule="evenodd" fill="url(#aq)" fill-rule="evenodd"/>
						<path d="m27.05 10.7c-1.1-0.267-1.5-0.883-1.2-1.85s0.983-1.317 2.05-1.05c1 0.267 1.5 0.817 1.5 1.65-0.034 0.8-0.4 1.383-1.101 1.75l-1.249-0.5z" clip-rule="evenodd" fill="#F9F8EA" fill-rule="evenodd"/>
							<linearGradient id="ar" x1="8.2715" x2="11.872" y1="-27.375" y2="-27.375" gradientTransform="matrix(.0208 .9998 -.9998 .0208 -.00013597 .00044989)" gradientUnits="userSpaceOnUse">
							<stop stop-color="#C4BD99" offset="0"/>
							<stop stop-color="#E3E0CE" stop-opacity=".4745" offset=".4549"/>
							<stop stop-color="#F7F6F2" stop-opacity=".1294" offset=".8078"/>
							<stop stop-color="#fff" stop-opacity="0" offset="1"/>
						</linearGradient>
						<path d="m27.05 10.7c-1.1-0.267-1.5-0.883-1.2-1.85s0.983-1.317 2.05-1.05c1 0.267 1.5 0.817 1.5 1.65-0.034 0.8-0.4 1.383-1.101 1.75l-1.249-0.5z" clip-rule="evenodd" fill="url(#ar)" fill-rule="evenodd"/>
						<path d="m27.9 6.95l-0.4 0.05c0.267 0.833-1.033 1.283-3.9 1.35-0.534 0-2.284-0.067-5.25-0.2 1-0.7 2.6-1.267 4.8-1.7 2.467-0.467 4.05-0.3 4.75 0.5z" clip-rule="evenodd" fill="#F9F8EA" fill-rule="evenodd"/>
							<linearGradient id="as" x1="-26.981" x2="-17.653" y1="-7.8608" y2="-7.8608" gradientTransform="matrix(-.9997 .0241 -.0241 -.9997 -5.81e-5 -2.5317e-5)" gradientUnits="userSpaceOnUse">
							<stop stop-color="#C4BD99" offset="0"/>
							<stop stop-color="#E3E0CE" stop-opacity=".4745" offset=".4549"/>
							<stop stop-color="#F7F6F2" stop-opacity=".1294" offset=".8078"/>
							<stop stop-color="#fff" stop-opacity="0" offset="1"/>
						</linearGradient>
						<path d="m27.9 6.95l-0.4 0.05c0.267 0.833-1.033 1.283-3.9 1.35-0.534 0-2.284-0.067-5.25-0.2 1-0.7 2.6-1.267 4.8-1.7 2.467-0.467 4.05-0.3 4.75 0.5z" clip-rule="evenodd" fill="url(#as)" fill-rule="evenodd"/>
						<path d="m36.55 6.8l0.35-0.2c-0.834 0.566-2.2 0.967-4.101 1.2-1.934 0.2-3.434 0.134-4.5-0.2-0.166-1 1.017-1.5 3.55-1.5 2.335 0 3.901 0.233 4.701 0.7z" clip-rule="evenodd" fill="#F9F8EA" fill-rule="evenodd"/>
							<linearGradient id="at" x1="28.116" x2="36.749" y1="7.73" y2="7.73" gradientTransform="matrix(.9997 -.0232 .0232 .9997 .0003284 .00015321)" gradientUnits="userSpaceOnUse">
							<stop stop-color="#C4BD99" offset="0"/>
							<stop stop-color="#E3E0CE" stop-opacity=".4745" offset=".4549"/>
							<stop stop-color="#F7F6F2" stop-opacity=".1294" offset=".8078"/>
							<stop stop-color="#fff" stop-opacity="0" offset="1"/>
						</linearGradient>
						<path d="m36.55 6.8l0.35-0.2c-0.834 0.566-2.2 0.967-4.101 1.2-1.934 0.2-3.434 0.134-4.5-0.2-0.166-1 1.017-1.5 3.55-1.5 2.335 0 3.901 0.233 4.701 0.7z" clip-rule="evenodd" fill="url(#at)" fill-rule="evenodd"/>
						<path d="m28.15 6.675c-0.552-0.155-1.619-0.413-3.2-0.775-1.667-0.4-2.434-1.117-2.3-2.15 1.367 0 2.684 0.283 3.95 0.85 1.306 0.584 1.822 1.275 1.55 2.075 0.268 0.062 0.417 0.103 0.45 0.125l-0.7 0.35c0.117-0.167 0.2-0.325 0.25-0.475z" clip-rule="evenodd" fill="#F9F8EA" fill-rule="evenodd"/>
							<linearGradient id="au" x1="-26.377" x2="-20.407" y1="10.102" y2="10.102" gradientTransform="matrix(-.8249 -.5653 .5653 -.8249 .00044638 -.00037044)" gradientUnits="userSpaceOnUse">
							<stop stop-color="#C4BD99" offset="0"/>
							<stop stop-color="#E3E0CE" stop-opacity=".4745" offset=".4549"/>
							<stop stop-color="#F7F6F2" stop-opacity=".1294" offset=".8078"/>
							<stop stop-color="#fff" stop-opacity="0" offset="1"/>
						</linearGradient>
						<path d="m28.15 6.675c-0.552-0.155-1.619-0.413-3.2-0.775-1.667-0.4-2.434-1.117-2.3-2.15 1.367 0 2.684 0.283 3.95 0.85 1.306 0.584 1.822 1.275 1.55 2.075 0.268 0.062 0.417 0.103 0.45 0.125l-0.7 0.35c0.117-0.167 0.2-0.325 0.25-0.475z" clip-rule="evenodd" fill="url(#au)" fill-rule="evenodd"/>
						<path d="m33.7 3.6c-4.8 3.933-7.117 5.05-6.95 3.35 0.133-1.3 1.366-2.284 3.7-2.95 2.533-0.733 3.616-0.867 3.25-0.4z" clip-rule="evenodd" fill="#F9F8EA" fill-rule="evenodd"/>
							<linearGradient id="aw" x1="18.626" x2="25.936" y1="21.278" y2="21.278" gradientTransform="matrix(.8208 -.5712 .5712 .8208 .00016516 -.00016755)" gradientUnits="userSpaceOnUse">
							<stop stop-color="#C4BD99" offset="0"/>
							<stop stop-color="#E3E0CE" stop-opacity=".4745" offset=".4549"/>
							<stop stop-color="#F7F6F2" stop-opacity=".1294" offset=".8078"/>
							<stop stop-color="#fff" stop-opacity="0" offset="1"/>
						</linearGradient>
						<path d="m33.7 3.6c-4.8 3.933-7.117 5.05-6.95 3.35 0.133-1.3 1.366-2.284 3.7-2.95 2.533-0.733 3.616-0.867 3.25-0.4z" clip-rule="evenodd" fill="url(#aw)" fill-rule="evenodd"/>
								<path d="m27.7 3.1l0.55-0.2c0.134 0.4 0.4 1.2 0.8 2.4 0.101 1-0.583 1.45-2.05 1.35-0.9-0.067-1.184-0.65-0.85-1.75 0.367-1.1 0.883-1.7 1.55-1.8z" clip-rule="evenodd" fill="#F9F8EA" fill-rule="evenodd"/>
								<linearGradient id="ax" x1="-7.897" x2="-2.8704" y1="27.404" y2="27.404" gradientTransform="matrix(-.0249 -.9997 .9997 -.0249 .00012951 -.0006851)" gradientUnits="userSpaceOnUse">
								<stop stop-color="#C4BD99" offset="0"/>
								<stop stop-color="#E3E0CE" stop-opacity=".4745" offset=".4549"/>
								<stop stop-color="#F7F6F2" stop-opacity=".1294" offset=".8078"/>
								<stop stop-color="#fff" stop-opacity="0" offset="1"/>
							</linearGradient>
							<path d="m27.7 3.1l0.55-0.2c0.134 0.4 0.417 1.217 0.85 2.45 0.133 1.067-0.416 1.617-1.65 1.65-1.167 0.033-1.634-0.583-1.4-1.85 0.233-1.233 0.783-1.917 1.65-2.05z" clip-rule="evenodd" fill="url(#ax)" fill-rule="evenodd"/>
						<path d="m28.95 7.1c0 0.2-0.134 0.367-0.4 0.5-0.3 0.133-0.65 0.2-1.05 0.2-0.4 0.034-0.733-0.017-1-0.15-0.3-0.133-0.45-0.3-0.45-0.5 0-0.433 0.467-0.683 1.4-0.75 0.934 0 1.434 0.233 1.5 0.7z" clip-rule="evenodd" fill="#F9F8EA" fill-rule="evenodd"/>
							<linearGradient id="ay" x1="25.435" x2="42.214" y1="7.7559" y2="7.7559" gradientTransform="matrix(.9997 -.0238 .0238 .9997 .000304 -.00022801)" gradientUnits="userSpaceOnUse">
							<stop stop-color="#C4BD99" offset="0"/>
							<stop stop-color="#E3E0CE" stop-opacity=".4745" offset=".4549"/>
							<stop stop-color="#F7F6F2" stop-opacity=".1294" offset=".8078"/>
							<stop stop-color="#fff" stop-opacity="0" offset="1"/>
						</linearGradient>
						<path d="m28.95 7.1c0 0.2-0.134 0.367-0.4 0.5-0.3 0.133-0.65 0.2-1.05 0.2-0.4 0.034-0.733-0.017-1-0.15-0.3-0.133-0.45-0.3-0.45-0.5 0-0.433 0.467-0.683 1.4-0.75 0.934 0 1.434 0.233 1.5 0.7z" clip-rule="evenodd" fill="url(#ay)" fill-rule="evenodd"/>
					<path d="m27.6 5.75c-0.333-0.933-0.467-1.583-0.4-1.95 0.566 0.634 1.033 1.284 1.399 1.95-0.066-0.433-0.017-0.816 0.15-1.15 0.2-0.4 0.5-0.667 0.9-0.8-0.233 1.267-0.334 2.083-0.301 2.45 0.9-0.833 1.617-1.233 2.15-1.2 0.134 0.8-0.267 1.417-1.2 1.85l2.102 0.05c-0.134 0.267-0.45 0.417-0.95 0.45-0.601-0.033-1.033-0.05-1.3-0.05 0.1 0.2 0.133 0.5 0.1 0.9l-1.5-0.55-0.05 0.55c-0.233-0.033-0.4-0.066-0.5-0.1-0.134-0.033-0.284-0.133-0.45-0.3-0.4 0.4-0.833 0.583-1.3 0.55 0-0.3 0.033-0.533 0.1-0.7-1.066 0.367-1.883 0.5-2.45 0.4 0.267-0.333 0.933-0.65 2-0.95-1.833-0.167-3.017-0.45-3.55-0.85 0.7-0.267 1.684-0.267 2.95 0-0.467-0.2-0.75-0.333-0.85-0.4-0.367-0.233-0.55-0.517-0.55-0.85 0.833 0.167 1.7 0.534 2.6 1.1h-0.15c0.071 1e-3 0.155 0.019 0.25 0.05 0.1 0.033 0.184-0.05 0.25-0.25-0.267-0.367-0.45-0.65-0.55-0.85-0.233-0.333-0.367-0.65-0.4-0.95l1.5 1.6z" clip-rule="evenodd" fill="#FFF9C0" fill-rule="evenodd"/>
						<linearGradient id="az" x1="-9.54" x2="-4.415" y1="27.477" y2="27.477" gradientTransform="matrix(.00019512 -1 1 -.001 .00020022 .00028901)" gradientUnits="userSpaceOnUse">
						<stop stop-color="#DB9656" offset="0"/>
						<stop stop-color="#DB9656" stop-opacity="0" offset="1"/>
					</linearGradient>
					<path d="m27.6 5.75c-0.333-0.933-0.467-1.583-0.4-1.95 0.566 0.634 1.033 1.284 1.399 1.95-0.066-0.433-0.017-0.816 0.15-1.15 0.2-0.4 0.5-0.667 0.9-0.8-0.233 1.267-0.334 2.083-0.301 2.45 0.9-0.833 1.617-1.233 2.15-1.2 0.134 0.8-0.267 1.417-1.2 1.85l2.102 0.05c-0.134 0.267-0.45 0.417-0.95 0.45-0.601-0.033-1.033-0.05-1.3-0.05 0.1 0.2 0.133 0.5 0.1 0.9l-1.5-0.55-0.05 0.55c-0.233-0.033-0.4-0.066-0.5-0.1-0.134-0.033-0.284-0.133-0.45-0.3-0.4 0.4-0.833 0.583-1.3 0.55 0-0.3 0.033-0.533 0.1-0.7-1.066 0.367-1.883 0.5-2.45 0.4 0.267-0.333 0.933-0.65 2-0.95-1.833-0.167-3.017-0.45-3.55-0.85 0.7-0.267 1.684-0.267 2.95 0-0.467-0.2-0.75-0.333-0.85-0.4-0.367-0.233-0.55-0.517-0.55-0.85 0.833 0.167 1.7 0.534 2.6 1.1h-0.15c0.071 1e-3 0.155 0.019 0.25 0.05 0.1 0.033 0.184-0.05 0.25-0.25-0.267-0.367-0.45-0.65-0.55-0.85-0.233-0.333-0.367-0.65-0.4-0.95l1.5 1.6z" clip-rule="evenodd" fill="url(#az)" fill-rule="evenodd"/>
				<path d="m11.75 18.4l8.25 1.5c2.167 0.333 6.25 0.583 12.25 0.75-0.533 0.433-1.467 0.783-2.8 1.05-2.667 0.533-5.983 0.434-9.95-0.3-1.333-0.233-3.017-0.801-5.05-1.7l-2.7-1.3z" clip-rule="evenodd" fill="#5E4A41" fill-rule="evenodd"/>
				<path d="m11.75 18.4l2.7 0.55c2.133 0.434 3.983 0.75 5.55 0.95 2.5 0.333 5.333 0.416 8.5 0.25l-6.5 1.75c-1.667-0.167-3.417-0.584-5.25-1.25-1.133-0.4-2.316-0.9-3.55-1.5l-1.45-0.75z" clip-rule="evenodd" fill="#705246" fill-rule="evenodd"/>
				<path d="m21 26.15c0.934-0.2 1.883-0.801 2.85-1.801 0.466-0.5 0.85-0.983 1.15-1.449l2.5 0.25c-0.4 0.5-0.967 1.05-1.7 1.649-1.433 1.167-2.9 1.95-4.4 2.351-1.5 0.433-2.883 0.483-4.15 0.149l-1.5-0.649 1.8-0.051c1.367-0.099 2.516-0.249 3.45-0.449z" clip-rule="evenodd" fill="#3A302B" fill-rule="evenodd"/>
				<path d="m29.5 22.9c-0.233 0.3-0.5 0.649-0.8 1.05-0.533 0.767-0.85 1.416-0.95 1.95-0.167 0.833-0.25 2.5-0.25 5l-0.6-2.25c-0.6 0.333-1.483 0.583-2.65 0.75-0.733 0.1-1.483 0.149-2.25 0.149l-0.95-0.05 1.45-0.6c1.1-0.467 2.017-0.967 2.75-1.5 1.167-0.834 1.917-2.25 2.25-4.25l2-0.249z" clip-rule="evenodd" fill="#3A302B" fill-rule="evenodd"/>
				<path d="m31.95 24.65c0.233 1.267 0.5 2.1 0.8 2.5 0.5 0.666 2.2 1.449 5.1 2.35-1.666 0.2-3.366 0-5.1-0.6-0.7-0.233-1.116 0.033-1.25 0.8-0.037 0.204-0.054 0.421-0.05 0.649-0.134-1.553-0.2-2.703-0.2-3.449 0-0.534-0.283-1.351-0.85-2.45l-0.9-1.55h2.25l0.2 1.75z" clip-rule="evenodd" fill="#3A302B" fill-rule="evenodd"/>
				<path d="m33.4 22.05l1.05 1.5c0.866 1.101 1.717 1.8 2.55 2.101 1.333 0.5 3.667 0.8 7 0.899-2 1.066-3.75 1.434-5.25 1.101-1.9-0.434-3.316-1.267-4.25-2.5-0.3-0.4-0.934-1.067-1.9-2l-1.35-1.25 2.15 0.149z" clip-rule="evenodd" fill="#3A302B" fill-rule="evenodd"/>
				<path d="m29.25 25.15l0.85 2.6c0.367 1.7 0.084 2.5-0.85 2.4-0.934-0.101-1.217-0.967-0.85-2.601l0.85-2.399z" clip-rule="evenodd" fill="#5E4A41" fill-rule="evenodd"/>
				<path d="m26 24.9c-0.5 0.833-1.066 1.6-1.7 2.3-1.3 1.434-2.316 1.833-3.05 1.2-0.3-0.267 0.4-0.934 2.1-2 0.867-0.534 1.75-1.034 2.65-1.5z" clip-rule="evenodd" fill="#5E4A41" fill-rule="evenodd"/>
				<path d="m23.25 23.65c-1.5 1.5-2.917 2.333-4.25 2.5l-4.1 0.399 8.35-2.899z" clip-rule="evenodd" fill="#5E4A41" fill-rule="evenodd"/>
				<path d="m29 26.9l0.8 1.699c0.367 1.134 0.184 1.65-0.55 1.551-0.733-0.101-1-0.667-0.8-1.7l0.55-1.55z" clip-rule="evenodd" fill="#705246" fill-rule="evenodd"/>
				<path d="m24.6 26.05c-1.567 1.934-2.684 2.717-3.35 2.351-0.566-0.334-0.184-0.817 1.15-1.45 0.7-0.335 1.433-0.635 2.2-0.901z" clip-rule="evenodd" fill="#705246" fill-rule="evenodd"/>
				<path d="m20.6 24.45c-0.6 0.5-1.267 0.95-2 1.35-1.434 0.834-2.467 1.033-3.1 0.601-0.267-0.2 0.5-0.584 2.3-1.15 0.9-0.301 1.833-0.567 2.8-0.801z" clip-rule="evenodd" fill="#705246" fill-rule="evenodd"/>
				<path d="m32.65 24.7c3.699 1.899 5.283 3.066 4.75 3.5-0.733 0.633-1.75 0.233-3.051-1.2l-1.699-2.3z" clip-rule="evenodd" fill="#5E4A41" fill-rule="evenodd"/>
				<path d="m36.8 24.6l-1.4-1.15 8.35 2.95-4.1-0.45c-0.834-0.1-1.784-0.55-2.85-1.35z" clip-rule="evenodd" fill="#5E4A41" fill-rule="evenodd"/>
				<path d="m34.1 25.9l2.2 0.85c1.334 0.634 1.7 1.116 1.101 1.45-0.4 0.267-1.067-0.033-2-0.9l-1.301-1.4z" clip-rule="evenodd" fill="#705246" fill-rule="evenodd"/>
				<path d="m38.1 24.3c3.834 0.967 5.534 1.617 5.101 1.95-0.634 0.434-1.667 0.233-3.101-0.6l-2-1.35z" clip-rule="evenodd" fill="#705246" fill-rule="evenodd"/>
				<path d="m31.35 15.8l2.9-0.15c2.2-0.167 4.066-0.4 5.6-0.7 2.434-0.434 4.65-1.1 6.65-2l-0.7 0.95c-0.333 0.6-0.149 0.9 0.55 0.9 1.101 0 2.384-0.05 3.851-0.15-6.233 1.667-10.233 2.667-12 3-1.134 0.199-2.95 0.316-5.45 0.35l-3.4-0.05 2.15-0.2c1.5-0.2 2.45-0.517 2.85-0.95 0.666-0.667-0.334-1-3.001-1z" clip-rule="evenodd" fill="#705246" fill-rule="evenodd"/>
				<path d="m4.2 8.3l1.25-0.95c0.737-0.451 1.554-0.884 2.45-1.3l-3.7 2.25zm3.7-2.25l2.05-1.25c5.133-2.333 10.933-3.5 17.4-3.5 7.5 0 13.7 1 18.6 3 2.434 0.967 4.116 1.95 5.05 2.95-1.366-0.833-3.3-1.65-5.8-2.45-5.066-1.667-10.516-2.5-16.35-2.5-7.633 0-14.033 1-19.2 3-0.617 0.244-1.201 0.494-1.75 0.75z" clip-rule="evenodd" fill="#705246" fill-rule="evenodd"/>
				<path d="m24.15 1c0.567 0.434 1.184 0.817 1.85 1.15l-9.5 1.3c0.333-0.633 0.3-1.117-0.1-1.45-0.267-0.2-0.8-0.35-1.6-0.45l-1.1-0.1 5.8-1c1.545-0.186 3.187-0.344 4.925-0.475-0.154 0.028-0.295 0.069-0.425 0.125-0.467 0.2-0.417 0.5 0.15 0.9z" clip-rule="evenodd" fill="#705246" fill-rule="evenodd"/>
				<path d="m31.6 18.05l-3.6 0.1c-7.733 0-14.333-0.884-19.8-2.65-5.467-1.767-8.2-3.883-8.2-6.35 0-1.167 0.684-2.3 2.05-3.4l0.3-0.1-1.2 2.4c-0.466 1.767 0.1 3.067 1.7 3.9 2.267 1.167 4.466 2.1 6.6 2.8 2.767 0.9 5.9 1.583 9.4 2.05 3.933 0.533 8.183 0.95 12.75 1.25z" clip-rule="evenodd" fill="#52443A" fill-rule="evenodd"/>
				<path d="m54.5 9.65c0.566-0.767 0.35-1.833-0.65-3.2l-1.65-1.8 0.05-0.05c2.5 1.4 3.75 2.917 3.75 4.55 0 2.034-1.934 3.867-5.8 5.5 0.233-0.267 0.95-1.5 2.149-3.7v1.2l0.601-0.55c0.5-0.533 1.017-1.183 1.55-1.95z" clip-rule="evenodd" fill="#52443A" fill-rule="evenodd"/>
				<path d="m7.5 16.25l1.85 1.6c1.334 1.133 2.35 1.85 3.05 2.15 1.067 0.5 2.483 1.083 4.25 1.75-3.6-0.667-6.316-1.616-8.15-2.85-1.133-0.801-2.283-1.801-3.45-3l-1.35-1.55 3.8 1.9z" clip-rule="evenodd" fill="#3A302B" fill-rule="evenodd"/>
				<path d="m24.25 29.4l1.75-1.75c0.6-0.667 1.066-1.584 1.4-2.75l-0.5 3.75-2.65 0.75z" clip-rule="evenodd" fill="#302824" fill-rule="evenodd"/>
				<path d="m32 28.65l-0.6-3.75 0.449 1.3c0.4 0.934 0.917 1.583 1.551 1.95 1 0.566 1.666 0.983 2 1.25l-3.4-0.75z" clip-rule="evenodd" fill="#302824" fill-rule="evenodd"/>
				<path d="m34.5 25.15l3.65 1.35c1.166 0.434 2.116 0.733 2.85 0.9l-3.5-0.25c-0.5 0.166-1.033 0-1.6-0.5-0.367-0.3-0.716-0.65-1.05-1.05l-0.35-0.45z" clip-rule="evenodd" fill="#302824" fill-rule="evenodd"/>
				<path d="m24.9 24.9c-0.767 1.066-1.733 1.767-2.9 2.1-0.733 0.2-1.583 0.3-2.55 0.3l-1.2-0.05 1.3-0.15c1-0.166 1.817-0.399 2.45-0.699l2.9-1.501z" clip-rule="evenodd" fill="#302824" fill-rule="evenodd"/>
		<path d="m9.9 3.65c-2.433 0.833-4.183 1.667-5.25 2.5-0.7 0.534-1.316 1.067-1.85 1.6l-0.65 0.65 0.6-2.25-1.85 1.25 0.65-0.9c0.6-0.7 1.333-1.283 2.2-1.75l1.35-0.7c1.033-0.5 1.917-0.883 2.65-1.15 1.167-0.433 2.717-0.9 4.65-1.4l-4.4 2.4 1.9-0.25z" clip-rule="evenodd" fill="#52443A" fill-rule="evenodd"/>
		<path d="m42.9 1.35c1.8 0.4 3.216 0.75 4.25 1.05 1.666 0.5 3.616 1.333 5.85 2.5l-6-1.65 0.75 1.4c-3.233-1.6-5.934-2.6-8.1-3l-7.4-1.5 3.25 0.2c2.366 0.167 4.033 0.35 5 0.55l2.4 0.45z" clip-rule="evenodd" fill="#52443A" fill-rule="evenodd"/>
		<path d="m37.55 15.35l-0.8-0.1 3.5-0.5 2.25-0.6-0.05 0.5c0.066 0.333 0.3 0.583 0.7 0.75 0.8 0.3 1.75 0.467 2.85 0.5-2.5 0.733-4.116 1.15-4.85 1.25l-4.75 0.75c1-0.601 1.583-1.184 1.75-1.75 0.1-0.367-0.1-0.633-0.6-0.8z" clip-rule="evenodd" fill="#846053" fill-rule="evenodd"/>
		<path d="m21.85 0.6c-0.166 0.4-0.15 0.7 0.05 0.9 0.567 0.5 1.017 0.8 1.35 0.9l-4 0.35c0.167-0.4 0.05-0.733-0.35-1l-2-0.85 2.6-0.45c0.5 0.033 1.383-0.117 2.65-0.45l-0.3 0.6z" clip-rule="evenodd" fill="#846053" fill-rule="evenodd"/>
		<path d="m6.25 14.9l5.65 1.15c4.333 0.767 7.867 1.217 10.6 1.351 4.3 0.166 7.95 0.216 10.95 0.149 1.967-0.066 4.533-0.2 7.7-0.399-0.5 0.199-1.551 0.399-3.15 0.6-3.233 0.366-7.65 0.5-13.25 0.4-5.566-0.101-10.316-0.667-14.25-1.7l-4.25-1.551z" clip-rule="evenodd" fill="#846053" fill-rule="evenodd"/>
		<path d="m43.1 15.5l1.9-0.05c1.434-0.133 2.6-0.367 3.5-0.7 1.6-0.566 3.6-1.433 6-2.6-1.667 1.167-3.533 2.083-5.6 2.75-1.301 0.434-2.967 0.9-5 1.4l-2.65 0.6 1.85-1.4z" clip-rule="evenodd" fill="#846053" fill-rule="evenodd"/>
		<use transform="matrix(1 0 0 -1 28 37.95)" x="16383" y="16383" width="-32766" height="-32766" xlink:href="#br"/>
</svg>
