<?xml version='1.0' encoding='utf-8'?>
<svg xmlns="http://www.w3.org/2000/svg" version="1.1" id="Layer_1" x="0px" y="0px" viewBox="0 0 1819.608 1638.581" enable-background="new 0 0 1819.608 1638.581"> <path d="M1797.972,553.232c-3.052-3.432-7.258-5.404-11.508-6.879c-4.644-1.665-8.587-5.52-13.743-5.447 c-9.186-0.161-18.474,0.409-27.427,2.556c-13.32,3.436-16.736-4.583-53.408,8.398c0.489-10.016,20.496-18.852,21.483-27.777 c-3.677-9.297-19.521,2.108-27.427,8.047c-4.191,3.257-10.325,3.71-13.422,8.324c-4.016,6.134-10.632,9.96-14.487,16.24 c-1.972,3.359-4.644,6.148-7.682,8.543c-4.148-3.972-9.712-5.915-15.262-6.893c4.564-26.647,27.388-45.97,16.707-52.43 c-4.688-3.082-10.325-5.973-16.065-5.316c-10.224,5.886-10.552,25.729-25.806,46.559c-10.154-7.574-11.93-26.774-21.381-43.974 c-2.483,0.511-5.287,0.146-7.448,1.548c-3.965,4.855-3.405,9.818,1.606,30.625c0.818,3.242,0.219,6.908,2.132,9.829 c3.885,6.367,6.66,13.348,9.245,20.329c-6.776,3.315-11.757,9.274-18.401,12.808c-5.316,2.906-9.011,8.164-10.837,13.859 c-2.337,7.288-7.258,13.29-10.15,20.329c-2.278,5.652-5.652,10.763-9.274,15.641c-3.344,4.323-3.695,10.281-7.77,14.137 c-47.613,61.935-119.054,108.426-120.091,109.255c-13.863,10.856-29.393,15.439-63.616,35.649 c-5.871-16.751-13.801-32.787-23.469-47.669c-13.215-20.345-26.654-66.649-39.446-82.996c-2.144-4.195-22.095-35.436-28.142-53.671 c-5.885-13.421-13.144-26.229-18.445-39.914c-3.096-10.15-10.325-18.27-14.575-27.909c-31.284-52.201-40.337-47.797-61.177-61.557 c-12.172-8.869-38.035-5.969-63.602-13.655c-8.262-0.828-5.304-3.927-32.553-17.204c-6.221-2.833-11.654-7.185-18.197-9.318 c1.972-6.134,3.067-12.633,6.294-18.285c4.922-6.513-0.497-14.444-2.045-21.279c3.169-3.213,6.294-6.995,6.703-11.683 c-0.978-20.549-1.213-16.894-7.025-28.8c13.731-26.666,11.648-25.794,6.806-38.979c-3.636-6.221-9.916-10.062-15.539-14.254 c7.048-19.876,6.609-18.629,1.358-52.181c1.986-5.258,7.419-8.733,8.003-14.575c10.74-51.646-23.761-103.866-34.189-147.401 c-3.593-12.925-9.142-25.66-18.343-35.62c-8.602-6.922-15.145-16.488-25.485-21.191c-5.579-3.286-12.18-3.315-18.212-5.287 c-11.464-3.812-23.863-0.57-35.415-4.031c-4.089-1.621-8.018,1.022-12.136,0.701c-36.928-0.169-61.768,10.253-84.72,31.487 c-21.549,23.52-34.063,51.741-34.627,55.526c-2.234,12.75-6.09,25.222-6.426,38.249c-1.138,6.268-0.338,38.512-2.906,46.179 c-2.906,8.149-0.847,16.824-0.964,25.222c-0.073,6.251,3.914,11.537,4.863,17.452c-3.013,8.047-16.34,27.107-5.17,42.645 c3.914,6.966,11.318,10.471,17.452,15.101c0.832,6.09-2.57,11.873-3.111,17.92c-2.935,10.004,1.957,19.789,3.447,29.515 c-1.84,8.397-8.982,15.145-9.099,24.097c0.502,39.686,2.389,0.566-0.789,41.666c1.075,6.033,12.22,18.145,5.944,25.382 c-4.951,7.01-14.4,6.251-21.658,8.894c-6.002,4.264-10.661,10.501-17.832,13.012c-15.948,5.787-35.504,20.566-44.339,22.797 c-19.774,5.228-40.921,2.673-60.272,9.814c-7.521,3.14-13.786,8.514-20.461,13.071c-5.594,3.622-9.128,9.405-13.728,14.049 c-8.117,8.68-8.01,4.578-33.385,45.449c-0.546,1.012-23.208,32.76-31.706,58.826c-3.301,9.858-9.799,18.343-12.589,28.405 c-2.614,9.595-7.463,18.343-12.618,26.77c-3.007,4.661-15.739,36.843-19,40.907c-5.973,8.178-10.15,17.408-14.064,26.711 c-11.202,28.887-31.18,53.203-44.09,81.258c-6.484-4.44-12.91-9.113-20.461-11.567c-40.578-13.704-126.472-58.822-169.527-102.172 c-4.002-4.527-10.471-5.813-14.181-10.603c-18.081-23.122-11.599-24.098-16.036-39.446c-3.359-16.78-5.783-35.167-17.481-48.516 c6.338-7.843,10.048-17.262,15.291-25.777c4.162-6.82,5.024-14.955,8.646-22.023c2.512-4.44,0.015-9.347-0.905-13.845 c-17.648,4.352-22.057,34.78-30.275,31.326c-2.89-12.979,4.537-34.273-6.119-40.79c-5.929-4.002-13.29-1.066-19.687-0.073 c-5.754,11.172,2.351,23.075,1.256,34.729c1.183,8.646-8.967,15.817-16.868,12.501c-7.842-1.112-4.854-9.652-27.091-54.883 c-3.213-5.623-9.201-10.165-16.006-8.66c-0.153,6.182,7.197,40.825,10.398,49.713c-6.557,0.803-12.18-2.746-17.116-6.601 c-10.763-8.5-24.185-12.224-36.613-17.467c-10.048-5.433-21.541-6.543-32.641-8.076c-7.77-0.949-15.378,1.431-23.133,1.519 c-3.636-0.015-3.14,4.337-3.388,6.849c6.046,1.913,12.706,2.015,18.299,5.228c-3.125,2.118-7.025,3.753-8.529,7.521 c-0.949,2.176-3.87,6.061-0.102,7.098c8.836,1.884,17.087,5.637,25.791,7.974c16.167,4.513,30.552,13.524,44.266,22.943 c40.586,24.66,42.231,47.54,75.241,89.773c6.277,7.66,20.033,41.918,29.837,50.429c8.529,8.383,16.56,3.503,34.028,27.383 c49.381,68.562,98.308,114.193,152.119,153.112c9.653,6.82,17.803,15.554,27.967,21.687c14.216,11.435,25.453,31.781,43.229,27.12 c71.723-38.451,82.116-56.707,131.41-116.981c52.695-79.009,40.913-64.394,70.349-122.413c2.658-7.565,7.93-13.889,9.96-21.702 c1.271,2.965,2.848,5.798,4.177,8.763c2.322,5.097,2.147,10.924,4.294,16.079c8.841,17.536,16.403,6.224,16.985,32.392 c-0.002,0.019,19.351,121.83,20.505,140.114c1.621,18.802-14.703,47.679-16.138,51.101c-4.191,10.325-13.83,17.438-17.058,28.259 c-9.537,18.416-20.11,36.394-27.062,56.037c-3.554,10.421-32.269,66.154-33.605,74.847c-0.628,4.352-3.578,7.74-5.696,11.435 c-1.84,3.023-2.395,6.572-3.476,9.917c-1.154,3.782-4.06,6.733-5.287,10.5c-4.407,12.686,1.828,14.993-22.52,24.477 c-46.754,21.623-76.997,26.256-143.692,62.229c-57.018,27.647-112.489,78.15-125.101,105.531 c-8.587,14.385-6.397,31.589-6.148,47.537c3.78,16.926-4.857,42.206,14.648,62.74c3.169,3.461,4.615,7.989,6.966,11.961 c12.681,11.728,22.667,25.69,51.349,36.379c9.844,4.295,57.994,15.238,86.122,10.574c28.042-0.442,51.215-6.943,72.846-6.776 c7.798-0.025,73.631,10.5,92.343,16.328c16.547,4.323,32.714,10.077,49.523,13.348c6.66,1.417,13.348,3.169,18.913,7.302 c11.114,5.228,23.528-1.125,31.56-9.04c5.681-6.528,15.714-9.245,18.138-18.328c8.042-35.282,0.081-40.029,11.581-46.033 c-0.54-2.848-1.212-5.681-1.65-8.529c5.024-0.424,8.222,3.505,12.224,5.71c3.739-0.175,7.419-2.541,11.158-1.095 c8.04,2.716,4.837,16.536,11.348,28.289c6.835,12.764,11.099,26.916,19.803,38.658c6.455,8.879,9.595,19.526,14.765,29.121 c1.314,2.001,1.168,4.381-0.248,6.324c-1.723,3.958-6.645,2.366-9.989,3.388c-8.763,1.46-13.699,9.61-19.862,15.115 c-3.388,2.483-3.359,6.776-2.556,10.501c3.33,1.241,6.66,0.336,9.975-0.424c1.986,0.467,3.826,1.314,5.725,2.118 c-3.885,4.834-14.473,7.112-10.734,15.174c7.838,6.663,33.56,10.571,46.164,6.484c4.571-1.198,9.23-3.914,14.064-2.454 c4.615,2.234,8.719,5.74,13.903,6.703c39.881,4.041,17.364-34.651,44.485-28.464c7.275,2.9,40.896,14.363,48.764,14.181 c5.886-0.453,11.143,4.133,17.014,2.614c5.904-1.72,14.793-18.889,4.352-25.528c-25.012-15.894-22.684-17.529-33.181-21.176 c-0.496-12.531,5.331-23.966,9.916-35.255c6.835-15.188,12.092-31.093,19.935-45.814c7.923-14.642,5.476-23.116,22.681-22.33 c5.725-1.928,11.245-5.082,17.335-5.681c25.911,13.59,32.481,68.365,55.876,68.932c9.405,2.205,16.371-5.696,24.944-7.682 c6.616-2.614,13.889-0.891,20.724-2.526c6.28-1.46,12.691-1.869,19.044-2.833c31.706-6.63,62.726-16.342,94.563-22.418 c14.141-1.389,47.151-0.105,55.818,1.913c4.89,1.064,38.226,1.746,47.785,2.965c16.897,0.73,33.4-3.812,49.771-7.39 c13.305-1.884,26.697-3.666,39.578-7.653c40.423-18.948,37.075-28.12,51.276-39.183c4.892-4.323,6.63-10.924,9.697-16.488 c5.448-9.712,8.485-20.913,7.551-32.086c-1.208-14.757,6.239-40.74-3.651-56.519c-10.912-17.689-9.465-26.227-44.631-51.685 c-49.442-39.637-44.967-29.018-61.543-39.183c-4.907-2.95-9.843-5.842-14.984-8.354c-10.895-5.262-17.551-13.372-38.161-20.242 c-6.995-2.118-12.793-6.776-19.424-9.683c-63.659-30.888-116.761-36.687-185.986-62.638c-3.344-4.513-5.418-9.916-8.675-14.517 c-5.097-7.258-5.579-16.415-9.201-24.316c-13.618-29.868-1.524,1.917-16.883-40.206c-4.141-10.352,2.607-19.079-8.397-41.199 c-5.053-9.391-5.871-20.417-11.245-29.676c-5.71-9.946-8.646-21.498-16.547-30.099c-7.797-7.127,13.621-44.275,23.469-105.852 c3.096-11.523,5.681-23.192,7.156-35.05c2.249-15.364,11.61-28.303,15.086-43.302c2.95-8.266,3.797-17.072,6.849-25.295 c10.532-34.715-3.104-7.809,14.4-54.299c0.964,0.015,2.877,0.058,3.826,0.073c4.469,7.901,7.346,16.62,12.443,24.17 c4.878,9.055,11.172,17.627,13.348,27.865c10.876,20.922,60.738,96.29,95.454,130.592c27.376,25.754,39.653,37.8,81.127,53.204 c6.791,2.526,14.254,7.229,21.556,3.593c10.938-3.505,14.604-15.568,22.491-22.797c4.526-3.957,58.668-62.018,59.629-63.032 c14.288-16.927,23.461-19.225,55.204-69.02c39.782-55.345,53.39-76.306,73.986-95.366c5.623-4.892,8.003-12.195,12.662-17.846 c25.322-30.875,14.449-16.357,37.343-38.701c5.9-5.637,13.772-8.237,21.235-11.099c6.017-2.278,10.603-7.171,16.693-9.347 c7.784-2.614,13.801-8.485,19.95-13.699c8.321-7.047,52.163-26.716,61.864-29.165c10.179-1.563,20.651,0.307,30.771-2.074 c6.031-1.621,12.385-1.037,18.445-2.541C1798.527,557.92,1798.454,555.364,1797.972,553.232z M840.805,324.572 c-0.307,2.439-0.73,4.849-1.139,7.273c1.753,1.957,4.367,3.899,2.979,6.835c-2.132-1.154-4.25-2.322-6.353-3.49 C836.263,330.954,835.518,325.74,840.805,324.572z M840.732,387.195c-4.332-3.799-6.234-20.12-0.058-18.124 C842.514,374.811,842.996,381.499,840.732,387.195z M839.242,392.058c4.504,11.988,0.571,17.715-9.741,23.893 c-0.482-0.745-1.46-2.249-1.957-3.008C830.859,405.64,835.839,399.287,839.242,392.058z M904.042,1534.817 c-0.789,0.468-2.351,1.388-3.14,1.84c-7.245-16.35-12.27-22.333-13.64-39.855c-5.976-37.141-8.491-21.117,6.513-53.35 c8.237,1.913,9.099,11.348,13.845,17.014C918.958,1475.281,919.924,1487.495,904.042,1534.817z M1009.047,1344.786 c-13.759,7.203-42.767,11.996-48.428,12.589c-25.828-4.447-35.207,2.443-64.142,19.95c-12.697-13.24-33.73-25.171-50.283-29.325 c-5.36-1.606-10.238,2.38-15.554,2.366c-4.776,0.015-9.507,0.832-14.254,1.052c-38.442-4.52-21.693-8.991-46.369-5.681 c57.516-46.349,86.868-46.582,104.465-49.144c43.499-1.68,39.515,2.089,64.653,9.741c42.474,19.679,24.274,5.638,76.001,37.884 c1.417,0.818,2.468,2.001,3.169,3.563C1015.166,1346.903,1012.245,1345.326,1009.047,1344.786z M1031.333,407.641 c-0.993,6.776-5.243,12.341-7.273,18.752c-11.128-4.338-24.667-9.902-28.172-22.535c-2.65-80.482,1.971-38.371,17.846-97.98 c3.666,0.905,7.258,2.147,10.705,3.709c0.277,2.95-2.205,5.491-2.337,8.471c-1.634,21.243,2.34,21.346,8.456,39.446 c2.015,5.9,6.893,10.267,8.923,16.167C1036.926,385.004,1033.29,396.133,1031.333,407.641z"/> </svg>