<?xml version='1.0' encoding='utf-8'?>
<svg xmlns="http://www.w3.org/2000/svg" version="1.1" width="600px" height="976px" viewBox="0 0 600 976"> <g id="layer1"> <g style="fill:rgb(0,0,0); fill-opacity:1.0; stroke-linejoin: miter"> </g> <g style="fill:rgb(0,0,0); fill-opacity:1.0; stroke-linejoin: miter"> <path d="M407.45737,583.4531L407.51645,583.50726C407.57306,583.55896,407.57553,583.5762,407.57062,583.7928C407.5583,584.15955,407.56815,584.2506,407.61737,584.3466C407.6715,584.44507,407.66168,584.5091,407.57306,584.65186C407.546,584.6986,407.52136,584.7651,407.52136,584.79956C407.52136,584.8881,407.60016,585.0063,407.70352,585.0678C407.77982,585.1146,407.79214,585.1368,407.79214,585.2155C407.79214,585.26965,407.7749,585.3263,407.74783,585.35583C407.6789,585.4297,407.57062,585.6709,407.57062,585.74963C407.57062,585.78906,407.5977,585.86285,407.63214,585.9121C407.6666,585.9613,407.69366,586.01056,407.69366,586.01794C407.69366,586.0278,407.6543,586.082,407.60754,586.13855C407.56076,586.19763,407.52136,586.2567,407.52136,586.26904C407.52136,586.2986,407.48447,586.3675,407.40323,586.4979C407.32446,586.6235,407.32693,586.813,407.4131,586.91394L407.47708,586.99023L407.40814,587.1576C407.37122,587.24866,407.31216,587.3619,407.2777,587.4087C407.13492,587.5957,407.1251,587.62524,407.09802,587.92065C407.07092,588.2185,407.07587,588.2086,406.8888,588.53845C406.8174,588.66156,406.82233,588.7674,406.90356,588.88306C406.97247,588.9766,406.97,589.00366,406.87646,589.1858C406.81247,589.31134,406.79773,589.3704,406.79526,589.4935C406.79526,589.65594,406.7805,589.6732,406.6451,589.6732C406.61557,589.6732,406.56387,589.6953,406.52695,589.72485C406.4679,589.77167,406.4605,589.7913,406.46542,589.9169C406.47034,590.0399,406.46295,590.0646,406.40634,590.12366C406.33005,590.1975,406.32266,590.25903,406.3768,590.3624C406.39648,590.4018,406.40387,590.4387,406.39404,590.4461C406.392,590.44714,406.3769,590.44763,406.35095,590.44763C406.25186,590.44763,405.99445,590.44055,405.69992,590.42883C405.2693,590.4106,404.82205,590.40204,404.34024,590.40204C403.91324,590.40204,403.45908,590.40875,402.96524,590.42145C402.71716,590.42865,402.48495,590.43243,402.32703,590.43243C402.21387,590.43243,402.13885,590.4305,402.12344,590.4264C402.03973,590.4067,402.0373,590.37225,402.12097,590.35254C402.15543,590.3427,402.23175,590.3156,402.28836,590.291C402.3425,590.2664,402.42865,590.23193,402.47543,590.2147C402.56897,590.18274,402.6231,590.163,402.7339,590.1163C402.77573,590.1015,402.85693,590.07196,402.9185,590.05225C402.98,590.0326,403.0514,590.0055,403.0785,589.99316C403.10556,589.9809,403.28278,589.9144,403.4723,589.84796C403.66183,589.77905,403.8612,589.70026,403.91537,589.6732C403.9695,589.6461,404.02612,589.62396,404.0409,589.62396C404.05814,589.62396,404.13443,589.5944,404.2132,589.55994C404.29443,589.5255,404.38058,589.4886,404.40765,589.47626C404.8335,589.3089,405.61377,588.84863,405.96082,588.5631C406.01743,588.5163,406.10605,588.44495,406.15775,588.40063C406.66232,587.98956,406.74356,587.91077,406.8174,587.76556C406.85925,587.6843,406.89862,587.613,406.906,587.6056C406.92572,587.5859,407.04385,587.33234,407.0734,587.24866C407.08817,587.20685,407.1054,587.0862,407.1128,586.9779C407.12018,586.8696,407.1374,586.68744,407.1497,586.5718C407.16446,586.45605,407.19153,586.2026,407.21368,586.0056C407.23584,585.8087,407.26538,585.5552,407.2777,585.4395C407.32693,585.00385,407.3737,584.52136,407.42538,583.8617L407.45737,583.4531 Z M416.4441,583.4531L416.47363,583.8248C416.49088,584.0291,416.51794,584.3294,416.53024,584.4919C416.56226,584.84875,416.59424,585.15894,416.62625,585.4395C416.63855,585.5552,416.6681,585.8087,416.69025,586.0056C416.7124,586.2026,416.73947,586.45605,416.75424,586.5718C416.76654,586.68744,416.78378,586.8696,416.79117,586.9779C416.79855,587.0862,416.8158,587.20685,416.83054,587.24866C416.86008,587.33234,416.97824,587.5859,416.99792,587.6056C417.0053,587.613,417.04468,587.6843,417.08655,587.76556C417.16037,587.91077,417.2416,587.98956,417.74622,588.40063C417.79788,588.44495,417.8865,588.5163,417.9431,588.5631C418.2902,588.84863,419.07047,589.3089,419.49628,589.47626C419.52338,589.4886,419.60953,589.5255,419.69073,589.55994C419.7695,589.5944,419.84583,589.62396,419.86304,589.62396C419.8778,589.62396,419.93442,589.6461,419.9886,589.6732C420.04272,589.70026,420.2421,589.77905,420.43164,589.84796C420.62115,589.9144,420.7984,589.9809,420.82547,589.99316C420.85254,590.0055,420.92392,590.0326,420.98547,590.05225C421.047,590.07196,421.13068,590.1015,421.17007,590.1163C421.28082,590.163,421.335,590.18274,421.42853,590.2147C421.47528,590.23193,421.56143,590.2664,421.6156,590.291C421.6722,590.3156,421.7485,590.3427,421.78296,590.35254C421.86667,590.37225,421.8642,590.4067,421.78052,590.4264C421.7651,590.4305,421.6901,590.43243,421.57693,590.43243C421.419,590.43243,421.1868,590.42865,420.9387,590.42145C420.44485,590.40875,419.9907,590.40204,419.5637,590.40204C419.08188,590.40204,418.63464,590.4106,418.20404,590.42883C417.90952,590.44055,417.65207,590.44763,417.553,590.44763C417.52704,590.44763,417.51196,590.44714,417.50992,590.4461C417.50006,590.4387,417.50745,590.4018,417.52713,590.3624C417.5813,590.25903,417.5739,590.1975,417.4976,590.12366C417.44098,590.0646,417.4336,590.0399,417.43854,589.9169C417.44345,589.7913,417.43607,589.77167,417.37698,589.72485C417.34006,589.6953,417.2884,589.6732,417.25885,589.6732C417.12347,589.6732,417.1087,589.65594,417.1087,589.4935C417.10623,589.3704,417.09146,589.31134,417.02747,589.1858C416.93393,589.00366,416.93146,588.9766,417.0004,588.88306C417.0816,588.7674,417.08655,588.66156,417.01517,588.53845C416.8281,588.2086,416.833,588.2185,416.80594,587.92065C416.77887,587.62524,416.769,587.5957,416.62625,587.4087C416.5918,587.3619,416.5327,587.24866,416.4958,587.1576L416.42688,586.99023L416.49088,586.91394C416.57703,586.813,416.57947,586.6235,416.5007,586.4979C416.4195,586.3675,416.38257,586.2986,416.38257,586.26904C416.38257,586.2567,416.34317,586.19763,416.29642,586.13855C416.24963,586.082,416.21027,586.0278,416.21027,586.01794C416.21027,586.01056,416.23734,585.9613,416.2718,585.9121C416.30627,585.86285,416.33334,585.78906,416.33334,585.74963C416.33334,585.6709,416.22504,585.4297,416.15613,585.35583C416.12903,585.3263,416.11182,585.26965,416.11182,585.2155C416.11182,585.1368,416.1241,585.1146,416.2004,585.0678C416.3038,585.0063,416.38257,584.8881,416.38257,584.79956C416.38257,584.7651,416.35794,584.6986,416.33087,584.65186C416.24225,584.5091,416.23242,584.44507,416.28656,584.3466C416.33582,584.2506,416.34564,584.15955,416.33334,583.7928C416.32843,583.5787,416.33087,583.55896,416.38504,583.50977L416.4441,583.4531 Z M411.51157,594.9252C411.685,594.9252,411.87814,594.94617,412.03812,594.9874C412.1612,595.0194,412.30396,595.0637,412.3581,595.0884C412.41226,595.113,412.52548,595.16223,412.61163,595.1991C412.747,595.2607,412.76425,595.27545,412.76425,595.337C412.76425,595.3862,412.74948,595.4108,412.71008,595.4231C412.6781,595.4305,412.6338,595.45514,412.61163,595.4748C412.58948,595.4945,412.3581,595.5979,412.09473,595.70374C411.60492,595.90063,411.48676,595.9548,411.46216,595.99414C411.46127,595.9956,411.45892,595.9963,411.45523,595.9963C411.42773,595.9963,411.32608,595.9574,411.2111,595.9031C410.84433,595.72833,410.73602,595.6791,410.70895,595.6791C410.69662,595.6791,410.59818,595.6348,410.49234,595.5856L410.29788,595.49207L410.3939,595.4305C410.61295,595.2853,411.08307,594.9948,411.12738,594.9776C411.2129,594.94244,411.3541,594.9252,411.51157,594.9252 Z M410.7259,564.2276C410.66943,564.2276,410.63547,564.2332,410.61786,564.244C410.59326,564.2588,410.56125,564.2711,410.54404,564.2711C410.5268,564.2711,410.4579,564.2982,410.38895,564.33264C410.3225,564.3646,410.2511,564.39417,410.23636,564.39417C410.21912,564.39417,410.20435,564.40405,410.20435,564.4188C410.20435,564.4311,410.16742,564.4434,410.12067,564.4434C410.07388,564.4434,410.0296,564.45325,410.02222,564.4656C410.01483,564.4779,409.96066,564.5099,409.90405,564.5369C409.84497,564.564,409.7613,564.61816,409.7145,564.6576C409.39453,564.92584,409.27393,565.03906,409.2124,565.1228C409.17548,565.17694,409.09177,565.29016,409.02777,565.3763C408.7841,565.7061,408.7201,565.80707,408.58963,566.06305C408.4838,566.2747,408.45673,566.3486,408.45425,566.44946C408.45425,566.5159,408.43948,566.61194,408.42227,566.6587C408.4026,566.7055,408.3435,566.88763,408.2869,567.0648C408.2303,567.2396,408.17365,567.4021,408.16135,567.4242C408.1515,567.44635,408.1195,567.567,408.08997,567.69495C408.0629,567.823,408.0112,568.03467,407.97675,568.1676C407.9423,568.29803,407.91522,568.42847,407.91522,568.4531C407.91522,568.4777,407.90045,568.5294,407.88074,568.5688C407.86105,568.60815,407.8266,568.75586,407.80444,568.8986C407.76508,569.1448,407.74045,569.28754,407.69366,569.5386C407.6666,569.68384,407.6026,570.07025,407.56567,570.30164C407.54108,570.45917,407.5337,571.05975,407.54846,571.65546C407.55585,571.89417,407.55585,571.89417,407.32693,572.3742C407.24323,572.5465,407.17676,572.6917,407.17676,572.6991C407.17676,572.7065,407.12262,572.8271,407.05615,572.9649C406.99216,573.1052,406.906,573.29474,406.86908,573.39075C406.8297,573.4843,406.7805,573.59753,406.75586,573.64185C406.63773,573.8535,406.4605,574.3335,406.3891,574.6338C406.29803,575.02026,406.29065,575.05225,406.29065,575.1261C406.29065,575.1999,406.15036,575.49036,406.08142,575.55927C406.06174,575.579,405.99527,575.66266,405.93375,575.74146C405.83774,575.86694,405.63837,576.0368,405.58914,576.0368C405.567,576.0368,405.3799,576.16235,405.25684,576.2583C405.04086,576.4288,404.85358,576.6343,404.78876,576.7644L404.79282,576.7644Q404.7922,576.7682,404.79156,576.77203Q404.77112,576.8437,404.75513,576.89716L404.7592,576.89716C404.75873,576.8997,404.75824,576.9023,404.75772,576.9049L404.76175,576.9049Q404.7674,576.91174,404.76788,576.92Q404.76828,576.9252,404.76773,576.9302L404.75238,577.0808Q404.73773,577.1985,404.72827,577.29614L404.71927,577.3626L404.72333,577.3626C404.7307,577.3967,404.7264,577.45337,404.71286,577.5432C404.68826,577.6983,404.6612,577.9518,404.61688,578.3998C404.60455,578.5278,404.58734,578.705,404.57996,578.79364C404.5652,578.9413,404.6021,579.3401,404.66364,579.692C404.67596,579.7585,404.69812,579.8816,404.71042,579.9628C404.7252,580.044,404.7547,580.17694,404.77686,580.2582C404.81873,580.4083,404.84827,580.56586,404.88516,580.8169C404.8975,580.89325,404.9147,580.96704,404.9221,580.9818C404.94916,581.0237,404.94177,581.8138,404.9147,582.0058C404.89993,582.09937,404.88763,582.2372,404.88763,582.3061C404.88763,582.3775,404.87778,582.4365,404.863,582.4365C404.84827,582.4365,404.8384,582.52026,404.8384,582.63837C404.8384,582.7516,404.82855,582.8821,404.81378,582.92883C404.77194,583.0814,404.73502,583.61066,404.71286,584.3688C404.68826,585.2549,404.6538,585.5823,404.5652,585.7989C404.5504,585.83826,404.52826,585.8924,404.51596,585.9195C404.5061,585.9466,404.49133,585.99335,404.4815,586.0204C404.46426,586.0844,404.38797,586.1779,404.35104,586.1779C404.33627,586.1779,404.3215,586.1853,404.3166,586.1952C404.31412,586.20746,404.21567,586.27637,404.09998,586.3502C403.74307,586.5816,403.61014,586.6924,403.1646,587.13794C402.87418,587.4308,402.6305,587.6474,402.41388,587.80743C402.23914,587.93787,402.0373,588.09045,401.9659,588.14465C401.89697,588.20123,401.82806,588.24554,401.81577,588.24554C401.80344,588.24554,401.77884,588.2628,401.7616,588.2825C401.72223,588.3292,401.34808,588.59015,401.31854,588.59015C401.3087,588.59015,401.28656,588.60736,401.26932,588.6295C401.24963,588.64923,401.20285,588.6812,401.15854,588.6985C401.1167,588.7157,401.06747,588.74524,401.0478,588.7649C401.0281,588.7846,400.94934,588.83136,400.8755,588.8707C400.66626,588.984,400.60226,589.01843,400.45703,589.112C400.14444,589.30994,399.6592,589.4708,399.40692,589.4708C399.3831,589.4708,399.36136,589.4694,399.342,589.46643C399.06387,589.4221,399.0048,589.40735,398.95062,589.368C398.62326,589.13165,398.4288,589.0652,397.92914,589.01843C397.7027,588.9988,397.5304,588.9717,397.49838,588.9495C397.4664,588.9323,397.38025,588.9028,397.3064,588.8855C397.18085,588.85846,397.09473,588.83386,396.9741,588.78705C396.94702,588.7772,396.86334,588.7501,396.7895,588.7255C396.71564,588.7009,396.63934,588.6714,396.62457,588.6566C396.60736,588.6443,396.5335,588.632,396.46213,588.6295C396.45392,588.62933,396.44608,588.6292,396.4386,588.6292C396.3496,588.6292,396.30908,588.64343,396.2455,588.6911C396.12982,588.77966,396.0806,588.8732,396.12,588.93475C396.16428,589.00616,396.1569,589.0332,396.0855,589.08984C396.04858,589.1169,395.9477,589.25226,395.8615,589.3877C395.77292,589.5255,395.67938,589.6535,395.65475,589.6732C395.6203,589.70026,395.59814,589.7618,395.58337,589.86273C395.57355,589.9464,395.54645,590.04736,395.52432,590.0842C395.5046,590.12115,395.47015,590.2024,395.45047,590.2639C395.40125,590.419,395.23877,590.81036,395.20926,590.8473C395.1945,590.8645,395.14526,590.8793,395.09848,590.8793C395.05173,590.8793,394.99265,590.8916,394.9631,590.9064C394.94827,590.91473,394.93658,590.9192,394.92618,590.9192C394.909,590.9192,394.89536,590.9069,394.87695,590.8793C394.85727,590.84973,394.8031,590.79315,394.75635,590.7513C394.70956,590.7095,394.67267,590.6553,394.67267,590.6307C394.67267,590.5667,394.58157,590.36487,394.49298,590.2344C394.40427,590.1025,394.30087,590.0462,394.15366,590.0462C394.14154,590.0462,394.1291,590.04663,394.11636,590.04736C394.00314,590.0547,393.9933,590.05963,393.94653,590.1532C393.88745,590.27625,393.88007,590.69714,393.9342,590.82764C393.96622,590.9088,394.09668,591.1082,394.25174,591.3224C394.29605,591.3839,394.34528,591.4651,394.36496,591.50696C394.40436,591.598,394.46835,591.6743,394.5496,591.7186C394.5872,591.73926,394.6816,591.74976,394.7978,591.74976C394.9173,591.74976,395.05978,591.73865,395.1871,591.7162C395.2597,591.70386,395.31015,591.69775,395.3526,591.69775C395.39508,591.69775,395.42953,591.70386,395.47015,591.7162C395.70892,591.7876,395.70154,591.78265,395.77783,591.9697C395.832,592.10266,395.92798,592.13464,396.29965,592.13464C396.48428,592.13464,396.69595,592.1223,396.77228,592.10754L396.9101,592.078L397.02087,592.1937C397.13162,592.30444,397.1341,592.30695,397.29163,592.30695C397.43686,592.30695,397.47623,592.2946,397.779,592.1445C397.95868,592.0534,398.20975,591.93036,398.33774,591.86633C398.46326,591.8048,398.57404,591.73834,398.57895,591.7211C398.58658,591.7029,398.6252,591.69025,398.65363,591.69025C398.67117,591.69025,398.6848,591.69507,398.6848,591.70636C398.6848,591.71375,398.6577,591.7679,398.62326,591.8294C398.5888,591.8909,398.56174,591.95984,398.56174,591.98694C398.56174,592.01154,398.52234,592.1494,398.4756,592.2922C398.35004,592.6638,398.33774,592.9543,398.4239,593.44165C398.45834,593.64105,398.50513,593.85767,398.5248,593.92163C398.58633,594.11365,398.72418,594.37946,398.82263,594.4927C398.90387,594.5887,399.3666,594.9407,399.41092,594.9407C399.42322,594.9407,399.46753,594.9678,399.51184,595.0022C399.55615,595.0367,399.60785,595.0637,399.62506,595.0637C399.6423,595.0637,399.74567,595.1302,399.85397,595.209C400.19858,595.4625,400.89764,595.87604,400.98624,595.87604C401.0084,595.87604,401.53268,596.1394,401.62622,596.196C401.67053,596.2231,401.71484,596.27234,401.72223,596.3043C401.73206,596.34863,401.7887,596.39044,401.95114,596.46924C402.07175,596.5258,402.25882,596.6317,402.36957,596.70306C402.48282,596.7769,402.58865,596.836,402.60587,596.836C402.6231,596.836,402.64774,596.8458,402.66248,596.85815C402.68463,596.8778,402.9874,597.0452,403.1646,597.1338C403.36646,597.23474,403.6372,597.3529,403.66922,597.3529C403.6889,597.3529,403.71106,597.36273,403.71844,597.3775C403.72583,597.38983,403.75537,597.4021,403.78244,597.4021C403.85138,597.4021,403.83905,597.44885,403.75046,597.54C403.64954,597.6384,403.59045,597.7123,403.52893,597.8132C403.46738,597.91656,403.35416,597.9855,403.1917,598.01996C403.12033,598.0347,403.05634,598.06177,403.04895,598.0815C403.04156,598.1012,403.02185,598.11597,403.00464,598.11597C402.96033,598.11597,402.67233,598.4507,402.67233,598.5048C402.67233,598.51715,402.6551,598.54175,402.6354,598.55896C402.61572,598.57623,402.5985,598.6058,402.5985,598.623C402.5985,598.6427,402.5788,598.7042,402.5542,598.7633C402.45572,598.9873,402.4385,599.06604,402.4385,599.3122L402.4385,599.5608L402.3425,599.7011C402.2613,599.81433,402.24158,599.866,402.2342,599.98663C402.22437,600.1122,402.22928,600.13434,402.27603,600.1639C402.30313,600.1811,402.32773,600.2131,402.32773,600.2328C402.32773,600.2869,402.37695,600.33124,402.44095,600.33124C402.48035,600.33124,402.49756,600.34845,402.50742,600.4125C402.5148,600.4568,402.5468,600.5355,402.5788,600.5848C402.6193,600.6517,402.63083,600.6707,402.68372,600.6707C402.70474,600.6707,402.73227,600.6677,402.77078,600.6635C402.80615,600.6601,402.8329,600.65784,402.85446,600.65784C402.91092,600.65784,402.93195,600.6734,402.98,600.72504C403.03662,600.7841,403.0711,600.7989,403.15723,600.7989C403.22125,600.7989,403.2631,600.8112,403.2631,600.826C403.2631,600.8391,403.28384,600.8457,403.32977,600.8457C403.35275,600.8457,403.38202,600.84406,403.41815,600.84076C403.6003,600.82355,403.65692,600.80383,403.65692,600.7595C403.65692,600.71765,403.716,600.6881,403.8366,600.666C403.8883,600.6561,403.93506,600.6365,403.94244,600.6192C403.94736,600.602,404.0286,600.5503,404.11966,600.50354C404.21075,600.4568,404.2895,600.41,404.29688,600.4026C404.30426,600.3952,404.35352,600.37305,404.40765,600.35583C404.4618,600.3386,404.5529,600.30414,404.61194,600.27954C404.66858,600.25244,404.7301,600.2328,404.74734,600.2328C404.76456,600.2328,404.8261,600.21063,404.88272,600.18353C404.93686,600.1565,405.00085,600.13434,405.023,600.13434C405.04517,600.13434,405.08453,600.122,405.10916,600.1097C405.13623,600.0949,405.2544,600.0679,405.37253,600.0457C405.4907,600.026,405.59406,599.99896,405.59653,599.98663C405.60144,599.97186,405.63837,599.96204,405.6753,599.96204C405.7147,599.96204,405.75406,599.9497,405.76144,599.9374C405.76883,599.9226,405.83774,599.9128,405.91406,599.9128C406.05682,599.9128,406.58603,599.8217,406.906,599.7405C407.00693,599.7159,407.22845,599.6814,407.39832,599.6666C407.82413,599.6297,408.27704,599.57556,408.5675,599.5288C408.68924,599.50867,408.8674,599.49896,409.08286,599.49896C409.55127,599.49896,410.1959,599.5447,410.8197,599.62726C410.96246,599.647,411.2111,599.6765,411.37354,599.6913C411.53598,599.70605,411.76984,599.73553,411.89044,599.7528C412.01352,599.77246,412.22766,599.79956,412.37042,599.81433C412.51318,599.83154,412.73718,599.866,412.8701,599.8906C413.003,599.9152,413.163,599.9374,413.22455,599.9374C413.3796,599.9374,414.01465,600.05554,414.29034,600.1368C414.86633,600.30414,415.078,600.3632,415.16415,600.3854C415.2183,600.40015,415.29706,600.42474,415.33646,600.442C415.44968,600.4912,415.56046,600.5183,415.85336,600.5774C416.0035,600.60443,416.2078,600.65125,416.31366,600.6783C416.49088,600.7226,416.64594,600.7497,417.23175,600.83826C417.36713,600.858,417.49268,600.8801,417.50992,600.8851C417.60345,600.91705,418.1179,600.97614,418.69632,601.02045C419.0557,601.0475,419.43475,601.082,419.5406,601.09674C419.62622,601.1084,419.87964,601.1155,420.16812,601.1155C420.24448,601.1155,420.3233,601.115,420.4021,601.11395L421.07162,601.10657L421.23898,601.19025C421.3399,601.24194,421.4162,601.2986,421.4359,601.3355C421.47037,601.40686,421.76328,601.5767,421.89618,601.6013C421.94296,601.6112,422.0045,601.63336,422.0316,601.6481C422.11557,601.70123,422.19595,601.7257,422.3027,601.7257C422.34924,601.7257,422.40082,601.72107,422.45987,601.7121C422.56323,601.6949,422.706,601.66534,422.77493,601.6432C422.88815,601.6087,422.91278,601.58905,422.96692,601.49304C423.01862,601.3995,423.02844,601.36255,423.0137,601.274C422.99893,601.1681,422.85123,600.91705,422.738,600.80383C422.70108,600.7669,422.68387,600.7078,422.67154,600.5848C422.66415,600.4937,422.64694,600.3977,422.63464,600.37555C422.61987,600.35095,422.61002,600.3189,422.61002,600.30414C422.61002,600.2746,422.49924,600.0014,422.45987,599.9374C422.44757,599.9177,422.42294,599.866,422.40326,599.82666C422.37372,599.7602,422.30972,599.6839,422.07343,599.43774C422.0365,599.4008,421.94788,599.3368,421.8765,599.295C421.8051,599.2531,421.73126,599.18665,421.71158,599.1497C421.5959,598.9233,421.36945,598.66974,421.175,598.54175C420.919,598.37195,420.89685,598.36456,420.66794,598.3301C420.6205,598.32336,420.54684,598.3203,420.4574,598.3203C420.1846,598.3203,419.76508,598.349,419.49628,598.3916C419.42688,598.40173,419.29987,598.4064,419.15753,598.4064C418.88596,598.4064,418.55872,598.3895,418.46988,598.36206C418.4034,598.3424,418.37634,598.3227,418.37634,598.28577C418.37634,598.25867,418.3591,598.2316,418.33942,598.22424C418.31973,598.2144,418.3025,598.1873,418.3025,598.1627C418.3025,598.13806,418.26804,598.079,418.22864,598.0322C418.15973,597.95593,418.15482,597.94116,418.18433,597.88947C418.20157,597.8599,418.23602,597.8181,418.26065,597.8009C418.2828,597.7836,418.3025,597.7541,418.3025,597.7393C418.3025,597.7221,418.32217,597.6975,418.3468,597.68274C418.38864,597.65564,418.42065,597.5818,418.4748,597.3701L418.50677,597.25446L418.63724,597.25446C418.7111,597.25446,418.83417,597.2323,418.91046,597.2052C419.03845,597.1609,419.38553,597.0674,419.79166,596.96643C420.08212,596.8926,420.58426,596.74,420.82547,596.65137C420.96085,596.5997,421.11346,596.5505,421.16516,596.53815C421.2759,596.5111,421.59344,596.3634,421.70914,596.2871C421.75098,596.25757,421.89618,596.17633,422.0316,596.10986C422.16696,596.04095,422.2851,595.9745,422.29495,595.9597C422.3048,595.94495,422.4377,595.8711,422.59033,595.7948C422.7454,595.72095,422.9497,595.5979,423.04816,595.5216C423.13577,595.4533,423.18225,595.4187,423.22574,595.40125L423.22995,595.40125Q423.24127,595.3892,423.25104,595.382Q423.59927,595.10333,424.11667,594.80115Q424.2707,594.68365,424.37656,594.6043L424.3808,594.6043C424.48755,594.4906,424.60898,594.3788,424.67023,594.3475C424.70715,594.33026,424.74408,594.3081,424.75146,594.3007C424.75885,594.29333,424.8056,594.26624,424.8573,594.23914C424.909,594.2121,424.97052,594.1727,424.99268,594.153C425.01483,594.1333,425.06653,594.0989,425.10593,594.07916C425.19208,594.03485,425.41605,593.79364,425.41605,593.7444C425.41605,593.72473,425.4259,593.70996,425.4382,593.70996C425.45544,593.70996,425.52435,593.56226,425.61298,593.3284C425.64252,593.25214,425.69174,593.02814,425.7139,592.8632C425.7262,592.782,425.74835,592.6294,425.76312,592.52844C425.81973,592.1642,425.79758,591.90326,425.68927,591.6054C425.6105,591.3962,425.60065,591.3716,425.5465,591.2608C425.38898,590.94086,425.2536,590.7464,425.01978,590.5051C424.91464,590.39667,424.88077,590.338,424.91818,590.336L424.92242,590.336C424.9411,590.33685,424.97354,590.34875,425.01978,590.37225C425.05914,590.3944,425.1133,590.4116,425.1379,590.4116C425.16254,590.4116,425.2536,590.4461,425.34222,590.49036C425.48004,590.5568,425.53912,590.5716,425.76065,590.5839C425.9034,590.59375,426.0831,590.6184,426.16187,590.643C426.2493,590.6672,426.31308,590.6795,426.36978,590.6795C426.4344,590.6795,426.4898,590.66345,426.5606,590.6307C426.6176,590.60345,426.65964,590.5906,426.71213,590.5906C426.75934,590.5906,426.81506,590.601,426.89783,590.62085C426.92874,590.6286,426.9574,590.63275,426.9851,590.63275C427.08972,590.63275,427.1807,590.57324,427.3286,590.42145C427.46643,590.2787,427.51813,590.2393,427.57474,590.2393C427.61166,590.2393,427.73718,590.20483,427.85287,590.163C427.96857,590.12115,428.11133,590.07935,428.17285,590.067C428.2344,590.0547,428.3944,590.0178,428.5298,589.9809C428.66516,589.944,428.8153,589.90704,428.86206,589.8947C429.2116,589.8135,429.2436,589.77655,429.3051,589.41473C429.3199,589.3187,429.3445,589.20306,429.3568,589.1563C429.4676,588.728,429.47742,588.2923,429.37897,588.10034C429.2838,587.91425,429.10504,587.7735,428.977,587.7735C428.956,587.7735,428.93637,587.7773,428.9187,587.7853C428.81284,587.83203,428.7513,588.0585,428.72424,588.48926C428.7119,588.7231,428.67255,588.8954,428.60117,589.0504C428.57846,589.0998,428.56097,589.1307,428.53888,589.1307C428.49155,589.1307,428.42313,588.9889,428.23688,588.58276C428.18762,588.4769,428.14825,588.3711,428.14825,588.3465C428.14825,588.32434,428.13843,588.2948,428.1261,588.28C428.11133,588.2677,428.06702,588.1569,428.02518,588.0363C427.92673,587.7582,427.84058,587.57605,427.76428,587.4948C427.73227,587.4603,427.7052,587.42096,427.7052,587.4062C427.7052,587.3422,427.54767,587.0641,427.45413,586.95825C427.37537,586.8721,427.32614,586.8376,427.25476,586.8253C427.2415,586.82336,427.2276,586.82245,427.21326,586.82245C427.0998,586.82245,426.95737,586.8812,426.86337,586.973C426.8191,587.0173,426.74277,587.069,426.696,587.0911C426.64923,587.1133,426.55325,587.1822,426.4843,587.2438C426.4154,587.3053,426.2997,587.38403,426.22342,587.4185C426.14957,587.453,426.07324,587.49725,426.05603,587.5194C426.00928,587.5736,425.8985,587.6179,425.6745,587.6671C425.41605,587.72375,425.11575,587.8714,424.81055,588.088C424.6333,588.21356,424.3921,588.344,424.24194,588.39075C424.1969,588.4062,424.1579,588.4136,424.1014,588.4136C424.04984,588.4136,423.9837,588.4074,423.88504,588.3957C423.60443,588.36127,423.2155,588.26526,423.06784,588.19385C423.0137,588.16925,422.95953,588.1471,422.9497,588.1471C422.93738,588.1471,422.74786,588.06836,422.52878,587.96985C422.17188,587.8099,422.02664,587.736,421.5196,587.4431C421.43835,587.39636,421.36453,587.35944,421.35468,587.35944C421.34238,587.35944,421.33008,587.35205,421.32513,587.3397C421.32022,587.3299,421.2242,587.25854,421.10852,587.17975C420.8033,586.973,420.60638,586.8327,420.36517,586.6407C420.24704,586.5496,420.13873,586.4733,420.12396,586.4733C420.11163,586.4733,420.09933,586.4635,420.09933,586.4536C420.09933,586.4413,420.00827,586.3675,419.8975,586.28625C419.61197,586.07947,419.3806,585.86285,419.33136,585.76196C419.3092,585.7127,419.22308,585.6069,419.14185,585.52563C419.004,585.3878,418.9917,585.3681,418.96707,585.21796C418.90555,584.85864,418.8711,584.5337,418.8194,583.8027C418.80463,583.58606,418.78247,583.3547,418.77017,583.29065C418.7554,583.2267,418.74554,583.08636,418.74554,582.983C418.74554,582.87714,418.73572,582.7811,418.7234,582.76636C418.70862,582.7541,418.69385,582.567,418.68646,582.3504C418.67908,582.1338,418.66678,581.83844,418.65692,581.6932C418.6471,581.53815,418.652,581.3018,418.66925,581.11475C418.6988,580.78735,418.7111,580.716,418.79477,580.36896C418.82184,580.25323,418.85385,580.08093,418.86862,579.9874C418.8834,579.8914,418.90555,579.74866,418.91785,579.6674C418.97693,579.2785,418.99908,578.73206,418.96954,578.33826C418.85385,576.7408,418.73325,576.374,418.20404,575.9851C418.1179,575.92114,417.6625,575.6577,417.37946,575.5101C417.16037,575.3919,417.121,575.3648,417.121,575.31805C417.121,575.29346,417.10376,575.27374,417.0816,575.27374C417.04962,575.27374,416.88962,575.14087,416.79364,575.03253C416.7764,575.0153,416.73947,574.97595,416.70993,574.94885C416.67795,574.9193,416.65332,574.8848,416.65332,574.87006C416.65332,574.85535,416.63364,574.8307,416.60657,574.8135C416.55978,574.78394,416.48102,574.6362,416.43427,574.4861C416.4195,574.43933,416.38504,574.32855,416.3555,574.2399C416.30872,574.0898,416.29395,574.0233,416.23486,573.6738C416.22256,573.6,416.2004,573.49414,416.1881,573.44C416.11182,573.1028,416.0626,572.8345,416.0626,572.74097C416.0626,572.6819,416.05273,572.59326,416.04044,572.544C416.0281,572.4948,416.00598,572.39386,415.9912,572.32C415.97644,572.2462,415.95428,572.1231,415.9395,572.04926C415.92474,571.9754,415.9026,571.77606,415.8903,571.6062C415.86813,571.3231,415.84106,571.1607,415.80167,571.0549C415.79276,571.03253,415.79794,571.0183,415.81366,571.0158L415.8178,571.0158Q415.80685,570.93384,415.7989,570.81116L415.79895,570.81116Q415.788,570.7329,415.76062,570.5552L415.75983,570.5552C415.7278,570.50104,415.64413,570.04565,415.6195,569.79706C415.60968,569.67395,415.59244,569.5312,415.58505,569.47705C415.57767,569.4229,415.56537,569.2851,415.55798,569.1719L415.5482,569.03613L415.55234,569.03613Q415.5434,568.99994,415.53717,568.9678Q415.53043,568.9335,415.52563,568.8978Q415.51523,568.7868,415.504,568.70953L415.50815,568.70953C415.47733,568.6592,415.46,568.60077,415.43738,568.4925C415.41522,568.38416,415.38077,568.2242,415.36108,568.13556C415.34384,568.047,415.3094,567.87463,415.28723,567.754C415.20847,567.311,415.1986,567.2593,415.16415,567.1879C415.14447,567.14606,415.11246,567.0575,415.0903,566.991C414.98447,566.671,414.94263,566.5652,414.88846,566.4815C414.85895,566.4298,414.83185,566.3757,414.83185,566.3584C414.83185,566.3412,414.8097,566.2993,414.78262,566.2649C414.75555,566.2304,414.7334,566.1861,414.7334,566.16394C414.7334,566.1418,414.71124,566.09503,414.68417,566.0606C414.6571,566.0261,414.63495,565.98676,414.63495,565.9744C414.63495,565.96216,414.60294,565.91534,414.5611,565.87103C414.52173,565.8267,414.48724,565.7849,414.48724,565.775C414.48724,565.76025,414.42325,565.6791,414.3199,565.56335C414.29526,565.5363,414.21158,565.4403,414.1328,565.34924C414.05157,565.2582,413.94327,565.15234,413.88666,565.11536C413.83005,565.0785,413.77097,565.0317,413.75375,565.01447C413.73407,564.9997,413.6676,564.95044,413.60605,564.9062C413.54205,564.8619,413.47562,564.8126,413.45837,564.79785C413.44113,564.78064,413.38947,564.75354,413.34268,564.7363C413.29593,564.7191,413.25653,564.69446,413.25653,564.68463C413.25653,564.6748,413.23438,564.6649,413.20978,564.6649C413.18268,564.6649,413.15808,564.6551,413.15317,564.6403C413.1493,564.6287,413.10934,564.60724,413.04285,564.57965L413.047,564.57965Q413.00726,564.5718,412.96487,564.56323Q412.84464,564.52606,412.752,564.49646L412.74805,564.49646Q412.6653,564.4927,412.53473,564.4713Q412.39337,564.46356,412.22913,564.4447Q412.09708,564.4292,411.97327,564.4058Q411.66718,564.38885,411.61417,564.3789Q411.50052,564.3593,411.46008,564.32623Q411.43143,564.32684,411.40555,564.32684Q411.34045,564.32684,411.29282,564.323Q411.16138,564.3136,411.08707,564.2968Q411.04178,564.28864,410.88748,564.24255Q410.87854,564.23956,410.87094,564.2356L410.87506,564.2356C410.81354,564.2302,410.76447,564.2276,410.7259,564.2276 Z"/> </g> <g style="fill:rgb(0,0,0); fill-opacity:1.0; stroke-linejoin: miter"> </g> </g> </svg>