<?xml version='1.0' encoding='utf-8'?>
<svg xmlns="http://www.w3.org/2000/svg" width="74.017166mm" height="62.784431mm" viewBox="0 0 74.017164 62.784431" version="1.1" id="svg832"> <defs id="defs826"/> <metadata id="metadata829"> </metadata> <g id="layer1" transform="translate(-18.621776,-227.34557)"> <path style="fill:#000000;stroke:#000000;stroke-width:0.26458332;stroke-linecap:butt;stroke-linejoin:miter;stroke-miterlimit:4;stroke-dasharray:none;stroke-opacity:1" d="m 55.40663,227.47786 v 0.0153 c -5.460121,0.31402 -6.664801,6.3298 -5.477322,8.31305 -1.402609,4.92972 7.564202,7.64318 -0.832289,12.68263 -1.753741,0.3809 -4.18304,-0.10814 -5.25337,1.15331 -3.55542,4.1903 -1.02595,6.80255 -1.15234,10.12133 -1.34295,2.20032 -1.44721,4.96321 -1.9222,7.55805 -3.33803,2.70652 -6.31636,5.81976 -11.53029,6.40571 -0.54733,-1.2463 -3.6199,-2.081 -3.93955,-3.62744 -0.20663,-0.99972 -1.40205,-0.91672 -1.56946,-0.2794 -1.7065,-0.30013 -1.11355,3.16092 -0.76789,4.4835 -1.39398,-0.2221 -2.78684,-0.44701 -3.97224,-0.96112 -0.26066,0.44474 -0.62435,0.89733 0.8967,1.21773 -0.17467,0.66594 -0.004,1.00533 1.03047,0.98489 1.61665,0.0767 1.96874,0.93633 3.72651,0.93633 1.75779,0 2.51699,-0.0562 2.7545,0.65693 -1.42149,0.28653 -1.46827,2.3956 -1.15332,3.57095 0.31493,1.17537 1.1866,1.5409 2.2898,2.17783 3.57296,2.83271 7.17218,6.44958 11.91472,7.11019 l 15.181501,-0.12789 15.18148,0.12789 c 4.742539,-0.66061 8.34177,-4.27748 11.914719,-7.11019 1.103191,-0.63693 1.974871,-1.00246 2.289799,-2.17783 0.314952,-1.17535 0.268161,-3.28442 -1.153318,-3.57095 0.2375,-0.71313 0.996709,-0.65693 2.7545,-0.65693 1.75777,0 2.109848,-0.85963 3.7265,-0.93633 1.034018,0.0205 1.204151,-0.31895 1.029481,-0.98489 1.52105,-0.3204 1.158359,-0.77299 0.897689,-1.21773 -1.185389,0.51411 -2.578251,0.73902 -3.97224,0.96112 0.34567,-1.32258 0.93862,-4.78363 -0.767879,-4.4835 -0.167392,-0.63732 -1.362851,-0.72032 -1.569493,0.2794 -0.319619,1.54644 -3.392188,2.38114 -3.939519,3.62744 -5.213929,-0.58595 -8.192259,-3.69919 -11.53029,-6.40571 -0.474991,-2.59484 -0.579279,-5.35773 -1.9222,-7.55805 -0.12636,-3.31878 2.40208,-5.93103 -1.153319,-10.12133 -1.07034,-1.26153 -3.498652,-0.77241 -5.25239,-1.15331 -8.396501,-5.03945 0.57032,-7.75291 -0.832291,-12.68263 1.187481,-1.98325 -0.0173,-7.99903 -5.47732,-8.31305 v -0.0153 c -0.0765,0 -0.148979,0.006 -0.223909,0.008 -0.075,-0.002 -0.147262,-0.008 -0.22393,-0.008 z m -8.324961,36.34065 c 0.406159,1.96021 0.321659,4.06701 1.494171,5.79733 0,0 -1.676072,3.19349 -1.902381,4.39335 -0.22634,1.19981 0.0911,2.53651 0.0911,2.53651 -1.28138,0.18196 -1.921339,0.63327 -2.038149,1.26826 -3.61455,-1.60821 -8.76317,-1.62624 -12.77673,-2.00544 4.13328,-0.8877 9.72993,-2.1913 13.183961,-4.60736 1.45638,-2.39376 1.412219,-4.91219 1.947968,-7.38265 z m 17.097761,0 c 0.53575,2.47046 0.491588,4.98889 1.947969,7.38265 3.454011,2.41606 9.050681,3.71966 13.18396,4.60736 -4.01356,0.3792 -9.16218,0.39723 -12.77673,2.00544 -0.116771,-0.63499 -0.756769,-1.0863 -2.038149,-1.26826 0,0 0.317479,-1.3367 0.0911,-2.53651 -0.22633,-1.19986 -1.902399,-4.39335 -1.902399,-4.39335 1.172509,-1.73032 1.088009,-3.83712 1.494168,-5.79733 z m 22.784099,7.44408 c 0.301379,2.19625 0.114091,3.66878 -1.479309,3.05474 -1.764131,-1.34291 0.72861,-2.07354 1.479309,-3.05474 z m -62.73731,0.0932 c 0.82341,0.92101 3.36368,1.46022 1.70719,2.93385 -1.54193,0.73389 -1.84003,-0.72105 -1.70719,-2.93385 z" id="path826"/> </g> </svg>