<?xml version='1.0' encoding='utf-8'?>
<svg xmlns="http://www.w3.org/2000/svg" version="1.0" width="2000.000000pt" height="2000.000000pt" viewBox="0 0 2000.000000 2000.000000" preserveAspectRatio="xMidYMid meet"> <metadata> Created by potrace 1.13, written by Peter Selinger 2001-2015 </metadata> <g transform="translate(0.000000,2000.000000) scale(0.100000,-0.100000)" fill="#000000" stroke="none"> <path d="M9920 14768 c-63 -5 -269 -7 -457 -4 -427 8 -400 14 -698 -174 -128 -82 -325 -176 -407 -195 -34 -8 -114 -26 -176 -41 -88 -21 -125 -25 -175 -20 -96 10 -188 -22 -328 -116 -58 -39 -75 -46 -139 -52 -49 -4 -141 -29 -286 -77 -213 -70 -298 -108 -597 -268 -141 -75 -218 -104 -442 -166 -240 -66 -310 -89 -475 -157 -307 -127 -422 -197 -536 -325 -146 -163 -177 -212 -226 -353 -18 -52 -81 -186 -141 -296 -59 -111 -107 -207 -107 -213 0 -7 -20 -33 -43 -59 -68 -73 -192 -236 -272 -357 -105 -159 -179 -294 -227 -420 -41 -109 -42 -112 -46 -263 -4 -163 7 -315 39 -502 24 -141 42 -197 131 -420 76 -187 102 -244 153 -330 18 -30 82 -150 143 -267 61 -116 139 -253 174 -305 34 -51 76 -121 92 -156 l30 -62 -14 -183 c-16 -202 -17 -267 -5 -408 8 -94 7 -100 -28 -210 -39 -121 -146 -616 -196 -909 -77 -441 -112 -971 -91 -1357 17 -329 48 -455 175 -708 l70 -140 275 -3 c156 -2 348 2 445 9 101 7 397 13 730 14 431 1 604 5 750 18 105 9 269 24 365 32 96 9 216 23 265 32 154 27 215 28 260 4 35 -19 57 -21 185 -21 80 0 245 -5 368 -10 173 -7 260 -6 390 4 170 15 205 13 314 -18 72 -21 253 -46 325 -46 50 0 67 5 99 28 37 26 44 27 145 25 58 -1 132 -6 164 -12 84 -16 215 -14 264 4 29 10 61 13 100 9 68 -8 92 2 139 57 23 26 44 40 70 45 49 9 116 40 139 66 13 15 19 40 21 97 5 110 8 109 -178 82 -168 -24 -207 -25 -329 -11 -47 6 -142 14 -211 19 -98 6 -135 13 -169 31 -25 12 -85 28 -140 36 -104 14 -118 18 -381 101 -96 30 -321 88 -500 129 -179 40 -392 91 -475 113 -134 36 -162 40 -260 39 -72 -1 -172 8 -290 25 -99 15 -196 28 -215 29 l-35 3 80 54 c221 150 325 250 433 413 128 197 224 466 227 643 2 95 3 100 24 103 15 3 28 17 41 47 21 48 37 60 93 69 20 3 53 8 72 11 74 12 139 101 185 254 17 56 21 89 18 144 -6 87 -25 128 -107 225 -32 40 -64 87 -69 104 -95 308 -116 356 -183 433 -67 76 -179 115 -266 93 -102 -25 -233 -192 -233 -296 0 -42 -1 -43 -30 -40 -28 3 -34 10 -65 82 -19 44 -47 92 -62 108 -60 63 -178 116 -398 178 -232 66 -267 71 -401 60 -103 -8 -122 -7 -143 7 -23 14 -25 14 -37 -2 -7 -10 -15 -23 -17 -29 -2 -6 -7 -8 -10 -5 -4 3 13 37 38 75 78 120 85 141 95 281 10 142 13 153 100 443 l62 205 9 180 c9 195 20 252 98 495 82 255 100 301 175 430 17 30 26 60 26 90 0 53 1 54 60 101 57 46 96 117 105 192 5 44 15 68 42 104 19 25 36 52 37 60 5 34 198 276 361 452 254 274 289 305 360 319 112 23 122 20 307 -102 126 -83 589 -328 713 -377 223 -88 547 -103 848 -39 197 43 475 162 670 289 124 80 300 174 350 186 49 13 485 -15 642 -40 83 -14 254 -31 380 -40 127 -9 318 -23 425 -32 113 -10 308 -17 465 -18 264 -1 273 -2 415 -33 80 -17 155 -40 169 -50 51 -38 47 -87 -14 -170 -54 -75 -182 -435 -219 -622 -62 -309 -59 -431 18 -806 8 -39 26 -192 40 -340 50 -522 68 -681 102 -894 53 -330 72 -471 99 -736 28 -271 31 -400 11 -457 -21 -58 -88 -139 -249 -300 -170 -169 -188 -199 -195 -319 -7 -126 18 -165 319 -473 105 -107 133 -149 159 -230 7 -22 30 -78 50 -125 20 -47 67 -182 104 -300 93 -302 106 -324 278 -503 182 -188 151 -179 558 -182 l294 -3 27 -65 c36 -90 73 -150 111 -182 32 -27 34 -27 148 -23 82 3 128 0 160 -10 34 -10 69 -12 145 -6 55 4 124 7 154 6 35 -1 64 4 82 15 24 15 35 15 76 5 26 -6 100 -11 164 -10 l116 1 51 47 c64 59 87 130 62 194 -14 38 -46 49 -160 57 -106 7 -277 52 -407 109 -89 38 -88 36 -87 244 1 163 4 196 33 329 58 273 92 691 71 882 -7 66 -14 219 -15 340 -2 121 -7 276 -13 345 -15 161 -15 756 -1 931 5 73 28 274 49 444 21 171 46 411 55 535 9 124 29 333 45 465 64 525 68 577 80 1060 7 259 15 418 30 530 50 403 76 1049 49 1241 -20 142 -79 257 -193 369 -90 90 -140 120 -309 185 -83 32 -260 100 -392 150 -281 108 -615 241 -840 335 -359 149 -884 301 -1380 400 -179 35 -758 122 -1140 171 -153 19 -277 27 -530 34 -398 11 -625 30 -807 70 -147 32 -207 35 -418 18z m-273 -44 c-3 -3 -12 -4 -19 -1 -8 3 -5 6 6 6 11 1 17 -2 13 -5z m1516 -81 c-13 -2 -33 -2 -45 0 -13 2 -3 4 22 4 25 0 35 -2 23 -4z m-3185 -340 c-10 -2 -26 -2 -35 0 -10 3 -2 5 17 5 19 0 27 -2 18 -5z m7929 -1520 c-3 -10 -5 -4 -5 12 0 17 2 24 5 18 2 -7 2 -21 0 -30z m0 -275 c-3 -8 -6 -5 -6 6 -1 11 2 17 5 13 3 -3 4 -12 1 -19z m-4800 -244 c-3 -3 -12 -4 -19 -1 -8 3 -5 6 6 6 11 1 17 -2 13 -5z m4720 -716 c-3 -7 -5 -2 -5 12 0 14 2 19 5 13 2 -7 2 -19 0 -25z m-10 -330 c-2 -13 -4 -5 -4 17 -1 22 1 32 4 23 2 -10 2 -28 0 -40z m-1257 -2753 c41 -219 49 -374 25 -480 -12 -57 -20 -74 -26 -63 -22 39 -40 149 -60 363 -21 225 -21 363 -2 515 7 55 7 54 19 -55 7 -60 27 -186 44 -280z m1027 248 c-3 -10 -5 -4 -5 12 0 17 2 24 5 18 2 -7 2 -21 0 -30z m-1130 -35 c-3 -7 -5 -2 -5 12 0 14 2 19 5 13 2 -7 2 -19 0 -25z m1120 -415 c-2 -16 -4 -5 -4 22 0 28 2 40 4 28 2 -13 2 -35 0 -50z m-940 -135 c-3 -7 -5 -2 -5 12 0 14 2 19 5 13 2 -7 2 -19 0 -25z m970 -740 c-3 -7 -5 -2 -5 12 0 14 2 19 5 13 2 -7 2 -19 0 -25z m-90 -1335 c-3 -10 -5 -4 -5 12 0 17 2 24 5 18 2 -7 2 -21 0 -30z m-850 -469 c-3 -3 -12 -4 -19 -1 -8 3 -5 6 6 6 11 1 17 -2 13 -5z m-6560 -210 c-3 -3 -12 -4 -19 -1 -8 3 -5 6 6 6 11 1 17 -2 13 -5z m7590 -70 c-3 -3 -12 -4 -19 -1 -8 3 -5 6 6 6 11 1 17 -2 13 -5z"/> </g> </svg>