<?xml version='1.0' encoding='utf-8'?>
<svg xmlns="http://www.w3.org/2000/svg" version="1.1" width="600px" height="976px" viewBox="0 0 600 976"> <g id="layer1"> <g> <g style="fill:rgb(0,0,0); fill-opacity:1.0; stroke-linejoin: miter"> <path d="M258.51398,526.13086C258.492,526.14557,258.19855,526.2042,257.85376,526.24817C255.63104,526.549,251.70642,527.95746,249.18289,529.3732C245.29495,531.5447,243.36563,533.9654,243.80579,536.1148C243.86447,536.41565,244.04785,536.8997,244.24591,537.2739C244.42932,537.63336,244.5687,537.9781,244.54669,538.0441C244.488,538.2348,244.36328,540.0248,244.31927,541.2498C244.26794,542.54095,244.37796,544.40424,244.52469,544.89575C244.58337,545.0865,244.76675,545.4459,244.93549,545.6954C245.13354,545.9888,245.23627,546.2235,245.23627,546.37756C245.23627,546.5976,244.90616,547.6026,244.51001,548.6076C244.23859,549.2972,243.69574,550.33154,243.19693,551.11646C242.75677,551.7987,242.70541,551.9234,242.71274,552.2315C242.72006,552.6863,242.94748,552.93567,243.68842,553.30255C244.1799,553.5446,244.29727,553.5739,244.95016,553.59595C245.43433,553.618,245.69843,553.6619,245.75711,553.72797C245.83044,553.816,245.76443,554.3515,245.5517,555.4593C245.52234,555.62067,245.56638,555.6866,245.82312,555.8774C245.99185,555.99475,246.28528,556.1561,246.46866,556.22217C246.96017,556.4056,247.01883,556.46423,246.91617,556.7503C246.87213,556.87506,246.82813,557.2051,246.82813,557.4692L246.81345,557.96075L247.19489,558.1881C247.8331,558.5696,247.81842,558.5256,247.88446,559.7873C247.95782,561.0491,247.98715,561.23975,248.17789,561.61395C248.59604,562.4502,249.70374,562.4575,252.2786,561.6433C252.98282,561.42316,253.99515,561.1371,254.5307,561.0197C256.10785,560.6676,257.78043,560.71893,257.78043,561.1224C257.78043,561.32776,256.96613,562.1128,256.24722,562.5896C254.95615,563.4479,251.80176,564.8563,250.32727,565.2231C248.72073,565.6339,247.70105,565.92004,246.63007,566.25745C246.08722,566.4335,245.37564,566.6316,245.05286,566.70496C243.40964,567.057,242.54404,567.4312,240.21127,568.8176C238.83948,569.6319,238.03253,570.2847,236.93948,571.4512C236.39667,572.03064,235.2963,573.1604,234.48935,573.96735C233.6824,574.77423,232.59674,575.948,232.06857,576.57153C229.6991,579.4104,228.78214,580.3421,227.11691,581.6039C226.49338,582.0807,225.56906,582.83624,225.0629,583.28375C223.95517,584.2667,223.47104,584.6408,222.2753,585.44775C220.89615,586.37213,218.84216,587.8539,217.69046,588.7562C216.61942,589.59247,214.8735,590.8029,214.73413,590.8029C214.69012,590.8029,214.44806,590.56805,214.19128,590.27466C213.93454,589.9886,213.42834,589.4311,213.06894,589.0496C212.70215,588.6608,212.06393,587.84656,211.64578,587.24506C211.22763,586.63617,210.4794,585.63116,209.98788,585.0076C208.7555,583.44507,208.41803,582.9756,206.59143,580.2394C205.08026,577.9873,204.30267,576.7182,204.05325,576.1313C203.8772,575.71326,203.19498,574.5542,202.45404,573.43915C201.30234,571.69324,200.78152,570.77625,200.32669,569.7126C199.98923,568.9277,199.94525,568.7663,199.74716,567.68054C199.61511,566.969,199.60043,566.69025,199.64447,565.74396C199.6958,564.48956,199.6958,564.48956,200.15063,563.1838C200.59076,561.90735,200.74481,561.005,200.68613,559.9194C200.64948,559.1638,200.45874,557.9093,200.268,557.2051C200.23132,557.06573,200.18729,556.7503,200.15796,556.50824C199.9599,554.64496,199.40973,552.83307,198.84485,552.16547C198.74216,552.0407,198.50009,551.86475,198.324,551.7767C198.00858,551.6226,197.97925,551.6226,197.81052,551.7326C197.50241,551.93805,197.33368,552.3782,197.26767,553.1485C197.20166,553.9334,197.23099,554.11676,197.52441,554.7476C197.7005,555.12915,197.72983,555.3198,197.77383,556.1415C197.81787,556.84564,197.8692,557.19775,197.98657,557.4986C198.22867,558.1368,198.19934,558.3201,197.73715,558.9217C197.18698,559.64795,197.09161,559.69196,196.07928,559.714C194.81018,559.736,194.238,559.4719,193.91522,558.7089C193.61447,557.99,193.73184,556.2808,194.14264,555.3859C194.37738,554.8797,194.45807,554.7917,195.38971,553.99207C196.8642,552.73035,197.40704,552.1361,197.40704,551.76935C197.40704,551.1385,196.8422,551.2558,195.09628,552.23883C194.53143,552.5616,193.81985,552.99445,193.5191,553.20715C192.64615,553.8233,191.7732,554.821,191.3404,555.6939C191.23035,555.9214,191.1203,556.10474,191.09094,556.10474C191.02493,556.10474,190.00528,554.9164,189.7265,554.5056C189.6018,554.3149,189.43307,553.9481,189.36707,553.69135C189.19098,553.0605,189.27167,552.701,189.88791,551.4319C190.4234,550.3095,190.58481,549.84,190.58481,549.37787C190.58481,548.99646,190.47476,548.9304,190.12997,549.1065C188.75085,549.81805,187.36438,551.95276,187.04895,553.838C187.00491,554.1241,186.94623,554.3222,186.9169,554.2928C186.88754,554.26355,186.76285,553.97003,186.63815,553.6473C186.42542,553.08984,186.41806,552.99445,186.38141,551.7033C186.35938,550.7131,186.31537,550.2436,186.22736,549.9574C186.08795,549.5319,185.8899,549.2825,185.67715,549.2825C185.40573,549.2825,185.05362,549.6053,184.87756,550.01605C184.72351,550.3828,184.71619,550.5076,184.74551,551.40985C184.76752,552.3269,184.94357,553.2732,185.20032,553.9407C185.22968,554.02136,185.01694,553.8307,184.73083,553.5226C183.97525,552.72296,183.3884,552.4736,183.27835,552.90643C183.23434,553.0824,183.47644,553.9114,183.6965,554.3588C183.76987,554.5056,184.01193,555.1658,184.23203,555.82605C184.73083,557.32983,184.80423,557.5059,185.09766,557.83606C185.22968,557.98267,185.50845,558.3862,185.70651,558.73096C185.98526,559.21515,186.176,559.4425,186.49878,559.68463C186.72617,559.86066,187.23233,560.3815,187.62115,560.8437C188.0026,561.29846,188.85355,562.1788,189.50644,562.795C191.57513,564.7389,193.15964,566.3821,193.68048,567.11566C194.27469,567.9373,194.83954,569.0597,195.0596,569.8227C195.57309,571.6126,195.68314,571.86926,196.65881,573.3438C197.37036,574.42944,197.85452,575.3611,198.47073,576.85754C198.66147,577.31976,199.06494,578.19275,199.36569,578.8016C200.36337,580.79694,201.13364,582.67487,202.0946,585.4845C202.24863,585.92456,202.39536,586.3427,202.41736,586.4014C202.44672,586.46014,202.57877,586.8269,202.71082,587.2084C202.98224,587.9566,203.45905,589.123,203.75983,589.7759C203.86987,589.9959,204.00925,590.32605,204.08258,590.5094C204.45673,591.4484,206.28333,595.1163,207.45706,597.29504C207.84586,598.02124,208.35934,598.9749,208.58676,599.41504C208.8215,599.8552,209.03424,600.26605,209.07092,600.33203C209.56244,601.25635,210.68478,602.89215,211.10294,603.28094C211.53574,603.6991,212.34268,604.21265,212.63614,604.2713C213.03223,604.34467,213.82452,604.12463,214.63876,603.7211C215.27698,603.3984,216.25998,602.9655,218.03525,602.21735C218.38736,602.0706,219.16495,601.7992,219.75912,601.6157C222.15793,600.8822,222.81079,600.6254,223.18494,600.28064C223.29498,600.17065,223.51505,599.8992,223.6691,599.6718C223.82315,599.4518,224.07257,599.15826,224.22662,599.02625C224.46872,598.8062,224.53473,598.7842,224.8428,598.81354C225.19495,598.85016,225.23895,598.8796,226.44202,599.7012C226.87485,600.0019,227.20493,600.08997,227.6084,600.0093C227.83582,599.9726,228.0192,599.81854,228.56204,599.2683C229.28098,598.5274,229.44232,598.432,229.94852,598.432C230.33731,598.432,230.49869,598.50543,232.0539,599.4518C234.73141,601.07294,236.33063,601.7918,238.19391,602.21735C238.63406,602.32007,239.16959,602.3493,240.94482,602.364C242.15524,602.3714,243.57837,602.42267,244.09921,602.46674C244.62741,602.51807,245.46368,602.57684,245.96985,602.6061C246.60071,602.6428,246.96017,602.69415,247.1142,602.78217C247.31226,602.8848,247.81842,603.4204,247.97247,603.6918C248.03119,603.7872,248.17053,604.4987,248.39063,605.8045C248.47131,606.3253,248.62537,607.1836,248.72073,607.71173C249.57169,612.4213,249.48364,613.1476,247.67905,616.0306C246.30731,618.2166,245.7424,619.9478,244.97952,624.2539C244.8768,624.8408,244.77411,625.413,244.75208,625.53766C244.7081,625.72845,244.71542,625.74304,244.81812,625.66235C245.00885,625.501,245.03085,625.6844,244.86215,626.1759C244.54669,627.10754,244.1799,627.40094,243.13089,627.55505C242.52203,627.643,240.46799,627.643,239.77112,627.55505C239.49237,627.5257,238.92749,627.45966,238.52402,627.40826C238.12054,627.36426,237.34296,627.2396,236.80014,627.1369C235.71442,626.9388,234.26929,626.67474,233.02219,626.4547C232.58203,626.3739,231.65775,626.1906,230.9682,626.0439C229.87515,625.8164,229.08289,625.6184,226.67676,625.0022C224.58609,624.4593,224.13126,624.43,221.02087,624.58405C218.52673,624.71606,218.43869,624.71606,217.34567,624.5767C215.75381,624.37866,214.4187,624.3859,213.61911,624.60596C211.64578,625.14154,210.03192,626.1906,208.90219,627.66504C207.00958,630.14453,206.33469,632.88074,206.9729,635.5143C207.4497,637.4876,207.47906,637.561,208.27866,638.3019C208.99023,638.96216,209.26898,639.1675,210.09793,639.593C210.97089,640.04047,211.23499,640.2605,211.80716,641.00146C212.05658,641.33154,212.48206,641.8377,212.74615,642.13116C213.01758,642.41724,213.44305,642.9454,213.69977,643.3049C214.50671,644.43463,214.69745,644.6326,215.15225,644.8014C215.4017,644.8894,215.87851,644.9774,216.39932,645.0214C217.67575,645.12415,217.82248,645.1755,219.39233,646.12177C220.19196,646.5986,222.28265,647.677,222.9722,647.9631C223.13358,648.0292,223.7131,648.2712,224.25595,648.5059C225.64243,649.08545,227.9972,649.67957,230.16125,649.9951C232.50137,650.3325,234.63608,650.3692,237.3136,650.1124C240.12323,649.841,240.58536,649.7823,245.01617,649.0928C250.0852,648.30054,250.6207,648.2272,253.48901,647.9557C253.93646,647.91174,254.64072,647.84564,255.06616,647.8017C255.49164,647.7577,256.92947,647.677,258.25726,647.61835C259.59235,647.5597,260.86142,647.4789,261.0815,647.44226C261.71234,647.3322,262.98877,647.2221,264.31656,647.1708L265.527,647.11945L266.22388,647.34686C268.1532,647.9778,269.58368,648.2858,271.38824,648.4619C272.1952,648.5426,273.37628,648.66003,274.0218,648.72595C275.29086,648.8507,277.68234,648.86536,284.29922,648.78467C288.26785,648.74066,289.28018,648.77734,291.52493,649.0781C292.30988,649.18085,293.43225,649.3128,294.0191,649.3715C294.60596,649.4375,295.5596,649.5476,296.14648,649.6283C301.94174,650.4058,305.0301,650.55255,308.00107,650.1931C308.91068,650.08307,309.35083,650.0171,310.89133,649.75305C312.27048,649.5109,313.77432,649.0487,317.4936,647.7136C319.59158,646.95807,320.16376,646.694,321.6016,645.8504C323.0394,644.9994,323.24478,644.8381,323.67032,644.2365C323.8977,643.91376,324.32318,643.39294,324.63126,643.0628C325.65826,641.9624,326.1131,641.33154,326.66327,640.2459C327.0374,639.50494,327.49222,638.2432,327.62427,637.5683C327.74896,636.9301,327.75632,635.0961,327.62427,634.4873C327.1401,632.1765,325.4382,629.7411,323.34747,628.3619C320.91934,626.7628,316.9507,626.1759,312.35855,626.7481C311.69098,626.8288,310.6713,626.91675,310.08444,626.9388C308.8593,626.99744,308.5219,626.9461,306.65863,626.41797C305.35287,626.0439,303.99576,625.7798,302.7487,625.64764C302.2865,625.6037,301.5309,625.501,301.07614,625.4203C299.99777,625.23694,299.68228,625.24426,298.57465,625.457C296.40323,625.87506,295.79434,625.9485,294.3859,625.9485C292.14114,625.9485,290.9234,625.6844,290.14578,625.0242C289.74237,624.67944,289.62494,624.3273,289.54425,623.2416C289.44156,621.9431,289.42694,621.8698,288.9868,620.5127C288.7667,619.84515,288.47324,618.86945,288.32654,618.3486C288.0111,617.175,287.73233,616.456,287.21884,615.5097C286.8594,614.83484,286.53662,614.3433,285.12082,612.31134C283.85907,610.4993,283.64633,609.5751,283.96912,607.27167C284.04245,606.7068,284.18185,605.41565,284.2625,604.4107L284.42395,602.57684L284.71735,601.9679C285.08414,601.205,285.34088,601.0069,286.52927,600.5448C288.0478,599.9505,289.20682,599.78186,292.58862,599.67914C294.96545,599.61316,295.50827,599.5545,296.29318,599.2977C297.34222,598.9602,299.00745,597.8671,301.34753,595.9892C301.89038,595.54913,302.25717,595.351,302.52124,595.351C302.5946,595.351,302.9541,595.49036,303.3135,595.6592L303.95905,595.9746L305.60965,595.9746L307.26016,595.9746L307.8617,596.2827C308.19183,596.4587,308.71997,596.7449,309.0354,596.9356C310.2018,597.6251,310.68597,597.8159,312.98212,598.4761C313.51025,598.6228,314.14847,598.8062,314.41254,598.8869C314.91873,599.0336,316.19513,599.25366,317.33954,599.38574C317.71362,599.4371,318.1978,599.51776,318.4032,599.5691C318.6086,599.6205,318.792,599.64246,318.81403,599.6205C318.836,599.5911,319.11478,599.5691,319.4375,599.5691C319.95105,599.5691,320.07578,599.5398,320.4132,599.34906C320.8607,599.10693,321.55026,598.4027,321.93906,597.7939C322.43784,597.01624,323.19342,595.42444,323.6776,594.1407C323.78763,593.85455,324.19113,592.8202,324.5799,591.8299C324.96872,590.83954,325.33548,589.9006,325.3942,589.7392C325.45285,589.58514,325.57758,589.2844,325.6656,589.07904C325.75366,588.8809,325.86368,588.60956,325.91504,588.4921C325.95905,588.3674,326.1718,587.80994,326.39185,587.24506C326.7586,586.31335,326.98605,585.7045,327.6169,583.9439C327.88098,583.2103,328.43857,581.5232,328.60724,580.9363C328.6733,580.6942,328.7613,580.4228,328.79797,580.32745C328.864,580.15137,329.7296,577.2464,330.36786,575.03094C330.55856,574.36346,330.7933,573.5418,330.89603,573.1971C331.53424,570.9964,332.24582,569.0083,332.84,567.7686C333.06006,567.30646,333.33148,566.62427,333.4342,566.2648C334.22647,563.4992,334.30716,563.24976,334.80597,562.2742C335.4222,561.0637,336.03104,560.1248,336.82327,559.1491C337.14612,558.74567,337.7623,557.9681,338.18042,557.42523C338.64993,556.8164,339.41287,555.9654,340.1611,555.2244C341.10742,554.28546,341.48886,553.8454,341.87766,553.2585C342.3765,552.4882,342.88998,551.5272,343.17606,550.8157C343.46948,550.07477,344.5625,546.7004,344.5625,546.5169C344.5625,546.0328,344.21774,545.9154,343.74097,546.24554C343.46216,546.4436,342.9413,547.07446,342.78726,547.4119C342.70657,547.59534,342.58185,547.6613,342.58185,547.52924C342.58185,547.4853,342.64056,547.23584,342.70657,546.9571C342.88266,546.2382,342.88998,544.2062,342.70657,543.6193C342.42047,542.67303,341.78232,542.4529,341.41553,543.17914C341.1954,543.6266,341.17343,543.83203,341.26147,544.99115C341.3495,546.11346,341.34216,546.1574,341.0927,547.33856C340.9827,547.84467,340.87997,547.88873,340.8066,547.4632C340.68192,546.715,339.28812,544.3456,338.66458,543.81C338.22443,543.4286,337.1534,542.8197,336.97733,542.8418C336.88934,542.8564,336.79395,542.9518,336.7573,543.06915C336.69858,543.2305,336.7206,543.3186,336.8453,543.5459C336.9407,543.6927,337.20477,544.2208,337.4468,544.71234C337.68158,545.19653,337.909,545.62195,337.95303,545.644C337.9897,545.67334,338.1291,545.9154,338.2611,546.1868C338.5619,546.825,338.61322,547.35315,338.42252,547.8521C338.2758,548.2189,337.12408,550.03076,337.0067,550.07477C336.97003,550.0894,336.88934,550.0087,336.81598,549.8914C335.89166,548.38025,334.9087,547.6026,332.45853,546.4656C330.57324,545.5853,329.95703,545.6513,330.6979,546.64905C330.86667,546.8691,331.10873,547.1991,331.24814,547.38257C331.41684,547.6026,331.6589,547.8007,331.95972,547.9621C332.82532,548.4169,333.38284,548.879,333.61758,549.3411C333.72766,549.56866,333.91104,549.906,334.02106,550.0894C334.12378,550.2728,334.26312,550.60297,334.3218,550.82306C334.38052,551.0431,334.48325,551.38055,334.54922,551.56396C334.65927,551.8794,334.65927,551.9307,334.51987,552.45154C334.20444,553.6546,333.72766,554.1241,332.82532,554.1241C332.45853,554.1241,331.50485,553.9407,331.24814,553.8233C330.874,553.6546,330.4045,553.2292,330.28714,552.9651C330.1551,552.64966,330.1551,552.0041,330.28714,551.5199C330.34586,551.28516,330.36786,550.9258,330.34586,550.5589C330.3165,550.07477,330.35315,549.81805,330.5072,549.20917C330.6979,548.46094,330.70526,548.2702,330.5806,547.25775C330.52924,546.8177,330.09637,546.27484,329.80298,546.27484C329.50223,546.27484,329.2381,546.4509,328.9447,546.8397C328.3872,547.59534,328.09375,548.9157,328.02774,550.9697C328.0057,551.6372,327.9397,552.6276,327.8737,553.1631C327.68298,554.68896,327.7343,555.4886,328.10843,556.6183C328.27713,557.1244,328.48254,557.7846,328.5706,558.0854C328.6586,558.3862,328.79062,558.775,328.8713,558.9511C329.6049,560.5649,329.6269,561.8046,328.97403,564.064C328.35052,566.2061,327.64624,567.9373,326.34784,570.48285C323.11273,576.85754,323.13477,576.8209,322.46722,577.8113C321.1468,579.7772,320.93405,580.10736,320.73596,580.4741C320.42786,581.0317,319.54022,582.4914,319.26147,582.8803C319.1368,583.0636,318.89468,583.40845,318.71866,583.6505C318.5499,583.8926,318.22714,584.3401,317.99973,584.6408C317.7797,584.94165,317.43488,585.43317,317.23682,585.72656C317.04608,586.0273,316.84067,586.28406,316.77466,586.306C316.63528,586.36475,315.54227,585.82184,314.43457,585.147C312.99673,584.27405,311.779,583.5552,309.2775,582.11C307.90573,581.3251,306.48254,580.4375,305.92508,580.0267C304.81732,579.2271,303.7243,578.4788,302.778,577.89197C302.41855,577.6719,301.8097,577.1877,301.42822,576.8209C301.0468,576.46155,300.48193,575.96265,300.18115,575.71326C299.8804,575.4711,299.24954,574.8769,298.78735,574.40015C298.0391,573.6299,297.1735,572.78625,296.02908,571.7299C295.3542,571.099,293.24887,569.2651,292.69864,568.82495C291.38556,567.77594,290.6373,567.29913,288.73734,566.31616C286.9768,565.4065,286.58063,565.28174,285.28955,565.20105C284.2625,565.13513,283.6023,565.0177,281.7317,564.57025C279.8244,564.1154,279.5603,564.03467,278.13718,563.4626C277.37424,563.16174,276.56732,562.8463,276.35455,562.7656C275.9878,562.6262,275.96576,562.6043,276.0098,562.4209C276.03183,562.3182,276.07584,562.20807,276.10516,562.1788C276.13452,562.1494,276.4206,562.16406,276.74338,562.20074C277.5283,562.30347,278.87808,562.18616,279.4356,561.966C280.1545,561.6945,280.734,561.0784,280.98346,560.33014C281.0568,560.13214,281.10815,559.95605,281.10815,559.9414C281.10815,559.934,280.94675,559.8387,280.74872,559.7433C280.0885,559.4059,279.80975,558.8703,279.8831,558.0708C279.9051,557.82135,280.1545,556.963,280.47723,556.0167C281.35757,553.41254,281.54095,552.4956,281.5483,550.7863C281.5483,548.1455,280.55798,545.31384,278.6947,542.6583C278.0198,541.69,277.89505,541.5286,276.88275,540.29626C275.85574,539.0344,275.05612,537.9121,273.25888,535.1538C272.63535,534.20026,271.7624,532.9384,271.32224,532.3515C270.38327,531.1118,268.88675,529.57135,267.94043,528.8671C266.02582,527.4586,263.81042,526.60034,261.30157,526.29224C260.32593,526.18225,258.56534,526.0722,258.51398,526.13086 Z"/> </g> </g> </g> </svg>