<?xml version="1.0" encoding="utf-8"?>
<svg xmlns="http://www.w3.org/2000/svg" xmlns:xlink="http://www.w3.org/1999/xlink" version= "1.1" width="720px" height="1424px" viewBox="0 0 720 1424">
<g id="layer1">
<g style="fill:rgb(0,0,0); fill-opacity:1.0; stroke-linejoin: miter">
<path d="M792.97076,714.30585L789.0772,772.1795Q761.3969,947.0776,627.0922,1051.9393Q491.85764,1156.7157,308.59677,1136.9121Q133.69817,1109.2316,28.837011,974.9271Q-4.7616854,931.514,-26.513124,880.3189L-44.794605,827.6868Q-59.860172,773.36273,-60.02953,714.306Q-55.456013,533.0708,64.88942,412.7252Q185.23494,292.38,366.4706,287.80655Q547.7065,292.37985,668.05176,412.7252Q788.39746,533.07043,792.97076,714.30585"/>
</g>
<g style="fill:rgb(255,255,255); fill-opacity:1.0; stroke-linejoin: miter">
<path d="M364.60852,943.93713L364.14297,747.6002L338.24377,940.8355C323.97607,1047.0681,311.87936,1134.3813,311.41425,1134.846C310.94913,1135.3115,310.48373,1135.3115,310.17355,1135.0017C309.86334,1134.6909,321.33966,1047.5337,335.60736,941.3005C350.03027,835.06793,361.50644,747.755,361.35144,746.97986C361.19644,746.3594,338.08865,831.346,309.8633,935.7178C281.79282,1040.2444,258.22028,1125.3866,257.59964,1124.9208C256.97955,1124.4557,256.8244,1123.37,257.13455,1122.2843C259.9259,1113.9097,357.31915,750.08124,356.69888,749.6161C356.38855,749.3061,322.58014,829.32965,281.48267,927.6534C240.54028,1025.9764,206.11168,1106.6207,205.18118,1106.9303C203.78539,1107.3961,203.78539,1106.7758,204.87088,1104.7594C206.11168,1102.4332,282.5684,919.43396,347.23892,764.1944C351.73605,753.18317,355.14807,744.3433,354.83777,744.3433C354.52768,744.3433,310.17352,820.64496,256.04865,914.00555C202.0793,1007.3666,157.41472,1083.3575,156.79439,1083.0477C156.17401,1082.5822,308.0023,818.31885,349.72012,747.44525C352.82193,742.17224,352.82193,742.17224,349.87515,745.1188C348.16925,746.82465,293.88965,816.7681,229.21904,900.6682C164.70374,984.569,111.50965,1052.806,111.044365,1052.3412C110.579094,1051.8754,110.8892,1050.6349,111.66477,1049.549C112.595345,1048.4637,164.08348,981.62213,226.11723,900.97833C288.1517,820.3349,341.5005,751.32227,344.44717,747.44525C352.04654,737.8299,321.80484,767.29596,187.03603,901.7543C122.8309,965.6485,70.25708,1017.29156,70.25709,1016.5164C70.25704,1015.7409,132.60121,952.62146,208.74788,876.32007C347.0835,737.8299,347.0835,737.6748,325.37177,754.1137C313.43027,763.1087,243.33191,816.6127,169.51114,872.90814C51.80201,962.8566,23.42153,983.94824,35.363083,972.4723C37.069145,970.9213,106.54685,917.72754,189.67258,854.453C272.7977,791.17914,341.96582,738.29517,343.20663,736.89966C344.60236,735.5035,343.3618,735.81384,340.10468,737.6748C264.73343,781.5638,4.6561937,930.44415,4.190906,929.9792C3.7256238,929.6688,4.3461146,928.5831,5.431603,927.808C6.517168,926.8775,82.50904,883.1436,174.1639,830.4149C265.819,777.6865,341.65573,733.9529,342.43124,733.17737C344.44727,731.31604,359.1802,725.2681,160.20636,807.15247C63.433464,847.00885,-17.210567,880.0415,-18.916544,880.5072C-31.0131,883.45386,1.7097443,869.65094,159.431,804.826C316.3769,740.4664,349.8753,726.354,340.10483,729.30023C334.98688,730.8509,-30.082684,827.9337,-34.425003,829.01917C-37.52684,829.6397,-38.612373,829.48444,-37.52684,828.3984C-36.59627,827.6234,48.85546,804.36053,152.76218,776.7558C256.51385,749.1505,341.19067,726.354,340.88034,726.04346C340.72537,725.8884,253.87756,736.74414,147.79964,750.54596C41.87672,764.1938,-45.90147,775.36,-47.2972,775.2047C-58.463257,774.73956,-20.00224,769.46643,147.64452,747.90985L339.01944,723.40717L162.3776,722.4763C65.139366,722.01086,-22.948807,721.2351,-33.6496,720.9251C-44.35059,720.61505,35.36303,719.9948,143.45729,719.5298L339.94974,718.7545L146.71393,692.85486C40.480724,678.58673,-46.832027,666.49005,-47.297146,666.02484C-47.76244,665.55963,-47.76244,665.0943,-47.452274,664.7843C-47.142147,664.4741,40.015522,675.95044,146.2486,690.2185C252.48166,704.6416,339.7947,716.1181,340.5703,715.96295C341.19067,715.80774,256.204,692.70013,151.83159,664.4746C47.304623,636.4041,-37.836964,612.8309,-37.37164,612.2104C-36.9064,611.59045,-35.820858,611.4353,-34.73529,611.7452C-26.515688,614.5367,337.4683,711.77563,337.93372,711.3104C338.24377,711.0004,258.0646,677.19165,159.89615,636.2487C61.572403,595.30634,-19.07176,560.8776,-19.38192,559.9474C-19.692043,559.01666,-16.900578,559.6371,-13.178459,561.18774C-8.370973,563.35913,285.66962,686.1864,338.24374,707.8987C340.88022,709.13934,343.2066,709.7595,343.2066,709.6044C343.2066,709.2944,266.9045,664.78485,173.54358,610.815C80.182526,556.6907,4.1910543,512.0264,4.501139,511.56128C4.9665895,510.78558,259.3055,656.8752,340.10464,704.33154C345.37775,707.58856,345.37775,707.58856,342.43112,704.48676C340.72522,702.7811,270.78168,648.50134,186.88101,583.8309C102.98016,519.3154,34.7427,466.12128,35.207787,465.6561C35.673077,465.1906,36.91393,465.5011,37.999454,466.2766C39.08507,467.20712,105.926674,518.6949,186.57082,580.72925C267.21478,642.918,336.22778,696.11224,340.10464,699.2137C350.03027,706.81287,318.70297,674.8657,185.79538,541.49225C121.90039,477.44278,70.25706,424.8689,71.032455,424.8689C71.80786,424.8689,134.92754,487.2127,211.22926,563.3596L349.87512,701.6953L330.48965,676.1059C319.78842,661.9936,266.28433,591.89526,211.5394,520.246C124.38158,405.94864,103.60033,378.0335,115.07656,389.97516C116.627556,391.68076,169.82162,461.15857,233.09602,544.28406C296.37112,627.41,349.25476,696.5775,350.6506,697.8182C352.04648,699.2137,351.7361,697.9734,349.87512,694.71643C315.13623,635.3187,157.1045,359.26807,157.56976,358.80283C157.87987,358.33755,158.96559,358.95767,159.741,360.04364C160.67151,361.12936,204.40533,437.12085,257.13416,528.77576C309.86328,620.431,353.5971,696.2672,354.37244,697.0429C356.2336,699.2137,361.35144,711.77563,280.39703,514.8184C240.54015,418.04538,207.50684,337.4015,207.04192,335.6953C204.09492,323.75403,217.74286,356.16666,282.72336,514.04297C347.2386,670.98846,361.19638,704.33154,358.24963,694.71643C356.69876,689.5985,259.61545,324.52954,258.52985,320.18704C257.90976,317.085,258.0646,315.99973,259.15033,317.085C259.92563,318.01602,283.1885,403.62253,310.79367,507.37427C338.39902,611.1259,361.19638,695.80194,361.50638,695.64703C361.66162,695.33673,350.8057,608.48944,337.00308,502.4117C323.35574,396.48895,312.1894,308.71112,312.3443,307.31534C312.80954,296.30414,318.08264,334.61044,339.63937,502.25635L364.143,693.6311L365.07367,520.09155C365.5387,424.71414,366.3139,336.47122,366.62424,324.06445C366.93427,311.65775,367.5548,390.1304,368.02017,498.3794L368.79562,695.33673L377.01508,633.3027C404.4651,427.97104,420.74884,307.9356,421.52423,307.31546C421.98965,306.85007,422.4549,306.85007,422.765,307.16025C423.075,307.4703,411.5989,394.62793,397.33115,500.86102C382.90808,607.0938,371.43185,694.4064,371.58685,695.18176C371.74207,695.8021,394.84998,610.81555,423.07498,506.4436C451.14554,401.91708,474.56314,316.7755,475.3385,317.24078C475.95874,317.70596,476.11368,318.79166,475.80374,319.87717C473.01245,328.2518,375.77405,692.0801,376.23962,692.5453C376.54962,692.8554,410.35815,612.832,451.3008,514.5082C492.39807,416.18466,526.67175,335.54102,527.7575,335.23068C529.1534,334.76544,529.1534,335.3857,528.06744,337.40198C526.82697,339.72797,450.3703,522.7278,385.6997,678.12225C381.20203,688.97815,377.79034,697.8182,378.1003,697.8182C378.25555,697.8182,422.76508,621.5165,476.73453,528.15594C530.8593,434.7949,575.52344,358.64856,575.9887,359.11368C576.6089,359.4236,534.11584,433.8642,481.69708,524.5889C429.2786,615.1581,384.92407,691.7698,383.2181,694.71655L380.11664,700.1443L383.5285,696.2672C385.38943,694.09625,439.6692,624.153,504.02936,540.7177C568.3901,457.28223,621.5836,389.3552,621.8939,389.8204C622.3592,390.28583,622.04877,391.52646,621.2732,392.61194C620.3427,393.69763,569.94073,459.14334,509.1474,538.0811C448.3538,617.01904,395.15985,686.0316,390.81744,691.6148C380.42688,704.952,397.4861,688.35803,546.0575,540.40765C610.1077,476.51257,662.6811,424.86963,662.6811,425.6451C662.6811,426.42053,600.3374,489.53983,524.3457,565.84143L385.8547,704.48676L411.44366,685.10114C425.5565,674.4006,495.6548,620.89624,567.30414,566.15155C681.6019,478.9944,709.5174,458.213,697.5756,469.6892C695.8698,471.24008,626.3913,524.4341,543.26624,587.7082C460.1403,650.98267,390.9726,703.86664,389.73163,705.2621C388.33627,706.65826,389.57693,706.3477,392.8335,704.48676C475.33865,656.4104,728.28217,511.7171,728.74774,512.182C729.2128,512.4927,728.5928,513.5782,727.50696,514.3535C726.4216,515.284,650.4295,559.01776,558.7744,611.74615C467.11896,664.4751,391.43777,708.2087,390.50745,708.9844C388.49115,710.8454,373.60312,716.8934,574.12805,634.38885C725.9561,571.88983,756.97314,559.63824,752.476,563.5154C752.16534,563.8257,671.67645,597.0136,573.5079,637.3353C416.56143,701.6956,383.0635,715.80774,392.83362,712.86145C397.95148,711.3104,763.02155,614.2279,767.3637,613.1422C770.46533,612.5221,771.55096,612.67706,770.46533,613.7629C769.69006,614.5379,683.9283,637.80096,580.17615,665.4055C476.42426,693.0105,391.7482,715.80774,391.90314,716.1181C392.21353,716.27325,479.06067,705.2622,585.139,691.615C691.0618,677.9674,778.995,666.802,780.3908,666.9568C791.40216,667.4219,752.476,672.85004,585.139,694.2517L393.60928,718.7545L570.4062,719.6855C667.64435,720.15076,755.8881,720.92645,766.58887,721.2365C777.2894,721.547,697.5757,722.1667,589.48157,722.63196L392.98877,723.40717L586.2243,749.30646C692.4579,763.57446,779.7709,775.67114,780.23584,776.1364C780.70123,776.60156,780.70123,777.06696,780.391,777.37714C780.081,777.68726,692.9231,766.2112,586.68964,751.943C480.4566,737.51984,393.14386,726.04346,392.36835,726.1987C391.7482,726.354,476.73456,749.4614,581.1068,777.68677C685.63416,805.75757,770.77576,829.33057,770.31055,829.951C769.84534,830.57166,768.76,830.7265,767.6742,830.41614C759.2999,827.6247,395.47028,730.38574,395.00485,730.8509C394.69476,731.16144,474.71823,764.9697,573.0424,806.0675C671.3665,847.01013,752.0111,881.2838,752.32117,882.05945C752.4762,882.8346,675.0888,851.1976,580.1762,811.4952C378.56577,727.4394,389.73184,731.9367,389.73184,732.7124C389.73184,733.0222,466.03357,777.37683,559.3951,831.5016C652.7563,885.4708,728.7479,930.1355,728.4376,930.75543C727.97253,931.376,463.70734,779.548,392.83362,737.83C387.56085,734.72833,387.56085,734.72833,390.50757,737.6748C392.21353,739.3808,462.15665,793.6604,546.05786,858.33093C629.95886,922.84607,698.1962,976.04034,697.7309,976.50543C697.26575,976.9707,696.025,976.66077,694.9397,975.8853C693.85394,974.9545,627.01227,923.46674,546.3678,861.4327C465.72357,799.2438,396.71072,746.04944,392.83362,742.9478C382.90817,735.34875,414.23526,767.296,547.1431,900.66876C611.03845,964.71893,662.6818,1017.2928,661.9064,1017.2928C661.13086,1017.2928,598.0112,954.9488,521.70953,878.95734C383.21832,740.46625,383.0635,740.46625,399.5024,762.1783C408.49716,774.1197,462.0017,844.2182,518.2978,918.0383C608.2471,1035.7482,629.33887,1064.129,617.8619,1052.1869C616.31134,1050.4806,563.1172,981.0027,499.84247,897.8775C436.56763,814.7522,383.68344,745.58435,382.28778,744.3433C380.89218,742.9478,381.2023,744.18823,383.06342,747.44543C426.95242,822.81647,575.8339,1082.8932,575.3686,1083.3585C575.0587,1083.8236,573.97284,1083.2035,573.19763,1082.1183C572.26715,1081.0323,528.5333,1005.041,475.80408,913.3857C423.07516,821.731,379.34113,746.04944,378.56573,745.1188C376.70465,743.10297,370.50156,727.74963,453.16168,928.89374C493.3286,1026.4415,526.0519,1107.0865,525.74176,1108.0175C524.9661,1110.0331,532.1004,1126.9376,448.35388,923.46625C385.69974,770.8629,371.7423,737.6748,374.68875,747.44525C376.2394,752.5629,473.3232,1117.6324,474.40887,1121.9745C475.02908,1125.0763,474.8739,1126.1617,473.94348,1125.0763C473.01297,1124.3009,449.7497,1038.539,422.14462,934.7872C394.5396,831.03564,371.74213,746.3594,371.43192,746.5148C371.2768,746.82465,382.1328,833.6723,395.93527,939.7498C409.5831,1045.6729,420.74924,1133.4512,420.59415,1134.8464C420.1288,1146.013,414.85596,1107.3965,393.29886,939.9045L368.79553,748.37555L367.86517,943.3166C367.39975,1050.48,366.4693,1138.7234,366.00424,1139.3438C365.38388,1139.8091,364.76324,1051.8765,364.60852,943.93713 Z"/>
</g>
<g style="fill:rgb(255,255,255); fill-opacity:1.0; stroke-linejoin: miter">
<path d="M345.435,942.9505L361.87003,747.302L319.43515,937.591C296.07672,1042.2019,276.50992,1128.1494,276.0065,1128.5723C275.50296,1128.9961,275.03937,1128.956,274.75714,1128.6204C274.47464,1128.2847,293.41016,1042.438,316.76846,937.82764C340.28128,833.2305,359.23004,747.22943,359.1422,746.44366C359.04114,745.81226,328.70447,828.4945,291.60046,930.0496C254.63736,1031.7723,223.82411,1114.5692,223.24605,1114.0524C222.66826,1113.535,222.60709,1112.4406,223.00952,1111.3851C226.51141,1103.2819,354.85794,749.18634,354.28012,748.6696C353.99786,748.3342,313.42697,825.1511,264.019,919.57227C214.76608,1014.00653,173.52391,1091.3881,172.57025,1091.6171C171.13957,1091.9603,171.193,1091.3424,172.44806,1089.4271C173.8843,1087.2162,265.8083,911.4767,343.60043,762.37946C349.0287,751.7965,353.18887,743.2829,352.87976,743.2563C352.57077,743.2295,301.81378,815.43085,239.85423,903.7857C178.04956,992.15515,127.010254,1064.0201,126.41896,1063.6581C125.84088,1063.141,299.85083,812.92615,347.51407,745.9061C351.05814,740.91986,351.05814,740.91986,347.8688,743.6019C346.02237,745.1545,285.924,810.16626,214.27214,888.189C142.77509,966.22534,83.90514,1029.6315,83.481674,1029.1276C83.058174,1028.6239,83.47387,1027.4147,84.34001,1026.3995C85.36058,1025.3983,142.41074,963.2363,211.15533,888.23083C279.90033,813.22614,338.99124,749.0612,342.26068,745.4524C350.65945,736.5269,317.99387,763.2807,172.15222,885.63983C102.68603,943.771,45.8624,990.6978,45.92912,989.925C45.995876,989.1527,113.54127,931.6336,195.9726,862.16895C345.71497,736.0996,345.72836,735.9451,322.68195,750.454C310.0107,758.38806,235.56725,805.6602,157.1753,855.393C32.16106,934.8763,2.0706356,953.44666,14.955508,943.0414C16.78876,941.64307,90.58711,894.6265,178.85034,838.7416C267.11298,782.8567,340.5762,736.12286,341.93234,734.8391C343.4432,733.56854,342.1806,733.77057,338.7754,735.3445C259.90628,772.58307,-12.019913,898.52637,-12.443463,898.02295C-12.880206,897.67377,-12.168659,896.64575,-11.0204525,895.9666C-9.858856,895.1328,69.615,858.102,165.46817,813.4578C261.3214,768.8137,340.64096,731.7698,341.48032,731.06384C343.64905,729.38306,358.8478,724.62555,153.56462,789.0803C53.720383,820.45966,-29.467337,846.429,-31.207087,846.74603C-43.512417,848.6404,-9.722904,837.7051,152.99225,786.6957C314.89517,736.0834,349.48404,724.9065,339.4962,727.0009C334.26382,728.10547,-37.80677,793.40607,-42.226425,794.1138C-45.37016,794.4651,-46.438213,794.2169,-45.263348,793.2287C-44.269478,792.5362,42.867393,776.7146,148.7643,758.1556C254.50714,739.58276,340.83157,724.159,340.54907,723.82306C340.40814,723.6552,252.9484,726.9955,146.07613,731.6163C39.371666,736.0963,-49.041794,739.6662,-50.418983,739.3915C-61.503513,737.9667,-22.731346,736.02386,146.14848,728.9767L338.92203,721.03644L163.01584,704.9052C66.17874,696.0723,-21.515657,687.7177,-32.15013,686.4878C-42.784687,685.2577,36.686405,691.50073,144.41951,700.34106L340.24936,716.48096L149.95992,674.0455C45.349102,650.6868,-40.59842,631.1204,-41.02173,630.6169C-41.445282,630.1131,-41.405228,629.6497,-41.069504,629.36743C-40.733864,629.085,45.11264,648.0202,149.72322,671.3788C254.32068,694.8921,340.3219,713.84106,341.1081,713.7532C341.7393,713.65204,259.0571,683.31537,157.50131,646.211C55.77829,609.2481,-27.018244,578.4345,-26.501305,577.85645C-25.984407,577.2786,-24.889486,577.21747,-23.834618,577.61975C-15.885775,581.10846,338.37778,709.31464,338.88162,708.8911C339.21713,708.6087,262.24545,668.0245,167.9653,618.7843C73.5305,569.5312,-3.851056,528.2892,-4.080001,527.33563C-4.3088703,526.3818,-1.5810956,527.2401,1.9936929,529.1053C6.59645,531.68243,288.97394,679.36194,339.48413,705.51855C342.0039,706.9814,344.26816,707.7997,344.2815,707.6451C344.30817,707.33636,272.12042,656.42487,183.7512,594.61957C95.39507,532.6604,23.530039,481.6213,23.879068,481.1847C24.409575,480.45206,265.23032,647.8903,341.64505,702.1252C346.61835,705.82355,346.61835,705.82355,343.94962,702.47986C342.3969,700.63354,277.3848,640.5354,199.36159,568.88324C121.32514,497.38617,57.919407,438.5161,58.422863,438.09265C58.92641,437.66913,60.13599,438.0849,61.15076,438.95105C62.15216,439.97174,124.3141,497.02173,199.31958,565.7663C274.3117,634.66583,338.49005,693.60254,342.08554,697.02625C351.32034,705.45135,322.85892,670.9263,201.92409,526.6086C143.77924,457.2974,96.85242,400.4736,97.625015,400.5402C98.39752,400.607,155.91704,468.1524,225.38158,550.5837L351.60632,700.33954L334.49506,673.17664C325.04828,658.19525,277.77618,583.7522,229.40129,507.65692C152.40463,386.282,134.10326,356.68176,144.50906,369.56693C145.90752,371.3996,192.92413,445.19815,248.80893,533.4611C304.69437,621.7244,351.4288,695.18713,352.71265,696.5433C353.983,698.0539,353.78055,696.7914,352.20694,693.3864C322.70914,631.2191,189.0241,342.59122,189.52756,342.1679C189.87648,341.73114,190.9048,342.44235,191.58397,343.59094C192.41759,344.75262,229.44835,424.22617,274.09274,520.07947C318.73715,615.9326,355.7816,695.25165,356.48724,696.0911C358.15457,698.4144,362.17224,711.37024,298.47067,508.1761C267.09094,408.33145,241.12135,325.1438,240.80486,323.40393C238.89653,311.2533,249.7042,344.7205,300.855,507.60358C351.62244,669.5194,362.6585,703.9404,360.55023,694.1072C359.4458,688.8749,294.1444,316.80457,293.43655,312.38486C293.08572,309.2411,293.33344,308.173,294.3218,309.34772C295.0141,310.3419,310.82248,397.63306,329.3951,503.3757C347.96808,609.1183,363.39258,695.4424,363.715,695.3145C363.8964,695.0189,360.55554,607.55963,355.93445,500.68738C351.45428,393.9829,347.88443,305.5698,348.15894,304.1928C349.5704,293.26242,351.52664,331.8803,358.57428,500.75958L366.51532,693.53314L382.37915,520.7176C391.05154,425.7342,399.4192,337.8855,400.79587,325.55142C402.17273,313.2174,396.0367,391.45242,387.18332,499.33963L371.0037,695.6328L384.532,634.5366C429.55298,432.32935,456.1078,314.14084,456.9339,313.59C457.43756,313.16626,457.901,313.20627,458.18332,313.5419C458.46558,313.87762,439.53036,399.72418,416.17206,504.3349C392.65906,608.9321,373.71017,694.9327,373.79782,695.71857C373.89905,696.3501,404.23618,613.6679,441.33984,512.1127C478.3027,410.38995,508.9616,327.5799,509.69427,328.11014C510.2721,328.62704,510.33295,329.72195,509.9308,330.77664C506.42883,338.87997,378.23663,692.989,378.66022,693.4924C378.94263,693.82806,419.51324,617.0114,468.76685,522.57666C518.17444,428.15536,559.26166,350.76062,560.3701,350.5449C561.80066,350.20163,561.74725,350.81946,560.49207,352.73474C559.05597,354.94547,467.13217,530.68536,389.32684,679.9373C383.91135,690.3658,379.7516,698.8792,380.06046,698.906C380.21503,698.91943,431.12656,626.7318,492.93146,538.36273C554.89124,450.00656,605.9433,377.9871,606.3669,378.49072C606.95825,378.8529,558.2156,449.35986,498.18262,535.23627C438.1633,620.95746,387.37943,693.4673,385.42612,696.25635L381.86893,701.3973L385.6018,697.8282C387.64264,695.82544,447.7411,630.81323,519.044,553.2273C590.3468,475.64056,649.18994,412.54425,649.45886,413.0347C649.88257,413.53824,649.4664,414.74756,648.6004,415.7623C647.5798,416.76367,591.7315,477.6283,524.36957,551.0413C457.0077,624.4534,398.0711,688.63153,393.26413,693.8199C381.7643,706.21344,400.18832,691.1491,560.9426,556.53564C630.2546,498.39053,687.07794,451.46387,687.0113,452.2366C686.94446,453.00937,619.3992,510.5285,537.12225,580.00635L387.21194,706.2172L414.37454,689.10596C429.3559,679.6598,503.7995,632.38727,579.8944,584.01263C701.2699,507.0163,730.87036,488.71503,717.9851,499.1206C716.152,500.51883,642.3533,547.5357,554.09033,603.4204C465.8269,659.3054,392.36417,706.0397,391.0079,707.3234C389.4976,708.5942,390.76025,708.39166,394.1649,706.8178C480.50186,666.0213,744.96075,543.6355,745.3844,544.1389C745.8211,544.4883,745.1099,545.5164,743.9615,546.19556C742.80005,547.02905,663.3254,584.0598,567.47217,628.7036C471.6186,673.3487,392.454,710.406,391.46048,711.09863C389.29156,712.77893,373.93805,717.5232,580.81995,652.584C737.46423,603.3847,769.42035,593.84827,764.6061,597.3239C764.27026,597.60626,681.22327,623.74347,579.9484,655.46625C418.04504,706.07935,383.45663,717.256,393.44424,715.1614C398.67648,714.0568,770.7477,648.75616,775.1674,648.04816C778.3111,647.6973,779.37897,647.9449,778.20435,648.93335C777.36487,649.63873,689.91895,665.43396,584.1759,684.00635C478.43326,702.57904,392.10916,718.0034,392.23672,718.326C392.5326,718.50745,480.00543,715.0121,586.86456,710.5457C693.56903,706.0654,782.1371,702.50977,783.5143,702.7842C794.4447,704.1956,755.1957,706.253,586.6379,713.1727L393.7097,721.0995L569.77026,737.24396C666.6075,746.07666,754.45715,754.4445,765.0914,755.67456C775.7256,756.9048,696.25446,750.6614,588.52124,741.8212L392.69104,725.6816L582.98047,768.11646C687.5916,791.4746,773.5397,811.04193,773.96265,811.54553C774.38635,812.0494,774.3462,812.51276,774.0107,812.795C773.675,813.0772,687.82794,794.14166,583.2171,770.7832C478.61954,747.27014,392.61884,728.3212,391.83273,728.4092C391.2016,728.5106,473.88364,758.847,575.43915,795.9511C677.1626,832.91425,759.9596,863.72797,759.4425,864.30597C758.9254,864.88416,757.83105,864.945,756.77594,864.54266C748.67267,861.0405,394.56265,732.8478,394.05914,733.2711C393.72336,733.5537,470.53986,774.12427,564.9619,823.53204C659.3972,872.7853,736.7925,913.8734,737.03467,914.6729C737.1225,915.4585,662.7449,877.2775,571.6021,829.554C377.97455,728.45734,388.71207,733.8992,388.6453,734.6717C388.61865,734.98065,460.81982,785.7378,549.17596,847.6971C637.5456,909.502,709.41095,960.5411,709.0486,961.13226C708.5315,961.7102,458.3152,787.7007,391.29523,740.0374C386.30878,736.4933,386.30878,736.4933,388.99103,739.6827C390.54388,741.52905,455.55542,801.6275,533.57904,873.279C611.6155,944.7763,675.02185,1003.647,674.5183,1004.0702C674.01495,1004.49365,672.80536,1004.078,671.7906,1003.2119C670.7889,1002.1911,608.6265,945.14075,533.62067,876.3957C458.62863,807.4967,394.45023,748.56,390.85464,745.1359C381.62018,736.7109,410.08115,771.2361,531.01624,915.55316C589.1619,984.8654,636.0883,1041.6887,635.3156,1041.6223C634.5432,1041.5554,577.0238,974.01,507.54584,891.7331C381.4886,741.83636,381.3341,741.82306,395.8435,764.86914C403.7769,777.54047,451.04977,851.98413,500.78278,930.37585C580.2669,1055.3903,598.83746,1085.4808,588.4314,1072.5958C587.0334,1070.7623,540.0166,996.96405,484.13138,908.70123C428.24612,820.43823,381.5116,746.97546,380.22794,745.61884C378.9576,744.1082,379.1596,745.3711,380.73352,748.77606C417.9723,827.6451,543.9167,1099.5712,543.41296,1099.994C543.06396,1100.4313,542.03564,1099.7198,541.3567,1098.5717C540.52325,1097.4098,503.4923,1017.9361,458.84763,922.0833C414.203,826.22974,377.14526,747.0651,376.4528,746.0713C374.77197,743.90265,369.91357,728.0723,434.9543,935.58466C466.57617,1036.2279,492.23688,1119.3895,491.84775,1120.2894C490.9016,1122.2313,496.55414,1139.6871,430.63147,929.7633C381.34464,772.3339,370.29535,738.06744,372.38995,748.05505C373.49448,753.28723,438.7962,1125.3579,439.50403,1129.7778C439.855,1132.9216,439.60703,1133.9897,438.7733,1132.8276C437.913,1131.9753,422.11783,1044.5288,403.545,938.7865C384.97247,833.04395,369.54767,746.7197,369.2253,746.8478C369.0442,747.14325,372.3847,834.60284,377.006,941.4749C381.48608,1048.179,385.0557,1136.5923,384.78088,1137.97C383.35632,1149.0544,381.4268,1110.1274,374.366,941.402L366.43866,748.47473L348.73282,942.6127C339.04578,1049.3386,330.52362,1137.1738,330.00687,1137.7517C329.3488,1138.1621,336.29874,1050.5022,345.435,942.9505 Z"/>
</g>
<g style="fill:rgb(255,255,255); fill-opacity:1.0; stroke-linejoin: miter">
<path d="M325.75882,940.1961L359.55392,746.78876L300.33975,932.5429C267.7572,1034.6567,240.61316,1118.5199,240.07416,1118.8966C239.53485,1119.2743,239.07663,1119.193,238.82544,1118.8331C238.57404,1118.4733,265.0801,1034.655,297.66284,932.5406C330.39786,830.4532,356.93085,746.4814,356.91327,745.6912C356.86884,745.0529,319.28873,824.7047,273.28723,922.5519C227.41127,1020.57794,189.34642,1100.3019,188.81659,1099.7355C188.2873,1099.1688,188.32379,1098.0731,188.81863,1097.058C193.02824,1089.299,352.40176,748.0412,351.87213,747.4751C351.62088,747.1156,304.36993,820.0143,246.74869,909.6597C189.28096,999.3323,141.3108,1072.7333,140.34055,1072.8759C138.88498,1073.0902,138.99324,1072.4796,140.4139,1070.6837C142.04128,1068.61,249.25174,901.7555,340.0139,760.17926C346.36316,750.1217,351.26508,742.0125,350.9597,741.9585C350.65408,741.90405,293.6685,809.2983,224.086,891.78394C154.65642,974.2975,97.419464,1041.3317,96.86294,1040.9178C96.33315,1040.3514,291.9364,806.6284,345.37918,744.1198C349.3535,739.469,349.3535,739.469,345.93774,741.85626C343.96033,743.2383,278.3105,802.6396,199.99466,873.97046C121.83148,945.3289,57.54852,1003.23987,57.17156,1002.70056C56.794537,1002.16125,57.31638,1000.99347,58.26949,1000.05963C59.37515,999.1531,121.73485,942.3192,196.88643,873.73486C272.0383,805.15076,336.60934,746.5036,340.1871,743.20013C349.34732,735.0579,314.42886,758.7962,158.26921,867.6805C83.9018,919.3939,23.12448,961.0729,23.259844,960.30927C23.395113,959.54584,95.79481,908.2712,184.08524,846.42444C344.4606,734.19196,344.4877,734.03925,320.2409,746.43854C306.91318,753.212,228.55534,793.66644,146.0457,836.21985C14.449286,904.253,-17.175543,920.0697,-3.4150102,910.85297C-1.4645339,909.6236,76.22782,869.3667,169.11755,821.56476C262.00665,773.7633,339.3403,733.7575,340.8053,732.5998C342.4233,731.4688,341.1477,731.5576,337.61597,732.8218C255.74344,762.88824,-26.318558,864.1127,-26.695557,863.57355C-27.09956,863.1869,-26.299282,862.2262,-25.095095,861.65216C-23.86387,860.92523,58.592182,831.1197,158.04036,795.1899C257.48895,759.25995,339.7924,729.4277,340.6912,728.7993C343.00116,727.3182,358.56323,723.9334,148.35529,769.84863C46.1132,792.2113,-39.056664,810.6685,-40.817688,810.8292C-53.24291,811.6201,-18.613783,803.7375,147.99763,767.42255C313.7649,731.431,349.21164,723.3791,339.07693,724.5758C333.76706,725.2099,-42.6405,757.11346,-47.105602,757.42456C-50.268196,757.4946,-51.309914,757.1523,-50.051704,756.2725C-49.000145,755.6717,39.199425,747.67346,146.32826,738.6199C253.30496,729.5383,340.66022,721.8641,340.4089,721.5044C340.28317,721.3245,252.87347,716.86206,146.01448,711.9464C39.3352,706.90515,-49.044712,702.5866,-50.391945,702.1901C-61.30554,699.7842,-22.514465,701.302,146.32172,709.3234L339.03635,718.58386L165.26591,686.85C69.60037,669.4278,-17.001421,653.29626,-27.483963,651.12384C-37.966747,648.9516,40.632427,662.2477,147.14995,680.64795L340.7642,714.1648L155.0103,654.9502C52.895638,622.36743,-30.967468,595.2243,-31.34427,594.6848C-31.721317,594.1457,-31.640062,593.6875,-31.280655,593.43634C-30.921165,593.1852,52.89766,619.6905,155.01201,652.2732C257.09964,685.00867,341.07153,711.54175,341.86224,711.52423C342.5001,711.47974,262.84824,673.8998,165.00072,627.8978C66.974144,582.02246,-12.748928,543.9572,-12.182547,543.42755C-11.61628,542.8979,-10.520301,542.93475,-9.505369,543.42926C-1.8989016,547.61194,339.53815,706.86005,340.0778,706.4833C340.4371,706.23175,267.38586,658.9534,177.86588,601.5126C88.19306,544.0443,14.792222,496.07434,14.649106,495.10413C14.506028,494.13367,17.146492,495.23154,20.541012,497.4079C24.895906,500.3846,292.9986,672.6266,340.9783,703.17786C343.35788,704.85944,345.54013,705.87585,345.56723,705.7232C345.62125,705.41785,278.25464,648.2796,195.74112,578.8495C113.25451,509.2674,46.220936,452.0309,46.607418,451.62695C47.20103,450.9442,272.15216,639.1654,343.4328,699.99023C348.05676,704.117,348.05676,704.117,345.69672,700.54895C344.31445,698.57153,284.91345,632.9221,213.5818,554.6055C142.22318,476.44257,84.31264,412.15967,84.851906,411.78268C85.3911,411.40558,86.55882,411.92755,87.49241,412.88074C88.39899,413.9865,145.23273,476.34586,213.81755,551.4974C282.3753,626.8022,341.0494,691.2204,344.32565,694.95074C352.77338,704.1648,327.50018,667.2421,219.89911,512.7271C168.1586,438.51303,126.479034,377.73532,127.242584,377.87064C128.00609,378.0059,179.28131,450.40576,241.1281,538.69617L353.5135,699.0989L338.88953,670.5198C330.81458,654.75684,290.36035,576.3993,248.95505,496.29813C183.07452,368.5479,167.48207,337.43542,176.699,351.196C177.9286,353.1463,218.18562,430.8388,265.9874,523.7281C313.78973,616.6179,353.79547,693.9512,354.9535,695.41614C356.0845,697.03406,355.9952,695.75824,354.73105,692.22675C330.88736,627.6794,223.4395,328.29214,223.97871,327.91525C224.3652,327.51108,225.3261,328.3113,225.90038,329.5158C226.62718,330.74716,256.4325,413.20273,292.36258,512.6517C328.29248,612.09973,358.12537,694.4033,358.75345,695.3023C360.20724,697.76465,363.05515,711.0268,317.70392,502.9664C295.3414,400.72415,276.88394,315.55392,276.72354,313.79288C275.90494,301.52045,283.68887,335.81717,320.12964,502.6087C356.27448,668.4028,364.20114,703.6699,362.9769,693.6879C362.34302,688.3779,330.439,311.97028,330.1275,307.5049C330.05798,304.34238,330.39972,303.3005,331.27948,304.55865C331.88043,305.61053,339.8516,393.96262,348.93283,500.93927C358.01407,607.91595,365.68924,695.27106,366.02182,695.1724C366.22858,694.8939,370.6906,607.4845,375.60623,500.62534C380.64725,393.94583,384.966,305.56622,385.36224,304.21887C387.7415,293.45767,386.25046,332.09628,378.22916,500.9326L368.96942,693.64746L400.16174,522.93146C417.25912,429.09753,433.41766,342.34317,435.88766,330.18076C438.3576,318.0183,425.2779,395.3961,406.85095,502.0662L373.25302,696.13873L392.16898,636.48956C455.02042,439.09583,491.99582,323.74167,492.86768,323.26633C493.40704,322.88928,493.86523,322.97046,494.11633,323.3299C494.36768,323.68933,467.86215,407.50848,435.2795,509.62317C402.54422,611.71063,376.0111,695.6823,376.0285,696.4727C376.07327,697.11066,413.65356,617.45886,459.65463,519.6116C505.53052,421.58478,543.4429,341.83444,544.12506,342.42767C544.6547,342.99408,544.61786,344.09003,544.12335,345.10486C539.9136,352.8641,380.6927,694.14923,381.06982,694.6885C381.3211,695.048,428.572,622.14966,486.0407,532.477C543.6615,442.831,591.4783,369.40286,592.6017,369.28674C594.0573,369.07208,593.949,369.6828,592.5282,371.47882C590.90094,373.55267,483.69034,540.4078,392.9012,682.13715C386.57864,692.0419,381.6772,700.15106,381.98227,700.20526C382.13507,700.23236,439.2736,632.86584,508.70337,550.35236C578.2864,467.8653,635.5499,400.6788,635.927,401.21796C636.4837,401.63153,581.6549,467.51724,514.2123,547.7058C446.79663,627.74115,389.75653,695.4398,387.56268,698.04395L383.56174,702.8475L387.59766,699.6251C389.80862,697.8122,455.45865,638.4108,533.38806,567.4833C611.3181,496.55548,675.54706,438.9504,675.7713,439.4626C676.1483,440.0019,675.6259,441.1694,674.67316,442.103C673.5675,443.0096,612.5202,498.6587,538.88727,565.7802C465.25467,632.9014,400.83633,691.57556,395.58652,696.3154C383.0284,707.63556,402.72116,694.2723,574.8258,574.50995C649.0411,522.7693,709.8182,481.08954,709.6829,481.85306C709.54785,482.6168,637.1479,533.89185,549.01,595.76624L388.45416,708.12427L417.0328,693.50024C432.79587,685.4258,511.15387,644.9711,591.2551,603.56586C719.00586,537.6855,750.1191,522.09314,736.3583,531.30975C734.4079,532.5393,656.7144,572.7966,563.8251,620.59845C470.9349,668.40063,393.60196,708.4065,392.13657,709.5642C390.51898,710.69556,391.79465,710.6062,395.32617,709.34186C484.95328,676.3966,759.2619,578.0502,759.6388,578.58936C760.04297,578.9762,759.24286,579.9369,758.0385,580.51105C756.8072,581.23804,674.3504,611.04346,574.90204,646.97327C475.45297,682.9037,393.30246,712.7633,392.25113,713.3647C389.941,714.8454,374.2261,718.2034,586.0697,671.94727C746.4736,636.89465,779.1521,630.24207,774.04755,633.275C773.6876,633.5264,688.6429,652.1637,584.945,674.74036C419.17703,710.7328,383.73062,718.7847,393.86514,717.588C399.17496,716.954,775.58417,685.0502,780.04926,684.73865C783.2118,684.6691,784.25336,685.011,782.99524,685.8908C782.0965,686.51886,693.5908,694.4628,586.614,703.5438C479.63718,712.62494,392.28223,720.3,392.3807,720.6325C392.65918,720.83954,480.09558,725.1488,586.92816,730.2171C693.6079,735.2583,782.1406,739.60455,783.4879,740.0007C794.2495,742.3798,754.9732,740.9336,586.4683,732.8135L393.6007,723.52625L567.5236,755.2867C663.1898,772.7086,749.945,788.8676,760.42773,791.03973C770.90985,793.2124,692.31055,779.91583,585.7926,761.51605L392.17776,727.99915L577.93195,787.21356C680.0474,819.7958,763.9112,846.94,764.2877,847.4794C764.66486,848.0185,764.58374,848.47644,764.22424,848.72784C763.8647,848.9791,680.0455,822.4734,577.9303,789.8904C475.8422,757.155,391.87076,730.622,391.08014,730.6398C390.44232,730.6842,470.09402,768.2642,567.9414,814.2655C665.9688,860.14166,745.6925,898.20703,745.1261,898.7367C744.55963,899.2667,743.464,899.2298,742.449,898.7351C734.6899,894.52496,393.40363,735.30365,392.86447,735.6803C392.50497,735.9321,465.40292,783.1828,555.04956,840.8041C644.7227,898.2721,718.1515,946.08997,718.32135,946.9076C718.33875,947.69794,647.65735,903.0447,561.1271,847.39343C377.27264,729.45325,387.48294,735.82965,387.34753,736.59344C387.29346,736.89874,454.68707,793.88446,537.1741,863.4668C619.6878,932.89685,686.72253,990.134,686.30884,990.6904C685.74225,991.22003,452.0176,795.6166,389.50885,742.1737C384.85797,738.1997,384.85797,738.1997,387.24564,741.615C388.62772,743.59247,448.02853,809.2423,519.3608,887.5582C590.7191,965.7214,648.63043,1030.0051,648.09106,1030.3823C647.55194,1030.7593,646.38434,1030.237,645.4508,1029.2842C644.54395,1028.1785,587.70966,965.8183,519.1249,890.6666C450.56705,815.3621,391.8923,750.9435,388.61606,747.21295C380.1688,737.9989,405.44162,774.92163,513.04315,929.43634C564.7845,1003.65204,606.4634,1064.4291,605.6999,1064.2941C604.9363,1064.1586,553.6615,991.7583,491.78738,903.62054C379.58127,743.0922,379.42853,743.06506,391.82764,767.31195C398.60114,780.6395,439.0559,858.99744,481.6093,941.5068C549.6437,1073.1039,565.4605,1104.7296,556.2434,1090.9684C555.0141,1089.0177,514.75684,1011.3254,466.95465,918.43567C419.1523,825.54626,379.14636,748.2128,377.9886,746.7475C376.85803,745.1298,376.94672,746.40546,378.2109,749.937C408.27753,831.8094,509.50293,1113.8722,508.96344,1114.2487C508.5769,1114.6527,507.61615,1113.8527,507.04218,1112.6486C506.31555,1111.4171,476.50964,1028.9608,440.57938,929.5126C404.64914,830.064,374.78937,747.9132,374.18814,746.86163C372.70712,744.5518,369.27814,728.3519,415.57858,940.8325C438.11118,1043.8926,456.26343,1129.0096,455.7959,1129.8715C454.6802,1131.7208,458.75552,1149.6105,411.79153,934.6492C376.72137,773.45575,368.76816,738.34143,369.96484,748.4759C370.59912,753.7857,402.50327,1130.1936,402.81473,1134.6587C402.88422,1137.8213,402.54208,1138.8628,401.81516,1137.6316C401.03427,1136.706,393.09006,1048.2007,384.00885,941.2239C374.9279,834.2477,367.25272,746.89276,366.9203,746.99164C366.71347,747.26984,362.25162,834.6792,357.336,941.53815C352.29492,1048.2175,347.9758,1136.5972,347.57968,1137.9451C345.17334,1148.8584,346.71844,1109.9146,354.71283,941.2309L363.99976,748.36414L329.07376,940.1533C309.91977,1045.5925,293.6087,1132.3198,293.04233,1132.8496C292.3504,1133.1992,307.08026,1046.5066,325.75882,940.1961 Z"/>
</g>
<g style="fill:rgb(255,255,255); fill-opacity:1.0; stroke-linejoin: miter">
<path d="M321.6722,939.39703L359.0751,746.655L296.40073,931.27C261.91592,1032.7576,233.20973,1116.0988,232.66383,1116.4652C232.11765,1116.8322,231.661,1116.7426,231.41658,1116.3783C231.1719,1116.0145,259.23935,1032.7052,293.72433,931.21814C328.36115,829.76013,356.45822,746.29877,356.45544,745.5081C356.42297,744.8693,317.36136,823.8054,269.53955,920.7757C221.8401,1017.9277,182.29239,1096.9259,181.77321,1096.3497C181.25456,1095.7733,181.3116,1094.6783,181.82532,1093.6732C186.17923,1085.9935,351.90076,747.7737,351.38196,747.1976C351.13736,746.8337,302.5327,818.83655,243.24649,907.3897C184.11345,995.9727,134.78027,1068.4645,133.80759,1068.5892C132.34811,1068.7765,132.46782,1068.1678,133.92186,1066.3988C135.58759,1064.3556,245.89679,899.5339,339.28836,759.67804C345.82428,749.74084,350.877,741.7246,350.57248,741.66486C350.26828,741.6049,292.03333,807.9224,220.9219,889.09375C149.96269,970.29553,91.48328,1036.2479,90.934586,1035.8243C90.41543,1035.2482,290.35132,805.221,344.95273,743.7218C349.01318,739.146,349.01318,739.146,345.55353,741.46893C343.5506,742.8137,276.80246,800.9781,197.16751,870.83344C117.68482,940.7187,52.33098,997.4183,51.964096,996.87195C51.59726,996.3255,52.140823,995.16797,53.111282,994.25195C54.233612,993.3664,117.644356,937.7076,194.06435,870.5397C270.48438,803.3715,336.14,745.9413,339.77875,742.7051C349.08975,734.73553,313.73373,757.8171,155.56679,863.76447C80.24629,914.0798,18.70082,954.61536,18.850388,953.8548C18.999912,953.0938,92.34506,903.181,181.7755,842.99493C344.21976,733.7786,344.24973,733.6262,319.77567,745.5703C306.32343,752.0936,227.22365,791.077,143.93335,832.08124C11.088742,897.6441,-20.82604,912.86664,-6.8957334,903.9087C-4.9226255,902.71606,73.508385,863.9178,167.2749,817.85974C261.0411,771.80206,339.10852,733.2484,340.5949,732.11816C342.23383,731.0176,340.95685,731.0825,337.40186,732.28076C254.98203,760.8119,-28.921986,856.74866,-29.288866,856.2027C-29.685553,855.80853,-28.86743,854.8631,-27.65275,854.31134C-26.408182,853.60767,56.590412,825.3479,156.69255,791.2823C256.795,757.21686,339.64154,728.9276,340.55185,728.3162C342.88916,726.87866,358.51163,723.78503,147.48254,765.7648C44.84054,786.2132,-40.659286,803.0757,-42.423042,803.2036C-54.860912,803.7622,-20.09053,796.52814,147.17024,763.33264C313.58102,730.4446,349.17203,723.056,339.01675,724.06323C333.696,724.598,-43.242035,749.4631,-47.71213,749.6909C-50.875412,749.7017,-51.91059,749.3399,-50.636173,748.48376C-49.573555,747.9026,38.760033,741.55383,146.03943,734.5036C253.16702,727.4225,340.65054,721.3817,340.40582,721.01746C340.28354,720.8353,252.97256,714.74023,146.22394,707.8288C39.65749,700.79553,-48.626255,694.8261,-49.96581,694.4047C-60.83253,691.7952,-22.076576,694.03754,146.58022,705.2123L339.088,718.0718L165.941,683.09686C70.617584,663.8901,-15.667547,646.14325,-26.107664,643.77527C-36.548058,641.40753,41.78896,656.17,147.94405,676.55707L340.89822,713.6858L156.2832,651.0108C54.795036,616.52594,-28.546232,587.8204,-28.912905,587.27405C-29.279825,586.7279,-29.189995,586.2712,-28.825891,586.02686C-28.46179,585.78253,54.8471,613.8493,156.33502,648.33417C257.7932,682.97156,341.25455,711.0689,342.04538,711.0662C342.6839,711.03345,263.74817,671.97205,166.77731,624.1499C69.62494,576.4509,-9.373034,536.90283,-8.796841,536.3838C-8.22078,535.86487,-7.125611,535.9224,-6.1201987,536.43555C1.4068537,540.7597,339.8091,706.35944,340.3556,705.9928C340.71948,705.7481,268.5643,657.11304,180.13326,598.0095C91.54966,538.876,19.057985,489.5428,18.933043,488.5703C18.80813,487.5972,21.427532,488.74426,24.780848,490.98352C29.079367,494.04123,293.91705,671.26245,341.31778,702.7048C343.66547,704.43036,345.8283,705.4876,345.85828,705.3354C345.91806,705.0311,279.63077,646.64417,198.42879,575.68427C117.256615,504.57315,51.3041,446.09412,51.698044,445.69775C52.304398,445.0263,273.69946,637.4175,343.8315,699.5637C348.37747,703.776,348.37747,703.776,346.08444,700.1643C344.73947,698.1615,286.57526,631.41364,216.71927,551.77814C146.8335,472.29544,90.13406,406.94177,90.68026,406.5749C91.22646,406.20807,92.38422,406.7518,93.29984,407.722C94.18557,408.84448,149.84427,472.2551,217.0131,548.67487C284.15176,625.24744,341.61218,690.7508,344.8183,694.5415C353.0924,703.9123,328.51315,666.5236,223.81795,510.02496C173.47314,434.85703,132.93642,373.31122,133.69733,373.46097C134.4582,373.61053,184.37164,446.95575,244.55804,536.3864L353.92697,698.86053L339.83926,670.01337C332.06046,654.10236,293.0773,575.00275,253.17575,494.1417C189.69365,365.1832,174.68524,333.78458,183.64348,347.71527C184.83635,349.68796,223.63487,428.1189,269.69272,521.8852C315.75107,615.65186,354.305,693.71893,355.43555,695.20557C356.5359,696.8443,356.47058,695.56726,355.27264,692.01263C332.63895,627.0311,230.80371,325.68842,231.34993,325.32184C231.74379,324.92514,232.68956,325.74283,233.24121,326.95792C233.945,328.20264,262.20444,411.20087,296.27023,511.30353C330.33572,611.40576,358.6259,694.2521,359.2369,695.16266C360.6446,697.65173,363.24396,710.96454,321.78793,502.09354C301.33975,399.45114,284.4768,313.95123,284.34946,312.18732C283.76016,299.90176,290.9022,334.33798,324.2199,501.78107C357.26102,668.2216,364.5273,703.6307,363.49,693.6275C362.9552,688.3066,338.08932,311.36856,337.86148,306.8983C337.85104,303.73483,338.21228,302.69974,339.06836,303.974C339.64957,305.037,345.9687,393.52264,353.04947,500.65015C360.13034,607.7778,366.17215,695.2611,366.50632,695.16864C366.71838,694.8943,372.81268,607.5831,379.72418,500.8349C386.75748,394.268,392.7267,305.98456,393.148,304.64502C395.72784,293.93008,393.51532,332.53394,382.34067,501.19092L369.48206,693.6989L403.8586,523.59564C422.70636,430.09775,440.48257,343.6604,443.17953,331.54633C445.87628,319.43207,431.3531,396.55182,410.93646,502.8591L373.71826,696.26984L393.74542,636.98474C460.27402,440.79984,499.39838,326.15652,500.279,325.69766C500.82532,325.3308,501.2818,325.42047,501.52625,325.78436C501.7707,326.14865,473.70367,409.458,439.21893,510.94598C404.58176,612.4042,376.4846,695.8649,376.4872,696.65594C376.5198,697.2948,415.5818,618.35876,463.4032,521.38806C511.10254,424.2357,550.4982,345.20746,551.1692,345.8135C551.6882,346.38956,551.63086,347.48468,551.11743,348.49008C546.76355,356.16934,381.19397,694.4198,381.56097,694.96594C381.8054,695.33,430.4102,623.3275,489.54416,534.74396C548.82983,446.19037,598.01044,373.66864,599.1358,373.5736C600.5951,373.3861,600.47534,373.99475,599.0212,375.76395C597.3556,377.80685,487.046,542.6297,393.6247,682.63806C387.11804,692.4229,382.06598,700.43896,382.37012,700.499C382.52243,700.5289,440.90967,634.24164,511.8689,553.0396C582.9806,471.86734,641.4897,405.7626,641.8565,406.3088C642.4055,406.7326,586.35547,471.58215,517.4263,550.49664C448.52704,629.2585,390.232,695.8795,387.9899,698.4423L383.89993,703.17035L387.99542,700.02386C390.2399,698.2525,456.98825,640.08813,536.22925,570.6289C615.4708,501.16974,680.7647,444.7747,680.97943,445.29105C681.3463,445.83722,680.8025,446.99484,679.8324,447.91052C678.7098,448.79617,616.6333,503.29498,541.75934,569.02893C466.88538,634.7627,401.38217,692.22296,396.04474,696.864C383.27734,707.9474,403.21613,694.95435,577.5284,578.4288C652.6974,528.08356,714.24304,487.5471,714.093,488.30783C713.9434,489.06885,640.5986,538.9824,551.31976,599.19867L388.6928,708.5373L417.53964,694.45C433.45096,686.6715,512.55096,647.6881,593.41205,607.78644C722.37134,544.3046,753.7703,529.2963,739.84015,538.2546C737.8669,539.4472,659.43506,578.24554,565.66833,624.30347C471.90134,670.3617,393.83438,708.91547,392.3475,710.04584C390.7092,711.14667,391.98633,711.0812,395.54092,709.8832C485.7679,678.61835,761.8659,585.41425,762.2329,585.9604C762.6297,586.3548,761.8117,587.3005,760.5967,587.85187C759.3528,588.5557,676.3531,616.8152,576.2505,650.8808C476.1475,684.9468,393.45352,713.2663,392.39117,713.8478C390.05383,715.2849,374.2788,718.3489,586.9499,676.0592C747.9806,644.00964,780.7777,637.96844,775.6173,640.90594C775.253,641.15045,689.87476,658.1954,585.77313,678.8308C419.36157,711.71967,383.77097,719.1076,393.92587,718.1006C399.24673,717.5657,776.18634,692.70087,780.6566,692.47284C783.81964,692.4622,784.8548,692.82355,783.58044,693.6797C782.67017,694.29065,694.03156,700.5797,586.9036,707.66034C479.77576,714.7409,392.29276,720.7823,392.38483,721.11664C392.65952,721.3288,480.00018,727.2709,586.71936,734.33484C693.2864,741.368,781.72253,747.3678,783.06213,747.789C793.77704,750.36884,754.5346,748.189,586.21094,736.922L393.55063,724.0327L566.8498,759.037C662.1738,778.24384,748.6119,796.0208,759.0523,798.3884C769.49207,800.7567,691.1549,785.9938,584.9994,765.6068L392.0443,728.4783L576.65985,791.153C678.1487,825.6376,761.49066,854.34393,761.85706,854.8901C762.2239,855.4363,762.1343,855.8927,761.7701,856.1374C761.40625,856.3818,678.0966,828.3147,576.6079,793.82965C475.14944,759.19226,391.68845,731.0951,390.89764,731.0979C390.25903,731.1305,469.1948,770.1921,566.1656,818.0138C663.31885,865.7132,742.3172,905.2612,741.7411,905.78064C741.16473,906.2998,740.0701,906.2424,739.0645,905.7285C731.3853,901.3747,393.13358,735.8045,392.5875,736.1709C392.22327,736.4158,464.22574,785.0206,552.78015,844.3067C641.3639,903.4403,713.88654,952.6213,714.0407,953.442C714.0438,954.23267,644.2087,908.26685,558.7335,851.0085C377.11472,729.65356,387.20395,736.21985,387.05435,736.98047C386.9946,737.2848,453.3119,795.5199,534.48444,866.63153C615.68646,937.59076,681.6399,996.07056,681.21606,996.61914C680.63983,997.13806,450.6105,797.20184,389.11118,742.6004C384.5354,738.5403,384.5354,738.5403,386.85858,741.9996C388.20355,744.0024,446.36774,810.7508,516.22406,890.3857C586.10974,969.8685,642.80963,1035.2227,642.26337,1035.5896C641.71704,1035.9568,640.5595,1035.4131,639.6438,1034.4426C638.75775,1033.3201,583.09894,969.9096,515.93024,893.48926C448.79123,816.91705,391.33035,751.413,388.12418,747.62213C379.85065,738.2517,404.42938,775.6403,509.12506,932.1386C559.47076,1007.30774,600.0066,1068.8527,599.2458,1068.7032C598.48486,1068.5536,548.5718,995.2087,488.35516,905.93C379.1679,743.33325,379.01596,743.30334,390.95975,767.7777C397.48303,781.22955,436.46674,860.32965,477.47107,943.61975C543.0349,1076.4647,558.25793,1108.3807,549.2997,1094.4491C548.10724,1092.476,509.3083,1014.0449,463.25012,920.2787C417.19144,826.5124,378.63757,748.4448,377.50726,746.9581C376.40717,745.3197,376.47202,746.5967,377.67,750.15137C406.20197,832.5712,502.13928,1116.4757,501.59296,1116.8419C501.19904,1117.2389,500.2533,1116.4213,499.70178,1115.2062C498.9984,1113.9615,470.73834,1030.9628,436.67252,930.8607C402.6066,830.7581,374.287,748.0639,373.7056,747.00146C372.26807,744.6643,369.14197,728.4031,411.46454,941.71155C432.06757,1045.1746,448.62634,1130.6154,448.14267,1131.4686C446.9927,1133.2972,450.73315,1151.2596,407.79364,935.45886C375.7414,773.6381,368.4456,738.3812,369.45273,748.5363C369.9876,753.85693,394.85355,1130.7952,395.0814,1135.2656C395.09186,1138.4285,394.73032,1139.4636,394.02652,1138.219C393.26303,1137.2783,386.97382,1048.6409,379.89313,941.5131C372.81232,834.3859,366.7708,746.9028,366.4365,746.99554C366.22446,747.26965,360.1301,834.58044,353.21896,941.3288C346.18552,1047.8955,340.216,1136.1792,339.79468,1137.5186C337.18478,1148.3857,339.45737,1109.4775,350.6019,940.97266L363.49084,748.3132L324.9875,939.41626C303.86703,1044.4788,285.9381,1130.8862,285.36212,1131.4055C284.66364,1131.7422,301.01065,1045.3398,321.6722,939.39703 Z"/>
</g>
<g>
<g>
<g style="fill:rgb(0,0,0); fill-opacity:1.0; stroke-linejoin: miter">
<path d="M366.29803,458.56818L366.29803,458.70935C315.8851,461.60876,304.76242,517.1521,315.72638,535.46326C302.77618,580.97894,385.56613,606.0318,308.0419,652.561C291.84973,656.07776,269.4202,651.5625,259.53796,663.20917C226.71094,701.898,250.06543,726.01654,248.89844,756.6587C236.49907,776.9742,235.53648,802.4835,231.15094,826.44165C200.33119,851.4304,172.83246,880.1746,124.69264,885.58453C119.6392,874.0774,91.27039,866.37103,88.31909,852.09283C86.411285,842.8626,75.37411,843.6291,73.82838,849.5134C58.07239,846.742,63.54705,878.6975,66.73853,890.9088C53.867996,888.858,41.007812,886.7813,30.063162,882.0348C27.656466,886.141,24.298561,890.3198,38.3423,893.278C36.72957,899.42676,38.30536,902.5602,47.85654,902.37146C62.78293,903.0795,66.0338,911.0167,82.26315,911.01685C98.49268,911.01685,105.50234,910.49786,107.69521,917.08203C94.570724,919.7275,94.13883,939.2005,97.04675,950.0525C99.95445,960.9046,108.0025,964.2794,118.188286,970.1601C151.17715,996.3141,184.40851,1029.7086,228.196,1035.8082L368.3658,1034.6277L508.53546,1035.8085C552.3231,1029.7091,585.5544,996.3148,618.54315,970.1604C628.729,964.2798,636.7772,960.9049,639.685,950.053C642.59296,939.20105,642.1608,919.7279,629.03644,917.08234C631.2292,910.49817,638.2391,911.0173,654.4686,911.0173C670.6979,911.0173,673.94855,903.0804,688.875,902.37195C698.422,902.5614,699.99286,899.4271,698.3801,893.2784C712.42395,890.3202,709.0752,886.14154,706.6685,882.0351C695.72394,886.7818,682.86365,888.8584,669.9931,890.90924C673.18463,878.698,678.6593,846.7425,662.90344,849.5138C661.3579,843.6294,650.3203,842.8631,648.4124,852.0932C645.4613,866.37134,617.0922,874.0776,612.03876,885.5847C563.8989,880.1748,536.4002,851.43054,505.58044,826.4418C501.19482,802.4836,500.23187,776.9743,487.83282,756.6589C486.66617,726.01666,510.011,701.89813,477.18423,663.2093C467.30188,651.5616,444.88144,656.07745,428.68927,652.56085C351.16495,606.0318,433.95502,580.9788,421.00476,535.46326C431.9687,517.152,420.84497,461.6088,370.4329,458.70935L370.4329,458.56818C369.7266,458.56818,369.0574,458.62357,368.3656,458.642C367.67313,458.62357,367.00598,458.56818,366.2981,458.56818 Z M289.43436,794.0983C293.18448,812.197,292.40427,831.649,303.23007,847.62463C303.23007,847.62463,287.7549,877.10974,285.6655,888.1878C283.57562,899.2656,286.50662,911.6072,286.50662,911.6072C274.67563,913.2871,268.76694,917.4539,267.68848,923.31665C234.3155,908.46844,186.77873,908.30176,149.72185,904.8008C187.8841,896.60486,239.55757,884.56854,271.44843,862.26135C284.89502,840.1601,284.4873,816.90765,289.4338,794.0981 Z M447.297,794.09845C452.2435,816.9081,451.8358,840.16046,465.28235,862.2618C497.17297,884.569,548.8466,896.60504,587.009,904.8012C549.9522,908.30237,502.41534,908.4687,469.04242,923.31726C467.96426,917.45465,462.0552,913.2875,450.2243,911.6075C450.2243,911.6075,453.1556,899.26587,451.06543,888.1882C448.9757,877.11005,433.50076,847.62476,433.50076,847.62476C444.3264,831.6492,443.54626,812.1972,447.29633,794.0989 Z M657.66125,862.82916C660.4438,883.1071,658.71454,896.70294,644.00275,891.0334C627.71454,878.6345,650.73,871.8885,657.66125,862.82916 Z M78.41173,863.68945C86.01419,872.1932,109.4683,877.1712,94.17409,890.77734C79.93756,897.55334,77.18521,884.12,78.41173,863.68945 Z"/>
</g>
<g style="fill:rgb(0,0,0); fill-opacity:1.0; stroke-linejoin: miter">
<path d="M367.51947,458.56818L367.51947,458.56818L367.51947,458.70935C367.51947,459.3568,367.0144,459.89172,366.36813,459.92896L366.36813,459.92896C326.7133,462.20956,311.83932,497.80768,313.17853,521.0931L313.17853,521.0931C313.5017,526.7107,314.76965,531.4878,316.77435,534.83563L316.90118,535.7974C312.09277,552.69727,320.9026,566.7052,329.73642,580.6342L329.73642,580.6342C337.68536,593.1675,345.78204,605.7939,341.78598,619.8392L341.78598,619.8392C338.79968,630.3349,329.16544,641.3073,308.67047,653.6082L308.30124,653.7545C302.80515,654.94824,296.63623,655.23193,290.59653,655.51337L290.59647,655.51337C284.50925,655.7965,278.55188,656.0773,273.29584,657.2189L273.29584,657.2189C267.98666,658.3721,263.5466,660.37244,260.46924,663.99927L260.46924,663.99927C238.00688,690.47284,242.27293,709.8443,246.62189,729.65515L246.62189,729.65515C248.52832,738.33966,250.48087,747.2047,250.11896,756.7051L249.94101,757.29474C240.55005,772.68146,237.80235,791.13617,235.02637,809.9009L235.02637,809.9009C234.19844,815.4973,233.36688,821.1198,232.3525,826.6617L231.92021,827.3902C227.66727,830.8385,223.44818,834.383,219.24805,837.9121L219.24805,837.9121C215.03996,841.44824,210.82585,844.9893,206.54288,848.4618L206.54288,848.4618C184.20525,866.57336,159.96973,882.849,124.829056,886.7985C124.297714,886.8583,123.789276,886.5652,123.574295,886.0757L123.574295,886.0757C121.48721,881.32324,114.92135,877.12524,107.489044,872.4429L107.48901,872.4429C99.73704,867.55884,91.1119,862.18134,88.036255,855.178L88.036285,855.178C87.63529,854.26465,87.32532,853.3191,87.12296,852.3403L87.12296,852.34C86.09678,847.3748,82.143745,845.8209,78.97107,846.47687L78.9711,846.47687C76.97451,846.8897,75.453445,848.1344,75.009735,849.8236C74.848335,850.4381,74.24268,850.82635,73.61682,850.71625L73.61682,850.71625C68.54884,849.8246,65.96078,853.0063,64.903175,859.01904L64.903175,859.01904C63.233215,868.51355,65.97103,883.1417,67.92026,890.6C68.024536,890.9989,67.920395,891.4238,67.6433,891.72925C67.36623,892.0346,66.95367,892.1799,66.54632,892.1149L66.54632,892.1149C53.709007,890.06946,40.68984,887.97485,29.577135,883.1554L31.11678,882.65265C31.018707,882.8201,30.831268,883.1344,30.733799,883.2978L30.733963,883.29736C30.592636,883.53406,30.495964,883.69556,30.36054,883.92664L30.36054,883.92664C28.856836,886.49225,28.296762,887.9854,31.045956,889.5965L31.046036,889.5965C32.496387,890.4466,34.861523,891.2963,38.594063,892.08295C38.921185,892.1518,39.20577,892.352,39.381454,892.6361C39.557144,892.92053,39.60858,893.2645,39.52377,893.58813L39.52377,893.58813C38.385254,897.9288,39.02827,899.82367,42.27692,900.676L42.276894,900.676C43.61192,901.02625,45.418392,901.19806,47.832447,901.15045L47.914455,901.1514C55.249737,901.4995,59.878834,903.5505,64.37024,905.5355L64.37024,905.5355C68.83388,907.5087,73.156425,909.4158,80.1105,909.74554L80.110306,909.74554C80.78622,909.7773,81.5316,909.7953,82.26315,909.7953L82.26315,909.7953C83.60714,909.7953,84.31759,909.79346,85.572525,909.7904L85.57263,909.7904C86.54906,909.788,87.48816,909.78577,88.39181,909.78577L88.39181,909.78577C99.925064,909.7855,106.62378,909.9997,108.85409,916.69617C108.96468,917.02814,108.92753,917.3914,108.75205,917.6945C108.57659,917.9974,108.27964,918.21045,107.93658,918.2793L107.93658,918.2793C96.99049,920.4856,95.416595,936.15717,97.693146,947.4509L97.69319,947.4511C97.8537,948.2477,98.03345,949.0158,98.226524,949.7363L98.226555,949.7363C100.660774,958.8216,106.82329,962.34283,115.46288,967.2077L115.46288,967.2077C116.47782,967.7792,117.71928,968.479,118.79896,969.10236L118.947136,969.20294C124.36357,973.4972,129.74562,977.9527,135.20647,982.4723L135.20647,982.4723C140.74785,987.05884,146.3759,991.7167,152.05847,996.22156L152.05853,996.22156C174.99171,1014.4035,199.37108,1030.5599,228.36458,1034.5983L228.18575,1034.5868L368.3555,1033.406L368.3761,1033.406L508.54578,1034.587L508.367,1034.5985C544.5956,1029.5524,573.5767,1005.6054,601.5266,982.4718L601.5266,982.4718C606.9831,977.95514,612.37213,973.4942,617.78436,969.20325L617.8909,969.1276L617.895,969.1251L617.9365,969.1001C619.01117,968.47974,620.25946,967.77576,621.2694,967.20715L621.2694,967.20715C622.2605,966.649,623.3062,966.05975,624.2311,965.5255L624.2312,965.5255C631.31104,961.4388,636.36115,957.73883,638.5052,949.73676L638.5052,949.73676C641.39966,938.93494,640.6104,921.42017,629.5632,918.4595L629.56354,918.4598C629.31573,918.3934,629.05383,918.3321,628.7954,918.28C628.45215,918.21094,628.1551,917.9979,627.9797,917.69507C627.804,917.39215,627.767,917.0287,627.87744,916.6965L627.87744,916.6965C630.2623,909.53577,637.78546,909.75885,651.15875,909.79083L651.1589,909.79083C652.4139,909.7939,653.1242,909.7957,654.4686,909.7957L654.4686,909.7957C662.7208,909.7957,667.4719,907.6979,672.36176,905.53613L672.36176,905.53613C676.8509,903.55176,681.4839,901.5,688.8172,901.1519L688.8993,901.15094C696.22943,901.29614,697.6591,899.49066,697.70856,896.9964L697.70856,896.9964C697.727,896.0676,697.5534,894.9406,697.19867,893.5885C697.1139,893.2649,697.1654,892.92096,697.34106,892.6365C697.5167,892.35236,697.8012,892.1522,698.1284,892.0833L698.1284,892.0833C707.4833,890.11255,707.837,887.8826,707.5555,886.5453L707.5555,886.5453C707.35596,885.59827,706.754,884.5643,705.99445,883.2927L705.9943,883.2923C705.85315,883.05585,705.7569,882.89514,705.61475,882.6527L707.1546,883.1557C696.0419,887.9752,683.0229,890.0699,670.1853,892.11536C669.778,892.1803,669.3653,892.0351,669.08826,891.72974C668.8113,891.42426,668.70703,890.9994,668.8114,890.6004L668.8114,890.6004C671.9309,878.6649,675.87384,853.2402,666.4179,850.76874L666.4181,850.76874C665.5103,850.5313,664.42096,850.4866,663.1151,850.7166C662.4893,850.8267,661.8835,850.4385,661.72205,849.8239L661.72205,849.8239C661.05475,847.2831,657.8364,845.7175,654.6253,846.56104L654.6252,846.56104C652.4168,847.14105,650.3216,848.89026,649.6085,852.3404L649.6085,852.3404C647.85596,860.8197,637.93036,866.96985,629.2423,872.4433L629.2423,872.4433C621.81,877.1255,615.24396,881.3243,613.1571,886.07587C612.9421,886.56537,612.4338,886.85846,611.9024,886.7987L611.9024,886.7987C570.02765,882.0926,543.6195,859.87354,517.4832,837.9123L517.4832,837.9123C513.27814,834.37915,509.0691,830.8427,504.8111,827.3903L504.3789,826.6618C503.3634,821.11456,502.5337,815.5039,501.70496,809.90137L501.70496,809.90137C500.87695,804.3044,500.04956,798.71344,499.04498,793.2253L499.04498,793.2256C496.68915,780.3564,493.36102,768.0611,486.79016,757.2949L486.61224,756.70526C486.25064,747.2061,488.20154,738.34314,490.10663,729.6591L490.10663,729.6591C492.01678,720.9522,493.88055,712.42737,493.5351,703.3544L493.5351,703.3544C493.09094,691.688,488.9827,679.0024,476.25287,663.9994L476.25287,663.9994C470.06818,656.71014,458.5311,656.0901,446.13138,655.5128L446.13138,655.5128C440.09442,655.23157,433.92474,654.94794,428.43002,653.7544L428.06073,653.6081C384.81454,627.6526,390.53342,607.7945,402.60547,587.6806L402.60547,587.6806C404.0154,585.33136,405.49997,582.9911,406.99475,580.6345L406.99475,580.6345C408.51648,578.2349,410.032,575.84546,411.49228,573.41223L411.49228,573.41223C418.4781,561.77264,423.8015,549.7565,419.82986,535.7975L419.95676,534.83563C428.27478,520.94354,423.3463,483.7739,396.2549,467.5526L396.2549,467.5526C389.2008,463.32913,380.62955,460.51932,370.36282,459.92896C369.71652,459.89172,369.21155,459.3568,369.21155,458.70935L369.21155,458.70935L369.21155,458.56818L370.4329,459.78967C370.0414,459.78967,369.66312,459.8079,369.2469,459.82822L369.24664,459.82822C368.99078,459.8405,368.67505,459.8558,368.39798,459.86295L368.3333,459.86295C368.05548,459.8558,367.74048,459.8405,367.48447,459.82822L367.48395,459.828C367.21738,459.81494,366.94043,459.80164,366.6875,459.79507L366.68762,459.79507C366.56622,459.79187,366.41776,459.78967,366.2981,459.78967L366.2981,459.78967L366.29803,459.78967L367.51947,458.56818 M365.0766,458.56818C365.0766,457.89368,365.62347,457.34668,366.29803,457.34668L366.29803,457.34668L366.2981,457.34668L366.2981,457.34668C366.44107,457.34668,366.61612,457.34955,366.75183,457.35306L366.75192,457.35306C367.05023,457.361,367.32785,457.37473,367.60345,457.3882L367.60297,457.38797C367.86722,457.40085,368.1474,457.41437,368.39798,457.42093L368.33325,457.42093C368.583,457.41437,368.86407,457.40085,369.12827,457.38797L369.12793,457.38797C369.52872,457.36847,369.97968,457.34668,370.4329,457.34668C371.10748,457.34668,371.6543,457.89368,371.6543,458.56818L371.6543,458.56818L371.6543,458.70935L370.50305,457.48993C381.14847,458.1023,390.10434,461.0227,397.50986,465.4569L397.50986,465.4569C425.6717,482.31885,431.1148,520.95557,422.05267,536.09064L422.17957,535.12885C426.4476,550.12976,420.63132,562.9321,413.58694,574.66943L413.58694,574.66943C412.10864,577.1326,410.57678,579.5473,409.05762,581.94257L409.05762,581.94257C407.5616,584.30145,406.09024,586.6215,404.7,588.9378L404.7,588.9378C393.27783,607.96875,387.30112,626.29596,429.31784,651.51355L428.94855,651.3671C434.2025,652.50836,440.1608,652.7896,446.24496,653.0727L446.24496,653.0727C458.24078,653.63104,471.09674,654.1464,478.1156,662.41895L478.1156,662.41895C491.1553,677.78723,495.5088,690.9845,495.97626,703.2615L495.97626,703.2615C496.33533,712.69507,494.39325,721.5195,492.49268,730.1826L492.49268,730.1826C490.5783,738.90924,488.7054,747.4733,489.0533,756.6124L488.8754,756.02246C495.67938,767.17065,499.07336,779.8144,501.4478,792.78546L501.4478,792.7857C502.46204,798.32635,503.29376,803.94946,504.12158,809.54407L504.12158,809.54407C504.95062,815.149,505.77594,820.72675,506.78186,826.2215L506.3498,825.49304C510.62238,828.9574,514.8571,832.5152,519.05475,836.04193L519.05475,836.04193C545.2206,858.02783,571.1162,879.7567,612.17523,884.3709L610.9204,885.09357C613.38245,879.48773,620.81586,874.8645,627.94,870.3763L627.94,870.3763C637.03394,864.64685,645.72345,859.06793,647.2162,851.8462L647.2162,851.8462C648.1156,847.495,650.8909,845.0158,654.0049,844.19824L654.00476,844.19824C658.0688,843.13055,662.96686,844.9474,664.0847,849.2034L662.6918,848.31067C664.2808,848.0312,665.729,848.0636,667.03564,848.4053L667.03564,848.4053C679.4717,851.6554,673.8519,880.9749,671.1749,891.21796L669.801,889.70294C682.70746,887.6465,695.40326,885.5897,706.1825,880.91455C706.749,880.66895,707.41003,880.88464,707.7222,881.4175L707.7222,881.4175C707.846,881.6286,707.9626,881.824,708.0919,882.04016L708.09155,882.04C708.78925,883.208,709.6451,884.61505,709.9457,886.0417L709.9457,886.0417C710.7633,889.9228,707.59064,892.58685,698.632,894.47375L699.5617,892.9685C699.9446,894.42847,700.17566,895.7993,700.151,897.0448L700.151,897.0448C700.055,901.88446,696.24756,903.73975,688.8507,903.5932L688.9329,903.59204C682.07666,903.91754,677.79236,905.80646,673.34924,907.7707L673.34924,907.7707C668.37964,909.96747,663.24445,912.2387,654.4686,912.2387L654.4686,912.2387C653.1208,912.2387,652.4081,912.2369,651.15295,912.2336L651.15295,912.2336C636.75433,912.1995,631.8854,912.39355,630.1951,917.46857L629.27747,915.8849C629.5805,915.94604,629.9049,916.02203,630.1948,916.0996L630.1954,916.10004C643.7456,919.73126,643.65875,939.9423,640.86475,950.3689L640.86475,950.3689C638.45557,959.3609,632.649,963.48694,625.4526,967.6411L625.4527,967.6411C624.5112,968.1846,623.46014,968.777,622.468,969.33563L622.468,969.33563C621.4895,969.8865,620.1864,970.6219,619.15796,971.2156L619.19946,971.19055L619.1955,971.1932L619.302,971.1175C613.9158,975.3877,608.542,979.8358,603.08405,984.35345L603.08405,984.35345C575.24554,1007.39496,545.7384,1031.859,508.70392,1037.018L508.5252,1037.0297L368.3555,1035.8489L368.3761,1035.8489L228.20633,1037.0294L228.02754,1037.0177C198.34645,1032.8834,173.53226,1016.364,150.54088,998.1361L150.54092,998.1361C144.82626,993.6055,139.19545,988.9451,133.64883,984.3541L133.64883,984.3541C128.1824,979.8296,122.82431,975.3944,117.42945,971.1172L117.57758,971.2178C116.53875,970.6181,115.253334,969.8929,114.26429,969.3362L114.26429,969.3362C105.71869,964.52423,98.59942,960.5669,95.8669,950.36847L95.8669,950.36847C95.65929,949.5939,95.46897,948.7797,95.29844,947.9336L95.29844,947.93384C93.10109,937.03284,93.96119,918.60455,107.4539,915.8848L106.53639,917.46826C104.977745,912.78845,100.70032,912.2285,88.39186,912.2287L88.39181,912.2287C87.49239,912.2287,86.55469,912.2311,85.5783,912.23315L85.5784,912.23315C84.32342,912.23645,83.61099,912.2383,82.26315,912.2383L82.26315,912.2383C81.500916,912.2383,80.70276,912.2192,79.99501,912.18555L79.99482,912.18555C72.56505,911.8333,67.89395,909.7641,63.38263,907.77L63.382607,907.77C58.93732,905.8052,54.656956,903.91705,47.79864,903.59155L47.880642,903.5927C45.35277,903.64276,43.29864,903.46954,41.657063,903.039L41.657063,903.039C36.37937,901.6544,35.90754,897.74664,37.16083,892.96814L38.090538,894.4733C34.262917,893.667,31.596474,892.751,29.81069,891.7042L29.810774,891.7042C25.017925,888.8951,26.735546,885.28033,28.252905,882.6914L28.252905,882.6914C28.381762,882.4716,28.508753,882.2588,28.636625,882.0448L28.636847,882.0444C28.740965,881.8702,28.911077,881.58484,29.009481,881.4168C29.321665,880.88434,29.98253,880.66864,30.549133,880.91425L30.549133,880.91425C41.328564,885.58936,54.02426,887.64606,66.93073,889.70245L65.55675,891.2174C63.60195,883.73804,60.72765,868.65704,62.49724,858.5958L62.49724,858.5958C63.623947,852.19025,66.86931,847.0491,74.039986,848.3103L72.647,849.203C73.385414,846.3919,75.82209,844.633,78.4766,844.08453L78.47666,844.08453C82.81624,843.18756,88.18498,845.40955,89.51525,851.8458L89.51525,851.8456C89.68059,852.6452,89.9354,853.42706,90.27296,854.1956L90.27298,854.1956C92.978645,860.357,100.77586,865.32574,108.79125,870.3757L108.79122,870.3757C115.915565,874.8643,123.34883,879.4868,125.81099,885.0934L124.556244,884.3707C159.00223,880.49945,182.79173,864.5744,205.00433,846.56433L205.00433,846.56433C209.2673,843.1079,213.46635,839.57947,217.67656,836.04175L217.67656,836.04175C221.87204,832.51666,226.11131,828.9552,230.3817,825.4929L229.94952,826.2214C230.9554,820.7262,231.78056,815.1488,232.6098,809.54364L232.6098,809.54364C235.37065,790.8811,238.16054,771.9077,247.85587,756.0223L247.67795,756.61224C248.026,747.4723,246.15173,738.9063,244.23578,730.1787L244.23578,730.1787C239.83928,710.15106,235.3834,689.78906,258.60654,662.41876L258.60654,662.41876C262.17105,658.21796,267.2033,656.0424,272.7773,654.83167L272.77737,654.83167C278.27417,653.63806,284.44284,653.35425,290.48288,653.0731L290.48288,653.0731C296.56985,652.78973,302.5273,652.5087,307.78265,651.36725L307.4134,651.5137C327.7476,639.30945,336.7096,628.75385,339.43628,619.17035L339.43628,619.17035C343.0779,606.3717,335.78983,594.7399,327.67352,581.94244L327.67352,581.94244C318.95398,568.1939,309.39777,553.24243,314.5515,535.1288L314.67834,536.0906C312.4055,532.2946,311.07666,527.0929,310.7397,521.2335L310.7397,521.2335C309.35532,497.16248,324.72614,459.8768,366.2279,457.48993L365.0766,458.70935L365.0766,458.56818 Z M290.63043,793.8505L290.63043,793.8505C291.6936,798.98126,292.39444,804.21094,293.08923,809.39185L293.08923,809.39185C293.7861,814.58777,294.47595,819.7283,295.51852,824.7594L295.51852,824.7599C297.1447,832.60864,299.61633,840.1142,304.2412,846.9394C304.49377,847.3123,304.52084,847.79395,304.31158,848.19244L304.31158,848.19244C304.25836,848.29395,288.91196,877.5657,286.86572,888.41425L286.86572,888.4145C284.8348,899.1803,287.6783,911.25433,287.69528,911.3262L287.65012,911.1781L287.6502,911.17834C287.7802,911.5247,287.746,911.9121,287.55707,912.2304C287.3681,912.5488,287.04492,912.76447,286.67825,912.81647L286.67825,912.81647C274.93207,914.4843,269.81265,918.52075,268.8897,923.5376C268.822,923.906,268.58926,924.22266,268.25803,924.39746C267.92688,924.57196,267.534,924.585,267.19196,924.4329L267.19196,924.4329C240.94727,912.75574,205.7878,910.2199,173.71819,907.92004L173.71819,907.92004C165.39359,907.323,157.27386,906.74115,149.60692,906.0169C149.00679,905.96014,148.5378,905.4742,148.50249,904.8724C148.4671,904.2704,148.87602,903.73303,149.4653,903.6065L149.49059,903.60114L149.50818,903.59796L149.48285,903.60333C187.70062,895.3944,239.10265,883.39606,270.74832,861.26056L270.40488,861.6264C279.958,845.92474,282.42682,829.6226,284.92175,813.05786L284.92175,813.05786C285.88373,806.6712,286.8515,800.24243,288.24017,793.8393C288.319,793.4756,288.55933,793.1677,288.89304,793.0028C289.22665,792.8381,289.61716,792.83453,289.95383,792.9929L289.95383,792.9929L289.95444,792.9933L290.63043,793.8505 M288.23837,794.34644L288.91434,795.2036L288.9138,795.2032L290.6275,794.3571C289.2577,800.67365,288.3017,807.01984,287.3374,813.422L287.3374,813.422C284.84982,829.93744,282.33582,846.7165,272.4919,862.89624L272.1485,863.2621C240.02255,885.7338,188.0989,897.80743,149.99588,905.9915L149.97057,905.99677L149.95303,906.00006L149.83669,903.58466C157.49243,904.3079,165.54109,904.8848,173.89285,905.4835L173.89285,905.4835C205.83043,907.77374,241.47006,910.31464,268.18494,922.2006L266.48715,923.0959C267.7213,916.3879,274.41913,912.08984,286.3349,910.39777L285.3629,912.036L285.36285,912.03577L285.3177,911.88763C285.29672,911.79865,282.3302,899.2791,284.46518,887.96124L284.46518,887.9615C286.598,876.65375,302.2018,846.95557,302.14853,847.057L302.21893,848.30994C297.34872,841.1227,294.78845,833.27673,293.1264,825.25494L293.1264,825.25555C292.06345,820.1256,291.36273,814.8969,290.66797,809.7165L290.66797,809.7165C289.971,804.5203,289.281,799.3783,288.23837,794.34644 Z M448.49063,793.8396L448.49063,793.8396C449.87973,800.2446,450.84677,806.66974,451.80902,813.0586L451.80902,813.0586C452.77216,819.4535,453.73074,825.813,455.09906,832.12274L455.09906,832.12274C457.27032,842.13464,460.46808,851.99896,466.3259,861.6271L465.98248,861.261C497.63397,883.40063,549.0448,895.39844,587.26544,903.60693C587.8548,903.7337,588.26373,904.27075,588.22833,904.8728C588.1929,905.4746,587.72394,905.9606,587.1239,906.0173L587.1239,906.0173C579.4735,906.7399,571.31946,907.32513,563.0115,907.92084L563.0115,907.92084C554.1834,908.5539,545.1349,909.20264,536.06714,910.0595L536.06714,910.0595C512.22107,912.31256,488.5292,915.9838,469.53888,924.4333C469.19684,924.58545,468.80386,924.5724,468.4727,924.3979C468.14157,924.2231,467.90878,923.9065,467.84106,923.538L467.84106,923.538C466.91846,918.5213,461.79874,914.48474,450.05258,912.81683C449.7125,912.7688,449.40848,912.57904,449.21503,912.29535C449.0216,912.0116,448.9565,911.65924,449.03595,911.3252L449.03595,911.3252C449.02753,911.3606,450.59583,904.76086,450.59576,896.9377L450.59576,896.9377C450.59576,894.1533,450.39688,891.2329,449.86517,888.4148L449.86517,888.4148C447.81863,877.5658,432.47244,848.29407,432.41925,848.1928C432.2099,847.79395,432.23703,847.3124,432.48953,846.9397L432.48953,846.9397C440.08914,835.7245,441.85263,822.7299,443.64148,809.392L443.64148,809.392C444.336,804.2135,445.03748,798.98016,446.1003,793.8509L446.80026,792.98267L446.80093,792.9824C447.13672,792.833,447.5219,792.84314,447.84955,793.0093C448.17722,793.17535,448.41278,793.48035,448.49063,793.8396L448.49063,793.8396 M446.10324,794.3574L447.79303,795.21466L447.7924,795.2149L448.49237,794.34674C447.45035,799.3759,446.75912,804.52423,446.06268,809.71674L446.06268,809.71674C444.28647,822.9603,442.48544,836.54297,434.51193,848.31006L434.58224,847.0572C434.52908,846.9557,450.13263,876.6542,452.26566,887.9616L452.26566,887.9616C452.83258,890.9663,453.0387,894.04364,453.0387,896.9377L453.0387,896.9377C453.03876,905.0401,451.4214,911.85333,451.4127,911.88983L450.39603,910.3981C462.31152,912.0902,469.00998,916.3876,470.24365,923.0963L468.54584,922.201C487.9213,913.5805,511.95892,909.8834,535.8374,907.62726L535.8374,907.62726C544.9229,906.76886,554.02716,906.1161,562.83673,905.4842L562.83673,905.4842C571.17163,904.88654,579.25507,904.30676,586.89404,903.5851L586.7525,905.9955C548.6467,897.8114,496.71405,885.7387,464.58228,863.2628L464.23886,862.89667C458.19455,852.96173,454.91864,842.81683,452.71164,832.6405L452.71164,832.6405C451.32416,826.24274,450.35446,819.8035,449.39343,813.42255L449.39343,813.42255C448.42905,807.01953,447.4732,800.6746,446.10324,794.3574 Z M658.8713,862.66327L658.8713,862.66327C661.0236,878.3483,660.8457,892.1538,651.35925,893.4556L651.35925,893.4556C649.13617,893.7606,646.54407,893.32166,643.5636,892.1733L643.26294,892.0053C636.06805,886.5282,635.7644,881.5899,639.16705,877.12006L639.16705,877.12006C641.3107,874.3042,644.86444,871.74896,648.19464,869.3415L648.19464,869.3415C651.6146,866.86884,654.8098,864.5461,656.69104,862.087C656.99066,861.69543,657.4964,861.5223,657.9732,861.6483C658.45,861.7743,658.8042,862.1747,658.8713,862.66327L658.8713,862.66327 M656.45105,862.99506L658.6312,863.5714C656.4854,866.37634,652.94556,868.9212,649.6258,871.32104L649.6258,871.32104C646.1947,873.8018,642.988,876.1339,641.1109,878.5998L641.1109,878.5998C638.74133,881.713,638.31384,885.1679,644.7426,890.0616L644.4421,889.89386C647.2042,890.95825,649.3581,891.2642,651.02716,891.03503L651.02716,891.03503C657.58905,890.13464,658.7784,879.9553,656.45105,862.99506 Z M79.32233,862.8753L79.32233,862.8753C81.38233,865.1796,84.74812,867.2564,88.341446,869.4587L88.3415,869.4587C91.831696,871.5983,95.55546,873.8682,97.90791,876.4992L97.90796,876.4992C101.65117,880.68634,101.76594,885.6286,95.04749,891.63464L95.050545,891.6318C95.02007,891.6591,95.02325,891.6563,94.98836,891.6876L94.69898,891.88007C87.246704,895.427,82.18927,893.8436,79.486404,888.16455L79.486404,888.16455C76.935265,882.8047,76.57238,873.9452,77.19246,863.61615C77.22204,863.124,77.54469,862.69806,78.01045,862.5359C78.47619,862.37384,78.99367,862.5079,79.32233,862.8753L79.32233,862.8753 M77.50111,864.5035L79.63096,863.7627C79.00789,874.1414,79.44566,882.39465,81.6922,887.1145L81.6922,887.1145C83.65853,891.2461,87.05799,892.8113,93.64913,889.6744L93.35978,889.8668C93.377846,889.8508,93.39422,889.8361,93.41632,889.81635L93.41937,889.8135C99.40704,884.4604,98.70319,881.0542,96.08672,878.12744L96.08675,878.12744C94.02515,875.8214,90.65927,873.7451,87.06479,871.5416L87.064835,871.5416C83.57558,869.403,79.85216,867.1331,77.50115,864.5035 Z"/>
</g>
</g>
</g>
<g style="fill:rgb(255,255,255); fill-opacity:1.0; stroke-linejoin: miter">
<path d="M395.22833,1006.16754L394.97342,1009.9567Q393.16116,1021.40765,384.36804,1028.273Q375.514,1035.133,363.51562,1033.8364Q352.0647,1032.0239,345.1993,1023.2309Q342.99954,1020.3885,341.57544,1017.0367L340.37854,1013.5906Q339.39218,1010.03406,339.3811,1006.1674Q339.68045,994.3016,347.55966,986.4224Q355.43884,978.5432,367.3047,978.24384Q379.1704,978.54333,387.04965,986.42255Q394.92883,994.3017,395.22833,1006.16754"/>
</g>
<g style="fill:rgb(255,255,255); fill-opacity:1.0; stroke-linejoin: miter">
<path d="M396.09216,912.4511L395.83725,916.2403Q395.85138,917.6541,393.8534,923.36475Q392.9336,925.5697,391.6691,927.54816Q389.13995,931.50525,385.2319,934.5566Q381.29678,937.60547,376.7406,939.0431Q370.90942,940.48785,369.5569,940.29346Q367.04584,940.4081,364.3795,940.11993Q359.29016,939.31433,355.10666,937.13007Q350.0754,934.0979,349.34097,933.0778Q347.58887,931.46844,346.0632,929.5144Q339.2507,920.0595,340.40503,909.8634Q340.91245,904.7867,342.9171,900.49744Q343.91937,898.3528,345.29602,896.4049Q345.77258,895.2858,350.2237,891.0489Q357.62115,884.7937,368.16858,884.5276Q374.58844,885.0215,375.63617,885.56946Q377.97766,886.19745,380.1223,887.19977Q384.41168,889.20435,387.91354,892.7062Q389.023,893.4587,392.3242,898.402Q393.5136,900.4482,394.3288,902.6913Q395.9591,907.1774,396.09216,912.4511"/>
</g>
<g style="fill:rgb(255,255,255); fill-opacity:1.0; stroke-linejoin: miter">
<path d="M395.53372,818.634L395.27875,822.42303Q393.33505,834.0997,384.6734,840.73944Q379.79095,844.27686,376.18213,845.2259Q370.20523,847.02905,364.99847,846.41095Q359.179,845.76685,354.54822,843.31287Q348.77216,839.989,346.90558,837.36597Q345.51205,835.91797,344.0892,833.58704Q341.14047,828.25653,341.02286,827.1465Q339.5688,822.7979,339.6884,818.3029Q340.0774,806.65424,347.88318,798.96075Q355.97928,790.8735,367.6101,790.7103Q379.4187,790.84064,387.95633,799.4303Q395.424,807.72394,395.53372,818.634"/>
</g>
<g style="fill:rgb(255,255,255); fill-opacity:1.0; stroke-linejoin: miter">
<path d="M395.5108,724.603L395.25586,728.39215Q394.82394,730.98694,394.06027,733.33307Q393.8857,734.66156,391.02277,739.8115Q388.50015,743.7575,384.6505,746.70856Q380.31052,749.85284,376.97687,750.95215Q370.43753,752.9192,366.14206,752.48755Q356.26053,752.055,347.90533,744.53546Q344.1151,740.69617,341.39294,734.32446Q339.50735,729.14417,339.66544,724.2719Q339.83832,719.0948,341.4763,714.69885Q342.29523,712.50085,343.48044,710.4981Q343.84415,709.3747,347.86023,704.9296Q349.6594,703.1325,351.63303,701.7266Q352.51077,700.7791,357.94684,698.38947Q362.4179,696.75183,367.58713,696.6793Q372.8354,696.7373,377.43753,698.4662Q378.689,698.63727,383.97733,701.9995Q386.03613,703.49054,387.9334,705.3993Q391.25235,709.0854,393.11792,713.2883Q394.0507,715.3898,394.62012,717.62036Q395.7257,723.3101,395.5108,724.603"/>
</g>
<g style="fill:rgb(255,255,255); fill-opacity:1.0; stroke-linejoin: miter">
<path d="M396.47147,632.18L396.21652,635.96906Q395.75485,638.7217,394.81055,641.689Q394.5974,642.5922,391.98334,647.38837Q390.16055,650.5618,385.6111,654.28534Q381.13745,657.68475,376.51193,658.9365Q369.7124,660.7626,364.9256,659.88074Q362.7674,659.6096,360.68457,658.98865Q359.596,658.8967,354.60565,656.3379Q350.5631,654.0823,347.23416,650.281Q339.9611,641.0134,340.68265,630.70807Q341.5218,619.3111,349.22287,612.1121Q350.5317,610.7994,353.2089,608.8113Q353.89346,608.22253,358.9075,605.96643Q364.45404,604.1483,368.5478,604.2562Q374.5087,604.4061,379.15372,606.2766Q385.852,609.5263,388.89404,612.9762Q396.2676,621.033,396.47147,632.18"/>
</g>
<g style="fill:rgb(255,255,255); fill-opacity:1.0; stroke-linejoin: miter">
<path d="M395.71686,537.969L395.4619,541.75806Q394.87958,545.0233,393.97894,547.7269Q393.55243,548.9141,391.22876,553.1774Q388.6811,557.1207,384.85657,560.0744Q376.45667,566.49774,365.2596,565.8324Q362.27847,565.4957,359.2535,564.6149Q356.93665,563.74646,353.8511,562.127Q350.63202,560.535,346.47958,556.0702Q345.42474,555.07245,342.51917,549.7764Q341.49515,547.6402,340.8659,545.4526Q339.6074,541.0774,339.92804,536.4972Q339.8095,535.1012,341.2499,529.3656Q341.9447,527.1439,342.97836,525.1296Q344.89172,521.2508,348.77606,517.6012Q349.9718,516.44336,352.6599,514.44904Q353.696,513.76105,358.15292,511.7556Q364.7616,509.75934,367.79318,510.04535Q374.92444,510.43042,378.39914,512.06573Q384.35315,514.9544,387.41833,518.00116Q391.7772,522.7282,393.2775,526.5373Q393.964,527.4897,395.2722,533.1674Q395.67157,535.4919,395.71686,537.969"/>
</g>
<g style="fill:rgb(255,255,255); fill-opacity:1.0; stroke-linejoin: miter">
<path d="M395.98517,444.35043L395.7302,448.13956Q394.9811,452.06448,394.24722,454.10837Q393.50342,455.92023,391.49707,459.55893Q388.23352,464.2624,385.12488,466.45587Q383.25824,467.8833,381.25345,468.96063Q380.3374,469.71814,374.9283,471.4051Q370.50443,472.5096,365.52795,472.21387Q359.22003,471.63187,354.11942,468.50848Q350.20413,466.36304,346.49063,462.17685Q339.20218,452.52866,340.2206,442.04388Q341.4098,430.90915,349.04437,423.9827Q349.81778,423.16992,352.92825,420.83047Q354.5958,419.8351,358.42126,418.13705Q364.29562,416.36255,367.34366,416.3914Q374.75934,416.78674,377.8502,418.09924Q384.01016,420.85132,387.68668,424.38263Q395.92734,432.78424,395.98517,444.35043"/>
</g>
<g style="fill:rgb(104,37,123); fill-opacity:1.0; stroke-linejoin: miter">
<path d="M392.36673,444.34744L392.14108,447.70044Q391.33255,451.75024,390.82877,452.9823Q390.4341,454.05963,388.39523,457.80548Q385.82816,461.50504,383.36948,463.44977Q381.4564,464.98355,378.77405,466.4635Q378.1519,466.8714,373.7336,468.28802Q370.74017,469.17825,365.41528,469.00372Q355.67996,468.05966,348.56918,460.12204Q345.70276,456.32745,344.2883,452.38672Q343.70782,451.42444,342.98337,446.39343Q342.82065,444.36823,343.02094,442.30646Q342.9618,441.09674,344.35614,436.15143Q345.01248,434.2377,345.95047,432.50784Q347.7376,429.13647,351.00665,426.14764Q351.81927,425.3749,354.2658,423.53473Q356.2933,422.38528,359.1266,421.15137Q365.1866,419.41934,367.022,419.60666Q372.52744,419.79358,376.31918,421.11798Q380.78946,422.93976,385.02338,426.67807Q386.0571,427.4177,389.08026,431.94556Q390.1644,433.80515,390.8909,435.803Q392.34396,439.7986,392.36673,444.34744"/>
</g>
<g style="fill:rgb(50,40,128); fill-opacity:1.0; stroke-linejoin: miter">
<path d="M393.21167,537.6298L392.9829,541.02997Q392.31076,544.5522,391.65213,546.3862Q391.53314,546.9251,389.18427,551.2772Q386.25574,555.4979,383.46616,557.4663Q380.1161,560.028,376.27023,561.3334Q374.34726,561.98596,372.3004,562.3245Q371.3544,562.69006,365.88077,562.6333Q360.22028,562.1109,355.64325,559.3082Q352.12985,557.38306,348.79755,553.6266Q342.25726,544.9686,343.1711,535.56006Q344.23825,525.5682,351.08917,519.3527Q352.55768,517.9948,354.57434,516.5242Q356.07077,515.631,359.50354,514.1072Q364.77493,512.51483,367.51013,512.5407Q374.16455,512.8954,376.93814,514.0732Q382.46588,516.54285,385.76495,519.7116Q393.15982,527.251,393.21167,537.6298"/>
</g>
<g style="fill:rgb(70,173,222); fill-opacity:1.0; stroke-linejoin: miter">
<path d="M393.40237,632.2491L393.17358,635.64923Q392.38065,639.6726,391.78882,641.17224L389.37494,645.8964Q386.77182,649.6482,384.27844,651.6203Q376.88916,657.75104,366.0714,657.2525Q356.19904,656.295,348.9882,648.2458Q346.0814,644.3978,344.64703,640.40155Q343.92984,638.4034,343.58078,636.3682Q343.03018,631.24786,343.3618,630.17926Q343.8361,625.7384,345.45282,622.0435Q346.2612,620.1961,347.3552,618.53516Q350.3401,614.546,351.27982,613.972Q353.13895,612.299,354.765,611.1433Q355.7257,610.5148,359.69418,608.7264Q364.06033,607.3181,367.7008,607.1599Q373.2837,607.3494,377.1288,608.69244Q381.66205,610.5399,385.9556,614.3308Q389.2422,617.68164,391.07834,621.5933Q393.05624,626.60565,393.01666,627.7764Q393.39084,629.9426,393.40237,632.2491"/>
</g>
<g style="fill:rgb(62,166,56); fill-opacity:1.0; stroke-linejoin: miter">
<path d="M392.88705,724.71216L392.65823,728.11237Q392.02042,731.5065,391.27347,733.6353L388.8596,738.35956Q385.6909,742.7363,383.76312,744.0834Q380.47903,746.80817,376.5177,748.22345Q374.53696,748.9311,372.387,749.31134Q366.8639,749.9756,365.5561,749.71564Q364.377,749.82806,359.27026,748.2893Q357.27356,747.5512,355.4083,746.4629Q351.6777,744.2864,348.47287,740.70886Q342.34598,732.8272,342.74265,723.3174Q343.7471,713.1087,350.24582,706.8587Q352.49423,704.8676,354.24963,703.6064Q354.68127,703.2392,359.17886,701.18945Q362.65088,699.96295,367.18546,699.623Q373.80518,699.9898,376.61343,701.15546Q382.12598,703.6414,385.44028,706.79376Q388.14868,709.3411,390.56305,714.05646Q392.35413,718.7131,392.4193,719.52954Q392.87146,722.26465,392.88705,724.71216"/>
</g>
<g style="fill:rgb(254,235,9); fill-opacity:1.0; stroke-linejoin: miter">
<path d="M392.74615,818.5717L392.51736,821.9719Q391.72498,825.97186,391.1326,827.4949L388.7187,832.21906Q385.36044,836.9185,382.88406,838.5323Q375.37482,844.2568,364.69727,843.54364Q354.85242,842.0639,348.33194,834.56836Q345.6089,831.0654,344.17447,827.24084Q343.4572,825.3286,343.06213,823.3359Q342.35635,818.2839,342.60178,817.17694Q343.0482,812.6398,344.57993,808.8845Q346.73196,804.36163,347.48795,803.6916Q348.6608,802.10724,350.10498,800.7184Q352.72217,798.4216,354.2549,797.36365Q355.04016,796.8711,359.03802,795.0491Q363.40622,793.654,367.04465,793.4826Q374.6884,794.02466,376.4726,795.0151Q380.99084,796.87866,385.2994,800.65344Q388.57523,804.0211,390.42218,807.916Q392.01422,812.0553,392.24265,813.1603Q392.69385,815.661,392.74615,818.5717"/>
</g>
<g style="fill:rgb(238,76,25); fill-opacity:1.0; stroke-linejoin: miter">
<path d="M392.89508,912.48706L392.6663,915.88727Q391.72125,920.4856,391.28152,921.4102L388.8676,926.13446Q385.88254,930.3117,383.59415,932.0509Q379.41495,935.1902,375.73227,936.26447Q374.83923,936.78125,369.4353,937.458Q367.21893,937.6175,364.84616,937.45905Q362.65842,937.1302,360.63483,936.5042Q359.52045,936.37695,354.9335,933.95807Q351.37885,931.815,348.48083,928.4837Q342.44666,920.6693,342.70786,911.38696Q343.0054,907.334,344.72882,902.79987Q346.75165,898.63367,347.23193,898.095Q348.88184,895.95465,349.93628,894.9448Q352.56207,892.56177,354.4038,891.279Q354.67743,891.03546,359.18695,888.9645Q362.661,887.7509,367.19357,887.39795Q373.98798,887.87976,376.15268,888.7159Q380.39215,890.2866,385.44827,894.56885Q388.14612,897.13275,390.5711,901.83136Q391.95245,905.3692,392.39154,907.0756Q392.8962,910.1801,392.89508,912.48706"/>
</g>
<g style="fill:rgb(223,31,47); fill-opacity:1.0; stroke-linejoin: miter">
<path d="M392.45636,1006.5087L392.22757,1009.909Q391.38757,1013.9964,390.94675,1015.1811L388.4289,1020.1562Q384.86218,1024.9758,383.15543,1026.0728Q378.41553,1029.5486,374.6739,1030.5239Q368.45245,1031.9573,364.40744,1031.4807Q362.08615,1031.1287,359.52936,1030.3564Q357.32175,1029.5076,354.49478,1027.98Q350.22717,1025.2212,348.04214,1022.50555Q344.96182,1018.10077,344.7188,1017.13275Q343.8442,1015.2875,343.2805,1013.3697Q342.15305,1009.5342,342.26917,1005.4087Q342.80002,1000.39856,344.29007,996.8214Q346.08813,993.11816,346.66742,992.2811Q348.2018,990.251,349.4975,988.9664Q352.5583,986.22125,354.07812,985.22394Q354.73972,984.82697,358.7482,982.9861Q361.33917,981.95184,366.75476,981.4196Q372.52518,981.7572,375.71396,982.7375Q378.9256,983.6747,385.00955,988.59045Q387.13647,990.3606,390.1324,995.85297Q391.30563,998.7969,391.95288,1001.09735Q392.39844,1003.59564,392.45636,1006.5087"/>
</g>
</g>
</svg>